<svg xmlns="http://www.w3.org/2000/svg" xmlns:xlink="http://www.w3.org/1999/xlink" width="1173.455" height="373.178" viewBox="0 0 1173.455 373.178">
  <defs>
    <clipPath id="clip-path">
      <rect id="Rectángulo_90493" data-name="Rectángulo 90493" width="333.455" height="373.178" fill="none"/>
    </clipPath>
    <clipPath id="clip-path-2">
      <rect id="Rectángulo_90483" data-name="Rectángulo 90483" width="333.455" height="373.179" fill="#a7e446"/>
    </clipPath>
    <clipPath id="clip-path-3">
      <rect id="Rectángulo_90482" data-name="Rectángulo 90482" width="232.444" height="232.444" fill="#a7e446"/>
    </clipPath>
    <clipPath id="clip-path-5">
      <path id="Trazado_262414" data-name="Trazado 262414" d="M68.384,123.753A159.592,159.592,0,1,0,181.234,77.009,159.592,159.592,0,0,0,68.384,123.753" transform="translate(-21.641 -77.009)" fill="none"/>
    </clipPath>
    <linearGradient id="linear-gradient" x1="0.067" y1="0.947" x2="0.068" y2="0.947" gradientUnits="objectBoundingBox">
      <stop offset="0" stop-color="#dedfe1"/>
      <stop offset="0.406" stop-color="#e9eaec"/>
      <stop offset="0.987" stop-color="#fafafa"/>
      <stop offset="1" stop-color="#fafafa"/>
    </linearGradient>
    <clipPath id="clip-path-6">
      <rect id="Rectángulo_90491" data-name="Rectángulo 90491" width="333.455" height="373.179" fill="none"/>
    </clipPath>
    <clipPath id="clip-path-7">
      <rect id="Rectángulo_90486" data-name="Rectángulo 90486" width="282.616" height="150.718" fill="none"/>
    </clipPath>
    <clipPath id="clip-path-8">
      <path id="Trazado_262415" data-name="Trazado 262415" d="M26.388,540.091A157.74,157.74,0,0,0,298.905,641.107,37.462,37.462,0,0,0,309,615.43V540.091Z" transform="translate(-26.388 -540.091)" fill="none"/>
    </clipPath>
    <linearGradient id="linear-gradient-2" x1="-0.104" y1="0.836" x2="-0.103" y2="0.836" gradientUnits="objectBoundingBox">
      <stop offset="0"/>
      <stop offset="0.989" stop-color="#8c8c8c"/>
      <stop offset="1" stop-color="#8c8c8c"/>
    </linearGradient>
    <clipPath id="clip-path-10">
      <path id="Trazado_262416" data-name="Trazado 262416" d="M26.388,241.029A157.74,157.74,0,0,1,298.905,140.013,37.461,37.461,0,0,1,309,165.69v75.338Z" transform="translate(-26.388 -90.311)" fill="none"/>
    </clipPath>
    <linearGradient id="linear-gradient-3" x1="-0.111" y1="1.334" x2="-0.109" y2="1.334" xlink:href="#linear-gradient-2"/>
    <clipPath id="clip-path-11">
      <rect id="Rectángulo_90490" data-name="Rectángulo 90490" width="163.061" height="163.062" fill="none"/>
    </clipPath>
    <clipPath id="clip-path-13">
      <path id="Trazado_262418" data-name="Trazado 262418" d="M150.469,123.569a146.876,146.876,0,1,0,55.085-10.721,145.44,145.44,0,0,0-55.085,10.721" transform="translate(-59.161 -112.848)" fill="#f5faec"/>
    </clipPath>
  </defs>
  <g id="Grupo_161292" data-name="Grupo 161292" transform="translate(-213 -3799)">
    <g id="Grupo_149607" data-name="Grupo 149607" transform="translate(213 3799)">
      <g id="Grupo_149605" data-name="Grupo 149605" clip-path="url(#clip-path)">
        <g id="Grupo_149582" data-name="Grupo 149582" transform="translate(0 -0.001)">
          <g id="Grupo_149581" data-name="Grupo 149581" clip-path="url(#clip-path-2)">
            <path id="Trazado_262410" data-name="Trazado 262410" d="M231.457,715.477A186.007,186.007,0,0,0,363.4,660.827L231.629,529.059,99.692,661a186,186,0,0,0,131.765,54.482" transform="translate(-64.5 -342.298)" fill="#a7e446"/>
            <path id="Trazado_262411" data-name="Trazado 262411" d="M99.692,54.479,231.629,186.416,363.4,54.649a186.585,186.585,0,0,0-263.7-.169" transform="translate(-64.5 0.002)" fill="#a7e446"/>
            <path id="Trazado_262412" data-name="Trazado 262412" d="M284.622,105.63a166.728,166.728,0,1,1-235.789,0,166.728,166.728,0,0,1,235.789,0" transform="translate(0 -36.746)" fill="#a7e446"/>
            <g id="Grupo_149580" data-name="Grupo 149580" transform="translate(79.463 68.627)" style="mix-blend-mode: multiply;isolation: isolate">
              <g id="Grupo_149579" data-name="Grupo 149579">
                <g id="Grupo_149578" data-name="Grupo 149578" clip-path="url(#clip-path-3)">
                  <g id="Grupo_149577" data-name="Grupo 149577">
                    <g id="Grupo_149576" data-name="Grupo 149576">
                      <g id="Grupo_149575" data-name="Grupo 149575" clip-path="url(#clip-path-3)">
                        <path id="Trazado_262413" data-name="Trazado 262413" d="M423.734,228.221c45.262,45.262,45.059,118.849-.454,164.362s-119.1,45.716-164.362.454-45.059-118.849.454-164.362,119.1-45.716,164.362-.454" transform="translate(-225.105 -194.407)" fill="#a7e446"/>
                      </g>
                    </g>
                  </g>
                </g>
              </g>
            </g>
          </g>
        </g>
        <g id="Grupo_149584" data-name="Grupo 149584" transform="translate(7.639 27.184)">
          <g id="Grupo_149583" data-name="Grupo 149583" clip-path="url(#clip-path-5)">
            <rect id="Rectángulo_90484" data-name="Rectángulo 90484" width="386.656" height="399.534" transform="translate(-68.613 326.143) rotate(-80.764)" fill="url(#linear-gradient)"/>
          </g>
        </g>
        <g id="Grupo_149602" data-name="Grupo 149602" transform="translate(0 -0.001)">
          <g id="Grupo_149601" data-name="Grupo 149601" clip-path="url(#clip-path-6)">
            <g id="Grupo_149589" data-name="Grupo 149589" transform="translate(9.315 190.655)" style="mix-blend-mode: screen;isolation: isolate">
              <g id="Grupo_149588" data-name="Grupo 149588">
                <g id="Grupo_149587" data-name="Grupo 149587" clip-path="url(#clip-path-7)">
                  <g id="Grupo_149586" data-name="Grupo 149586">
                    <g id="Grupo_149585" data-name="Grupo 149585" clip-path="url(#clip-path-8)">
                      <rect id="Rectángulo_90485" data-name="Rectángulo 90485" width="249.215" height="319.047" transform="matrix(0.391, -0.92, 0.92, 0.391, -54.236, 127.679)" fill="url(#linear-gradient-2)"/>
                    </g>
                  </g>
                </g>
              </g>
            </g>
            <g id="Grupo_149594" data-name="Grupo 149594" transform="translate(9.315 31.881)" style="mix-blend-mode: screen;isolation: isolate">
              <g id="Grupo_149593" data-name="Grupo 149593">
                <g id="Grupo_149592" data-name="Grupo 149592" clip-path="url(#clip-path-7)">
                  <g id="Grupo_149591" data-name="Grupo 149591" transform="translate(0 0)">
                    <g id="Grupo_149590" data-name="Grupo 149590" clip-path="url(#clip-path-10)">
                      <rect id="Rectángulo_90487" data-name="Rectángulo 90487" width="246.567" height="318.651" transform="translate(-52.851 129.078) rotate(-67.733)" fill="url(#linear-gradient-3)"/>
                    </g>
                  </g>
                </g>
              </g>
            </g>
            <g id="Grupo_149600" data-name="Grupo 149600" transform="translate(126.141 111.315)" opacity="0.15" style="mix-blend-mode: multiply;isolation: isolate">
              <g id="Grupo_149599" data-name="Grupo 149599">
                <g id="Grupo_149598" data-name="Grupo 149598" clip-path="url(#clip-path-11)">
                  <g id="Grupo_149597" data-name="Grupo 149597">
                    <g id="Grupo_149596" data-name="Grupo 149596">
                      <g id="Grupo_149595" data-name="Grupo 149595" clip-path="url(#clip-path-11)">
                        <path id="Trazado_262417" data-name="Trazado 262417" d="M438.866,478.4a81.291,81.291,0,1,1,31.737-6.409,81.032,81.032,0,0,1-31.737,6.409" transform="translate(-357.335 -315.336)" fill="#262626"/>
                      </g>
                    </g>
                  </g>
                </g>
              </g>
            </g>
          </g>
        </g>
        <g id="Grupo_149604" data-name="Grupo 149604" transform="translate(20.884 39.836)">
          <g id="Grupo_149603" data-name="Grupo 149603" clip-path="url(#clip-path-13)">
            <rect id="Rectángulo_90492" data-name="Rectángulo 90492" width="390.044" height="390.044" transform="translate(-113.413 238.957) rotate(-64.61)" fill="#f5faec"/>
          </g>
        </g>
      </g>
    </g>
    <path id="Trazado_264163" data-name="Trazado 264163" d="M-85.5-7.395h-6.75v4.57h7.922V0H-95.766V-17.062h11.414v2.848h-7.9v4.066h6.75Zm6.6-5.285V.691a4.536,4.536,0,0,1-1.113,3.264,4.231,4.231,0,0,1-3.211,1.166,6.886,6.886,0,0,1-1.676-.2V2.238a6.357,6.357,0,0,0,1.066.105q1.535,0,1.535-1.629V-12.68Zm-3.668-3.281a1.668,1.668,0,0,1,.51-1.254,1.915,1.915,0,0,1,1.389-.492,1.915,1.915,0,0,1,1.389.492,1.668,1.668,0,0,1,.51,1.254,1.663,1.663,0,0,1-.521,1.266,1.924,1.924,0,0,1-1.377.492,1.924,1.924,0,0,1-1.377-.492A1.663,1.663,0,0,1-82.57-15.961ZM-70.418.234a6.225,6.225,0,0,1-4.541-1.711,6.082,6.082,0,0,1-1.752-4.559v-.328a7.66,7.66,0,0,1,.738-3.416,5.418,5.418,0,0,1,2.092-2.32,5.871,5.871,0,0,1,3.088-.814,5.262,5.262,0,0,1,4.1,1.641A6.667,6.667,0,0,1-65.2-6.621v1.383h-8.074a3.146,3.146,0,0,0,.99,1.992A2.993,2.993,0,0,0-70.2-2.5a3.656,3.656,0,0,0,3.059-1.418l1.664,1.863A5.084,5.084,0,0,1-67.535-.369,6.767,6.767,0,0,1-70.418.234ZM-70.8-10.184a2.116,2.116,0,0,0-1.635.683,3.535,3.535,0,0,0-.8,1.954h4.711v-.271a2.521,2.521,0,0,0-.609-1.748A2.183,2.183,0,0,0-70.8-10.184Zm10.7-2.5L-60-11.262a4.456,4.456,0,0,1,3.645-1.652,3.382,3.382,0,0,1,3.363,1.934,4.354,4.354,0,0,1,3.809-1.934,3.782,3.782,0,0,1,3.07,1.2A5.521,5.521,0,0,1-45.105-8.1V0h-3.4V-8.086a2.414,2.414,0,0,0-.422-1.576,1.87,1.87,0,0,0-1.488-.5,2.114,2.114,0,0,0-2.109,1.453L-52.512,0H-55.9V-8.074a2.385,2.385,0,0,0-.434-1.594,1.888,1.888,0,0,0-1.477-.492,2.195,2.195,0,0,0-2.086,1.2V0h-3.387V-12.68ZM-31.09-6.223a7.6,7.6,0,0,1-1.33,4.693A4.264,4.264,0,0,1-36.012.234,3.95,3.95,0,0,1-39.117-1.1V4.875H-42.5V-12.68h3.141l.117,1.242a3.98,3.98,0,0,1,3.211-1.477,4.294,4.294,0,0,1,3.645,1.734A7.811,7.811,0,0,1-31.09-6.4Zm-3.387-.246A4.99,4.99,0,0,0-35.1-9.2a2.042,2.042,0,0,0-1.822-.961,2.218,2.218,0,0,0-2.191,1.219V-3.75A2.255,2.255,0,0,0-36.9-2.5Q-34.477-2.5-34.477-6.469ZM-25.418,0h-3.4V-18h3.4Zm2.262-6.457A7.52,7.52,0,0,1-22.43-9.82a5.319,5.319,0,0,1,2.092-2.285,6.1,6.1,0,0,1,3.17-.809,5.774,5.774,0,0,1,4.189,1.57,6.3,6.3,0,0,1,1.811,4.266l.023.867a6.627,6.627,0,0,1-1.629,4.682A5.662,5.662,0,0,1-17.145.234a5.69,5.69,0,0,1-4.377-1.758A6.744,6.744,0,0,1-23.156-6.3Zm3.387.24a4.74,4.74,0,0,0,.68,2.764,2.242,2.242,0,0,0,1.945.957,2.247,2.247,0,0,0,1.922-.945,5.186,5.186,0,0,0,.691-3.022,4.692,4.692,0,0,0-.691-2.746,2.248,2.248,0,0,0-1.945-.974,2.211,2.211,0,0,0-1.922.968A5.274,5.274,0,0,0-19.77-6.217Zm16.16-.217a7.641,7.641,0,0,1,1.33-4.723,4.316,4.316,0,0,1,3.639-1.758,3.884,3.884,0,0,1,3.059,1.383V-18h3.4V0H4.758L4.594-1.348A3.985,3.985,0,0,1,1.336.234,4.3,4.3,0,0,1-2.256-1.529,7.887,7.887,0,0,1-3.609-6.434Zm3.387.252A5.005,5.005,0,0,0,.4-3.447,2.023,2.023,0,0,0,2.2-2.5,2.266,2.266,0,0,0,4.418-3.822V-8.834A2.234,2.234,0,0,0,2.227-10.16Q-.223-10.16-.223-6.181ZM16.277.234a6.225,6.225,0,0,1-4.541-1.711A6.082,6.082,0,0,1,9.984-6.035v-.328a7.66,7.66,0,0,1,.738-3.416,5.418,5.418,0,0,1,2.092-2.32,5.871,5.871,0,0,1,3.088-.814A5.262,5.262,0,0,1,20-11.273a6.667,6.667,0,0,1,1.494,4.652v1.383H13.418a3.146,3.146,0,0,0,.99,1.992A2.993,2.993,0,0,0,16.5-2.5a3.656,3.656,0,0,0,3.059-1.418l1.664,1.863A5.084,5.084,0,0,1,19.16-.369,6.767,6.767,0,0,1,16.277.234Zm-.387-10.418a2.116,2.116,0,0,0-1.635.683,3.535,3.535,0,0,0-.8,1.954h4.711v-.271a2.521,2.521,0,0,0-.609-1.748A2.183,2.183,0,0,0,15.891-10.184ZM30.316,0V-10.2H28.43V-12.68h1.887v-1.078a4.377,4.377,0,0,1,1.225-3.311,4.743,4.743,0,0,1,3.428-1.178,7.917,7.917,0,0,1,1.723.234l-.035,2.625a4.318,4.318,0,0,0-1.031-.105q-1.91,0-1.91,1.793v1.02h2.52V-10.2h-2.52V0Zm7.148-6.457a7.52,7.52,0,0,1,.727-3.363,5.319,5.319,0,0,1,2.092-2.285,6.1,6.1,0,0,1,3.17-.809,5.774,5.774,0,0,1,4.189,1.57,6.3,6.3,0,0,1,1.811,4.266l.023.867a6.627,6.627,0,0,1-1.629,4.682A5.662,5.662,0,0,1,43.477.234,5.69,5.69,0,0,1,39.1-1.523,6.744,6.744,0,0,1,37.465-6.3Zm3.387.24a4.74,4.74,0,0,0,.68,2.764,2.242,2.242,0,0,0,1.945.957A2.247,2.247,0,0,0,45.4-3.441a5.186,5.186,0,0,0,.691-3.022A4.692,4.692,0,0,0,45.4-9.209a2.248,2.248,0,0,0-1.945-.974,2.211,2.211,0,0,0-1.922.968A5.274,5.274,0,0,0,40.852-6.217ZM55.137,0h-3.4V-18h3.4ZM61.5,0H58.1V-18h3.4Zm8.625.234a6.225,6.225,0,0,1-4.541-1.711,6.082,6.082,0,0,1-1.752-4.559v-.328a7.66,7.66,0,0,1,.738-3.416,5.418,5.418,0,0,1,2.092-2.32,5.871,5.871,0,0,1,3.088-.814,5.262,5.262,0,0,1,4.1,1.641A6.667,6.667,0,0,1,75.34-6.621v1.383H67.266a3.146,3.146,0,0,0,.99,1.992,2.993,2.993,0,0,0,2.092.75,3.656,3.656,0,0,0,3.059-1.418L75.07-2.051A5.084,5.084,0,0,1,73.008-.369,6.767,6.767,0,0,1,70.125.234Zm-.387-10.418A2.116,2.116,0,0,0,68.1-9.5a3.535,3.535,0,0,0-.8,1.954h4.711v-.271A2.521,2.521,0,0,0,71.4-9.566,2.183,2.183,0,0,0,69.738-10.184ZM81.316-15.8v3.117h2.168V-10.2H81.316v6.328a1.511,1.511,0,0,0,.27,1.008,1.354,1.354,0,0,0,1.031.3,5.4,5.4,0,0,0,1-.082V-.07a6.972,6.972,0,0,1-2.051.3q-3.562,0-3.633-3.6V-10.2H76.078V-12.68H77.93V-15.8Zm3.176,9.34a7.52,7.52,0,0,1,.727-3.363,5.319,5.319,0,0,1,2.092-2.285,6.1,6.1,0,0,1,3.17-.809,5.774,5.774,0,0,1,4.189,1.57A6.3,6.3,0,0,1,96.48-7.078l.023.867a6.627,6.627,0,0,1-1.629,4.682A5.662,5.662,0,0,1,90.5.234a5.69,5.69,0,0,1-4.377-1.758A6.744,6.744,0,0,1,84.492-6.3Zm3.387.24a4.74,4.74,0,0,0,.68,2.764A2.242,2.242,0,0,0,90.5-2.5a2.247,2.247,0,0,0,1.922-.945,5.186,5.186,0,0,0,.691-3.022,4.692,4.692,0,0,0-.691-2.746,2.248,2.248,0,0,0-1.945-.974,2.211,2.211,0,0,0-1.922.968A5.274,5.274,0,0,0,87.879-6.217ZM-36.311,17.566a7.641,7.641,0,0,1,1.33-4.723,4.316,4.316,0,0,1,3.639-1.758,3.884,3.884,0,0,1,3.059,1.383V6h3.4V24h-3.059l-.164-1.348a3.985,3.985,0,0,1-3.258,1.582,4.3,4.3,0,0,1-3.592-1.764A7.887,7.887,0,0,1-36.311,17.566Zm3.387.252a5.005,5.005,0,0,0,.621,2.735,2.023,2.023,0,0,0,1.8.951,2.266,2.266,0,0,0,2.215-1.326V15.166a2.234,2.234,0,0,0-2.191-1.326Q-32.924,13.84-32.924,17.819ZM-18.6,24H-21.99V11.32H-18.6Zm-1-17.824h3.691l-3.246,3.633h-2.754Zm15.328,11.6A7.6,7.6,0,0,1-5.6,22.471a4.264,4.264,0,0,1-3.592,1.764A3.95,3.95,0,0,1-12.3,22.9v5.977h-3.387V11.32h3.141l.117,1.242a3.98,3.98,0,0,1,3.211-1.477A4.294,4.294,0,0,1-5.572,12.82a7.811,7.811,0,0,1,1.3,4.781Zm-3.387-.246a4.99,4.99,0,0,0-.627-2.73,2.042,2.042,0,0,0-1.822-.961A2.218,2.218,0,0,0-12.3,15.059V20.25A2.255,2.255,0,0,0-10.084,21.5Q-7.658,21.5-7.658,17.531ZM1.881,8.2V11.32H4.049V13.8H1.881v6.328a1.511,1.511,0,0,0,.27,1.008,1.354,1.354,0,0,0,1.031.3,5.4,5.4,0,0,0,1-.082V23.93a6.972,6.972,0,0,1-2.051.3q-3.562,0-3.633-3.6V13.8H-3.357V11.32h1.852V8.2ZM9.51,24h-3.4V11.32h3.4ZM5.912,8.039a1.668,1.668,0,0,1,.51-1.254,1.915,1.915,0,0,1,1.389-.492,1.919,1.919,0,0,1,1.383.492,1.658,1.658,0,0,1,.516,1.254A1.663,1.663,0,0,1,9.188,9.3,1.924,1.924,0,0,1,7.811,9.8,1.924,1.924,0,0,1,6.434,9.3,1.663,1.663,0,0,1,5.912,8.039ZM17.572,21.5a2.221,2.221,0,0,0,1.523-.516,1.807,1.807,0,0,0,.609-1.371h3.176a4.344,4.344,0,0,1-.7,2.361,4.64,4.64,0,0,1-1.893,1.664,5.923,5.923,0,0,1-2.654.592,5.5,5.5,0,0,1-4.289-1.729,6.84,6.84,0,0,1-1.57-4.775v-.223a6.762,6.762,0,0,1,1.559-4.676,5.441,5.441,0,0,1,4.277-1.746,5.333,5.333,0,0,1,3.814,1.354,4.792,4.792,0,0,1,1.459,3.6H19.705a2.327,2.327,0,0,0-.609-1.608,2.032,2.032,0,0,0-1.547-.619,2.04,2.04,0,0,0-1.787.863,5,5,0,0,0-.6,2.8v.352a5.063,5.063,0,0,0,.6,2.817A2.065,2.065,0,0,0,17.572,21.5Zm6.715-3.961a7.52,7.52,0,0,1,.727-3.363,5.319,5.319,0,0,1,2.092-2.285,6.1,6.1,0,0,1,3.17-.809,5.774,5.774,0,0,1,4.189,1.57,6.3,6.3,0,0,1,1.811,4.266l.023.867a6.627,6.627,0,0,1-1.629,4.682A5.662,5.662,0,0,1,30.3,24.234a5.69,5.69,0,0,1-4.377-1.758A6.744,6.744,0,0,1,24.287,17.7Zm3.387.24a4.74,4.74,0,0,0,.68,2.764,2.442,2.442,0,0,0,3.867.012,5.186,5.186,0,0,0,.691-3.022,4.692,4.692,0,0,0-.691-2.746,2.248,2.248,0,0,0-1.945-.974,2.211,2.211,0,0,0-1.922.968A5.274,5.274,0,0,0,27.674,17.783Z" transform="translate(380 4069.526)" fill="#12263f"/>
    <g id="volantes" transform="translate(323 3879.527)">
      <path id="Trazado_262419" data-name="Trazado 262419" d="M15,8H95.613V136.032H15Z" transform="translate(1.371 9.597)" fill="#f5b95b"/>
      <path id="Trazado_262420" data-name="Trazado 262420" d="M90.871,2,15,16.226H90.871Z" transform="translate(1.371 1.371)" fill="#f5b95b"/>
      <path id="Trazado_262421" data-name="Trazado 262421" d="M95.613,8H15V43.564c0,51.068,31.844,92.467,71.129,92.467h9.484Z" transform="translate(1.371 9.597)" fill="#f9d18f"/>
      <circle id="Elipse_5706" data-name="Elipse 5706" cx="30.489" cy="30.489" r="30.489" transform="translate(25.978 36.933)" fill="#c7e2fb"/>
      <path id="Trazado_262422" data-name="Trazado 262422" d="M45.71,16a30.673,30.673,0,0,0-20.3,7.665A34.356,34.356,0,0,0,63.146,72.23,30.822,30.822,0,0,0,45.71,16Z" transform="translate(10.968 20.565)" fill="#ebf7fe"/>
      <circle id="Elipse_5707" data-name="Elipse 5707" cx="4.9" cy="4.9" r="4.9" transform="translate(52.111 53.266)" fill="#f5b95b"/>
      <path id="Trazado_262423" data-name="Trazado 262423" d="M75.347,40.484H69.963a33.317,33.317,0,0,1-18.493-5.6,23.15,23.15,0,0,0-29.21,2.89l-1.944,1.947a30.785,30.785,0,0,0,55.032.759Z" transform="translate(8.658 41.129)" fill="#669e54"/>
      <path id="Trazado_262424" data-name="Trazado 262424" d="M50.99,40.478h5.368a30.866,30.866,0,0,0,1.84-4.268l-3.867-2.577a15.665,15.665,0,0,0-17.374,0l-2.8,2.269A33.3,33.3,0,0,0,50.99,40.478Z" transform="translate(27.63 41.135)" fill="#669e54"/>
      <path id="Trazado_262425" data-name="Trazado 262425" d="M33.371,23a4.8,4.8,0,0,0-1.036.121A5.259,5.259,0,0,0,31,26.556a6.029,6.029,0,0,0,4.374,5.47,4.742,4.742,0,0,0-2-9.026Z" transform="translate(23.306 30.162)" fill="#f9d18f"/>
      <path id="Trazado_262426" data-name="Trazado 262426" d="M46.99,34.888a23.086,23.086,0,0,0-23.4-1.323,34.327,34.327,0,0,0,37.343,18.1,31,31,0,0,0,9.922-11.186H65.472a33.317,33.317,0,0,1-18.482-5.6Z" transform="translate(13.149 41.129)" fill="#78b761"/>
      <path id="Trazado_262427" data-name="Trazado 262427" d="M96.984,15.226H94.613V3.371A2.371,2.371,0,0,0,91.8,1.041L15.932,15.266A2.371,2.371,0,0,0,14,17.6V145.629A2.371,2.371,0,0,0,16.371,148H96.984a2.371,2.371,0,0,0,2.371-2.371V17.6A2.371,2.371,0,0,0,96.984,15.226Zm-7.113-9v9H41.883Zm4.742,137.03H18.742V19.968H94.613Z" transform="translate(0)"/>
      <path id="Trazado_262428" data-name="Trazado 262428" d="M36.113,36.226A7.113,7.113,0,1,0,29,29.113,7.113,7.113,0,0,0,36.113,36.226Zm0-9.484a2.371,2.371,0,1,1-2.371,2.371A2.371,2.371,0,0,1,36.113,26.742Z" transform="translate(20.564 28.791)"/>
      <path id="Trazado_262429" data-name="Trazado 262429" d="M51.193,81.387A33.193,33.193,0,1,0,18,48.193,33.193,33.193,0,0,0,51.193,81.387Zm0-4.742A28.451,28.451,0,0,1,26.4,62.111l.711-.711A20.777,20.777,0,0,1,53.33,58.806,35.6,35.6,0,0,0,73.137,64.79h1.119A28.406,28.406,0,0,1,51.193,76.645ZM60.658,57.4a13.5,13.5,0,0,1,14.5.133l2.309,1.541c-.138.33-.3.645-.446.97H73.137A30.837,30.837,0,0,1,60.658,57.4ZM51.193,19.742A28.383,28.383,0,0,1,78.95,54.358l-1.157-.773a18.323,18.323,0,0,0-20.006,0l-1.852,1.247a25.466,25.466,0,0,0-31.593,2.691A28.38,28.38,0,0,1,51.193,19.742Z" transform="translate(5.484 19.194)"/>
      <path id="Trazado_262430" data-name="Trazado 262430" d="M18,45H84.387v4.742H18Z" transform="translate(5.484 60.323)"/>
      <path id="Trazado_262431" data-name="Trazado 262431" d="M18,49H74.9v4.742H18Z" transform="translate(5.484 65.807)"/>
      <path id="Trazado_262432" data-name="Trazado 262432" d="M44,49h4.742v4.742H44Z" transform="translate(41.129 65.807)"/>
    </g>
    <g id="Grupo_156211" data-name="Grupo 156211" transform="translate(1053 3799)">
      <g id="Grupo_149605-2" data-name="Grupo 149605" clip-path="url(#clip-path)">
        <g id="Grupo_149582-2" data-name="Grupo 149582" transform="translate(0 -0.001)">
          <g id="Grupo_149581-2" data-name="Grupo 149581" clip-path="url(#clip-path-2)">
            <path id="Trazado_262410-2" data-name="Trazado 262410" d="M231.457,715.477A186.007,186.007,0,0,0,363.4,660.827L231.629,529.059,99.692,661a186,186,0,0,0,131.765,54.482" transform="translate(-64.5 -342.298)" fill="#a7e446"/>
            <path id="Trazado_262411-2" data-name="Trazado 262411" d="M99.692,54.479,231.629,186.416,363.4,54.649a186.585,186.585,0,0,0-263.7-.169" transform="translate(-64.5 0.002)" fill="#a7e446"/>
            <path id="Trazado_262412-2" data-name="Trazado 262412" d="M284.622,105.63a166.728,166.728,0,1,1-235.789,0,166.728,166.728,0,0,1,235.789,0" transform="translate(0 -36.746)" fill="#a7e446"/>
            <g id="Grupo_149580-2" data-name="Grupo 149580" transform="translate(79.463 68.627)" style="mix-blend-mode: multiply;isolation: isolate">
              <g id="Grupo_149579-2" data-name="Grupo 149579">
                <g id="Grupo_149578-2" data-name="Grupo 149578" clip-path="url(#clip-path-3)">
                  <g id="Grupo_149577-2" data-name="Grupo 149577">
                    <g id="Grupo_149576-2" data-name="Grupo 149576">
                      <g id="Grupo_149575-2" data-name="Grupo 149575" clip-path="url(#clip-path-3)">
                        <path id="Trazado_262413-2" data-name="Trazado 262413" d="M423.734,228.221c45.262,45.262,45.059,118.849-.454,164.362s-119.1,45.716-164.362.454-45.059-118.849.454-164.362,119.1-45.716,164.362-.454" transform="translate(-225.105 -194.407)" fill="#a7e446"/>
                      </g>
                    </g>
                  </g>
                </g>
              </g>
            </g>
          </g>
        </g>
        <g id="Grupo_149584-2" data-name="Grupo 149584" transform="translate(7.639 27.184)">
          <g id="Grupo_149583-2" data-name="Grupo 149583" clip-path="url(#clip-path-5)">
            <rect id="Rectángulo_90484-2" data-name="Rectángulo 90484" width="386.656" height="399.534" transform="translate(-68.613 326.143) rotate(-80.764)" fill="url(#linear-gradient)"/>
          </g>
        </g>
        <g id="Grupo_149602-2" data-name="Grupo 149602" transform="translate(0 -0.001)">
          <g id="Grupo_149601-2" data-name="Grupo 149601" clip-path="url(#clip-path-6)">
            <g id="Grupo_149589-2" data-name="Grupo 149589" transform="translate(9.315 190.655)" style="mix-blend-mode: screen;isolation: isolate">
              <g id="Grupo_149588-2" data-name="Grupo 149588">
                <g id="Grupo_149587-2" data-name="Grupo 149587" clip-path="url(#clip-path-7)">
                  <g id="Grupo_149586-2" data-name="Grupo 149586">
                    <g id="Grupo_149585-2" data-name="Grupo 149585" clip-path="url(#clip-path-8)">
                      <rect id="Rectángulo_90485-2" data-name="Rectángulo 90485" width="249.215" height="319.047" transform="matrix(0.391, -0.92, 0.92, 0.391, -54.236, 127.679)" fill="url(#linear-gradient-2)"/>
                    </g>
                  </g>
                </g>
              </g>
            </g>
            <g id="Grupo_149594-2" data-name="Grupo 149594" transform="translate(9.315 31.881)" style="mix-blend-mode: screen;isolation: isolate">
              <g id="Grupo_149593-2" data-name="Grupo 149593">
                <g id="Grupo_149592-2" data-name="Grupo 149592" clip-path="url(#clip-path-7)">
                  <g id="Grupo_149591-2" data-name="Grupo 149591" transform="translate(0 0)">
                    <g id="Grupo_149590-2" data-name="Grupo 149590" clip-path="url(#clip-path-10)">
                      <rect id="Rectángulo_90487-2" data-name="Rectángulo 90487" width="246.567" height="318.651" transform="translate(-52.851 129.078) rotate(-67.733)" fill="url(#linear-gradient-3)"/>
                    </g>
                  </g>
                </g>
              </g>
            </g>
            <g id="Grupo_149600-2" data-name="Grupo 149600" transform="translate(126.141 111.315)" opacity="0.15" style="mix-blend-mode: multiply;isolation: isolate">
              <g id="Grupo_149599-2" data-name="Grupo 149599">
                <g id="Grupo_149598-2" data-name="Grupo 149598" clip-path="url(#clip-path-11)">
                  <g id="Grupo_149597-2" data-name="Grupo 149597">
                    <g id="Grupo_149596-2" data-name="Grupo 149596">
                      <g id="Grupo_149595-2" data-name="Grupo 149595" clip-path="url(#clip-path-11)">
                        <path id="Trazado_262417-2" data-name="Trazado 262417" d="M438.866,478.4a81.291,81.291,0,1,1,31.737-6.409,81.032,81.032,0,0,1-31.737,6.409" transform="translate(-357.335 -315.336)" fill="#262626"/>
                      </g>
                    </g>
                  </g>
                </g>
              </g>
            </g>
          </g>
        </g>
        <g id="Grupo_149604-2" data-name="Grupo 149604" transform="translate(20.884 39.836)">
          <g id="Grupo_149603-2" data-name="Grupo 149603" clip-path="url(#clip-path-13)">
            <rect id="Rectángulo_90492-2" data-name="Rectángulo 90492" width="390.044" height="390.044" transform="translate(-113.413 238.957) rotate(-64.61)" fill="#f5faec"/>
          </g>
        </g>
      </g>
    </g>
    <path id="Trazado_264161" data-name="Trazado 264161" d="M-77.525-7.395h-6.75v4.57h7.922V0H-87.791V-17.062h11.414v2.848h-7.9v4.066h6.75Zm6.6-5.285V.691a4.536,4.536,0,0,1-1.113,3.264,4.231,4.231,0,0,1-3.211,1.166,6.886,6.886,0,0,1-1.676-.2V2.238a6.357,6.357,0,0,0,1.066.105q1.535,0,1.535-1.629V-12.68ZM-74.6-15.961a1.668,1.668,0,0,1,.51-1.254,1.915,1.915,0,0,1,1.389-.492,1.915,1.915,0,0,1,1.389.492,1.668,1.668,0,0,1,.51,1.254A1.663,1.663,0,0,1-71.32-14.7,1.924,1.924,0,0,1-72.7-14.2a1.924,1.924,0,0,1-1.377-.492A1.663,1.663,0,0,1-74.6-15.961ZM-62.443.234a6.225,6.225,0,0,1-4.541-1.711,6.082,6.082,0,0,1-1.752-4.559v-.328A7.66,7.66,0,0,1-68-9.779a5.418,5.418,0,0,1,2.092-2.32,5.871,5.871,0,0,1,3.088-.814,5.262,5.262,0,0,1,4.1,1.641,6.667,6.667,0,0,1,1.494,4.652v1.383H-65.3a3.146,3.146,0,0,0,.99,1.992,2.993,2.993,0,0,0,2.092.75,3.656,3.656,0,0,0,3.059-1.418L-57.5-2.051A5.084,5.084,0,0,1-59.561-.369,6.767,6.767,0,0,1-62.443.234Zm-.387-10.418a2.116,2.116,0,0,0-1.635.683,3.535,3.535,0,0,0-.8,1.954h4.711v-.271a2.521,2.521,0,0,0-.609-1.748A2.183,2.183,0,0,0-62.83-10.184Zm10.7-2.5.105,1.418a4.456,4.456,0,0,1,3.645-1.652,3.382,3.382,0,0,1,3.363,1.934,4.354,4.354,0,0,1,3.809-1.934,3.782,3.782,0,0,1,3.07,1.2A5.521,5.521,0,0,1-37.131-8.1V0h-3.4V-8.086a2.414,2.414,0,0,0-.422-1.576,1.87,1.87,0,0,0-1.488-.5,2.114,2.114,0,0,0-2.109,1.453L-44.537,0h-3.387V-8.074a2.385,2.385,0,0,0-.434-1.594,1.888,1.888,0,0,0-1.477-.492,2.195,2.195,0,0,0-2.086,1.2V0h-3.387V-12.68Zm29.016,6.457a7.6,7.6,0,0,1-1.33,4.693A4.264,4.264,0,0,1-28.037.234,3.95,3.95,0,0,1-31.143-1.1V4.875h-3.387V-12.68h3.141l.117,1.242a3.98,3.98,0,0,1,3.211-1.477,4.294,4.294,0,0,1,3.645,1.734,7.811,7.811,0,0,1,1.3,4.781ZM-26.5-6.469a4.99,4.99,0,0,0-.627-2.73,2.042,2.042,0,0,0-1.822-.961,2.218,2.218,0,0,0-2.191,1.219V-3.75A2.255,2.255,0,0,0-28.928-2.5Q-26.5-2.5-26.5-6.469ZM-17.443,0h-3.4V-18h3.4Zm2.262-6.457a7.52,7.52,0,0,1,.727-3.363,5.319,5.319,0,0,1,2.092-2.285,6.1,6.1,0,0,1,3.17-.809A5.774,5.774,0,0,1-5-11.344,6.3,6.3,0,0,1-3.193-7.078l.023.867A6.627,6.627,0,0,1-4.8-1.529,5.662,5.662,0,0,1-9.17.234a5.69,5.69,0,0,1-4.377-1.758A6.744,6.744,0,0,1-15.182-6.3Zm3.387.24a4.74,4.74,0,0,0,.68,2.764A2.242,2.242,0,0,0-9.17-2.5a2.247,2.247,0,0,0,1.922-.945,5.186,5.186,0,0,0,.691-3.022,4.692,4.692,0,0,0-.691-2.746,2.248,2.248,0,0,0-1.945-.974,2.211,2.211,0,0,0-1.922.968A5.274,5.274,0,0,0-11.795-6.217ZM8.068-12.68l.105,1.418a4.456,4.456,0,0,1,3.645-1.652,3.382,3.382,0,0,1,3.363,1.934,4.354,4.354,0,0,1,3.809-1.934,3.782,3.782,0,0,1,3.07,1.2A5.521,5.521,0,0,1,23.068-8.1V0h-3.4V-8.086a2.414,2.414,0,0,0-.422-1.576,1.87,1.87,0,0,0-1.488-.5A2.114,2.114,0,0,0,15.65-8.707L15.662,0H12.275V-8.074a2.385,2.385,0,0,0-.434-1.594,1.888,1.888,0,0,0-1.477-.492,2.195,2.195,0,0,0-2.086,1.2V0H4.893V-12.68ZM33.018,0a3.761,3.761,0,0,1-.34-1.137,4.1,4.1,0,0,1-3.2,1.371A4.5,4.5,0,0,1,26.391-.844a3.467,3.467,0,0,1-1.225-2.719A3.583,3.583,0,0,1,26.66-6.656a7.373,7.373,0,0,1,4.318-1.09h1.559v-.727a2.089,2.089,0,0,0-.451-1.406,1.775,1.775,0,0,0-1.424-.527A2.018,2.018,0,0,0,29.32-10a1.393,1.393,0,0,0-.486,1.125H25.447a3.4,3.4,0,0,1,.68-2.039,4.493,4.493,0,0,1,1.922-1.471,7,7,0,0,1,2.789-.533,5.534,5.534,0,0,1,3.721,1.178,4.12,4.12,0,0,1,1.377,3.311v5.5a6.062,6.062,0,0,0,.5,2.73V0Zm-2.8-2.355A2.917,2.917,0,0,0,31.6-2.689a2.194,2.194,0,0,0,.938-.9v-2.18H31.271q-2.543,0-2.707,1.758l-.012.2A1.356,1.356,0,0,0,29-2.766,1.73,1.73,0,0,0,30.217-2.355ZM41.654-12.68l.105,1.465a4.427,4.427,0,0,1,3.645-1.7,3.679,3.679,0,0,1,3,1.184,5.522,5.522,0,0,1,1.008,3.539V0H46.025V-8.109a2.2,2.2,0,0,0-.469-1.564A2.1,2.1,0,0,0,44-10.16a2.33,2.33,0,0,0-2.145,1.219V0H38.467V-12.68ZM59.572-1.289A4.247,4.247,0,0,1,56.1.234,4.005,4.005,0,0,1,52.992-.937a5,5,0,0,1-1.1-3.434V-12.68h3.387v8.2q0,1.983,1.8,1.983a2.445,2.445,0,0,0,2.367-1.2V-12.68h3.4V0H59.666ZM72.756,0a3.761,3.761,0,0,1-.34-1.137,4.1,4.1,0,0,1-3.2,1.371A4.5,4.5,0,0,1,66.129-.844,3.467,3.467,0,0,1,64.9-3.562,3.583,3.583,0,0,1,66.4-6.656a7.373,7.373,0,0,1,4.318-1.09h1.559v-.727a2.089,2.089,0,0,0-.451-1.406,1.775,1.775,0,0,0-1.424-.527,2.018,2.018,0,0,0-1.342.41,1.393,1.393,0,0,0-.486,1.125H65.186a3.4,3.4,0,0,1,.68-2.039,4.493,4.493,0,0,1,1.922-1.471,7,7,0,0,1,2.789-.533A5.534,5.534,0,0,1,74.3-11.736a4.12,4.12,0,0,1,1.377,3.311v5.5a6.062,6.062,0,0,0,.5,2.73V0Zm-2.8-2.355a2.917,2.917,0,0,0,1.383-.334,2.194,2.194,0,0,0,.938-.9v-2.18H71.01q-2.543,0-2.707,1.758l-.012.2a1.356,1.356,0,0,0,.445,1.043A1.73,1.73,0,0,0,69.955-2.355ZM81.85,0h-3.4V-18h3.4Zm-130,17.777a7.6,7.6,0,0,1-1.33,4.693,4.264,4.264,0,0,1-3.592,1.764A3.95,3.95,0,0,1-56.174,22.9v5.977h-3.387V11.32h3.141l.117,1.242a3.98,3.98,0,0,1,3.211-1.477,4.294,4.294,0,0,1,3.645,1.734,7.811,7.811,0,0,1,1.3,4.781Zm-3.387-.246a4.99,4.99,0,0,0-.627-2.73,2.042,2.042,0,0,0-1.822-.961,2.218,2.218,0,0,0-2.191,1.219V20.25A2.255,2.255,0,0,0-53.959,21.5Q-51.533,21.5-51.533,17.531Zm13.078,5.18a4.247,4.247,0,0,1-3.469,1.523,4.005,4.005,0,0,1-3.111-1.172,5,5,0,0,1-1.1-3.434V11.32h3.387v8.2q0,1.983,1.8,1.983a2.445,2.445,0,0,0,2.367-1.2V11.32h3.4V24h-3.187Zm17.262-4.934a7.678,7.678,0,0,1-1.3,4.752,4.309,4.309,0,0,1-3.633,1.705,3.959,3.959,0,0,1-3.293-1.582L-29.572,24h-3.047V6h3.387v6.457a3.857,3.857,0,0,1,3.082-1.371,4.344,4.344,0,0,1,3.639,1.705,7.689,7.689,0,0,1,1.318,4.8Zm-3.387-.246a5.044,5.044,0,0,0-.609-2.807,2.061,2.061,0,0,0-1.816-.885,2.234,2.234,0,0,0-2.227,1.324v5a2.264,2.264,0,0,0,2.25,1.336,2.091,2.091,0,0,0,2.156-1.617A8.342,8.342,0,0,0-24.58,17.531ZM-15.533,24h-3.4V6h3.4Zm6.363,0h-3.4V11.32h3.4Zm-3.6-15.961a1.668,1.668,0,0,1,.51-1.254,1.915,1.915,0,0,1,1.389-.492,1.919,1.919,0,0,1,1.383.492,1.658,1.658,0,0,1,.516,1.254A1.663,1.663,0,0,1-9.492,9.3a1.924,1.924,0,0,1-1.377.492A1.924,1.924,0,0,1-12.246,9.3,1.663,1.663,0,0,1-12.768,8.039ZM-1.107,21.5a2.221,2.221,0,0,0,1.523-.516,1.807,1.807,0,0,0,.609-1.371H4.2a4.344,4.344,0,0,1-.7,2.361,4.64,4.64,0,0,1-1.893,1.664,5.923,5.923,0,0,1-2.654.592,5.5,5.5,0,0,1-4.289-1.729,6.84,6.84,0,0,1-1.57-4.775v-.223A6.762,6.762,0,0,1-5.35,12.832a5.441,5.441,0,0,1,4.277-1.746,5.333,5.333,0,0,1,3.814,1.354,4.792,4.792,0,0,1,1.459,3.6H1.025a2.327,2.327,0,0,0-.609-1.608,2.032,2.032,0,0,0-1.547-.619,2.04,2.04,0,0,0-1.787.863,5,5,0,0,0-.6,2.8v.352a5.063,5.063,0,0,0,.6,2.817A2.065,2.065,0,0,0-1.107,21.5ZM9.709,24h-3.4V11.32h3.4ZM6.111,8.039a1.668,1.668,0,0,1,.51-1.254A1.915,1.915,0,0,1,8.01,6.293a1.919,1.919,0,0,1,1.383.492,1.658,1.658,0,0,1,.516,1.254A1.663,1.663,0,0,1,9.387,9.3,1.924,1.924,0,0,1,8.01,9.8,1.924,1.924,0,0,1,6.633,9.3,1.663,1.663,0,0,1,6.111,8.039ZM16.553,8.2V11.32h2.168V13.8H16.553v6.328a1.511,1.511,0,0,0,.27,1.008,1.354,1.354,0,0,0,1.031.3,5.4,5.4,0,0,0,1-.082V23.93a6.972,6.972,0,0,1-2.051.3q-3.562,0-3.633-3.6V13.8H11.314V11.32h1.852V8.2ZM27.955,24a3.761,3.761,0,0,1-.34-1.137,4.1,4.1,0,0,1-3.2,1.371,4.5,4.5,0,0,1-3.088-1.078A3.467,3.467,0,0,1,20.1,20.438,3.583,3.583,0,0,1,21.6,17.344a7.373,7.373,0,0,1,4.318-1.09h1.559v-.727a2.089,2.089,0,0,0-.451-1.406,1.775,1.775,0,0,0-1.424-.527,2.018,2.018,0,0,0-1.342.41,1.393,1.393,0,0,0-.486,1.125H20.385a3.4,3.4,0,0,1,.68-2.039,4.493,4.493,0,0,1,1.922-1.471,7,7,0,0,1,2.789-.533A5.534,5.534,0,0,1,29.5,12.264a4.12,4.12,0,0,1,1.377,3.311v5.5a6.062,6.062,0,0,0,.5,2.73V24Zm-2.8-2.355a2.917,2.917,0,0,0,1.383-.334,2.194,2.194,0,0,0,.938-.9v-2.18H26.209q-2.543,0-2.707,1.758l-.012.2a1.356,1.356,0,0,0,.445,1.043A1.73,1.73,0,0,0,25.154,21.645ZM40.6,14.5a9.2,9.2,0,0,0-1.219-.094,2.481,2.481,0,0,0-2.52,1.3V24H33.475V11.32h3.2l.094,1.512a3.138,3.138,0,0,1,2.824-1.746,3.549,3.549,0,0,1,1.055.152ZM45.8,24H42.4V11.32h3.4Zm-3.6-15.961a1.668,1.668,0,0,1,.51-1.254,2.2,2.2,0,0,1,2.771,0A1.658,1.658,0,0,1,46,8.039,1.663,1.663,0,0,1,45.48,9.3a2.172,2.172,0,0,1-2.754,0A1.663,1.663,0,0,1,42.205,8.039Zm5.859,9.5a7.52,7.52,0,0,1,.727-3.363,5.319,5.319,0,0,1,2.092-2.285,6.1,6.1,0,0,1,3.17-.809,5.774,5.774,0,0,1,4.189,1.57,6.3,6.3,0,0,1,1.811,4.266l.023.867a6.627,6.627,0,0,1-1.629,4.682,6.313,6.313,0,0,1-8.748.006A6.744,6.744,0,0,1,48.064,17.7Zm3.387.24a4.74,4.74,0,0,0,.68,2.764A2.442,2.442,0,0,0,56,20.559a5.186,5.186,0,0,0,.691-3.022A4.692,4.692,0,0,0,56,14.791a2.248,2.248,0,0,0-1.945-.974,2.211,2.211,0,0,0-1.922.968A5.274,5.274,0,0,0,51.451,17.783Z" transform="translate(1220 4069.526)" fill="#12263f"/>
    <g id="volantes_1_" data-name="volantes (1)" transform="translate(1155.75 3890.026)">
      <g id="Grupo_156213" data-name="Grupo 156213">
        <path id="Trazado_262433" data-name="Trazado 262433" d="M12,1.747H98.25V110.114H12Z" fill="#fff5f5"/>
        <path id="Trazado_262434" data-name="Trazado 262434" d="M98.25,17.88v92.234H29.75v16.133H116V17.88Z" fill="#efeaea"/>
        <g id="Grupo_156212" data-name="Grupo 156212">
          <path id="Trazado_262435" data-name="Trazado 262435" d="M20,58.38H90.25v8.744H20Z" fill="#635a70"/>
          <path id="Trazado_262436" data-name="Trazado 262436" d="M20,75.875H90.25v8.744H20Z" fill="#635a70"/>
          <path id="Trazado_262437" data-name="Trazado 262437" d="M20,93.37H90.25v8.744H20Z" fill="#635a70"/>
        </g>
        <path id="Trazado_262438" data-name="Trazado 262438" d="M74.534,27.738,55.125,42.37,35.716,27.738,20,44.19v6.184H90.25V44.19Z" fill="#8affc7"/>
        <path id="Trazado_262439" data-name="Trazado 262439" d="M55.125,42.37,74.534,27.738,90.25,44.19V9.7H20V44.19L35.716,27.738Z" fill="#19cffc"/>
        <circle id="Elipse_5708" data-name="Elipse 5708" cx="5.682" cy="5.682" r="5.682" transform="translate(49.443 15.931)" fill="#fff04a"/>
      </g>
      <g id="Grupo_156214" data-name="Grupo 156214">
        <path id="Trazado_262440" data-name="Trazado 262440" d="M116,16.13H100V1.747A1.751,1.751,0,0,0,98.25,0H12a1.751,1.751,0,0,0-1.75,1.75V110.114a1.75,1.75,0,0,0,1.75,1.75H28v14.383A1.751,1.751,0,0,0,29.75,128H116a1.751,1.751,0,0,0,1.75-1.75V17.88A1.751,1.751,0,0,0,116,16.13ZM13.75,3.5H96.5V108.364H13.75Zm100.5,121H31.5V111.864H98.25a1.75,1.75,0,0,0,1.75-1.75V19.63h14.25Z"/>
        <path id="Trazado_262441" data-name="Trazado 262441" d="M20,68.874H90.25A1.751,1.751,0,0,0,92,67.124V58.38a1.751,1.751,0,0,0-1.75-1.75H20a1.751,1.751,0,0,0-1.75,1.75v8.744A1.751,1.751,0,0,0,20,68.874Zm1.75-8.744H88.5v5.244H21.75Z"/>
        <path id="Trazado_262442" data-name="Trazado 262442" d="M40.125,82.869a1.75,1.75,0,0,0,0,3.5H44.75a1.75,1.75,0,1,0,0-3.5Z"/>
        <path id="Trazado_262443" data-name="Trazado 262443" d="M20,86.369h9.75a1.75,1.75,0,0,0,0-3.5h-8V77.625H88.5v5.244H55.125a1.75,1.75,0,0,0,0,3.5H90.25A1.751,1.751,0,0,0,92,84.619V75.875a1.751,1.751,0,0,0-1.75-1.75H20a1.751,1.751,0,0,0-1.75,1.75v8.744A1.751,1.751,0,0,0,20,86.369Z"/>
        <path id="Trazado_262444" data-name="Trazado 262444" d="M92,102.114V93.37a1.751,1.751,0,0,0-1.75-1.75H20a1.751,1.751,0,0,0-1.75,1.75v8.744a1.75,1.75,0,0,0,1.75,1.75H90.25a1.75,1.75,0,0,0,1.75-1.75Zm-3.5-1.75H21.75V95.12H88.5Z"/>
        <path id="Trazado_262445" data-name="Trazado 262445" d="M20,52.123H90.25A1.75,1.75,0,0,0,92,50.373V9.7a1.751,1.751,0,0,0-1.75-1.75H20A1.751,1.751,0,0,0,18.25,9.7V50.37A1.75,1.75,0,0,0,20,52.123Zm68.5-40.67V39.824l-12.7-13.3a1.751,1.751,0,0,0-2.319-.188L62.134,34.9a1.75,1.75,0,0,0,2.107,2.8l10.1-7.617L88.5,44.892v3.731H21.75V44.892L35.906,30.073,54.072,43.767a1.752,1.752,0,0,0,2.106-2.8L36.769,26.341a1.751,1.751,0,0,0-2.319.188l-12.7,13.3V11.453Z"/>
        <path id="Trazado_262446" data-name="Trazado 262446" d="M55.125,29.046a7.433,7.433,0,1,0-7.433-7.433,7.433,7.433,0,0,0,7.433,7.433Zm0-11.365a3.933,3.933,0,1,1-3.933,3.933,3.933,3.933,0,0,1,3.933-3.933Z"/>
      </g>
    </g>
    <g id="Grupo_156210" data-name="Grupo 156210" transform="translate(633 3799)">
      <g id="Grupo_149605-3" data-name="Grupo 149605" clip-path="url(#clip-path)">
        <g id="Grupo_149582-3" data-name="Grupo 149582" transform="translate(0 -0.001)">
          <g id="Grupo_149581-3" data-name="Grupo 149581" clip-path="url(#clip-path-2)">
            <path id="Trazado_262410-3" data-name="Trazado 262410" d="M231.457,715.477A186.007,186.007,0,0,0,363.4,660.827L231.629,529.059,99.692,661a186,186,0,0,0,131.765,54.482" transform="translate(-64.5 -342.298)" fill="#a7e446"/>
            <path id="Trazado_262411-3" data-name="Trazado 262411" d="M99.692,54.479,231.629,186.416,363.4,54.649a186.585,186.585,0,0,0-263.7-.169" transform="translate(-64.5 0.002)" fill="#a7e446"/>
            <path id="Trazado_262412-3" data-name="Trazado 262412" d="M284.622,105.63a166.728,166.728,0,1,1-235.789,0,166.728,166.728,0,0,1,235.789,0" transform="translate(0 -36.746)" fill="#a7e446"/>
            <g id="Grupo_149580-3" data-name="Grupo 149580" transform="translate(79.463 68.627)" style="mix-blend-mode: multiply;isolation: isolate">
              <g id="Grupo_149579-3" data-name="Grupo 149579">
                <g id="Grupo_149578-3" data-name="Grupo 149578" clip-path="url(#clip-path-3)">
                  <g id="Grupo_149577-3" data-name="Grupo 149577">
                    <g id="Grupo_149576-3" data-name="Grupo 149576">
                      <g id="Grupo_149575-3" data-name="Grupo 149575" clip-path="url(#clip-path-3)">
                        <path id="Trazado_262413-3" data-name="Trazado 262413" d="M423.734,228.221c45.262,45.262,45.059,118.849-.454,164.362s-119.1,45.716-164.362.454-45.059-118.849.454-164.362,119.1-45.716,164.362-.454" transform="translate(-225.105 -194.407)" fill="#a7e446"/>
                      </g>
                    </g>
                  </g>
                </g>
              </g>
            </g>
          </g>
        </g>
        <g id="Grupo_149584-3" data-name="Grupo 149584" transform="translate(7.639 27.184)">
          <g id="Grupo_149583-3" data-name="Grupo 149583" clip-path="url(#clip-path-5)">
            <rect id="Rectángulo_90484-3" data-name="Rectángulo 90484" width="386.656" height="399.534" transform="translate(-68.613 326.143) rotate(-80.764)" fill="url(#linear-gradient)"/>
          </g>
        </g>
        <g id="Grupo_149602-3" data-name="Grupo 149602" transform="translate(0 -0.001)">
          <g id="Grupo_149601-3" data-name="Grupo 149601" clip-path="url(#clip-path-6)">
            <g id="Grupo_149589-3" data-name="Grupo 149589" transform="translate(9.315 190.655)" style="mix-blend-mode: screen;isolation: isolate">
              <g id="Grupo_149588-3" data-name="Grupo 149588">
                <g id="Grupo_149587-3" data-name="Grupo 149587" clip-path="url(#clip-path-7)">
                  <g id="Grupo_149586-3" data-name="Grupo 149586">
                    <g id="Grupo_149585-3" data-name="Grupo 149585" clip-path="url(#clip-path-8)">
                      <rect id="Rectángulo_90485-3" data-name="Rectángulo 90485" width="249.215" height="319.047" transform="matrix(0.391, -0.92, 0.92, 0.391, -54.236, 127.679)" fill="url(#linear-gradient-2)"/>
                    </g>
                  </g>
                </g>
              </g>
            </g>
            <g id="Grupo_149594-3" data-name="Grupo 149594" transform="translate(9.315 31.881)" style="mix-blend-mode: screen;isolation: isolate">
              <g id="Grupo_149593-3" data-name="Grupo 149593">
                <g id="Grupo_149592-3" data-name="Grupo 149592" clip-path="url(#clip-path-7)">
                  <g id="Grupo_149591-3" data-name="Grupo 149591" transform="translate(0 0)">
                    <g id="Grupo_149590-3" data-name="Grupo 149590" clip-path="url(#clip-path-10)">
                      <rect id="Rectángulo_90487-3" data-name="Rectángulo 90487" width="246.567" height="318.651" transform="translate(-52.851 129.078) rotate(-67.733)" fill="url(#linear-gradient-3)"/>
                    </g>
                  </g>
                </g>
              </g>
            </g>
            <g id="Grupo_149600-3" data-name="Grupo 149600" transform="translate(126.141 111.315)" opacity="0.15" style="mix-blend-mode: multiply;isolation: isolate">
              <g id="Grupo_149599-3" data-name="Grupo 149599">
                <g id="Grupo_149598-3" data-name="Grupo 149598" clip-path="url(#clip-path-11)">
                  <g id="Grupo_149597-3" data-name="Grupo 149597">
                    <g id="Grupo_149596-3" data-name="Grupo 149596">
                      <g id="Grupo_149595-3" data-name="Grupo 149595" clip-path="url(#clip-path-11)">
                        <path id="Trazado_262417-3" data-name="Trazado 262417" d="M438.866,478.4a81.291,81.291,0,1,1,31.737-6.409,81.032,81.032,0,0,1-31.737,6.409" transform="translate(-357.335 -315.336)" fill="#262626"/>
                      </g>
                    </g>
                  </g>
                </g>
              </g>
            </g>
          </g>
        </g>
        <g id="Grupo_149604-3" data-name="Grupo 149604" transform="translate(20.884 39.836)">
          <g id="Grupo_149603-3" data-name="Grupo 149603" clip-path="url(#clip-path-13)">
            <rect id="Rectángulo_90492-3" data-name="Rectángulo 90492" width="390.044" height="390.044" transform="translate(-113.413 238.957) rotate(-64.61)" fill="#f5faec"/>
          </g>
        </g>
      </g>
    </g>
    <path id="Trazado_264162" data-name="Trazado 264162" d="M-85.5-7.395h-6.75v4.57h7.922V0H-95.766V-17.062h11.414v2.848h-7.9v4.066h6.75Zm6.6-5.285V.691a4.536,4.536,0,0,1-1.113,3.264,4.231,4.231,0,0,1-3.211,1.166,6.886,6.886,0,0,1-1.676-.2V2.238a6.357,6.357,0,0,0,1.066.105q1.535,0,1.535-1.629V-12.68Zm-3.668-3.281a1.668,1.668,0,0,1,.51-1.254,1.915,1.915,0,0,1,1.389-.492,1.915,1.915,0,0,1,1.389.492,1.668,1.668,0,0,1,.51,1.254,1.663,1.663,0,0,1-.521,1.266,1.924,1.924,0,0,1-1.377.492,1.924,1.924,0,0,1-1.377-.492A1.663,1.663,0,0,1-82.57-15.961ZM-70.418.234a6.225,6.225,0,0,1-4.541-1.711,6.082,6.082,0,0,1-1.752-4.559v-.328a7.66,7.66,0,0,1,.738-3.416,5.418,5.418,0,0,1,2.092-2.32,5.871,5.871,0,0,1,3.088-.814,5.262,5.262,0,0,1,4.1,1.641A6.667,6.667,0,0,1-65.2-6.621v1.383h-8.074a3.146,3.146,0,0,0,.99,1.992A2.993,2.993,0,0,0-70.2-2.5a3.656,3.656,0,0,0,3.059-1.418l1.664,1.863A5.084,5.084,0,0,1-67.535-.369,6.767,6.767,0,0,1-70.418.234ZM-70.8-10.184a2.116,2.116,0,0,0-1.635.683,3.535,3.535,0,0,0-.8,1.954h4.711v-.271a2.521,2.521,0,0,0-.609-1.748A2.183,2.183,0,0,0-70.8-10.184Zm10.7-2.5L-60-11.262a4.456,4.456,0,0,1,3.645-1.652,3.382,3.382,0,0,1,3.363,1.934,4.354,4.354,0,0,1,3.809-1.934,3.782,3.782,0,0,1,3.07,1.2A5.521,5.521,0,0,1-45.105-8.1V0h-3.4V-8.086a2.414,2.414,0,0,0-.422-1.576,1.87,1.87,0,0,0-1.488-.5,2.114,2.114,0,0,0-2.109,1.453L-52.512,0H-55.9V-8.074a2.385,2.385,0,0,0-.434-1.594,1.888,1.888,0,0,0-1.477-.492,2.195,2.195,0,0,0-2.086,1.2V0h-3.387V-12.68ZM-31.09-6.223a7.6,7.6,0,0,1-1.33,4.693A4.264,4.264,0,0,1-36.012.234,3.95,3.95,0,0,1-39.117-1.1V4.875H-42.5V-12.68h3.141l.117,1.242a3.98,3.98,0,0,1,3.211-1.477,4.294,4.294,0,0,1,3.645,1.734A7.811,7.811,0,0,1-31.09-6.4Zm-3.387-.246A4.99,4.99,0,0,0-35.1-9.2a2.042,2.042,0,0,0-1.822-.961,2.218,2.218,0,0,0-2.191,1.219V-3.75A2.255,2.255,0,0,0-36.9-2.5Q-34.477-2.5-34.477-6.469ZM-25.418,0h-3.4V-18h3.4Zm2.262-6.457A7.52,7.52,0,0,1-22.43-9.82a5.319,5.319,0,0,1,2.092-2.285,6.1,6.1,0,0,1,3.17-.809,5.774,5.774,0,0,1,4.189,1.57,6.3,6.3,0,0,1,1.811,4.266l.023.867a6.627,6.627,0,0,1-1.629,4.682A5.662,5.662,0,0,1-17.145.234a5.69,5.69,0,0,1-4.377-1.758A6.744,6.744,0,0,1-23.156-6.3Zm3.387.24a4.74,4.74,0,0,0,.68,2.764,2.242,2.242,0,0,0,1.945.957,2.247,2.247,0,0,0,1.922-.945,5.186,5.186,0,0,0,.691-3.022,4.692,4.692,0,0,0-.691-2.746,2.248,2.248,0,0,0-1.945-.974,2.211,2.211,0,0,0-1.922.968A5.274,5.274,0,0,0-19.77-6.217Zm16.16-.217a7.641,7.641,0,0,1,1.33-4.723,4.316,4.316,0,0,1,3.639-1.758,3.884,3.884,0,0,1,3.059,1.383V-18h3.4V0H4.758L4.594-1.348A3.985,3.985,0,0,1,1.336.234,4.3,4.3,0,0,1-2.256-1.529,7.887,7.887,0,0,1-3.609-6.434Zm3.387.252A5.005,5.005,0,0,0,.4-3.447,2.023,2.023,0,0,0,2.2-2.5,2.266,2.266,0,0,0,4.418-3.822V-8.834A2.234,2.234,0,0,0,2.227-10.16Q-.223-10.16-.223-6.181ZM16.277.234a6.225,6.225,0,0,1-4.541-1.711A6.082,6.082,0,0,1,9.984-6.035v-.328a7.66,7.66,0,0,1,.738-3.416,5.418,5.418,0,0,1,2.092-2.32,5.871,5.871,0,0,1,3.088-.814A5.262,5.262,0,0,1,20-11.273a6.667,6.667,0,0,1,1.494,4.652v1.383H13.418a3.146,3.146,0,0,0,.99,1.992A2.993,2.993,0,0,0,16.5-2.5a3.656,3.656,0,0,0,3.059-1.418l1.664,1.863A5.084,5.084,0,0,1,19.16-.369,6.767,6.767,0,0,1,16.277.234Zm-.387-10.418a2.116,2.116,0,0,0-1.635.683,3.535,3.535,0,0,0-.8,1.954h4.711v-.271a2.521,2.521,0,0,0-.609-1.748A2.183,2.183,0,0,0,15.891-10.184ZM30.316,0V-10.2H28.43V-12.68h1.887v-1.078a4.377,4.377,0,0,1,1.225-3.311,4.743,4.743,0,0,1,3.428-1.178,7.917,7.917,0,0,1,1.723.234l-.035,2.625a4.318,4.318,0,0,0-1.031-.105q-1.91,0-1.91,1.793v1.02h2.52V-10.2h-2.52V0Zm7.148-6.457a7.52,7.52,0,0,1,.727-3.363,5.319,5.319,0,0,1,2.092-2.285,6.1,6.1,0,0,1,3.17-.809,5.774,5.774,0,0,1,4.189,1.57,6.3,6.3,0,0,1,1.811,4.266l.023.867a6.627,6.627,0,0,1-1.629,4.682A5.662,5.662,0,0,1,43.477.234,5.69,5.69,0,0,1,39.1-1.523,6.744,6.744,0,0,1,37.465-6.3Zm3.387.24a4.74,4.74,0,0,0,.68,2.764,2.242,2.242,0,0,0,1.945.957A2.247,2.247,0,0,0,45.4-3.441a5.186,5.186,0,0,0,.691-3.022A4.692,4.692,0,0,0,45.4-9.209a2.248,2.248,0,0,0-1.945-.974,2.211,2.211,0,0,0-1.922.968A5.274,5.274,0,0,0,40.852-6.217ZM55.137,0h-3.4V-18h3.4ZM61.5,0H58.1V-18h3.4Zm8.625.234a6.225,6.225,0,0,1-4.541-1.711,6.082,6.082,0,0,1-1.752-4.559v-.328a7.66,7.66,0,0,1,.738-3.416,5.418,5.418,0,0,1,2.092-2.32,5.871,5.871,0,0,1,3.088-.814,5.262,5.262,0,0,1,4.1,1.641A6.667,6.667,0,0,1,75.34-6.621v1.383H67.266a3.146,3.146,0,0,0,.99,1.992,2.993,2.993,0,0,0,2.092.75,3.656,3.656,0,0,0,3.059-1.418L75.07-2.051A5.084,5.084,0,0,1,73.008-.369,6.767,6.767,0,0,1,70.125.234Zm-.387-10.418A2.116,2.116,0,0,0,68.1-9.5a3.535,3.535,0,0,0-.8,1.954h4.711v-.271A2.521,2.521,0,0,0,71.4-9.566,2.183,2.183,0,0,0,69.738-10.184ZM81.316-15.8v3.117h2.168V-10.2H81.316v6.328a1.511,1.511,0,0,0,.27,1.008,1.354,1.354,0,0,0,1.031.3,5.4,5.4,0,0,0,1-.082V-.07a6.972,6.972,0,0,1-2.051.3q-3.562,0-3.633-3.6V-10.2H76.078V-12.68H77.93V-15.8Zm3.176,9.34a7.52,7.52,0,0,1,.727-3.363,5.319,5.319,0,0,1,2.092-2.285,6.1,6.1,0,0,1,3.17-.809,5.774,5.774,0,0,1,4.189,1.57A6.3,6.3,0,0,1,96.48-7.078l.023.867a6.627,6.627,0,0,1-1.629,4.682A5.662,5.662,0,0,1,90.5.234a5.69,5.69,0,0,1-4.377-1.758A6.744,6.744,0,0,1,84.492-6.3Zm3.387.24a4.74,4.74,0,0,0,.68,2.764A2.242,2.242,0,0,0,90.5-2.5a2.247,2.247,0,0,0,1.922-.945,5.186,5.186,0,0,0,.691-3.022,4.692,4.692,0,0,0-.691-2.746,2.248,2.248,0,0,0-1.945-.974,2.211,2.211,0,0,0-1.922.968A5.274,5.274,0,0,0,87.879-6.217ZM-33.4,8.2V11.32h2.168V13.8H-33.4v6.328a1.511,1.511,0,0,0,.27,1.008,1.354,1.354,0,0,0,1.031.3,5.4,5.4,0,0,0,1-.082V23.93a6.972,6.972,0,0,1-2.051.3q-3.562,0-3.633-3.6V13.8h-1.852V11.32h1.852V8.2Zm11.18,6.293a9.2,9.2,0,0,0-1.219-.094,2.481,2.481,0,0,0-2.52,1.3V24h-3.387V11.32h3.2l.094,1.512a3.138,3.138,0,0,1,2.824-1.746,3.549,3.549,0,0,1,1.055.152Zm5.285,9.5H-20.32V11.32h3.387Zm-1-17.824h3.691l-3.246,3.633h-2.754ZM-2.6,17.777a7.6,7.6,0,0,1-1.33,4.693,4.264,4.264,0,0,1-3.592,1.764A3.95,3.95,0,0,1-10.629,22.9v5.977h-3.387V11.32h3.141l.117,1.242a3.98,3.98,0,0,1,3.211-1.477A4.294,4.294,0,0,1-3.9,12.82,7.811,7.811,0,0,1-2.6,17.6Zm-3.387-.246a4.99,4.99,0,0,0-.627-2.73,2.042,2.042,0,0,0-1.822-.961,2.218,2.218,0,0,0-2.191,1.219V20.25A2.255,2.255,0,0,0-8.414,21.5Q-5.988,21.5-5.988,17.531ZM3.551,8.2V11.32H5.719V13.8H3.551v6.328a1.511,1.511,0,0,0,.27,1.008,1.354,1.354,0,0,0,1.031.3,5.4,5.4,0,0,0,1-.082V23.93a6.972,6.972,0,0,1-2.051.3q-3.562,0-3.633-3.6V13.8H-1.687V11.32H.164V8.2ZM11.18,24h-3.4V11.32h3.4ZM7.582,8.039a1.668,1.668,0,0,1,.51-1.254A1.915,1.915,0,0,1,9.48,6.293a1.919,1.919,0,0,1,1.383.492,1.658,1.658,0,0,1,.516,1.254A1.663,1.663,0,0,1,10.857,9.3,1.924,1.924,0,0,1,9.48,9.8,1.924,1.924,0,0,1,8.1,9.3,1.663,1.663,0,0,1,7.582,8.039ZM19.242,21.5a2.221,2.221,0,0,0,1.523-.516,1.807,1.807,0,0,0,.609-1.371h3.176a4.344,4.344,0,0,1-.7,2.361,4.64,4.64,0,0,1-1.893,1.664,5.923,5.923,0,0,1-2.654.592,5.5,5.5,0,0,1-4.289-1.729,6.84,6.84,0,0,1-1.57-4.775v-.223A6.762,6.762,0,0,1,15,12.832a5.441,5.441,0,0,1,4.277-1.746,5.333,5.333,0,0,1,3.814,1.354,4.792,4.792,0,0,1,1.459,3.6H21.375a2.327,2.327,0,0,0-.609-1.608,2.032,2.032,0,0,0-1.547-.619,2.04,2.04,0,0,0-1.787.863,5,5,0,0,0-.6,2.8v.352a5.063,5.063,0,0,0,.6,2.817A2.065,2.065,0,0,0,19.242,21.5Zm6.715-3.961a7.52,7.52,0,0,1,.727-3.363,5.319,5.319,0,0,1,2.092-2.285,6.1,6.1,0,0,1,3.17-.809,5.774,5.774,0,0,1,4.189,1.57,6.3,6.3,0,0,1,1.811,4.266l.023.867a6.627,6.627,0,0,1-1.629,4.682,5.662,5.662,0,0,1-4.371,1.764,5.69,5.69,0,0,1-4.377-1.758A6.744,6.744,0,0,1,25.957,17.7Zm3.387.24a4.74,4.74,0,0,0,.68,2.764,2.442,2.442,0,0,0,3.867.012,5.186,5.186,0,0,0,.691-3.022,4.692,4.692,0,0,0-.691-2.746,2.248,2.248,0,0,0-1.945-.974,2.211,2.211,0,0,0-1.922.968A5.274,5.274,0,0,0,29.344,17.783Z" transform="translate(800 4069.526)" fill="#12263f"/>
    <g id="Grupo_156245" data-name="Grupo 156245" transform="translate(719 3849.514)">
      <g id="Grupo_156230" data-name="Grupo 156230" transform="translate(2.373 39.599)">
        <g id="Grupo_156215" data-name="Grupo 156215" transform="translate(104.836)">
          <path id="Trazado_262447" data-name="Trazado 262447" d="M338.833,78.356V179.783l52.418-29.926V48.43Z" transform="translate(-338.833 -48.43)" fill="#e3edf6"/>
        </g>
        <g id="Grupo_156216" data-name="Grupo 156216" transform="translate(104.836 25.983)">
          <path id="Trazado_262448" data-name="Trazado 262448" d="M345.74,223.982V130.548l-6.907,3.943V235.918l52.418-29.926V198Z" transform="translate(-338.833 -130.548)" fill="#c5d9ec"/>
        </g>
        <g id="Grupo_156217" data-name="Grupo 156217" transform="translate(52.418 0.002)">
          <path id="Trazado_262449" data-name="Trazado 262449" d="M173.167,48.435V149.86l52.418,29.926V78.359Z" transform="translate(-173.167 -48.435)" fill="#b6e6fa"/>
        </g>
        <g id="Grupo_156218" data-name="Grupo 156218" transform="translate(52.418 0.002)">
          <path id="Trazado_262450" data-name="Trazado 262450" d="M180.5,145.8V52.62l-7.331-4.185V149.86l52.418,29.926v-8.245Z" transform="translate(-173.167 -48.435)" fill="#8ad8f6"/>
        </g>
        <g id="Grupo_156219" data-name="Grupo 156219" transform="translate(0 0.002)">
          <path id="Trazado_262451" data-name="Trazado 262451" d="M7.5,78.359V179.786L59.918,149.86V48.435Z" transform="translate(-7.5 -48.435)" fill="#e3edf6"/>
        </g>
        <g id="Grupo_156220" data-name="Grupo 156220" transform="translate(0 25.81)">
          <path id="Trazado_262452" data-name="Trazado 262452" d="M14.71,223.185V130L7.5,134.118V235.545l52.418-29.926v-8.244Z" transform="translate(-7.5 -130.002)" fill="#c5d9ec"/>
        </g>
        <g id="Grupo_156221" data-name="Grupo 156221" transform="translate(116.596 21.031)">
          <path id="Trazado_262453" data-name="Trazado 262453" d="M404.477,189.363,376,205.635V131.169L404.477,114.9Z" transform="translate(-376 -114.897)" fill="#fcad42"/>
        </g>
        <g id="Grupo_156222" data-name="Grupo 156222" transform="translate(116.596 33.235)">
          <path id="Trazado_262454" data-name="Trazado 262454" d="M383.119,219.855V153.469L376,157.537V232l28.477-16.272v-8.08Z" transform="translate(-376 -153.469)" fill="#f69500"/>
        </g>
        <g id="Grupo_156223" data-name="Grupo 156223" transform="translate(64.389 21.244)">
          <path id="Trazado_262455" data-name="Trazado 262455" d="M211,115.572v36.613l28.477,16.272V131.844Z" transform="translate(-211 -115.572)" fill="#b6f600"/>
        </g>
        <g id="Grupo_156224" data-name="Grupo 156224" transform="translate(64.389 21.244)">
          <path id="Trazado_262456" data-name="Trazado 262456" d="M218.089,147.822v-28.2L211,115.572v36.613l28.477,16.272v-8.413Z" transform="translate(-211 -115.572)" fill="#abe700"/>
        </g>
        <g id="Grupo_156225" data-name="Grupo 156225" transform="translate(12.182 57.857)">
          <path id="Trazado_262457" data-name="Trazado 262457" d="M46,247.558v36.613L74.477,267.9V231.286Z" transform="translate(-46 -231.286)" fill="#f696c3"/>
        </g>
        <g id="Grupo_156226" data-name="Grupo 156226" transform="translate(12.182 70.078)">
          <path id="Trazado_262458" data-name="Trazado 262458" d="M53.089,298.155V269.912L46,273.963v36.613L74.477,294.3v-8.37Z" transform="translate(-46 -269.912)" fill="#f072ae"/>
        </g>
        <g id="Grupo_156227" data-name="Grupo 156227" transform="translate(123.715 41.946)">
          <rect id="Rectángulo_90542" data-name="Rectángulo 90542" width="4.746" height="4.746" fill="#fff"/>
        </g>
        <g id="Grupo_156228" data-name="Grupo 156228" transform="translate(71.508 37.2)">
          <rect id="Rectángulo_90543" data-name="Rectángulo 90543" width="4.746" height="4.746" fill="#fff"/>
        </g>
        <g id="Grupo_156229" data-name="Grupo 156229" transform="translate(19.301 77.542)">
          <rect id="Rectángulo_90544" data-name="Rectángulo 90544" width="4.746" height="4.746" fill="#fff"/>
        </g>
      </g>
      <g id="Grupo_156244" data-name="Grupo 156244" transform="translate(0 35.512)">
        <g id="Grupo_156231" data-name="Grupo 156231">
          <path id="Trazado_262459" data-name="Trazado 262459" d="M0,175.04V68.148L54.791,36.869l52.418,29.924L162,35.512v79.256h-4.746V43.687L107.209,72.258,54.791,42.334,4.746,70.9v95.962l50.045-28.571,52.418,29.926,50.045-28.571V129.006H162v13.4l-54.791,31.281L54.791,143.759Z" transform="translate(0 -35.512)"/>
        </g>
        <g id="Grupo_156232" data-name="Grupo 156232" transform="translate(157.254 84.002)">
          <rect id="Rectángulo_90545" data-name="Rectángulo 90545" width="4.746" height="4.746"/>
        </g>
        <g id="Grupo_156233" data-name="Grupo 156233" transform="translate(104.836 34.013)">
          <rect id="Rectángulo_90546" data-name="Rectángulo 90546" width="4.746" height="101.427"/>
        </g>
        <g id="Grupo_156234" data-name="Grupo 156234" transform="translate(52.488 4.812)">
          <rect id="Rectángulo_90547" data-name="Rectángulo 90547" width="4.746" height="101.427"/>
        </g>
        <g id="Grupo_156235" data-name="Grupo 156235" transform="translate(116.596 21.029)">
          <path id="Trazado_262460" data-name="Trazado 262460" d="M368.5,200.89V120.958l33.223-18.985v79.932Zm4.746-77.178v69l23.73-13.56v-69Z" transform="translate(-368.5 -101.973)"/>
        </g>
        <g id="Grupo_156236" data-name="Grupo 156236" transform="translate(64.389 21.242)">
          <path id="Trazado_262461" data-name="Trazado 262461" d="M236.723,163.711l-17.789-10.165,2.355-4.121,10.688,6.107V124.387l-23.73-13.561v31.146l8.3,4.741-2.355,4.121L203.5,144.727V102.648l33.223,18.985Z" transform="translate(-203.5 -102.648)"/>
        </g>
        <g id="Grupo_156237" data-name="Grupo 156237" transform="translate(65.584 72.088)">
          <rect id="Rectángulo_90548" data-name="Rectángulo 90548" width="4.746" height="32.798" transform="translate(0 4.121) rotate(-60.256)"/>
        </g>
        <g id="Grupo_156238" data-name="Grupo 156238" transform="translate(65.584 84.292)">
          <rect id="Rectángulo_90549" data-name="Rectángulo 90549" width="4.746" height="32.798" transform="translate(0 4.121) rotate(-60.255)"/>
        </g>
        <g id="Grupo_156239" data-name="Grupo 156239" transform="translate(65.584 96.497)">
          <rect id="Rectángulo_90550" data-name="Rectángulo 90550" width="4.746" height="32.798" transform="translate(0 4.121) rotate(-60.256)"/>
        </g>
        <g id="Grupo_156240" data-name="Grupo 156240" transform="translate(12.182 57.855)">
          <path id="Trazado_262462" data-name="Trazado 262462" d="M38.5,279.426V258.748h4.746v12.5l23.73-13.56V226.541L43.246,240.1V254H38.5V237.347l33.223-18.984v42.079Z" transform="translate(-38.5 -218.362)"/>
        </g>
        <g id="Grupo_156241" data-name="Grupo 156241" transform="translate(13.378 47.679)">
          <rect id="Rectángulo_90551" data-name="Rectángulo 90551" width="32.798" height="4.746" transform="translate(0 16.273) rotate(-29.746)"/>
        </g>
        <g id="Grupo_156242" data-name="Grupo 156242" transform="translate(13.377 35.475)">
          <rect id="Rectángulo_90552" data-name="Rectángulo 90552" width="32.798" height="4.746" transform="translate(0 16.273) rotate(-29.746)"/>
        </g>
        <g id="Grupo_156243" data-name="Grupo 156243" transform="translate(13.377 23.271)">
          <rect id="Rectángulo_90553" data-name="Rectángulo 90553" width="32.798" height="4.746" transform="translate(0 16.273) rotate(-29.746)"/>
        </g>
      </g>
    </g>
  </g>
</svg>
