<svg xmlns="http://www.w3.org/2000/svg" width="239" height="239" viewBox="0 0 239 239">
  <g id="paisaje" transform="translate(-1 -1)">
    <g id="Grupo_159723" data-name="Grupo 159723" transform="translate(4.855 4.855)">
      <g id="Grupo_159717" data-name="Grupo 159717" transform="translate(23.129)">
        <path id="Trazado_263664" data-name="Trazado 263664" d="M88.952,106.312l1.156.193a51.969,51.969,0,0,0-1.156,11.14H8A18.616,18.616,0,0,1,13.435,104.5L31.129,86.806H8a18.616,18.616,0,0,1,5.435-13.145L31.129,55.968H8V52.074a7.456,7.456,0,0,1,3.2-6.091A105.128,105.128,0,0,0,44.968,5.508a5.965,5.965,0,0,1,10.871,0A105.128,105.128,0,0,0,89.607,45.984a7.456,7.456,0,0,1,3.2,6.091v3.893H69.677L87.371,73.661a18.616,18.616,0,0,1,5.435,13.145H69.677L87.371,104.5a18.352,18.352,0,0,1,1.58,1.812Z" transform="translate(-8 -2)" fill="#8cc152"/>
      </g>
      <g id="Grupo_159718" data-name="Grupo 159718" transform="translate(150.339 38.548)">
        <path id="Trazado_263665" data-name="Trazado 263665" d="M75.694,100.661a15.424,15.424,0,0,1-29.8,5.59A51.971,51.971,0,0,0,48.71,89.1c0-10.524-2.93-20.045-7.71-26.984V58.258a15.269,15.269,0,0,1,5.782-11.95,15.251,15.251,0,0,1-1.927-7.324A15.415,15.415,0,0,1,60.274,23.565c.193,0,.347.039.54.039a15.342,15.342,0,0,1,29.759,0c.193,0,.347-.039.54-.039a15.415,15.415,0,0,1,15.419,15.419,15.251,15.251,0,0,1-1.927,7.324,15.229,15.229,0,0,1,2.082,21.9,15.3,15.3,0,0,1-1.2,27.022,14.983,14.983,0,0,1,1.041,5.435,15.419,15.419,0,1,1-30.839,0Z" transform="translate(-41 -12)" fill="#b4dd7f"/>
      </g>
      <g id="Grupo_159719" data-name="Grupo 159719" transform="translate(104.081 77.097)">
        <path id="Trazado_263666" data-name="Trazado 263666" d="M75.258,33.565c4.78,6.939,7.71,16.46,7.71,26.984A51.971,51.971,0,0,1,80.154,77.7C75.721,90.385,66.585,99.1,55.984,99.1,41.066,99.1,29,81.827,29,60.548a51.969,51.969,0,0,1,1.156-11.14C33.51,33.565,43.8,22,55.984,22,63.539,22,70.362,26.433,75.258,33.565Z" transform="translate(-29 -22)" fill="#a0d468"/>
      </g>
      <g id="Grupo_159720" data-name="Grupo 159720" transform="translate(138.774 158.048)">
        <path id="Trazado_263667" data-name="Trazado 263667" d="M83.8,59.267c.231-.077.424-.154.655-.231a11.4,11.4,0,0,1,3.662-.617A11.549,11.549,0,0,1,99.677,69.984H38a11.546,11.546,0,0,1,7.787-10.871c0-.231-.077-.463-.077-.694a15.365,15.365,0,0,1,28.8-7.517A11.422,11.422,0,0,1,83.8,59.267Z" transform="translate(-38 -43)" fill="#a0d468"/>
      </g>
      <g id="Grupo_159721" data-name="Grupo 159721" transform="translate(34.694 138.774)">
        <path id="Trazado_263668" data-name="Trazado 263668" d="M72.677,53.419A15.429,15.429,0,0,1,82.893,80.4l-2.93,3.855H19.789L16.2,80.4a15.382,15.382,0,0,1,6.4-26.444c0-.193-.039-.347-.039-.54A15.415,15.415,0,0,1,37.984,38a14.1,14.1,0,0,1,3.855.5,15.239,15.239,0,0,1,9.521,7.4A18.3,18.3,0,0,1,53.4,45.71a15.358,15.358,0,0,1,13.839,8.75A14.983,14.983,0,0,1,72.677,53.419Z" transform="translate(-11 -38)" fill="#b4dd7f"/>
      </g>
      <g id="Grupo_159722" data-name="Grupo 159722" transform="translate(0 185.032)">
        <path id="Trazado_263669" data-name="Trazado 263669" d="M179.323,80.839h11.565a7.766,7.766,0,0,1,7.71,7.71,7.732,7.732,0,0,1-7.71,7.71H40.548a7.766,7.766,0,0,1-7.71-7.71,7.732,7.732,0,0,1,7.71-7.71H9.71A7.732,7.732,0,0,1,2,73.129a7.537,7.537,0,0,1,2.274-5.435A7.537,7.537,0,0,1,9.71,65.419H21.274a7.732,7.732,0,0,0,7.71-7.71A7.766,7.766,0,0,1,36.694,50H225.581a7.732,7.732,0,0,1,7.71,7.71,7.766,7.766,0,0,1-7.71,7.71H179.323a7.732,7.732,0,0,0-7.71,7.71,7.766,7.766,0,0,0,7.71,7.71Z" transform="translate(-2 -50)" fill="#69d6f4"/>
      </g>
    </g>
    <g id="Grupo_159724" data-name="Grupo 159724" transform="translate(1 1)">
      <path id="Trazado_263670" data-name="Trazado 263670" d="M228.436,186.032H208.614a15.4,15.4,0,0,0-14.872-11.565V147.384a19.075,19.075,0,0,0,11.565,3.955,19.3,19.3,0,0,0,19.274-19.274,18.235,18.235,0,0,0-.37-3.635,19.156,19.156,0,0,0,1.9-29.717A18.942,18.942,0,0,0,223.432,76.8a18.567,18.567,0,0,0,1.149-6.414,19.3,19.3,0,0,0-17.023-19.143,19.2,19.2,0,0,0-35.341,0,19.3,19.3,0,0,0-17.023,19.143,18.567,18.567,0,0,0,1.149,6.414,19.1,19.1,0,0,0-4.206,7.7,24.891,24.891,0,0,0-16.217-6.4c-7.34,0-14.078,3.554-19.378,9.464a22.636,22.636,0,0,0-6.476-13.785l-11.1-11.1h17.678V54.914a11.412,11.412,0,0,0-4.815-9.225A101.338,101.338,0,0,1,79.311,6.721a9.821,9.821,0,0,0-17.848,0A101.219,101.219,0,0,1,28.94,45.689a11.418,11.418,0,0,0-4.811,9.225v7.764H41.807l-11.1,11.1a22.621,22.621,0,0,0-6.58,15.886v3.855H41.807l-11.1,11.1a22.621,22.621,0,0,0-6.58,15.886v3.855h42.4v15.419A19.3,19.3,0,0,0,47.389,156.8a19.238,19.238,0,0,0-7.852,29.235A11.579,11.579,0,0,0,27.984,197.6a3.856,3.856,0,0,1-3.855,3.855H12.565a11.565,11.565,0,1,0,0,23.129H32.548a11.434,11.434,0,0,0-.709,3.855A11.579,11.579,0,0,0,43.4,240H193.742a11.565,11.565,0,0,0,0-23.129H182.177a3.855,3.855,0,1,1,0-7.71h46.258a11.565,11.565,0,0,0,0-23.129Zm-28.1,0H148.621a7.678,7.678,0,0,1,4.055-3.385l2.675-.933-.092-2.833a2.329,2.329,0,0,0-.066-.559,11.516,11.516,0,0,1,21.587-5.632l.914,1.623,1.843.289a7.67,7.67,0,0,1,6.187,5.574l1.133,4.186,4.024-1.619a7.745,7.745,0,0,1,9.452,3.288Zm-60.56-23.5c8.6-1.484,16.086-7.845,20.986-17.011a19.342,19.342,0,0,0,13.708,5.813,19.075,19.075,0,0,0,11.565-3.955V168.94a15.2,15.2,0,0,0-3.485-1.55,19.217,19.217,0,0,0-34.983,9.144,15.451,15.451,0,0,0-7.286,9.5h-.5ZM163.4,80.714l2.5-2.02-1.538-2.822a11.462,11.462,0,0,1,9.853-17.062L177.96,59l.771-3.03a11.5,11.5,0,0,1,22.316,0l.771,3.03,3.13-.131c.2-.008.409-.031.359-.05a11.579,11.579,0,0,1,11.565,11.565,11.42,11.42,0,0,1-1.461,5.482l-1.538,2.822,2.5,2.02a11.331,11.331,0,0,1,1.553,16.383l-2.949,3.473,3.917,2.328a11.462,11.462,0,0,1-.883,20.265l-3.173,1.534,1.245,3.3a11.546,11.546,0,1,1-22.343,4.075V121.857l14.575-18.222-6.025-4.819-8.55,10.689V70.387h-7.71v23.7L177.478,83.4l-6.025,4.819,14.579,18.222v25.627a11.547,11.547,0,0,1-21.826,5.277,55.947,55.947,0,0,0,2.552-16.842,52.111,52.111,0,0,0-7.71-27.951V89.661a11.48,11.48,0,0,1,4.352-8.947Zm-27.481,5.092c12.756,0,23.129,15.562,23.129,34.694,0,17.158-8.353,31.405-19.274,34.173V125.712l14.575-18.222-6.025-4.819-8.55,10.689V101.226h-7.71V130.9l-8.357-12.536-6.414,4.275L132.065,144.8v9.876c-10.921-2.764-19.274-17.015-19.274-34.173,0-19.132,10.373-34.694,23.129-34.694Zm-23.769,7.71a46.965,46.965,0,0,0-4.132,9.047l-9.051-9.047ZM36.16,110.065,52.709,93.516h6.114v-7.71H32.359a14.881,14.881,0,0,1,3.8-6.58L52.709,62.677h6.114v-7.71H31.839v-.054a3.647,3.647,0,0,1,1.592-2.961,108.963,108.963,0,0,0,35-41.937,2.18,2.18,0,0,1,3.909,0,109.021,109.021,0,0,0,35,41.937,3.646,3.646,0,0,1,1.6,2.961l-26.984.054v7.71h6.114l16.549,16.549a14.808,14.808,0,0,1,3.8,6.58H81.952v7.71h6.114l16.549,16.549a14.721,14.721,0,0,1,1.195,1.361c-.27,1.7-.47,3.442-.586,5.219H32.359A14.844,14.844,0,0,1,36.16,110.065Zm38.082,14.29h30.981c1.307,19.822,12.571,35.719,26.841,38.182v23.5H116.584a19.213,19.213,0,0,0-15.358-30.839,18.207,18.207,0,0,0-3.635.37,19.052,19.052,0,0,0-15.639-8.08h-.081a19.32,19.32,0,0,0-7.629-6.037ZM52.119,163.308l3.03-.771-.131-3.13a1.174,1.174,0,0,0-.046-.37.013.013,0,0,0,0,.008,11.516,11.516,0,0,1,21.595-5.62l1.623,2.251,2.61-.366a9.4,9.4,0,0,1,1.156-.116,11.454,11.454,0,0,1,10.37,6.565l1.534,3.184,3.3-1.257a11.539,11.539,0,0,1,11.711,19.455l-2.232,2.891H50.022l-2.7-2.891a11.524,11.524,0,0,1,4.8-19.833Zm176.316,38.144H182.177a11.579,11.579,0,0,0-11.565,11.565,11.434,11.434,0,0,0,.709,3.855H162.9v7.71h30.839a3.855,3.855,0,0,1,0,7.71H43.4a3.855,3.855,0,0,1,0-7.71H66.532v-7.71H12.565a3.855,3.855,0,1,1,0-7.71H24.129A11.579,11.579,0,0,0,35.694,197.6a3.856,3.856,0,0,1,3.855-3.855H228.436a3.855,3.855,0,1,1,0,7.71Z" transform="translate(-1 -1)"/>
      <path id="Trazado_263671" data-name="Trazado 263671" d="M41.129,62.637A9.646,9.646,0,0,0,31.492,53H18v7.71H31.492a1.933,1.933,0,0,1,1.927,1.927,9.646,9.646,0,0,0,9.637,9.637H56.548v-7.71H43.056A1.933,1.933,0,0,1,41.129,62.637Z" transform="translate(47.532 147.452)"/>
    </g>
  </g>
</svg>
