<svg xmlns="http://www.w3.org/2000/svg" width="260.589" height="248.379" viewBox="0 0 260.589 248.379">
  <g id="color_line" data-name="color line" transform="translate(-2.5 -4.382)">
    <path id="Trazado_263760" data-name="Trazado 263760" d="M11.028,64.948c0,21.44,13.218,33.318,29.549,33.318s29.53-11.878,29.53-33.318v-2.3c0-21.44-13.218-33.318-29.53-33.318S11.028,41.212,11.028,62.652Z" transform="translate(23.679 69.283)" fill="#89c5cd"/>
    <path id="Trazado_263761" data-name="Trazado 263761" d="M115.061,112.561a7.678,7.678,0,0,0,7.678-7.678V90.271c0-22.388-20.016-39.005-39.9-41.116a28.279,28.279,0,0,1-19.971,7.723A28.279,28.279,0,0,1,42.9,49.166C23.016,51.262,3,67.883,3,90.271v14.612a7.678,7.678,0,0,0,7.678,7.678Z" transform="translate(1.388 124.319)" fill="#89c5cd"/>
    <path id="Trazado_263762" data-name="Trazado 263762" d="M47.323,68.654c0,21.44,13.218,33.318,29.549,33.318S106.4,90.094,106.4,68.654v-2.3c0-21.44-13.218-33.318-29.53-33.318S47.323,44.918,47.323,66.358Z" transform="translate(124.458 79.573)" fill="#89c5cd"/>
    <path id="Trazado_263763" data-name="Trazado 263763" d="M151.356,116.27a7.678,7.678,0,0,0,7.678-7.682V93.976c0-22.388-20.016-39.005-39.9-41.116a29.719,29.719,0,0,1-39.946,0c-19.88,2.111-39.9,18.728-39.9,41.116v14.612a7.678,7.678,0,0,0,7.678,7.678Z" transform="translate(102.167 134.607)" fill="#89c5cd"/>
    <path id="Trazado_263764" data-name="Trazado 263764" d="M63.849,62.655v2.266c0,16.353-7.7,27.154-18.581,31.346a35.059,35.059,0,0,0,8.5-24.548V69.453C53.766,48,40.547,36.1,24.27,36.1a30.213,30.213,0,0,0-10.99,2,28.23,28.23,0,0,1,21.036-8.762C50.631,29.344,63.849,41.2,63.849,62.655Z" transform="translate(29.932 69.295)" fill="#6eaaad"/>
    <path id="Trazado_263765" data-name="Trazado 263765" d="M31.47,49.15a26.769,26.769,0,0,1-9.97,6.08v.733c19.865,2.164,39.806,18.759,39.806,41.109v14.616a6.723,6.723,0,0,1-.038.869h2.417a7.7,7.7,0,0,0,7.7-7.667V90.278c0-22.4-20.054-39.013-39.919-41.128Z" transform="translate(52.756 124.305)" fill="#6eaaad"/>
    <path id="Trazado_263766" data-name="Trazado 263766" d="M100.2,66.355v2.3c0,16.315-7.667,27.116-18.543,31.308a35.187,35.187,0,0,0,8.46-24.51v-2.3c0-21.451-13.218-33.31-29.533-33.31a30.414,30.414,0,0,0-11.028,2,28.287,28.287,0,0,1,21.111-8.8c16.277,0,29.533,11.9,29.533,33.31Z" transform="translate(130.669 79.569)" fill="#6eaaad"/>
    <path id="Trazado_263767" data-name="Trazado 263767" d="M67.909,52.86A26.916,26.916,0,0,1,57.75,58.967v.755l.076-.064c19.865,2.115,39.881,18.732,39.881,41.128V115.4a6.68,6.68,0,0,1-.038.869h2.455a7.67,7.67,0,0,0,7.667-7.667V93.988c0-22.4-20.016-39.013-39.881-41.128Z" transform="translate(153.41 134.607)" fill="#6eaaad"/>
    <path id="Trazado_263768" data-name="Trazado 263768" d="M97.9,20.82V16.209A11.33,11.33,0,0,0,86.546,4.879H28.631A11.262,11.262,0,0,0,17.346,16.164V52.3a11.33,11.33,0,0,0,11.33,11.353h1.677V81.288L54.9,63.651H71.575" transform="translate(41.222 1.38)" fill="#fcd462"/>
    <path id="Trazado_263769" data-name="Trazado 263769" d="M88.994,23.272v1.888h5.714l2.67-4.343V16.21A11.33,11.33,0,0,0,86.011,4.88H28.077A11.254,11.254,0,0,0,17.54,12.169a10.507,10.507,0,0,1,2.19-.227h57.9a11.33,11.33,0,0,1,11.368,11.33Z" transform="translate(41.761 1.383)" fill="#f7be56"/>
    <path id="Trazado_263770" data-name="Trazado 263770" d="M31.711,20.449V56.591A11.3,11.3,0,0,0,43,67.895H74.723L99.272,85.524V67.895h1.662a11.33,11.33,0,0,0,11.33-11.33V20.422A11.3,11.3,0,0,0,100.971,9.1H43.052A11.33,11.33,0,0,0,31.711,20.449Z" transform="translate(81.109 13.1)" fill="#fe7058"/>
    <path id="Trazado_263771" data-name="Trazado 263771" d="M111.794,20.392V56.535a11.33,11.33,0,0,1-9.517,11.217,10.673,10.673,0,0,0,.642-3.663V27.945A11.3,11.3,0,0,0,91.627,16.653H33.693a9.782,9.782,0,0,0-1.813.151A11.292,11.292,0,0,1,42.568,9.1H100.5A11.3,11.3,0,0,1,111.794,20.392Z" transform="translate(81.578 13.1)" fill="#ea6453"/>
    <g id="Grupo_159725" data-name="Grupo 159725" transform="translate(2.5 4.382)">
      <path id="Trazado_263772" data-name="Trazado 263772" d="M79,17.447H38.388a1.888,1.888,0,1,1,0-3.777H79a1.888,1.888,0,1,1,0,3.777Z" transform="translate(91.906 21.408)" fill="#323c6b"/>
      <path id="Trazado_263773" data-name="Trazado 263773" d="M68.379,22.285H38.388a1.888,1.888,0,1,1,0-3.777h29.99a1.888,1.888,0,1,1,0,3.777Z" transform="translate(91.906 34.841)" fill="#323c6b"/>
      <path id="Trazado_263774" data-name="Trazado 263774" d="M52.258,72.221h-33.4a1.888,1.888,0,1,1,0-3.777h33.4a1.888,1.888,0,1,1,0,3.777Z" transform="translate(37.675 173.496)" fill="#323c6b"/>
      <path id="Trazado_263775" data-name="Trazado 263775" d="M17.9,72.221H16.013a1.888,1.888,0,0,1,0-3.777H17.9a1.888,1.888,0,0,1,0,3.777Z" transform="translate(29.779 173.496)" fill="#323c6b"/>
      <path id="Trazado_263776" data-name="Trazado 263776" d="M75.467,25.363a1.888,1.888,0,0,1-1.805-1.334A20.911,20.911,0,0,0,53.835,9.377H50.575a1.888,1.888,0,1,1,0-3.777h3.259A24.412,24.412,0,0,1,77.272,22.912a1.888,1.888,0,0,1-1.805,2.443Z" transform="translate(125.745 -1)" fill="#323c6b"/>
      <path id="Trazado_263777" data-name="Trazado 263777" d="M57.431,17.2a1.888,1.888,0,0,1-1.888-1.888V14.055a1.888,1.888,0,1,1,3.777,0v1.258A1.888,1.888,0,0,1,57.431,17.2Z" transform="translate(144.782 17.234)" fill="#323c6b"/>
      <path id="Trazado_263778" data-name="Trazado 263778" d="M41.965,101.539c-18.8,0-31.437-14.147-31.437-35.2v-2.3c0-21.059,12.633-35.206,31.437-35.206S73.383,42.982,73.383,64.041v2.3C73.383,87.392,60.757,101.539,41.965,101.539Zm0-68.928c-16.542,0-27.66,12.629-27.66,31.429v2.3c0,18.8,11.115,31.426,27.66,31.426S69.606,85.134,69.606,66.337v-2.3C69.606,45.241,58.5,32.612,41.965,32.612Z" transform="translate(19.791 63.515)" fill="#323c6b"/>
      <path id="Trazado_263779" data-name="Trazado 263779" d="M116.449,115.84H12.066A9.578,9.578,0,0,1,2.5,106.274V91.658c0-23.831,21.587-40.871,41.589-42.993a1.888,1.888,0,0,1,1.511.517,26.27,26.27,0,0,0,18.66,7.176,26.278,26.278,0,0,0,18.66-7.176,1.888,1.888,0,0,1,1.511-.517c20.016,2.122,41.585,19.163,41.585,42.993v14.616a9.578,9.578,0,0,1-9.566,9.566ZM43.639,52.521C25.511,54.851,6.277,70.271,6.277,91.658v14.616a5.8,5.8,0,0,0,5.79,5.79H116.449a5.8,5.8,0,0,0,5.79-5.79V91.658c0-21.4-19.227-36.807-37.359-39.137A30.066,30.066,0,0,1,64.26,60.146,30.058,30.058,0,0,1,43.639,52.521Z" transform="translate(-2.5 118.546)" fill="#323c6b"/>
      <path id="Trazado_263780" data-name="Trazado 263780" d="M78.26,105.245c-18.8,0-31.437-14.147-31.437-35.206v-2.3c0-21.055,12.633-35.2,31.437-35.2s31.418,14.147,31.418,35.2v2.3C109.678,91.094,97.053,105.245,78.26,105.245Zm0-68.928c-16.546,0-27.66,12.629-27.66,31.426v2.3c0,18.8,11.115,31.429,27.66,31.429S105.9,88.84,105.9,70.039v-2.3C105.9,48.947,94.79,36.318,78.26,36.318Z" transform="translate(120.57 73.806)" fill="#323c6b"/>
      <path id="Trazado_263781" data-name="Trazado 263781" d="M152.744,119.542H48.361a9.578,9.578,0,0,1-9.566-9.566V95.364c0-23.831,21.587-40.871,41.585-42.993a1.888,1.888,0,0,1,1.511.517,27.834,27.834,0,0,0,37.321,0,1.888,1.888,0,0,1,1.511-.517c20.016,2.122,41.589,19.163,41.589,42.993v14.612a9.578,9.578,0,0,1-9.566,9.566ZM79.93,56.223C61.8,58.553,42.572,73.973,42.572,95.364v14.612a5.8,5.8,0,0,0,5.79,5.79H152.744a5.8,5.8,0,0,0,5.79-5.79V95.364c0-21.4-19.227-36.811-37.362-39.141a31.7,31.7,0,0,1-41.241,0Z" transform="translate(98.279 128.837)" fill="#323c6b"/>
      <path id="Trazado_263782" data-name="Trazado 263782" d="M100.671,88.8a1.888,1.888,0,0,1-1.1-.355L75.5,71.168H44.4A13.218,13.218,0,0,1,31.207,57.98V21.818A13.245,13.245,0,0,1,44.425,8.6H102.37a13.218,13.218,0,0,1,13.192,13.192V57.934a13.245,13.245,0,0,1-13,13.218V86.894a1.888,1.888,0,0,1-1.888,1.888ZM44.452,12.377a9.464,9.464,0,0,0-9.442,9.442V57.961a9.442,9.442,0,0,0,9.389,9.43H76.123a1.888,1.888,0,0,1,1.1.355L98.8,83.23V69.279a1.888,1.888,0,0,1,1.888-1.888h1.662a9.464,9.464,0,0,0,9.442-9.442V21.807a9.442,9.442,0,0,0-9.423-9.43Z" transform="translate(77.209 7.33)" fill="#323c6b"/>
      <path id="Trazado_263783" data-name="Trazado 263783" d="M31.731,84.568a1.888,1.888,0,0,1-1.888-1.888V66.927a13.241,13.241,0,0,1-13-13.241V17.551A13.184,13.184,0,0,1,30.02,4.382H87.931A13.237,13.237,0,0,1,101.172,17.6v4.6a1.888,1.888,0,1,1-3.777,0V17.585a9.442,9.442,0,0,0-9.464-9.442H30.016a9.4,9.4,0,0,0-9.4,9.393V53.671a9.442,9.442,0,0,0,9.442,9.464h1.677a1.888,1.888,0,0,1,1.888,1.888V79L55.191,63.506a1.888,1.888,0,0,1,1.1-.355H72.968a1.888,1.888,0,1,1,0,3.777H56.906L32.83,84.213A1.888,1.888,0,0,1,31.731,84.568Z" transform="translate(37.337 -4.382)" fill="#323c6b"/>
    </g>
    <path id="Trazado_263784" data-name="Trazado 263784" d="M74.938,70.472H49.589a2.266,2.266,0,1,1,0-4.532H74.938a2.266,2.266,0,0,1,0,4.532Z" transform="translate(124.458 170.925)" fill="#fff"/>
    <path id="Trazado_263785" data-name="Trazado 263785" d="M59.713,70.472h-1.4a2.266,2.266,0,1,1,0-4.532h1.4a2.266,2.266,0,1,1,0,4.532Z" transform="translate(148.69 170.925)" fill="#fff"/>
  </g>
</svg>
