<svg xmlns="http://www.w3.org/2000/svg" width="270" height="276" viewBox="0 0 270 276">
  <g id="Grupo_161296" data-name="Grupo 161296" transform="translate(-180 -3175)">
    <rect id="Image_Place_Holder" data-name="Image Place Holder" width="270" height="276" transform="translate(450 3451) rotate(180)" fill="#d9eaea"/>
    <g id="dialogo" transform="translate(246.554 3263)">
      <path id="Trazado_263606" data-name="Trazado 263606" d="M235.117,45.756c-11.689,0-21.165,7.566-21.165,16.9,0,6.322,4.348,11.833,10.786,14.731a1.462,1.462,0,0,1,.476,2.325,10,10,0,0,1-6.037,3.2.31.31,0,0,0-.091.585c2.552,1.248,10,3.976,15.345-3.348a1.461,1.461,0,0,1,1.156-.6c12.067-.2,20.7-8.185,20.7-16.895,0-9.334-9.476-16.9-21.165-16.9Z" transform="translate(-152.912 -37.314)" fill="#dd636e"/>
      <g id="Grupo_159712" data-name="Grupo 159712" transform="translate(66 12.004)">
        <path id="Trazado_263607" data-name="Trazado 263607" d="M270.039,65.066a15.055,15.055,0,0,1,5.208,11.1c0,8.594-8.4,16.486-20.216,16.883a2.546,2.546,0,0,0-1.921.987,10.772,10.772,0,0,1-10.735,4.353,10.466,10.466,0,0,1-1.275.267.31.31,0,0,0-.091.585c2.552,1.248,10,3.976,15.345-3.348a1.471,1.471,0,0,1,1.165-.6c12.063-.2,20.687-8.187,20.687-16.895C278.205,72.983,275.009,68.159,270.039,65.066Z" transform="translate(-240.835 -65.066)" fill="#da4a54"/>
      </g>
      <path id="Trazado_263608" data-name="Trazado 263608" d="M55.911,260.158a12.033,12.033,0,0,0-4.062-9.015L49.1,248.713a3.124,3.124,0,0,1-1.054-2.34v-1.808a3.382,3.382,0,1,0-6.763,0V233.113a3.668,3.668,0,1,0-7.336,0v24.879a5.232,5.232,0,0,0,2.348,4.365l3.042,2.01a5.231,5.231,0,0,1,2.348,4.365v2.094H55.911Z" transform="translate(-6.117 -187.113)" fill="#f1d0a5"/>
      <g id="Grupo_159713" data-name="Grupo 159713" transform="translate(36.381 54.07)">
        <path id="Trazado_263609" data-name="Trazado 263609" d="M89.646,303.028,86.9,300.6a3.124,3.124,0,0,1-1.054-2.34V296.45a3.381,3.381,0,0,0-5.548-2.6,3.38,3.38,0,0,1,2.835,3.333V299a3.124,3.124,0,0,0,1.054,2.34l2.749,2.431a12.035,12.035,0,0,1,4.062,9.015v9.928h2.713V312.043A12.034,12.034,0,0,0,89.646,303.028Z" transform="translate(-80.295 -293.068)" fill="#f1b986"/>
      </g>
      <path id="Trazado_263610" data-name="Trazado 263610" d="M74.8,463.1H56.056a1.7,1.7,0,0,1-1.7-1.7v-5.968a1.7,1.7,0,0,1,1.7-1.7H74.8a1.7,1.7,0,0,1,1.7,1.7V461.4A1.7,1.7,0,0,1,74.8,463.1Z" transform="translate(-22.762 -370.02)" fill="#95d6a4"/>
      <path id="Trazado_263611" data-name="Trazado 263611" d="M148.128,453.731h-3.855a1.7,1.7,0,0,1,1.7,1.7V461.4a1.7,1.7,0,0,1-1.7,1.7h3.855a1.7,1.7,0,0,0,1.7-1.7V455.43A1.7,1.7,0,0,0,148.128,453.731Z" transform="translate(-96.088 -370.02)" fill="#78c2a4"/>
      <path id="Trazado_263612" data-name="Trazado 263612" d="M359,270.824h14.228V268.73a5.231,5.231,0,0,1,2.348-4.365l3.042-2.01a5.231,5.231,0,0,0,2.348-4.365V233.112a3.668,3.668,0,0,0-7.336,0v11.452a3.382,3.382,0,1,0-6.763,0v1.808a3.124,3.124,0,0,1-1.054,2.34l-2.749,2.431A12.035,12.035,0,0,0,359,260.157Z" transform="translate(-271.196 -187.113)" fill="#f1d0a5"/>
      <g id="Grupo_159714" data-name="Grupo 159714" transform="translate(99.346 42.331)">
        <path id="Trazado_263613" data-name="Trazado 263613" d="M428.329,229.444a3.65,3.65,0,0,0-1.341.256,3.666,3.666,0,0,1,2.327,3.411v23.219a5.231,5.231,0,0,1-2.348,4.365l-3.042,2.01a5.231,5.231,0,0,0-2.348,4.365v3.755h2.681V268.73a5.231,5.231,0,0,1,2.348-4.365l3.042-2.01A5.231,5.231,0,0,0,432,257.991V233.112A3.668,3.668,0,0,0,428.329,229.444Z" transform="translate(-421.579 -229.444)" fill="#f1b986"/>
      </g>
      <path id="Trazado_263614" data-name="Trazado 263614" d="M358.062,463.1H339.317a1.7,1.7,0,0,1-1.7-1.7v-5.968a1.7,1.7,0,0,1,1.7-1.7h18.745a1.7,1.7,0,0,1,1.7,1.7V461.4A1.7,1.7,0,0,1,358.062,463.1Z" transform="translate(-253.762 -370.02)" fill="#95d6a4"/>
      <path id="Trazado_263615" data-name="Trazado 263615" d="M431.389,453.731h-3.855a1.7,1.7,0,0,1,1.7,1.7V461.4a1.7,1.7,0,0,1-1.7,1.7h3.855a1.7,1.7,0,0,0,1.7-1.7V455.43A1.7,1.7,0,0,0,431.389,453.731Z" transform="translate(-327.089 -370.02)" fill="#78c2a4"/>
      <path id="Trazado_263616" data-name="Trazado 263616" d="M91.253,7.5C78.743,7.5,68.6,15.6,68.6,25.586c0,6.766,4.653,12.663,11.543,15.765a1.564,1.564,0,0,1,.509,2.488,10.7,10.7,0,0,1-6.46,3.423.331.331,0,0,0-.1.626c2.731,1.335,10.7,4.255,16.423-3.583a1.562,1.562,0,0,1,1.238-.637c12.914-.211,22.148-8.76,22.148-18.081C113.9,15.6,103.763,7.5,91.253,7.5Z" transform="translate(-34.378 -6.116)" fill="#95d6a4"/>
      <g id="Grupo_159715" data-name="Grupo 159715" transform="translate(39.531 4.552)">
        <path id="Trazado_263617" data-name="Trazado 263617" d="M127.521,24.674A16.379,16.379,0,0,1,133.96,37.3c0,9.129-8.858,17.518-21.355,18.058a3.394,3.394,0,0,0-2.5,1.268A11.506,11.506,0,0,1,98.688,61.07q-.5.12-1.034.2a.331.331,0,0,0-.1.625c2.73,1.335,10.7,4.256,16.423-3.583a1.564,1.564,0,0,1,1.239-.638c12.914-.211,22.148-8.76,22.148-18.081C137.364,33.4,133.465,27.934,127.521,24.674Z" transform="translate(-97.369 -24.674)" fill="#78c2a4"/>
      </g>
      <g id="Grupo_159716" data-name="Grupo 159716" transform="translate(26.446 0)">
        <path id="Trazado_263618" data-name="Trazado 263618" d="M357.41,238.978a1.383,1.383,0,0,0,1.384-1.384V227a5.052,5.052,0,1,0-10.1,0v7.128a4.762,4.762,0,0,0-6.763,4.325v1.808a1.74,1.74,0,0,1-.588,1.3l-2.748,2.431a13.425,13.425,0,0,0-4.529,10.052v9.283H333.2a3.086,3.086,0,0,0-3.082,3.082v5.968a3.086,3.086,0,0,0,3.082,3.082h18.745a3.086,3.086,0,0,0,3.082-3.082v-5.968a3.086,3.086,0,0,0-3.082-3.082h-.889v-.711a3.838,3.838,0,0,1,1.726-3.21l3.042-2.01a6.6,6.6,0,0,0,2.968-5.519v-8.749a1.384,1.384,0,1,0-2.767,0v8.749a3.838,3.838,0,0,1-1.726,3.21l-3.042,2.01a6.6,6.6,0,0,0-2.968,5.519v.711H336.83v-9.283a10.657,10.657,0,0,1,3.6-7.979l2.748-2.431a4.509,4.509,0,0,0,1.522-3.377v-1.808a2,2,0,0,1,4,0v4.172a4.155,4.155,0,0,1-1.36,3.071l-3.6,3.263a1.384,1.384,0,0,0,1.86,2.05l3.6-3.263a6.928,6.928,0,0,0,2.26-4.825,1.424,1.424,0,0,0,.008-.146V227a2.284,2.284,0,1,1,4.569,0v10.6A1.384,1.384,0,0,0,357.41,238.978Zm-5.149,27.43v5.968a.315.315,0,0,1-.315.315H333.2a.315.315,0,0,1-.315-.315v-5.968a.315.315,0,0,1,.315-.315h18.746A.315.315,0,0,1,352.261,266.407Z" transform="translate(-274.092 -180.997)"/>
        <path id="Trazado_263619" data-name="Trazado 263619" d="M52.039,263.325h-.862v-9.283a13.425,13.425,0,0,0-4.529-10.052L43.9,241.56a1.741,1.741,0,0,1-.587-1.3v-1.808a4.763,4.763,0,0,0-6.763-4.325V227a5.052,5.052,0,1,0-10.1,0v24.879a6.6,6.6,0,0,0,2.969,5.519l3.042,2.01a3.838,3.838,0,0,1,1.727,3.21v.711h-.889a3.086,3.086,0,0,0-3.083,3.082v5.968a3.086,3.086,0,0,0,3.083,3.082H52.04a3.086,3.086,0,0,0,3.083-3.082v-5.968a3.086,3.086,0,0,0-3.083-3.083ZM33.982,257.1l-3.042-2.01a3.837,3.837,0,0,1-1.727-3.21V227a2.284,2.284,0,0,1,4.568,0V242.77a1.417,1.417,0,0,0,.008.146,6.928,6.928,0,0,0,2.26,4.825l3.6,3.263a1.384,1.384,0,0,0,1.86-2.05l-3.6-3.263a4.155,4.155,0,0,1-1.36-3.071v-4.172a2,2,0,0,1,4,0v1.808a4.51,4.51,0,0,0,1.522,3.377l2.748,2.431a10.656,10.656,0,0,1,3.6,7.979v9.283H36.95v-.711a6.6,6.6,0,0,0-2.968-5.519Zm18.373,15.28a.315.315,0,0,1-.315.315H33.294a.316.316,0,0,1-.315-.315v-5.968a.315.315,0,0,1,.315-.315H52.039a.316.316,0,0,1,.315.315Z" transform="translate(-26.446 -180.997)"/>
        <path id="Trazado_263620" data-name="Trazado 263620" d="M125.778,58.26h8.071a1.384,1.384,0,0,0,0-2.767h-8.071a1.384,1.384,0,1,0,0,2.767Z" transform="translate(-106.323 -45.255)"/>
        <path id="Trazado_263621" data-name="Trazado 263621" d="M125.778,86.62h21.948a1.384,1.384,0,1,0,0-2.767H125.778a1.384,1.384,0,0,0,0,2.767Z" transform="translate(-106.323 -68.382)"/>
        <path id="Trazado_263622" data-name="Trazado 263622" d="M125.778,114.978h21.948a1.384,1.384,0,1,0,0-2.767H125.778a1.384,1.384,0,0,0,0,2.767Z" transform="translate(-106.323 -91.509)"/>
        <path id="Trazado_263623" data-name="Trazado 263623" d="M125.778,143.336h15.14a1.384,1.384,0,1,0,0-2.767h-15.14a1.384,1.384,0,0,0,0,2.767Z" transform="translate(-106.323 -114.635)"/>
        <path id="Trazado_263624" data-name="Trazado 263624" d="M110.96,43.62a24.91,24.91,0,0,0,15.746-5.584,16.894,16.894,0,0,0,6.311-12.695c0-4.924-2.371-9.538-6.675-12.995a1.384,1.384,0,1,0-1.733,2.158,13.93,13.93,0,0,1,5.64,10.837,14.142,14.142,0,0,1-5.334,10.585,22.143,22.143,0,0,1-14,4.927,2.859,2.859,0,0,0-2.252,1.163A9.635,9.635,0,0,1,97.979,46a11.611,11.611,0,0,0,3.6-2.664,2.845,2.845,0,0,0-.923-4.526,20.149,20.149,0,0,1-3.871-2.281,24.253,24.253,0,0,0,4.292-2.471h13.282a1.384,1.384,0,1,0,0-2.767H104.225a19.989,19.989,0,0,0,1.728-2.121h14.769a1.384,1.384,0,1,0,0-2.767H107.57a17.319,17.319,0,0,0,.837-2.122h12.315a1.384,1.384,0,0,0,0-2.767H109.033a15.337,15.337,0,0,0,.139-2.043,16.545,16.545,0,0,0-2.915-9.288,25,25,0,0,1,4.211-.357,24.121,24.121,0,0,1,9.616,1.96A1.384,1.384,0,1,0,121.2,9.251a26.912,26.912,0,0,0-10.728-2.193,27.564,27.564,0,0,0-6.153.689C99.923,3.044,92.961,0,85.137,0,71.884,0,61.1,8.734,61.1,19.47a17.1,17.1,0,0,0,5.062,11.961,1.384,1.384,0,0,0,1.995-1.918,14.385,14.385,0,0,1-4.29-10.043c0-9.21,9.541-16.7,21.268-16.7,7.324,0,13.795,2.923,17.622,7.361.01.013.021.024.031.037A14.237,14.237,0,0,1,106.4,19.47a15.232,15.232,0,0,1-5.743,11.4,23.8,23.8,0,0,1-15.044,5.3,2.961,2.961,0,0,0-2.333,1.2,10.439,10.439,0,0,1-11.807,4.235,12.28,12.28,0,0,0,4.076-2.944,2.948,2.948,0,0,0-.957-4.69,22.6,22.6,0,0,1-2.276-1.184A1.384,1.384,0,1,0,70.9,35.167a25.4,25.4,0,0,0,2.556,1.33.175.175,0,0,1,.1.131.166.166,0,0,1-.043.156,9.344,9.344,0,0,1-5.642,2.993,1.715,1.715,0,0,0-.508,3.238A17.469,17.469,0,0,0,74.763,44.8c3.464,0,7.458-1.279,10.756-5.793a.18.18,0,0,1,.143-.07A29.079,29.079,0,0,0,93.8,37.658a22.394,22.394,0,0,0,5.724,3.676.073.073,0,0,1,.046.058.065.065,0,0,1-.018.066,8.641,8.641,0,0,1-5.218,2.769,1.693,1.693,0,0,0-.5,3.2,16.429,16.429,0,0,0,6.95,1.676c3.259,0,7.017-1.2,10.12-5.451A.079.079,0,0,1,110.96,43.62Z" transform="translate(-54.708 0)"/>
      </g>
    </g>
  </g>
</svg>
