<svg xmlns="http://www.w3.org/2000/svg" width="139.935" height="99.925" viewBox="0 0 139.935 99.925">
  <g id="Grupo_156283" data-name="Grupo 156283" transform="translate(-314 -5473)">
    <g id="Grupo_117447" data-name="Grupo 117447" transform="translate(-3333.279 6098.209)" opacity="0.3">
      <path id="Trazado_158283" data-name="Trazado 158283" d="M3677.784-530.075h0a16.354,16.354,0,0,0,23.129,0l67.216-67.214a16.357,16.357,0,0,0,0-23.129,16.355,16.355,0,0,0-23.129,0L3677.784-553.2A16.353,16.353,0,0,0,3677.784-530.075Z" transform="translate(14.296)" fill="#fc4b52"/>
      <path id="Trazado_158284" data-name="Trazado 158284" d="M3652.069-530.075h0a16.354,16.354,0,0,0,23.129,0l67.216-67.214a16.358,16.358,0,0,0,0-23.129,16.355,16.355,0,0,0-23.129,0L3652.069-553.2A16.354,16.354,0,0,0,3652.069-530.075Z" transform="translate(0)" fill="#feca2e"/>
    </g>
    <g id="Photography-Man-Lifestyle-Camera-Mountain" transform="translate(348.1 5490.128)">
      <path id="Trazado_262766" data-name="Trazado 262766" d="M65.069,50.955v9.4L49.23,63.746H40.3L29.44,61.432a2.258,2.258,0,0,0,1.761-2.2v-15.8a2.278,2.278,0,0,0-1.4-2.088,11.282,11.282,0,0,1,4.324-1.558l.564-.079c.689,2.743,4.933,4.854,10.059,4.854s9.37-2.111,10.059-4.854l.564.079a11.3,11.3,0,0,1,9.7,11.176Z" transform="translate(3.537 4.869)" fill="#57a4ff"/>
      <path id="Trazado_262767" data-name="Trazado 262767" d="M63.582,50.955v9.4L47.743,63.746H40.97l15.839-3.387v-9.4a11.314,11.314,0,0,0-4.764-9.212A4.387,4.387,0,0,0,53.32,39.7l.564.079a11.3,11.3,0,0,1,9.7,11.176Z" transform="translate(5.024 4.869)" fill="#006df0"/>
      <path id="Trazado_262768" data-name="Trazado 262768" d="M55.966,10.59c5.8.8,9.675,2.224,9.675,3.85,0,1.671-4.087,3.127-10.16,3.906a80.987,80.987,0,0,1-10.16.61,80.989,80.989,0,0,1-10.16-.61C29.087,17.567,25,16.11,25,14.44c0-1.626,3.872-3.048,9.675-3.85l-.079.463A40.8,40.8,0,0,0,45.32,12.182a40.8,40.8,0,0,0,10.725-1.129Z" transform="translate(2.965 1.116)" fill="#806749"/>
      <path id="Trazado_262769" data-name="Trazado 262769" d="M63.707,14.44c0,1.671-4.087,3.127-10.16,3.906a80.987,80.987,0,0,1-10.16.61c-1.152,0-2.292-.023-3.387-.068,2.427-.09,4.719-.282,6.773-.542,6.074-.779,10.16-2.235,10.16-3.906,0-1.106-1.806-2.122-4.8-2.913a18.332,18.332,0,0,0,1.976-.474l-.079-.463c5.8.8,9.675,2.224,9.675,3.85Z" transform="translate(4.899 1.116)" fill="#6a563d"/>
      <path id="Trazado_262770" data-name="Trazado 262770" d="M55.773,48v5.645a3.387,3.387,0,1,1-6.773,0V48Z" transform="translate(6.059 5.939)" fill="#898890"/>
      <path id="Trazado_262771" data-name="Trazado 262771" d="M55.58,48v5.645A3.387,3.387,0,0,1,50.5,56.58a3.387,3.387,0,0,0,1.693-2.935V48Z" transform="translate(6.252 5.939)" fill="#57565c"/>
      <path id="Trazado_262772" data-name="Trazado 262772" d="M56.836,21.456v2.258a2.275,2.275,0,0,1-2.258,2.258,10.108,10.108,0,0,1-2.98,7.18,9.509,9.509,0,0,1-2.664,1.908,10.047,10.047,0,0,1-9.031,0,9.509,9.509,0,0,1-2.664-1.908,10.108,10.108,0,0,1-2.98-7.18A2.265,2.265,0,0,1,32,23.714V21.456A2.275,2.275,0,0,1,34.258,19.2V17.46a80.988,80.988,0,0,0,10.16.61,80.991,80.991,0,0,0,10.16-.61V19.2a2.265,2.265,0,0,1,2.258,2.258Z" transform="translate(3.867 2.002)" fill="#ffc477"/>
      <path id="Trazado_262773" data-name="Trazado 262773" d="M48.9,19.2v-1.31c1.592-.1,3.1-.248,4.516-.429V19.2a2.265,2.265,0,0,1,2.258,2.258v2.258a2.275,2.275,0,0,1-2.258,2.258,10.108,10.108,0,0,1-2.98,7.18,9.509,9.509,0,0,1-2.664,1.908A10.011,10.011,0,0,1,41,35.873a9.794,9.794,0,0,0,2.258-.813,9.509,9.509,0,0,0,2.664-1.908,10.108,10.108,0,0,0,2.98-7.18Z" transform="translate(5.028 2.002)" fill="#ffa733"/>
      <path id="Trazado_262774" data-name="Trazado 262774" d="M54.87,11.577l.079.463a40.8,40.8,0,0,1-10.725,1.129A40.8,40.8,0,0,1,33.5,12.04l.079-.463L34.392,6.7a4.508,4.508,0,0,1,5.543-3.635l3.195.8a4.493,4.493,0,0,0,2.19,0l3.195-.8A4.508,4.508,0,0,1,54.058,6.7Z" transform="translate(4.061 0.129)" fill="#a78966"/>
      <path id="Trazado_262775" data-name="Trazado 262775" d="M54.24,12.04a40.8,40.8,0,0,1-10.725,1.129c-1.592,0-3.116-.056-4.516-.158a29.106,29.106,0,0,0,6.209-.971l-.079-.463L44.317,6.7a4.465,4.465,0,0,0-1.648-2.788,4.341,4.341,0,0,0,1.942-.045l3.195-.8A4.508,4.508,0,0,1,53.348,6.7l.813,4.877Z" transform="translate(4.77 0.129)" fill="#806749"/>
      <path id="Trazado_262776" data-name="Trazado 262776" d="M48.664,39.767l5.543.79c-.689,2.743-4.933,4.854-10.059,4.854S34.779,43.3,34.09,40.557l5.543-.79V33.05a10.047,10.047,0,0,0,9.031,0Z" transform="translate(4.137 4.012)" fill="#ffc477"/>
      <path id="Trazado_262777" data-name="Trazado 262777" d="M5.258,61.836A2.265,2.265,0,0,1,3,59.578v-15.8a2.265,2.265,0,0,1,2.258-2.258H9.773a2.275,2.275,0,0,0,2.258-2.258A2.265,2.265,0,0,1,14.289,37H23.32a2.275,2.275,0,0,1,2.258,2.258,2.265,2.265,0,0,0,2.258,2.258h4.516a2.195,2.195,0,0,1,.858.169,2.278,2.278,0,0,1,1.4,2.088v15.8a2.258,2.258,0,0,1-1.761,2.2,2.391,2.391,0,0,1-.5.056Z" transform="translate(0.129 4.521)" fill="#898890"/>
      <path id="Trazado_262778" data-name="Trazado 262778" d="M26.031,41.516H21.516a2.265,2.265,0,0,1-2.258-2.258A2.275,2.275,0,0,0,17,37h4.516a2.275,2.275,0,0,1,2.258,2.258,2.265,2.265,0,0,0,2.258,2.258Z" transform="translate(1.934 4.521)" fill="#787680"/>
      <path id="Trazado_262779" data-name="Trazado 262779" d="M31.773,43.258v15.8a2.258,2.258,0,0,1-1.761,2.2,2.391,2.391,0,0,1-.5.056H25a2.391,2.391,0,0,0,.5-.056,2.258,2.258,0,0,0,1.761-2.2v-15.8a2.278,2.278,0,0,0-1.4-2.088A2.195,2.195,0,0,0,25,41h4.516a2.195,2.195,0,0,1,.858.169A2.278,2.278,0,0,1,31.773,43.258Z" transform="translate(2.965 5.036)" fill="#787680"/>
      <path id="Trazado_262780" data-name="Trazado 262780" d="M23.32,19.645l6.773,12.418H3L10.9,14l6.773,12.418Z" transform="translate(0.129 1.556)" fill="#9cdd05"/>
      <path id="Trazado_262781" data-name="Trazado 262781" d="M28.085,31.418H23.57l-4.99-9.144L21.312,19Z" transform="translate(2.137 2.2)" fill="#5eac24"/>
      <path id="Trazado_262782" data-name="Trazado 262782" d="M17.9,47a7.9,7.9,0,1,1-5.589,2.313A7.9,7.9,0,0,1,17.9,47Z" transform="translate(1.031 5.81)" fill="#c6c5ca"/>
      <path id="Trazado_262783" data-name="Trazado 262783" d="M25.16,54.9a7.919,7.919,0,0,1-7.9,7.9A7.436,7.436,0,0,1,15,62.466a7.71,7.71,0,0,0,3.263-1.919A7.9,7.9,0,0,0,15,47.327,7.8,7.8,0,0,1,17.258,47a7.9,7.9,0,0,1,7.9,7.9Z" transform="translate(1.676 5.81)" fill="#898890"/>
      <circle id="Elipse_5711" data-name="Elipse 5711" cx="2.258" cy="2.258" r="2.258" transform="translate(16.676 9.911)" fill="#ff3051"/>
      <path id="Trazado_262784" data-name="Trazado 262784" d="M19.387,11.258A2.258,2.258,0,0,1,16,13.211,2.258,2.258,0,0,0,16,9.3a2.258,2.258,0,0,1,3.387,1.953Z" transform="translate(1.805 0.911)" fill="#cd2a00"/>
      <path id="Trazado_262785" data-name="Trazado 262785" d="M17.129,50a1.129,1.129,0,0,0,0,2.258,2.258,2.258,0,0,1,2.258,2.258,1.129,1.129,0,0,0,2.258,0A4.516,4.516,0,0,0,17.129,50Z" transform="translate(1.805 6.197)"/>
      <path id="Trazado_262786" data-name="Trazado 262786" d="M55.9,47H49.129A1.129,1.129,0,0,0,48,48.129v5.645a4.516,4.516,0,1,0,9.031,0V48.129A1.129,1.129,0,0,0,55.9,47Zm-1.129,6.773a2.258,2.258,0,0,1-4.516,0V49.258h4.516Z" transform="translate(5.93 5.81)"/>
      <path id="Trazado_262787" data-name="Trazado 262787" d="M31.216,31.65,24.443,19.232a1.129,1.129,0,0,0-1.863-.181L18,24.549,12.025,13.587A1.188,1.188,0,0,0,10.986,13a1.161,1.161,0,0,0-.993.677L2.09,31.74a1.164,1.164,0,0,0,.09,1.072,1.144,1.144,0,0,0,.948.508H30.223a1.142,1.142,0,0,0,.971-.553,1.129,1.129,0,0,0,.023-1.118Zm-26.36-.587,6.288-14.371,5.667,10.4a1.129,1.129,0,0,0,1.863.181l4.583-5.5,5.069,9.291Z" transform="translate(0 1.427)"/>
      <circle id="Elipse_5712" data-name="Elipse 5712" cx="2.258" cy="2.258" r="2.258" transform="translate(41.512 22.329)"/>
      <circle id="Elipse_5713" data-name="Elipse 5713" cx="2.258" cy="2.258" r="2.258" transform="translate(50.543 22.329)"/>
      <path id="Trazado_262788" data-name="Trazado 262788" d="M19.645,40H15.129a1.129,1.129,0,1,0,0,2.258h4.516a1.129,1.129,0,1,0,0-2.258Z" transform="translate(1.547 4.907)"/>
      <path id="Trazado_262789" data-name="Trazado 262789" d="M17.387,14.773A3.387,3.387,0,1,0,14,11.387a3.387,3.387,0,0,0,3.387,3.387Zm0-4.516a1.129,1.129,0,1,1-1.129,1.129A1.129,1.129,0,0,1,17.387,10.258Z" transform="translate(1.547 0.782)"/>
      <circle id="Elipse_5714" data-name="Elipse 5714" cx="2.258" cy="2.258" r="2.258" transform="translate(26.836 49.423)"/>
      <path id="Trazado_262790" data-name="Trazado 262790" d="M59.067,43.53,53.93,42.8V37.739a11.212,11.212,0,0,0,5.6-8.817,3.225,3.225,0,0,0,1.3-.8,3.354,3.354,0,0,0,1-2.4V23.458a3.369,3.369,0,0,0-1.942-3.048c5.34-.8,9.844-2.28,9.844-4.854,0-2.224-3.308-3.85-9.822-4.843l-.677-4.064A5.645,5.645,0,0,0,52.3,2.1l-3.195.8a3.394,3.394,0,0,1-1.648,0l-3.195-.8a5.645,5.645,0,0,0-6.932,4.55l-.677,4.064c-6.514.993-9.822,2.619-9.822,4.843,0,2.574,4.516,4.064,9.855,4.854a3.2,3.2,0,0,0-.948.643,3.354,3.354,0,0,0-1,2.4v2.258a3.387,3.387,0,0,0,2.292,3.206A11.141,11.141,0,0,0,40.3,35.944a10.831,10.831,0,0,0,2.337,1.795V42.8L37.5,43.53a12.606,12.606,0,0,0-4.3,1.456,3.826,3.826,0,0,0-.723-.079H27.965a1.129,1.129,0,0,1-1.129-1.129,3.387,3.387,0,0,0-3.387-3.387H14.418a3.4,3.4,0,0,0-3.387,3.387,1.071,1.071,0,0,1-.35.8,1.048,1.048,0,0,1-.779.327H5.387A3.4,3.4,0,0,0,2,48.294V64.1a3.4,3.4,0,0,0,3.387,3.387h7.6a8.967,8.967,0,0,0,11.9,0h7.6c.135,0,.282-.034.418-.045l10.7,2.28a1.684,1.684,0,0,0,.237.023h8.93A1.684,1.684,0,0,0,53,69.721l15.839-3.387a1.129,1.129,0,0,0,.892-1.106v-9.4A12.5,12.5,0,0,0,59.067,43.53ZM39.57,7.01a3.294,3.294,0,0,1,1.479-2.269,3.345,3.345,0,0,1,2.676-.452l3.195.8a5.594,5.594,0,0,0,2.732,0l3.195-.8a3.345,3.345,0,0,1,2.676.452A3.294,3.294,0,0,1,57,7.01l.723,4.335a45.687,45.687,0,0,1-9.438.824,45.687,45.687,0,0,1-9.438-.824ZM29.094,15.578c.09-.327,1.682-1.66,7.7-2.608a.9.9,0,0,0,.429.271,41.406,41.406,0,0,0,11.063,1.185,41.407,41.407,0,0,0,11.063-1.185.9.9,0,0,0,.429-.271c6.017.948,7.609,2.28,7.7,2.563-.327,1.2-7.214,3.409-19.192,3.409S29.421,16.73,29.094,15.578ZM41.9,34.352a8.929,8.929,0,0,1-2.642-6.378,1.129,1.129,0,0,0-1.129-1.129A1.129,1.129,0,0,1,37,25.716V23.458a1.071,1.071,0,0,1,.35-.8,1.048,1.048,0,0,1,.779-.327A1.129,1.129,0,0,0,39.254,21.2v-.463c3.161.327,6.39.463,9.031.463s5.87-.135,9.031-.463V21.2a1.129,1.129,0,0,0,1.129,1.129,1.129,1.129,0,0,1,1.129,1.129v2.258a1.071,1.071,0,0,1-.35.8,1.048,1.048,0,0,1-.779.327,1.129,1.129,0,0,0-1.129,1.129A9.031,9.031,0,0,1,41.9,34.352ZM43.928,44.9a1.129,1.129,0,0,0,.971-1.118V38.744a11.3,11.3,0,0,0,6.773,0v5.035a1.129,1.129,0,0,0,.971,1.118l3.963.564c-1.31,1.524-4.335,2.834-8.32,2.834s-7.011-1.31-8.32-2.834ZM18.934,67.486a6.773,6.773,0,1,1,6.773-6.773A6.773,6.773,0,0,1,18.934,67.486ZM33.61,64.1a1.136,1.136,0,0,1-.869,1.1,1.094,1.094,0,0,1-.26.034H26.746a9.031,9.031,0,1,0-15.624,0H5.387A1.129,1.129,0,0,1,4.258,64.1v-15.8a1.129,1.129,0,0,1,1.129-1.129H9.9a3.387,3.387,0,0,0,3.387-3.387,1.129,1.129,0,0,1,1.129-1.129h9.031a1.071,1.071,0,0,1,.8.35,1.048,1.048,0,0,1,.327.779,3.4,3.4,0,0,0,3.387,3.387h4.516a1.075,1.075,0,0,1,.429.079,1.159,1.159,0,0,1,.7,1.05Zm33.867.214L52.643,67.486H43.962l-8.5-1.806a3.291,3.291,0,0,0,.406-1.58v-15.8a3.312,3.312,0,0,0-.542-1.829,10.4,10.4,0,0,1,2.19-.643c1.422,2.788,5.712,4.73,10.77,4.73s9.347-1.942,10.77-4.73a10.221,10.221,0,0,1,8.422,10Z" transform="translate(0 0)"/>
    </g>
  </g>
</svg>
