<svg xmlns="http://www.w3.org/2000/svg" width="220.074" height="256" viewBox="0 0 220.074 256">
  <g id="Layer_35" transform="translate(-17.963)">
    <g id="Grupo_159761" data-name="Grupo 159761">
      <g id="Grupo_159726" data-name="Grupo 159726">
        <path id="Trazado_263786" data-name="Trazado 263786" d="M110.037,149.467a42.8,42.8,0,0,1-19.9-4.9v7.03a14.93,14.93,0,0,1-8.329,13.387,101.53,101.53,0,0,1-22.012,8.4l-23.387,5.886a17.048,17.048,0,0,0-12.859,15.583l-3.078,53.079a5.263,5.263,0,0,0,5.255,5.568H194.347a5.264,5.264,0,0,0,5.255-5.568l-3.078-53.079a17.049,17.049,0,0,0-12.859-15.583l-23.387-5.886a103.7,103.7,0,0,1-22.017-8.4,14.923,14.923,0,0,1-8.323-13.384v-7.03a42.794,42.794,0,0,1-19.9,4.9Z" fill="#5290db"/>
      </g>
      <g id="Grupo_159727" data-name="Grupo 159727">
        <path id="Trazado_263787" data-name="Trazado 263787" d="M66.841,106.27v-32.7a18.042,18.042,0,1,0,.109,35.6h0c-.065-.958-.109-1.922-.109-2.9Z" fill="#f9d0b4"/>
      </g>
      <g id="Grupo_159728" data-name="Grupo 159728">
        <path id="Trazado_263788" data-name="Trazado 263788" d="M139.1,48.919V35.747A31.018,31.018,0,0,1,144.464,18.3C134.886,8.087,115,6.648,95.161,10.074a48.4,48.4,0,0,0-40.17,47.684v18.06a17.844,17.844,0,0,1,11.85-2.249V70.018A22.334,22.334,0,0,1,73.012,54.6l.015-.016a7.909,7.909,0,0,1,10.619-.721,42.451,42.451,0,0,0,26.44,8.964A42.187,42.187,0,0,0,136.427,53.9a8.045,8.045,0,0,1,2.882-1.439,30.88,30.88,0,0,1-.209-3.539Z" fill="#5b5d60"/>
      </g>
      <g id="Grupo_159729" data-name="Grupo 159729">
        <path id="Trazado_263789" data-name="Trazado 263789" d="M204.29,4.5H170.347A31.339,31.339,0,0,0,139.1,35.747V48.919a31.339,31.339,0,0,0,31.247,31.247h18.474a5.173,5.173,0,0,1,5.173,5.173v6.61a3.216,3.216,0,0,0,5.434,2.329l14.684-13.985a36.124,36.124,0,0,1,6.273-4.658,31.265,31.265,0,0,0,15.151-26.717V35.747A31.337,31.337,0,0,0,204.29,4.5Z" fill="#a7e446"/>
      </g>
      <g id="Grupo_159730" data-name="Grupo 159730">
        <path id="Trazado_263790" data-name="Trazado 263790" d="M139.308,52.458a8.045,8.045,0,0,0-2.882,1.439,42.189,42.189,0,0,1-26.341,8.935,42.454,42.454,0,0,1-26.44-8.964,7.909,7.909,0,0,0-10.619.721l-.015.016A22.334,22.334,0,0,0,66.84,70.018v36.253a43.2,43.2,0,0,0,86.394,0V75.02a31.343,31.343,0,0,1-13.926-22.562Z" fill="#f9d0b4"/>
      </g>
      <g id="Grupo_159731" data-name="Grupo 159731">
        <path id="Trazado_263791" data-name="Trazado 263791" d="M153.234,75.02v31.25c0,.974-.045,1.938-.109,2.9a18.01,18.01,0,0,0,16.983-29.008,31,31,0,0,1-16.874-5.139Z" fill="#f9d0b4"/>
      </g>
      <g id="Grupo_159732" data-name="Grupo 159732">
        <path id="Trazado_263792" data-name="Trazado 263792" d="M81.813,164.98c-.8.394-1.584.777-2.365,1.153a32.489,32.489,0,0,0,61.164.041c-1.53-.742-2.389-1.213-2.351-1.194a14.923,14.923,0,0,1-8.323-13.384v-7.03a42.855,42.855,0,0,1-39.8,0v7.03a14.924,14.924,0,0,1-8.323,13.384Z" fill="#f9d0b4"/>
      </g>
      <g id="Grupo_159733" data-name="Grupo 159733">
        <path id="Trazado_263793" data-name="Trazado 263793" d="M25.727,253.5H51.212V233.341H21.318l-.846,14.59a5.264,5.264,0,0,0,5.255,5.569Z" fill="#f9d0b4"/>
      </g>
      <g id="Grupo_159734" data-name="Grupo 159734">
        <path id="Trazado_263794" data-name="Trazado 263794" d="M199.6,247.932l-.846-14.59H168.862V253.5h25.485a5.263,5.263,0,0,0,5.255-5.568Z" fill="#f9d0b4"/>
      </g>
      <g id="Grupo_159735" data-name="Grupo 159735">
        <path id="Trazado_263795" data-name="Trazado 263795" d="M57.488,144.2a7.8,7.8,0,0,1-6.2-6.1c0-.1-.3-.1-.3,0a7.8,7.8,0,0,1-6.2,6.1c-.1,0-.1.2,0,.3a7.8,7.8,0,0,1,6.2,6.1c0,.1.3.1.3,0a7.8,7.8,0,0,1,6.2-6.1C57.588,144.4,57.588,144.2,57.488,144.2Z" fill="#70d6f9"/>
      </g>
      <g id="Grupo_159736" data-name="Grupo 159736">
        <path id="Trazado_263796" data-name="Trazado 263796" d="M187.288,158.2a11.1,11.1,0,0,0,8.9-8.7c0-.2.4-.2.4,0a11.1,11.1,0,0,0,8.9,8.7c.2,0,.2.3,0,.4a11.1,11.1,0,0,0-8.9,8.7c0,.2-.4.2-.4,0a11.1,11.1,0,0,0-8.9-8.7C187.088,158.5,187.088,158.2,187.288,158.2Z" fill="#f5c84c"/>
      </g>
      <g id="Grupo_159737" data-name="Grupo 159737">
        <circle id="Elipse_5752" data-name="Elipse 5752" cx="3.4" cy="3.4" r="3.4" transform="translate(53.706 0)" fill="#f5c84c"/>
      </g>
      <g id="Grupo_159738" data-name="Grupo 159738">
        <path id="Trazado_263797" data-name="Trazado 263797" d="M39.506,32.5h-2.3v2.3a3.159,3.159,0,0,1-3.2,3.2,3.2,3.2,0,0,1-3.2-3.1V32.5h-2.3a3.159,3.159,0,0,1-3.2-3.2,3.2,3.2,0,0,1,3.1-3.2h2.4V23.8a3.159,3.159,0,0,1,3.2-3.2,3.2,3.2,0,0,1,3.2,3.1v2.4h2.3a3.159,3.159,0,0,1,3.2,3.2,3.1,3.1,0,0,1-3.2,3.2h0Z" fill="#fc657e"/>
      </g>
      <g id="Grupo_159739" data-name="Grupo 159739">
        <circle id="Elipse_5753" data-name="Elipse 5753" cx="3.4" cy="3.4" r="3.4" transform="translate(211.306 184.2)" fill="#87d147"/>
      </g>
      <g id="Grupo_159740" data-name="Grupo 159740">
        <path id="Trazado_263798" data-name="Trazado 263798" d="M194.348,256H25.727a7.765,7.765,0,0,1-7.751-8.213l3.078-53.079A19.461,19.461,0,0,1,35.8,176.845l23.387-5.886A99.49,99.49,0,0,0,80.7,162.74,12.512,12.512,0,0,0,87.638,151.6v-6.22a2.5,2.5,0,0,1,5,0v6.22a17.319,17.319,0,0,1-9.724,15.629,103.85,103.85,0,0,1-22.507,8.583L37.02,181.693a14.485,14.485,0,0,0-10.974,13.3l-3.078,53.084A2.765,2.765,0,0,0,25.727,251H194.348a2.764,2.764,0,0,0,2.759-2.924L194.029,195a14.485,14.485,0,0,0-10.974-13.3l-23.387-5.886a107.768,107.768,0,0,1-16.008-5.491,54.527,54.527,0,0,1-6.5-3.109l-.007.015a17.315,17.315,0,0,1-9.718-15.626v-6.388a2.5,2.5,0,0,1,5,0V151.6a12.346,12.346,0,0,0,6.929,11.142c.047.023.092.047.137.073a101.488,101.488,0,0,0,21.386,8.149l23.387,5.886a19.461,19.461,0,0,1,14.745,17.868l3.078,53.074A7.761,7.761,0,0,1,194.348,256Z"/>
      </g>
      <g id="Grupo_159741" data-name="Grupo 159741">
        <path id="Trazado_263799" data-name="Trazado 263799" d="M168.862,254a2.5,2.5,0,0,1-2.5-2.5V208.4a2.5,2.5,0,0,1,5,0v43.1A2.5,2.5,0,0,1,168.862,254Z"/>
      </g>
      <g id="Grupo_159742" data-name="Grupo 159742">
        <path id="Trazado_263800" data-name="Trazado 263800" d="M51.212,254a2.5,2.5,0,0,1-2.5-2.5V208.4a2.5,2.5,0,0,1,5,0v43.1A2.5,2.5,0,0,1,51.212,254Z"/>
      </g>
      <g id="Grupo_159743" data-name="Grupo 159743">
        <path id="Trazado_263801" data-name="Trazado 263801" d="M64.068,111.918a20.535,20.535,0,0,1,0-41.07,20.333,20.333,0,0,1,2.562.166A2.5,2.5,0,0,1,66,75.974a15.351,15.351,0,0,0-1.929-.125,15.535,15.535,0,1,0,0,31.07,13.506,13.506,0,0,0,1.388-.074,2.5,2.5,0,0,1,.508,4.974,18.513,18.513,0,0,1-1.9.1Z"/>
      </g>
      <g id="Grupo_159744" data-name="Grupo 159744">
        <path id="Trazado_263802" data-name="Trazado 263802" d="M54.99,77.563a2.5,2.5,0,0,1-2.5-2.5v-17.3A50.792,50.792,0,0,1,94.734,7.611c22.947-3.962,41.481-.95,50.857,8.264a2.5,2.5,0,0,1-3.5,3.567c-8.215-8.071-25.164-10.588-46.5-6.9a45.8,45.8,0,0,0-38.1,45.22v17.3a2.5,2.5,0,0,1-2.5,2.5Z"/>
      </g>
      <g id="Grupo_159745" data-name="Grupo 159745">
        <path id="Trazado_263803" data-name="Trazado 263803" d="M123.138,125a2.5,2.5,0,0,1-2.05-1.065,13.461,13.461,0,0,0-22.1,0,2.5,2.5,0,0,1-4.1-2.869,18.461,18.461,0,0,1,30.292,0A2.5,2.5,0,0,1,123.138,125Z"/>
      </g>
      <g id="Grupo_159746" data-name="Grupo 159746">
        <circle id="Elipse_5754" data-name="Elipse 5754" cx="5.069" cy="5.069" r="5.069" transform="translate(124.488 88)"/>
      </g>
      <g id="Grupo_159747" data-name="Grupo 159747">
        <circle id="Elipse_5755" data-name="Elipse 5755" cx="5.069" cy="5.069" r="5.069" transform="translate(85.448 88)"/>
      </g>
      <g id="Grupo_159748" data-name="Grupo 159748">
        <path id="Trazado_263804" data-name="Trazado 263804" d="M197.241,97.678a5.778,5.778,0,0,1-2.281-.475,5.636,5.636,0,0,1-3.465-5.253V85.34a2.676,2.676,0,0,0-2.674-2.673H170.347A33.785,33.785,0,0,1,136.6,48.92V35.747A33.786,33.786,0,0,1,170.348,2H204.29a33.785,33.785,0,0,1,33.747,33.747V48.919a33.972,33.972,0,0,1-16.356,28.855,33.229,33.229,0,0,0-5.843,4.329L201.152,96.088a5.641,5.641,0,0,1-3.911,1.59ZM170.348,7A28.779,28.779,0,0,0,141.6,35.747V48.919a28.78,28.78,0,0,0,28.747,28.747h18.474a7.682,7.682,0,0,1,7.674,7.673v6.61a.716.716,0,0,0,1.209.519l14.686-13.985a38.053,38.053,0,0,1,6.7-4.986,28.939,28.939,0,0,0,13.946-24.578V35.747A28.781,28.781,0,0,0,204.29,7Z"/>
      </g>
      <g id="Grupo_159749" data-name="Grupo 159749">
        <path id="Trazado_263805" data-name="Trazado 263805" d="M110.037,151.967a45.748,45.748,0,0,1-45.7-45.7V70.018A24.736,24.736,0,0,1,71.2,52.879a10.392,10.392,0,0,1,13.984-.98,39.912,39.912,0,0,0,24.9,8.433,39.656,39.656,0,0,0,24.8-8.4,10.5,10.5,0,0,1,3.079-1.673,2.5,2.5,0,1,1,1.625,4.729,5.529,5.529,0,0,0-1.616.877,44.615,44.615,0,0,1-27.885,9.469,44.869,44.869,0,0,1-27.98-9.5,5.4,5.4,0,0,0-7.269.478,19.764,19.764,0,0,0-5.5,13.7v36.253a40.7,40.7,0,1,0,81.392,0V75.438a2.5,2.5,0,0,1,5,0v30.833a45.746,45.746,0,0,1-45.695,45.7Z"/>
      </g>
      <g id="Grupo_159750" data-name="Grupo 159750">
        <path id="Trazado_263806" data-name="Trazado 263806" d="M156.006,111.918a18.921,18.921,0,0,1-2.221-.135,2.5,2.5,0,0,1,.582-4.966,13.992,13.992,0,0,0,1.639.1,15.553,15.553,0,0,0,15.535-15.535,15.4,15.4,0,0,0-2.972-9.119,2.5,2.5,0,0,1,4.043-2.943,20.521,20.521,0,0,1-16.606,32.6Z"/>
      </g>
      <g id="Grupo_159751" data-name="Grupo 159751" transform="translate(374.95 88.822) rotate(180)">
        <path id="Trazado_263807" data-name="Trazado 263807" d="M182.156,73.908h0c-3.441,0-6.585-2.831-7.314-6.582s.873-7.764,2.568-12.019c.19-.479.385-.966.578-1.459h-8.817a6.883,6.883,0,0,1-6.916-6.537,6.678,6.678,0,0,1,1.5-4.449,6.729,6.729,0,0,1,0-8.48,6.73,6.73,0,0,1,0-8.481,6.679,6.679,0,0,1-1.5-4.45,6.883,6.883,0,0,1,6.916-6.537h18.3a20.586,20.586,0,0,1,6.355,1l3.232,1.046a17.38,17.38,0,0,0,5.363.846h3.228a7.061,7.061,0,0,1,7.054,7.054V46.728a7.022,7.022,0,0,1-6.758,7.047c-8.438.331-9.51,1.6-10.547,2.819-.245.288-.49.575-.765.858-2.475,3.118-6.511,8.971-7.052,11.743A5.463,5.463,0,0,1,182.156,73.908ZM168.991,45.365a1.741,1.741,0,0,0-1.74,1.8,1.874,1.874,0,0,0,1.918,1.687H180.1a3.546,3.546,0,0,1,3.327,4.763c-.447,1.221-.918,2.4-1.374,3.546-1.478,3.708-2.753,6.91-2.3,9.213a2.877,2.877,0,0,0,2.414,2.536c.179,0,.38-.007.509-.669.96-4.917,7.4-13.089,8.132-14a2.442,2.442,0,0,1,.186-.208c.218-.218.4-.442.593-.664,2.067-2.439,4.294-4.195,14.166-4.582a2.037,2.037,0,0,0,1.953-2.051V24.864a2.056,2.056,0,0,0-2.054-2.054h-3.228a22.372,22.372,0,0,1-6.9-1.089l-3.233-1.046a15.622,15.622,0,0,0-4.815-.76h-18.3a1.874,1.874,0,0,0-1.918,1.687,1.741,1.741,0,0,0,1.74,1.8,2.5,2.5,0,0,1,0,5,1.741,1.741,0,0,0,0,3.483,2.5,2.5,0,0,1,0,5,1.742,1.742,0,0,0,0,3.484,2.5,2.5,0,1,1,0,5Z"/>
      </g>
      <g id="Grupo_159752" data-name="Grupo 159752" transform="translate(374.95 88.822) rotate(180)">
        <path id="Trazado_263808" data-name="Trazado 263808" d="M164.75,38.624a4.242,4.242,0,0,0,4.242,4.242,4.241,4.241,0,0,0-4.24,4.372,4.359,4.359,0,0,0,4.417,4.112H180.1a1.045,1.045,0,0,1,.978,1.406c-2.015,5.5-4.535,10.229-3.784,14.095.935,4.808,6.944,6.41,7.831,1.869.87-4.456,7.631-12.923,7.631-12.923,1.9-1.9,1.985-4.081,13.088-4.516a4.546,4.546,0,0,0,4.355-4.55V24.864a4.554,4.554,0,0,0-4.554-4.554h-3.228a19.917,19.917,0,0,1-6.132-.967L193.052,18.3a18.135,18.135,0,0,0-5.585-.881h-18.3a4.359,4.359,0,0,0-4.417,4.112,4.242,4.242,0,0,0,4.24,4.372,4.242,4.242,0,0,0,0,8.484,4.238,4.238,0,0,0-4.24,4.24Z" fill="#f9d0b4"/>
      </g>
      <g id="Grupo_159753" data-name="Grupo 159753" transform="translate(374.95 88.822) rotate(180)">
        <path id="Trazado_263809" data-name="Trazado 263809" d="M182.156,73.908h0c-3.441,0-6.585-2.831-7.314-6.582s.873-7.764,2.568-12.019c.19-.479.385-.966.578-1.459h-8.817a6.883,6.883,0,0,1-6.916-6.537,6.678,6.678,0,0,1,1.5-4.449,6.729,6.729,0,0,1,0-8.48,6.73,6.73,0,0,1,0-8.481,6.679,6.679,0,0,1-1.5-4.45,6.883,6.883,0,0,1,6.916-6.537h18.3a20.586,20.586,0,0,1,6.355,1l3.232,1.046a17.38,17.38,0,0,0,5.363.846h3.228a7.061,7.061,0,0,1,7.054,7.054V46.728a7.022,7.022,0,0,1-6.758,7.047c-8.438.331-9.51,1.6-10.547,2.819-.245.288-.49.575-.765.858-2.475,3.118-6.511,8.971-7.052,11.743A5.463,5.463,0,0,1,182.156,73.908ZM168.991,45.365a1.741,1.741,0,0,0-1.74,1.8,1.874,1.874,0,0,0,1.918,1.687H180.1a3.546,3.546,0,0,1,3.327,4.763c-.447,1.221-.918,2.4-1.374,3.546-1.478,3.708-2.753,6.91-2.3,9.213a2.877,2.877,0,0,0,2.414,2.536c.179,0,.38-.007.509-.669.96-4.917,7.4-13.089,8.132-14a2.442,2.442,0,0,1,.186-.208c.218-.218.4-.442.593-.664,2.067-2.439,4.294-4.195,14.166-4.582a2.037,2.037,0,0,0,1.953-2.051V24.864a2.056,2.056,0,0,0-2.054-2.054h-3.228a22.372,22.372,0,0,1-6.9-1.089l-3.233-1.046a15.622,15.622,0,0,0-4.815-.76h-18.3a1.874,1.874,0,0,0-1.918,1.687,1.741,1.741,0,0,0,1.74,1.8,2.5,2.5,0,0,1,0,5,1.741,1.741,0,0,0,0,3.483,2.5,2.5,0,0,1,0,5,1.742,1.742,0,0,0,0,3.484,2.5,2.5,0,1,1,0,5Z"/>
      </g>
      <g id="Grupo_159754" data-name="Grupo 159754" transform="translate(374.95 88.822) rotate(180)">
        <path id="Trazado_263810" data-name="Trazado 263810" d="M182.156,73.908h0c-3.441,0-6.585-2.831-7.314-6.582s.873-7.764,2.568-12.019c.19-.479.385-.966.578-1.459h-8.817a6.883,6.883,0,0,1-6.916-6.537,6.678,6.678,0,0,1,1.5-4.449,6.729,6.729,0,0,1,0-8.48,6.73,6.73,0,0,1,0-8.481,6.679,6.679,0,0,1-1.5-4.45,6.883,6.883,0,0,1,6.916-6.537h18.3a20.586,20.586,0,0,1,6.355,1l3.232,1.046a17.38,17.38,0,0,0,5.363.846h3.228a7.061,7.061,0,0,1,7.054,7.054V46.728a7.022,7.022,0,0,1-6.758,7.047c-8.438.331-9.51,1.6-10.547,2.819-.245.288-.49.575-.765.858-2.475,3.118-6.511,8.971-7.052,11.743A5.463,5.463,0,0,1,182.156,73.908ZM168.991,45.365a1.741,1.741,0,0,0-1.74,1.8,1.874,1.874,0,0,0,1.918,1.687H180.1a3.546,3.546,0,0,1,3.327,4.763c-.447,1.221-.918,2.4-1.374,3.546-1.478,3.708-2.753,6.91-2.3,9.213a2.877,2.877,0,0,0,2.414,2.536c.179,0,.38-.007.509-.669.96-4.917,7.4-13.089,8.132-14a2.442,2.442,0,0,1,.186-.208c.218-.218.4-.442.593-.664,2.067-2.439,4.294-4.195,14.166-4.582a2.037,2.037,0,0,0,1.953-2.051V24.864a2.056,2.056,0,0,0-2.054-2.054h-3.228a22.372,22.372,0,0,1-6.9-1.089l-3.233-1.046a15.622,15.622,0,0,0-4.815-.76h-18.3a1.874,1.874,0,0,0-1.918,1.687,1.741,1.741,0,0,0,1.74,1.8,2.5,2.5,0,0,1,0,5,1.741,1.741,0,0,0,0,3.483,2.5,2.5,0,0,1,0,5,1.742,1.742,0,0,0,0,3.484,2.5,2.5,0,1,1,0,5Z"/>
      </g>
      <g id="Grupo_159755" data-name="Grupo 159755" transform="translate(374.95 88.822) rotate(180)">
        <path id="Trazado_263811" data-name="Trazado 263811" d="M177.255,36.882h-8.264a2.5,2.5,0,1,1,0-5h8.264a2.5,2.5,0,0,1,0,5Z"/>
      </g>
      <g id="Grupo_159756" data-name="Grupo 159756" transform="translate(374.95 88.822) rotate(180)">
        <path id="Trazado_263812" data-name="Trazado 263812" d="M177.255,45.365h-8.264a2.5,2.5,0,0,1,0-5h8.264a2.5,2.5,0,0,1,0,5Z"/>
      </g>
      <g id="Grupo_159757" data-name="Grupo 159757" transform="translate(374.95 88.822) rotate(180)">
        <path id="Trazado_263813" data-name="Trazado 263813" d="M177.255,28.4h-8.264a2.5,2.5,0,0,1,0-5h8.264a2.5,2.5,0,0,1,0,5Z"/>
      </g>
      <g id="Grupo_159758" data-name="Grupo 159758">
        <path id="Trazado_263814" data-name="Trazado 263814" d="M110.037,190.174a35.271,35.271,0,0,1-32.695-22.533,2.5,2.5,0,0,1,4.668-1.793,29.985,29.985,0,0,0,55.914.361,2.5,2.5,0,1,1,4.643,1.854,35.344,35.344,0,0,1-32.53,22.111Z"/>
      </g>
      <g id="Grupo_159759" data-name="Grupo 159759">
        <path id="Trazado_263815" data-name="Trazado 263815" d="M50,235.841H22.333a2.5,2.5,0,0,1,0-5H50a2.5,2.5,0,0,1,0,5Z"/>
      </g>
      <g id="Grupo_159760" data-name="Grupo 159760">
        <path id="Trazado_263816" data-name="Trazado 263816" d="M197.75,235.841H169.875a2.5,2.5,0,0,1,0-5H197.75a2.5,2.5,0,0,1,0,5Z"/>
      </g>
    </g>
  </g>
</svg>
