<svg xmlns="http://www.w3.org/2000/svg" width="252.791" height="252.837" viewBox="0 0 252.791 252.837">
  <g id="g4303" transform="translate(-0.062)">
    <g id="g4309" transform="translate(136.177 153.501)">
      <g id="path4311">
        <path id="Trazado_263672" data-name="Trazado 263672" d="M436.583,414.458H411.545l-27.12,5.635a18.963,18.963,0,0,0-15.062,17.286L367.588,463.6a4.384,4.384,0,0,0,4.374,4.68h104.2a4.383,4.383,0,0,0,4.373-4.68l-1.774-26.224A18.963,18.963,0,0,0,463.7,420.093Z" transform="translate(-367.578 -414.458)" fill="#6bdae8"/>
      </g>
    </g>
    <g id="g4313" transform="translate(180.145 153.501)">
      <g id="path4315">
        <path id="Trazado_263673" data-name="Trazado 263673" d="M555.284,463.6l-1.774-26.224a18.963,18.963,0,0,0-15.062-17.286l-27.12-5.635H486.29l35.783,10.44c12.615,3.963,14.487,8.8,15.061,17.286l1.766,26.1h12.011a4.383,4.383,0,0,0,4.373-4.68" transform="translate(-486.29 -414.458)" fill="#00c8de"/>
      </g>
    </g>
    <g id="g4317" transform="translate(180.145 136.462)">
      <g id="path4319">
        <path id="Trazado_263674" data-name="Trazado 263674" d="M511.328,385.491V368.452H486.29v17.039a12.519,12.519,0,0,0,12.518,12.519h0a12.519,12.519,0,0,0,12.519-12.519" transform="translate(-486.29 -368.452)" fill="#fff3de"/>
      </g>
    </g>
    <g id="g4321" transform="translate(163.304 81.133)">
      <g id="path4323">
        <path id="Trazado_263675" data-name="Trazado 263675" d="M499.538,244.84h-5.856v-2.967a21.912,21.912,0,0,0-7.421-16.649,24.067,24.067,0,0,0-32.166,0,21.91,21.91,0,0,0-7.421,16.649v2.41h-5.856v12.938a4.254,4.254,0,0,0,4.254,4.254h1.609a21.866,21.866,0,0,0,7.414,16.151,24.067,24.067,0,0,0,32.166,0,21.87,21.87,0,0,0,7.414-16.151h1.609a4.253,4.253,0,0,0,4.253-4.254Z" transform="translate(-440.819 -219.061)" fill="#fff3de"/>
      </g>
    </g>
    <g id="g4325" transform="translate(187.428 84.404)">
      <g id="path4327">
        <path id="Trazado_263676" data-name="Trazado 263676" d="M534.7,250.4v-2.967a21.913,21.913,0,0,0-7.419-16.649,26.69,26.69,0,0,0-4.06-2.891,13.469,13.469,0,0,1,.9,4.842V268.7a21.716,21.716,0,0,1-7.311,14.486,25.03,25.03,0,0,1-10.848,5.553,24.924,24.924,0,0,0,5.235.61,24.637,24.637,0,0,0,16.084-6.163,21.871,21.871,0,0,0,7.413-16.151H536.3a4.254,4.254,0,0,0,4.254-4.254V250.4Z" transform="translate(-505.957 -227.894)" fill="#ffe5c2"/>
      </g>
    </g>
    <g id="g4329" transform="translate(224.84 188.052)">
      <g id="path4331">
        <path id="Trazado_263677" data-name="Trazado 263677" d="M610.672,530.723a3.7,3.7,0,0,1-3.7-3.7V511.45a3.7,3.7,0,1,1,7.407,0v15.57A3.7,3.7,0,0,1,610.672,530.723Z" transform="translate(-606.968 -507.746)"/>
      </g>
    </g>
    <g id="g4333" transform="translate(3.765 153.629)">
      <g id="path4335">
        <path id="Trazado_263678" data-name="Trazado 263678" d="M78.668,414.8H53.69l-27.056,5.622a18.918,18.918,0,0,0-15.026,17.245l-1.528,22.579a7.73,7.73,0,0,0,7.713,8.252h96.774a7.73,7.73,0,0,0,7.713-8.252l-1.528-22.579a18.917,18.917,0,0,0-15.026-17.245Z" transform="translate(-10.061 -414.802)" fill="#cc98e8"/>
      </g>
    </g>
    <g id="g4337" transform="translate(47.394 153.629)">
      <g id="path4339">
        <path id="Trazado_263679" data-name="Trazado 263679" d="M196.448,460.247l-1.528-22.579a18.917,18.917,0,0,0-15.025-17.245L152.837,414.8H127.859l35.3,9.787c12.081,3.337,14.453,8.776,15.026,17.244l1.528,22.579a7.673,7.673,0,0,1-.861,4.087h9.881a7.73,7.73,0,0,0,7.712-8.252" transform="translate(-127.859 -414.802)" fill="#bf80e2"/>
      </g>
    </g>
    <g id="g4341" transform="translate(47.394 136.629)">
      <g id="path4343">
        <path id="Trazado_263680" data-name="Trazado 263680" d="M152.838,385.9v-17H127.859v17a12.489,12.489,0,1,0,24.979,0" transform="translate(-127.859 -368.903)" fill="#fff3de"/>
      </g>
    </g>
    <g id="g4345" transform="translate(20.385 188.099)">
      <g id="path4347">
        <path id="Trazado_263681" data-name="Trazado 263681" d="M58.638,530.8a3.7,3.7,0,0,1-3.7-3.7V511.576a3.7,3.7,0,1,1,7.407,0V527.1A3.7,3.7,0,0,1,58.638,530.8Z" transform="translate(-54.934 -507.872)"/>
      </g>
    </g>
    <g id="g4349" transform="translate(29.534 77.603)">
      <g id="path4351">
        <path id="Trazado_263682" data-name="Trazado 263682" d="M140.843,236.4h-6.1v-3.093A22.84,22.84,0,0,0,127,215.953a25.088,25.088,0,0,0-33.53,0,22.84,22.84,0,0,0-7.734,17.354v2.512h-6.1v11.809a6.111,6.111,0,0,0,6.111,6.111,22.8,22.8,0,0,0,7.728,16.836c3.933,3.386,9.462,7.607,16.765,7.688,7.3-.081,12.832-4.3,16.765-7.688a22.8,22.8,0,0,0,7.728-16.836,6.111,6.111,0,0,0,6.111-6.111Z" transform="translate(-79.636 -209.529)" fill="#fff3de"/>
      </g>
    </g>
    <g id="g4353" transform="translate(56.975 85.363)">
      <g id="path4355">
        <path id="Trazado_263683" data-name="Trazado 263683" d="M181.392,249.594V246.5a23.02,23.02,0,0,0-6.33-16.018v36.45a22.8,22.8,0,0,1-7.728,16.836c-3.343,2.878-7.844,6.35-13.6,7.38a19.088,19.088,0,0,0,3.162.309c7.3-.081,12.832-4.3,16.765-7.688a22.8,22.8,0,0,0,7.728-16.836,6.111,6.111,0,0,0,6.111-6.111V249.594Z" transform="translate(-153.73 -230.483)" fill="#ffe5c2"/>
      </g>
    </g>
    <g id="g4357" transform="translate(91.66 140.154)">
      <g id="path4359">
        <path id="Trazado_263684" data-name="Trazado 263684" d="M317.5,463.873V390.686a12.266,12.266,0,0,0-12.267-12.266H259.646a12.266,12.266,0,0,0-12.266,12.266v73.187Z" transform="translate(-247.38 -378.42)" fill="#ffa812"/>
      </g>
    </g>
    <g id="g4361" transform="translate(143.883 140.154)">
      <g id="path4363">
        <path id="Trazado_263685" data-name="Trazado 263685" d="M394.018,378.419h-5.634a32.141,32.141,0,0,1,1.524,9.8v75.654h16.375V390.685a12.266,12.266,0,0,0-12.266-12.266" transform="translate(-388.384 -378.419)" fill="#ff9a00"/>
      </g>
    </g>
    <g id="g4365" transform="translate(98.589 181.887)">
      <g id="path4367">
        <path id="Trazado_263686" data-name="Trazado 263686" d="M266.089,509.247c0,10.828,15.249,26.6,27.868,26.664,12.619-.064,27.868-15.678,27.868-26.664l-13.5-2.132a3.958,3.958,0,0,1-3.34-3.91l0-12.106h-22.06v12.014a3.957,3.957,0,0,1-3.314,3.9Z" transform="translate(-266.089 -491.1)" fill="#fff3de"/>
      </g>
    </g>
    <g id="g4369" transform="translate(73.304 200.034)">
      <g id="path4371">
        <path id="Trazado_263687" data-name="Trazado 263687" d="M302.551,558.067a18.075,18.075,0,0,0-15.215-16.628l-8.5-1.342a30,30,0,0,1-55.736,0l-8.5,1.342a18.076,18.076,0,0,0-15.215,16.628l-1.556,22.875a7.73,7.73,0,0,0,7.712,8.254h90.846a7.729,7.729,0,0,0,7.712-8.254Z" transform="translate(-197.818 -540.097)" fill="#ff646f"/>
      </g>
    </g>
    <g id="g4373" transform="translate(150.544 200.034)">
      <g id="path4375">
        <path id="Trazado_263688" data-name="Trazado 263688" d="M435.417,580.943l-1.555-22.875a18.077,18.077,0,0,0-15.215-16.629l-8.5-1.341a30.193,30.193,0,0,1-3.781,6.72,18.074,18.074,0,0,1,11.208,15.509L419.4,589.2h8.3a7.73,7.73,0,0,0,7.712-8.254" transform="translate(-406.369 -540.098)" fill="#ff4755"/>
      </g>
    </g>
    <g id="g4377" transform="translate(104.249 137.291)">
      <g id="path4379">
        <path id="Trazado_263689" data-name="Trazado 263689" d="M281.619,400.234a20.787,20.787,0,0,0,7.047,15.352c3.586,3.089,8.628,8.862,15.288,8.936,6.66-.074,11.7-5.848,15.288-8.936a20.788,20.788,0,0,0,7.047-15.352l.031-29.545H281.37Z" transform="translate(-281.37 -370.689)" fill="#fff3de"/>
      </g>
    </g>
    <g id="g4381" transform="translate(91.66 117.769)">
      <g id="path4383">
        <path id="Trazado_263690" data-name="Trazado 263690" d="M317.5,356.109s-12.168-.966-16.331-12.158c0,0-29.412,23.548-53.792,12.158v-5.944a32.184,32.184,0,0,1,32.184-32.184h5.755A32.185,32.185,0,0,1,317.5,350.164Z" transform="translate(-247.38 -317.98)" fill="#ffc265"/>
      </g>
    </g>
    <g id="g4385" transform="translate(86.964 232.918)">
      <g id="path4387">
        <path id="Trazado_263691" data-name="Trazado 263691" d="M238.4,648.8a3.7,3.7,0,0,1-3.7-3.7V632.59a3.7,3.7,0,0,1,7.407,0V645.1A3.7,3.7,0,0,1,238.4,648.8Z" transform="translate(-234.701 -628.886)"/>
      </g>
    </g>
    <g id="g4389" transform="translate(158.854 232.918)">
      <g id="path4391">
        <path id="Trazado_263692" data-name="Trazado 263692" d="M432.51,648.8a3.7,3.7,0,0,1-3.7-3.7V632.59a3.7,3.7,0,1,1,7.407,0V645.1A3.7,3.7,0,0,1,432.51,648.8Z" transform="translate(-428.806 -628.886)"/>
      </g>
    </g>
    <g id="g4393" transform="translate(3.766 3.704)">
      <g id="path4395">
        <path id="Trazado_263693" data-name="Trazado 263693" d="M21.659,10H62.681a11.6,11.6,0,0,1,11.6,11.6V30.04a11.6,11.6,0,0,1-11.6,11.6l-.074,12.676A1.687,1.687,0,0,1,59.6,55.349L48.763,41.637h-27.1a11.6,11.6,0,0,1-11.6-11.6V21.6A11.6,11.6,0,0,1,21.659,10" transform="translate(-10.062 -10)" fill="#d5f3f7"/>
      </g>
    </g>
    <g id="g4397" transform="translate(41.987 3.704)">
      <g id="path4399">
        <path id="Trazado_263694" data-name="Trazado 263694" d="M127.659,10h-14.4a9.62,9.62,0,0,1,9.62,9.62v12.4a9.619,9.619,0,0,1-9.62,9.62h.479l10.834,13.712a1.687,1.687,0,0,0,3.011-1.036l.073-12.676a11.6,11.6,0,0,0,11.6-11.6V21.6a11.6,11.6,0,0,0-11.6-11.6" transform="translate(-113.261 -10)" fill="#a7e8f1"/>
      </g>
    </g>
    <g id="g4401" transform="translate(184.932 3.704)">
      <g id="path4403">
        <path id="Trazado_263695" data-name="Trazado 263695" d="M551.837,10H510.815a11.6,11.6,0,0,0-11.6,11.6V30.04a11.6,11.6,0,0,0,11.6,11.6l.073,12.676a1.687,1.687,0,0,0,3.012,1.036l10.833-13.712h27.1a11.6,11.6,0,0,0,11.6-11.6V21.6a11.6,11.6,0,0,0-11.6-11.6" transform="translate(-499.217 -10)" fill="#d5f3f7"/>
      </g>
    </g>
    <g id="g4405" transform="translate(196.53 35.341)">
      <g id="path4407">
        <path id="Trazado_263696" data-name="Trazado 263696" d="M530.606,108.1a1.688,1.688,0,0,0,3.012,1.036L544.45,95.422H530.532Z" transform="translate(-530.532 -95.422)" fill="#a7e8f1"/>
      </g>
    </g>
    <g id="g4409" transform="translate(226.005 3.704)">
      <g id="path4411">
        <path id="Trazado_263697" data-name="Trazado 263697" d="M621.661,10H610.114a6.9,6.9,0,0,1,6.9,6.9V34.74a6.9,6.9,0,0,1-6.9,6.9h11.547a11.6,11.6,0,0,0,11.6-11.6V21.6a11.6,11.6,0,0,0-11.6-11.6" transform="translate(-610.114 -10)" fill="#a7e8f1"/>
      </g>
    </g>
    <g id="g4413" transform="translate(94.349 26.7)">
      <g id="path4415">
        <path id="Trazado_263698" data-name="Trazado 263698" d="M307.259,72.092H266.237a11.6,11.6,0,0,0-11.6,11.6v8.443a11.6,11.6,0,0,0,11.6,11.6H280.4l3.441,12.11a3.024,3.024,0,0,0,5.818,0l3.441-12.11h14.161a11.6,11.6,0,0,0,11.6-11.6V83.69a11.6,11.6,0,0,0-11.6-11.6" transform="translate(-254.639 -72.092)" fill="#d5f3f7"/>
      </g>
    </g>
    <g id="g4417" transform="translate(120.107 58.338)">
      <g id="path4419">
        <path id="Trazado_263699" data-name="Trazado 263699" d="M324.187,157.514l3.441,12.11a3.024,3.024,0,0,0,5.818,0l3.441-12.11h-12.7Z" transform="translate(-324.187 -157.514)" fill="#a7e8f1"/>
      </g>
    </g>
    <g id="g4421" transform="translate(134.985 26.7)">
      <g id="path4423">
        <path id="Trazado_263700" data-name="Trazado 263700" d="M376.342,72.092H364.358a7.205,7.205,0,0,1,7.205,7.205V96.524a7.2,7.2,0,0,1-7.205,7.205h11.984a11.6,11.6,0,0,0,11.6-11.6V83.69a11.6,11.6,0,0,0-11.6-11.6" transform="translate(-364.358 -72.092)" fill="#a7e8f1"/>
      </g>
    </g>
    <g id="g4425" transform="translate(118.534 117.769)">
      <g id="path4427">
        <path id="Trazado_263701" data-name="Trazado 263701" d="M331.005,317.981H325.25a32.343,32.343,0,0,0-5.31.444,32.2,32.2,0,0,1,26.347,25.967c.373-.281.572-.44.572-.44,4.163,11.192,16.33,12.158,16.33,12.158v-5.945a32.184,32.184,0,0,0-32.184-32.184" transform="translate(-319.94 -317.981)" fill="#ffa812"/>
      </g>
    </g>
    <g id="g4429" transform="translate(29.534 75.825)">
      <g id="path4431">
        <path id="Trazado_263702" data-name="Trazado 263702" d="M140.843,238.012a25.641,25.641,0,0,1-10.494-6.793,8.534,8.534,0,0,0-10.552-1.793c-9.055,5.116-25.633,12.1-40.162,5.313v-8.932a21.075,21.075,0,0,1,21.075-21.075h12.531a12.721,12.721,0,0,1,7.7,2.6,12.72,12.72,0,0,0,7.407,2.591,12.789,12.789,0,0,1,12.5,12.785Z" transform="translate(-79.636 -204.731)" fill="#e29a74"/>
      </g>
    </g>
    <g id="g4433" transform="translate(78.307 81.015)">
      <g id="path4435">
        <path id="Trazado_263703" data-name="Trazado 263703" d="M211.325,218.742v19.693a8.79,8.79,0,0,1,1.941,1.606,25.649,25.649,0,0,0,10.494,6.794V231.525a12.788,12.788,0,0,0-12.435-12.783" transform="translate(-211.325 -218.742)" fill="#dd8858"/>
      </g>
    </g>
    <g id="g4437" transform="translate(163.304 75.826)">
      <g id="path4439">
        <path id="Trazado_263704" data-name="Trazado 263704" d="M480.263,204.732H460.095a19.276,19.276,0,0,0-19.276,19.276v14.426s6.963-.089,9.468,2.391a.829.829,0,0,0,1.409-.595V224.916a6.26,6.26,0,0,1,6.26-6.26h2.625c4.4,0,4.6,3.681,9.6,3.681,4.967,0,5.2-3.681,9.6-3.681H482.4a6.26,6.26,0,0,1,6.26,6.26v15.315a.829.829,0,0,0,1.409.595c2.506-2.48,9.468-2.391,9.468-2.391V224.008a19.275,19.275,0,0,0-19.275-19.276" transform="translate(-440.819 -204.732)" fill="#e29a74"/>
      </g>
    </g>
    <g id="g4441" transform="translate(192.277 75.826)">
      <g id="path4443">
        <path id="Trazado_263705" data-name="Trazado 263705" d="M529.519,204.732H519.2a13.365,13.365,0,0,1,13.156,13.42v.545a6.259,6.259,0,0,1,5.559,6.218v15.315a.829.829,0,0,0,1.409.595c2.506-2.48,9.468-2.391,9.468-2.391V224.008a19.276,19.276,0,0,0-19.276-19.276" transform="translate(-519.048 -204.732)" fill="#d97f4a"/>
      </g>
    </g>
    <g id="g4445" transform="translate(25.83 72.122)">
      <g id="path4447">
        <path id="Trazado_263706" data-name="Trazado 263706" d="M134.547,235.419a3.7,3.7,0,0,1-1.058-.154A29.439,29.439,0,0,1,121.3,227.4a4.827,4.827,0,0,0-5.98-1.048c-6.541,3.695-17.375,8.591-28.83,8.591A34.435,34.435,0,0,1,71.772,231.8a3.7,3.7,0,0,1-2.136-3.356V219.51a24.807,24.807,0,0,1,24.779-24.779h12.531a16.517,16.517,0,0,1,9.941,3.351,8.96,8.96,0,0,0,5.25,1.836,16.492,16.492,0,0,1,16.114,16.488v15.309a3.7,3.7,0,0,1-3.7,3.7Zm-57.5-9.453c12.654,4.543,26.979-1.736,34.637-6.061a12.191,12.191,0,0,1,15.124,2.537,20.023,20.023,0,0,0,4.04,3.389v-9.425a9.139,9.139,0,0,0-8.876-9.083,16.321,16.321,0,0,1-9.564-3.346,9.068,9.068,0,0,0-5.458-1.84H94.415A17.391,17.391,0,0,0,77.043,219.51Z" transform="translate(-69.636 -194.731)"/>
      </g>
    </g>
    <g id="g4449" transform="translate(25.83 102.129)">
      <g id="path4451">
        <path id="Trazado_263707" data-name="Trazado 263707" d="M103.943,323.664H103.9c-8.185-.091-14.269-4.391-19.141-8.585A26.286,26.286,0,0,1,75.972,298.5a9.831,9.831,0,0,1-6.337-9.178v-9.869a3.7,3.7,0,0,1,7.407,0v9.869a2.41,2.41,0,0,0,2.407,2.407,3.7,3.7,0,0,1,3.7,3.624,19.09,19.09,0,0,0,6.442,14.109c4.043,3.481,8.58,6.712,14.349,6.791,5.769-.079,10.305-3.31,14.348-6.791a19.087,19.087,0,0,0,6.441-14.108,3.7,3.7,0,0,1,3.7-3.624,2.41,2.41,0,0,0,2.407-2.407v-6.6a3.7,3.7,0,1,1,7.407,0v6.6a9.831,9.831,0,0,1-6.337,9.178,26.287,26.287,0,0,1-8.789,16.575c-4.871,4.194-10.954,8.494-19.14,8.585Z" transform="translate(-69.635 -275.752)"/>
      </g>
    </g>
    <g id="g4453" transform="translate(43.69 138.113)">
      <g id="path4455">
        <path id="Trazado_263708" data-name="Trazado 263708" d="M134.052,404.618a16.211,16.211,0,0,1-16.193-16.193V376.614a3.7,3.7,0,1,1,7.407,0v11.812a8.786,8.786,0,0,0,17.571,0V376.96a3.7,3.7,0,0,1,7.407,0v11.465A16.211,16.211,0,0,1,134.052,404.618Z" transform="translate(-117.859 -372.91)"/>
      </g>
    </g>
    <g id="g4457" transform="translate(0.062 149.924)">
      <g id="path4459">
        <path id="Trazado_263709" data-name="Trazado 263709" d="M79.316,465.9H11.5A11.433,11.433,0,0,1,.089,453.7L1.617,431.12A22.7,22.7,0,0,1,19.584,410.5l27.057-5.621a3.7,3.7,0,0,1,1.507,7.253l-27.057,5.621A15.264,15.264,0,0,0,9.007,431.62L7.479,454.2a4.026,4.026,0,0,0,4.017,4.3H79.316a3.7,3.7,0,0,1,0,7.407Z" transform="translate(-0.063 -404.799)"/>
      </g>
    </g>
    <g id="g4461" transform="translate(68.668 149.925)">
      <g id="path4463">
        <path id="Trazado_263710" data-name="Trazado 263710" d="M208.3,416.217a3.709,3.709,0,0,1-.757-.078l-19.288-4.007a3.7,3.7,0,0,1,1.507-7.253l19.288,4.007a3.7,3.7,0,0,1-.75,7.331Z" transform="translate(-185.3 -404.801)"/>
      </g>
    </g>
    <g id="g4465" transform="translate(159.6 72.122)">
      <g id="path4467">
        <path id="Trazado_263711" data-name="Trazado 263711" d="M483.2,238.472a4.542,4.542,0,0,1-4.539-4.538V218.62a2.559,2.559,0,0,0-2.556-2.556h-2.624c-.863,0-1.179.21-2.253,1.016a11.471,11.471,0,0,1-14.712-.007c-1.062-.8-1.375-1.008-2.232-1.008h-2.625a2.559,2.559,0,0,0-2.556,2.556v15.315a4.533,4.533,0,0,1-7.719,3.226c-.711-.7-4.046-1.343-6.82-1.319h-.036a3.709,3.709,0,0,1-3.71-3.7V217.711A23.005,23.005,0,0,1,453.8,194.732h20.168a23.005,23.005,0,0,1,22.979,22.979v14.427a3.7,3.7,0,0,1-3.751,3.7c-2.783-.022-6.1.615-6.816,1.321A4.512,4.512,0,0,1,483.2,238.472Zm-36.608-6.579,0,0Zm26.889-23.237h2.624a9.975,9.975,0,0,1,9.963,9.963V229.3a23.038,23.038,0,0,1,3.469-.669V217.711a15.59,15.59,0,0,0-15.572-15.572H453.8a15.59,15.59,0,0,0-15.572,15.572v10.924a22.983,22.983,0,0,1,3.47.669V218.62a9.975,9.975,0,0,1,9.963-9.963h2.625a10.35,10.35,0,0,1,6.687,2.5,4.159,4.159,0,0,0,5.812,0A10.4,10.4,0,0,1,473.482,208.656Z" transform="translate(-430.819 -194.732)"/>
      </g>
    </g>
    <g id="g4469" transform="translate(159.6 105.824)">
      <g id="path4471">
        <path id="Trazado_263712" data-name="Trazado 263712" d="M463.882,329.469h-.041a28.485,28.485,0,0,1-18.458-7.059,25.334,25.334,0,0,1-8.408-15.461,7.971,7.971,0,0,1-6.156-7.751v-9.764a3.7,3.7,0,0,1,7.407,0V299.2a.551.551,0,0,0,.55.55h1.609a3.7,3.7,0,0,1,3.7,3.624,18.164,18.164,0,0,0,6.128,13.425,20.37,20.37,0,0,0,27.334,0,18.163,18.163,0,0,0,6.127-13.424,3.7,3.7,0,0,1,3.7-3.624h1.609a.551.551,0,0,0,.55-.55v-9.764a3.7,3.7,0,1,1,7.407,0V299.2a7.971,7.971,0,0,1-6.156,7.751,25.333,25.333,0,0,1-8.407,15.461,28.489,28.489,0,0,1-18.459,7.059Z" transform="translate(-430.819 -285.729)"/>
      </g>
    </g>
    <g id="g4473" transform="translate(176.441 138.587)">
      <g id="path4475">
        <path id="Trazado_263713" data-name="Trazado 263713" d="M492.513,405.327A16.241,16.241,0,0,1,476.29,389.1v-11.21a3.7,3.7,0,1,1,7.407,0V389.1a8.815,8.815,0,1,0,17.631,0v-11.21a3.7,3.7,0,0,1,7.407,0V389.1A16.241,16.241,0,0,1,492.513,405.327Z" transform="translate(-476.29 -374.19)"/>
      </g>
    </g>
    <g id="g4477" transform="translate(158.078 149.797)">
      <g id="path4479">
        <path id="Trazado_263714" data-name="Trazado 263714" d="M430.412,415.68a3.7,3.7,0,0,1-.75-7.331l18.362-3.816a3.7,3.7,0,1,1,1.507,7.253L431.169,415.6A3.73,3.73,0,0,1,430.412,415.68Z" transform="translate(-426.711 -404.455)"/>
      </g>
    </g>
    <g id="g4481" transform="translate(201.478 149.797)">
      <g id="path4483">
        <path id="Trazado_263715" data-name="Trazado 263715" d="M589.774,434.785a3.7,3.7,0,0,1-3.691-3.454,15.309,15.309,0,0,0-12.12-13.909l-27.121-5.635a3.7,3.7,0,0,1,1.507-7.253l27.121,5.635a22.74,22.74,0,0,1,18,20.662,3.7,3.7,0,0,1-3.445,3.945C589.942,434.782,589.858,434.785,589.774,434.785Z" transform="translate(-543.891 -404.456)"/>
      </g>
    </g>
    <g id="g4485" transform="translate(169.896 187.523)">
      <g id="path4487">
        <path id="Trazado_263716" data-name="Trazado 263716" d="M533.49,529.824H462.324a3.7,3.7,0,0,1,0-7.407H533.49a.68.68,0,0,0,.678-.726l-.773-11.419a3.7,3.7,0,0,1,7.391-.5l.773,11.419a8.087,8.087,0,0,1-8.068,8.633Z" transform="translate(-458.62 -506.318)"/>
      </g>
    </g>
    <g id="g4489" transform="translate(133.781 182.631)">
      <g id="path4491">
        <path id="Trazado_263717" data-name="Trazado 263717" d="M381.656,514.216a3.745,3.745,0,0,1-.582-.046l-13.5-2.132a7.626,7.626,0,0,1-6.467-7.568v-7.659a3.7,3.7,0,0,1,3.7-3.7h0a3.7,3.7,0,0,1,3.7,3.7v7.658a.253.253,0,0,0,.215.251l13.5,2.132a3.7,3.7,0,0,1-.573,7.363Z" transform="translate(-361.107 -493.108)"/>
      </g>
    </g>
    <g id="g4493" transform="translate(94.885 181.987)">
      <g id="path4495">
        <path id="Trazado_263718" data-name="Trazado 263718" d="M259.786,513.121a3.7,3.7,0,0,1-.6-7.359l13.525-2.228a.253.253,0,0,0,.212-.251v-8.21a3.7,3.7,0,0,1,7.407,0v8.21a7.635,7.635,0,0,1-6.415,7.56l-13.525,2.228A3.714,3.714,0,0,1,259.786,513.121Z" transform="translate(-256.086 -491.37)"/>
      </g>
    </g>
    <g id="g4497" transform="translate(69.601 196.33)">
      <g id="path4499">
        <path id="Trazado_263719" data-name="Trazado 263719" d="M290.1,586.6H199.253a11.434,11.434,0,0,1-11.407-12.209L189.4,551.52a21.672,21.672,0,0,1,18.332-20.035l8.5-1.341a3.707,3.707,0,0,1,4.011,2.271,26.294,26.294,0,0,0,48.868,0,3.7,3.7,0,0,1,4.011-2.271l8.5,1.341a21.673,21.673,0,0,1,18.333,20.036l1.555,22.875A11.433,11.433,0,0,1,290.1,586.6ZM214.607,537.9l-5.718.9a14.3,14.3,0,0,0-12.1,13.221L195.236,574.9a4.026,4.026,0,0,0,4.017,4.3H290.1a4.026,4.026,0,0,0,4.017-4.3l-1.555-22.876h0a14.3,14.3,0,0,0-12.1-13.221l-5.718-.9a33.683,33.683,0,0,1-60.137,0Z" transform="translate(-187.82 -530.098)"/>
      </g>
    </g>
    <g id="g4501" transform="translate(100.728 146.075)">
      <g id="path4503">
        <path id="Trazado_263720" data-name="Trazado 263720" d="M297.969,443.16h-.041c-7.031-.078-12.185-4.821-15.949-8.286-.614-.566-1.2-1.1-1.714-1.547a24.494,24.494,0,0,1-8.333-18.079c0-.016,0-.032,0-.048l-.067-7.869a3.7,3.7,0,0,1,3.672-3.735h.032a3.7,3.7,0,0,1,3.7,3.672l.066,7.843a17.078,17.078,0,0,0,5.76,12.6c.612.527,1.236,1.1,1.9,1.71,3.032,2.79,6.8,6.26,10.975,6.329,4.173-.069,7.943-3.539,10.974-6.329.661-.608,1.285-1.182,1.9-1.709a17.077,17.077,0,0,0,5.761-12.59l.018-17.017a3.7,3.7,0,0,1,3.7-3.7h0a3.7,3.7,0,0,1,3.7,3.708l-.018,17.057c0,.025,0,.05,0,.076a24.494,24.494,0,0,1-8.334,18.079c-.518.446-1.1.981-1.713,1.546-3.764,3.464-8.918,8.208-15.949,8.286Z" transform="translate(-271.864 -394.408)"/>
      </g>
    </g>
    <g id="g4505" transform="translate(158.08 152.194)">
      <g id="path4507">
        <path id="Trazado_263721" data-name="Trazado 263721" d="M430.419,463.649a3.7,3.7,0,0,1-3.7-3.7V414.632a3.7,3.7,0,0,1,7.407,0v45.314A3.7,3.7,0,0,1,430.419,463.649Z" transform="translate(-426.715 -410.928)"/>
      </g>
    </g>
    <g id="g4509" transform="translate(87.957 152.194)">
      <g id="path4511">
        <path id="Trazado_263722" data-name="Trazado 263722" d="M241.084,463.566a3.7,3.7,0,0,1-3.7-3.7v-45.23a3.7,3.7,0,1,1,7.407,0v45.23A3.7,3.7,0,0,1,241.084,463.566Z" transform="translate(-237.38 -410.929)"/>
      </g>
    </g>
    <g id="g4513" transform="translate(87.957 114.065)">
      <g id="path4515">
        <path id="Trazado_263723" data-name="Trazado 263723" d="M255.7,356.648a37.835,37.835,0,0,1-16.183-3.48,3.7,3.7,0,0,1-2.136-3.356v-5.945a35.928,35.928,0,0,1,35.887-35.888h5.755a35.929,35.929,0,0,1,35.888,35.888v5.945a3.7,3.7,0,0,1-4,3.692c-.522-.041-11.42-1.021-17.386-10.293C286.788,347.8,271.727,356.647,255.7,356.648Zm-10.911-9.3c21.593,8,47.509-12.375,47.777-12.588a3.706,3.706,0,0,1,5.784,1.6,14.905,14.905,0,0,0,9.156,8.777v-1.272a28.513,28.513,0,0,0-28.481-28.48h-5.755a28.513,28.513,0,0,0-28.48,28.48Z" transform="translate(-237.38 -307.98)"/>
      </g>
    </g>
    <g id="g4517" transform="translate(0.062)">
      <g id="path4519" transform="translate(0)">
        <path id="Trazado_263724" data-name="Trazado 263724" d="M54.591,53.407a5.326,5.326,0,0,1-4.2-2.058l-9.721-12.3H34.5a3.7,3.7,0,0,1,0-7.407h7.966a3.7,3.7,0,0,1,2.906,1.408l7.269,9.2.04-6.926a3.7,3.7,0,0,1,3.7-3.682,7.9,7.9,0,0,0,7.894-7.894V15.3a7.9,7.9,0,0,0-7.894-7.894H15.363A7.9,7.9,0,0,0,7.469,15.3v8.443a7.9,7.9,0,0,0,7.894,7.894h4.326a3.7,3.7,0,1,1,0,7.407H15.363a15.318,15.318,0,0,1-15.3-15.3V15.3A15.318,15.318,0,0,1,15.363,0H56.385a15.318,15.318,0,0,1,15.3,15.3v8.443A15.328,15.328,0,0,1,60.07,38.6l-.055,9.442A5.329,5.329,0,0,1,56.378,53.1,5.482,5.482,0,0,1,54.591,53.407Z" transform="translate(-0.062 0)"/>
      </g>
    </g>
    <g id="g4521" transform="translate(181.229)">
      <g id="path4523">
        <path id="Trazado_263725" data-name="Trazado 263725" d="M506.312,53.407a5.473,5.473,0,0,1-1.786-.3,5.331,5.331,0,0,1-3.638-5.066l-.055-9.443a15.328,15.328,0,0,1-11.617-14.852V15.3A15.318,15.318,0,0,1,504.518,0h41.022a15.318,15.318,0,0,1,15.3,15.3v8.443a15.318,15.318,0,0,1-15.3,15.3h-25.31l-9.721,12.3A5.327,5.327,0,0,1,506.312,53.407Zm-1.794-46a7.9,7.9,0,0,0-7.894,7.894v8.443a7.9,7.9,0,0,0,7.894,7.894,3.7,3.7,0,0,1,3.7,3.682l.04,6.926,7.269-9.2a3.7,3.7,0,0,1,2.906-1.408h27.1a7.9,7.9,0,0,0,7.893-7.894V15.3a7.9,7.9,0,0,0-7.893-7.894Z" transform="translate(-489.217 0)"/>
      </g>
    </g>
    <g id="g4525" transform="translate(90.645 22.997)">
      <g id="path4527">
        <path id="Trazado_263726" data-name="Trazado 263726" d="M280.452,115.445a6.671,6.671,0,0,1-6.472-4.889l-2.677-9.419H259.941a15.318,15.318,0,0,1-15.3-15.3V77.393a15.319,15.319,0,0,1,15.3-15.3h41.022a15.318,15.318,0,0,1,15.3,15.3v8.443a15.318,15.318,0,0,1-15.3,15.3H289.6l-2.677,9.419A6.67,6.67,0,0,1,280.452,115.445ZM259.941,69.5a7.9,7.9,0,0,0-7.894,7.894v8.443a7.9,7.9,0,0,0,7.894,7.893H274.1a3.7,3.7,0,0,1,3.563,2.691l2.788,9.81,2.787-9.81a3.7,3.7,0,0,1,3.563-2.691h14.161a7.9,7.9,0,0,0,7.894-7.893V77.393a7.9,7.9,0,0,0-7.894-7.894Z" transform="translate(-244.639 -62.092)"/>
      </g>
    </g>
  </g>
</svg>
