<svg xmlns="http://www.w3.org/2000/svg" width="525" height="276" viewBox="0 0 525 276">
  <g id="Grupo_161291" data-name="Grupo 161291" transform="translate(-790 -398)">
    <g id="Grupo_161290" data-name="Grupo 161290">
      <rect id="Image_Place_Holder" data-name="Image Place Holder" width="525" height="276" transform="translate(790 398)" fill="#d9eaea"/>
      <g id="folleto" transform="translate(1055.325 453.461)">
        <path id="Trazado_256282" data-name="Trazado 256282" d="M51.4,164.051a1.4,1.4,0,0,1-.744-2.584l46.453-29.085L45.952,161.917a1.4,1.4,0,1,1-1.435-2.4l37.1-22.882L40.7,160.261a1.4,1.4,0,0,1-1.424-2.405l5.434-3.286-7.789,4.486a1.4,1.4,0,0,1-1.424-2.405L55.334,144.6,32.642,157.7a1.4,1.4,0,0,1-1.435-2.4l53.274-32.939L26.6,155.787a1.4,1.4,0,1,1-1.426-2.405l29.706-18.036L22,154.327a1.4,1.4,0,0,1-1.435-2.4l69.181-42.982L14.987,152.106a1.4,1.4,0,0,1-1.415-2.411l7.738-4.645L11.18,150.9a1.4,1.4,0,0,1-1.432-2.4l67.361-41.413L5.064,148.677a1.4,1.4,0,1,1-1.426-2.405l51.618-31.345-52.48,30.3a1.4,1.4,0,0,1-1.429-2.4l77.787-47.9L2.662,139.079a1.4,1.4,0,0,1-1.421-2.411l23.31-14L2.662,135.306a1.4,1.4,0,0,1-1.426-2.4L69.044,91.429,2.662,129.755a1.4,1.4,0,1,1-1.426-2.405L63.7,89.256,2.662,124.5a1.4,1.4,0,0,1-1.429-2.4l73.1-44.862L2.662,118.616a1.4,1.4,0,0,1-1.424-2.4L59.661,80.648l-57,32.909a1.4,1.4,0,1,1-1.432-2.4L74.668,65.882,2.662,107.454a1.4,1.4,0,0,1-1.424-2.4L47.786,76.733,2.662,102.784a1.4,1.4,0,0,1-1.424-2.4L42.5,75.279l-39.841,23a1.4,1.4,0,0,1-1.424-2.405L38.731,73.058,2.662,93.879a1.4,1.4,0,0,1-1.426-2.4L38.991,68.441,2.662,89.41a1.4,1.4,0,0,1-1.437-2.4L62.712,48.57,2.662,83.241a1.4,1.4,0,0,1-1.429-2.405L35.3,59.944,2.662,78.788a1.4,1.4,0,0,1-1.44-2.394L52.8,44.09,2.662,73.036a1.4,1.4,0,0,1-1.437-2.4L41.67,45.469,2.662,67.971a1.4,1.4,0,0,1-1.429-2.405l14.45-8.857L2.662,64.237A1.4,1.4,0,0,1,1.2,61.852L38.168,37.979,2.662,58.476A1.4,1.4,0,0,1,1.188,56.1L28.875,37.616,2.662,52.743a1.4,1.4,0,0,1-1.477-2.369L17.126,39.708,2.662,48.053A1.4,1.4,0,0,1,1.2,45.67l2.9-1.885-1.437.839a1.405,1.405,0,0,1-1.491-2.383l12.619-8.67L2.662,40a1.4,1.4,0,0,1-1.53-2.335L16.7,26.183,2.67,34.293a1.4,1.4,0,0,1-1.541-2.324l11.64-8.818L2.662,28.982A1.4,1.4,0,0,1,1.07,26.7l10.448-8.67-8.857,5.1a1.4,1.4,0,0,1-1.555-2.316l2.8-2.179-1.247.719a1.4,1.4,0,0,1-1.678-2.2L6.23,11.934,2.662,13.995a1.4,1.4,0,0,1-1.9-1.907L3.618,7.07l-.157.092a1.4,1.4,0,1,1-1.4-2.422L6.706,2.061a1.382,1.382,0,0,1,1.678.221A1.4,1.4,0,0,1,8.61,3.96L5.749,8.983l8.39-4.847a1.4,1.4,0,0,1,1.678,2.2l-5.235,5.216,9.559-5.521A1.4,1.4,0,0,1,21.7,8.346l-2.8,2.181,5.459-3.155a1.4,1.4,0,0,1,1.591,2.285L15.5,18.344l15.41-8.9a1.4,1.4,0,0,1,1.544,2.324L20.809,20.578l16.028-9.254a1.4,1.4,0,0,1,1.53,2.335L22.8,25.148,43.236,13.354a1.4,1.4,0,0,1,1.491,2.36l-12.607,8.67L48.39,14.991a1.4,1.4,0,0,1,1.46,2.383l-2.895,1.882,5.28-3.051a1.4,1.4,0,0,1,1.477,2.372L37.791,29.234,64.561,13.78a1.4,1.4,0,0,1,1.474,2.372L38.347,34.643,85.332,7.515A1.4,1.4,0,0,1,86.789,9.9L49.814,33.787,106.195,1.236a1.4,1.4,0,0,1,1.429,2.4l-14.4,8.826L113.187.946a1.4,1.4,0,0,1,1.437,2.4L74.176,28.512,118.839,2.727a1.4,1.4,0,0,1,1.443,2.394L68.719,37.431,125.265,4.766a1.4,1.4,0,0,1,1.432,2.4L92.6,28.085l37.646-21.73a1.4,1.4,0,0,1,1.44,2.394L70.2,47.191l66.95-38.653a1.4,1.4,0,0,1,1.429,2.4L100.853,33.963l41.29-23.842a1.4,1.4,0,1,1,1.426,2.405L106.094,35.339l40.969-23.657a1.4,1.4,0,0,1,1.426,2.4L107.244,39.165l44.856-25.9a1.4,1.4,0,1,1,1.426,2.405L106.944,44.017l50.379-29.085a1.4,1.4,0,0,1,1.435,2.4L85.264,62.638l77.247-44.6a1.4,1.4,0,0,1,1.424,2.405L105.543,55.99,163.3,22.645a1.4,1.4,0,0,1,1.429,2.4L91.669,69.881,163.3,28.538a1.4,1.4,0,1,1,1.426,2.405L102.207,69.056l61.1-35.275a1.4,1.4,0,1,1,1.426,2.405L96.966,77.631l66.337-38.3a1.4,1.4,0,0,1,1.421,2.408l-23.31,14L163.3,43.1a1.4,1.4,0,0,1,1.429,2.4L86.914,93.421,163.3,49.32a1.4,1.4,0,0,1,1.424,2.405l-51.6,31.348L163.3,54.091a1.4,1.4,0,0,1,1.429,2.4L97.352,97.92,163.3,59.86a1.4,1.4,0,0,1,1.418,2.408l-7.652,4.584,6.234-3.6a1.4,1.4,0,0,1,1.435,2.4l-69.2,42.982L163.3,69.517a1.4,1.4,0,0,1,1.424,2.405L135.112,89.9,163.3,73.626a1.4,1.4,0,0,1,1.432,2.4l-53.288,32.953L163.3,79.04a1.4,1.4,0,0,1,1.424,2.405L144.853,93.513l18.458-10.65a1.4,1.4,0,0,1,1.424,2.405l-5.484,3.317,4.061-2.344a1.4,1.4,0,0,1,1.432,2.4l-37.084,22.877L163.3,90.937a1.4,1.4,0,0,1,1.44,2.394l-46.45,29.085L163.3,96.433a1.4,1.4,0,0,1,1.454,2.386L116.2,130.057l47.1-27.192a1.4,1.4,0,0,1,1.435,2.4l-8.3,5.146,6.863-3.963a1.4,1.4,0,0,1,1.435,2.4l-1.166.727a1.4,1.4,0,0,1,1.219,2.483l-22.768,15.561L163.3,115.33a1.4,1.4,0,0,1,1.493,2.36l-18.715,12.954L163.3,120.7a1.4,1.4,0,0,1,1.482,2.369l-9.229,6.237,7.755-4.475a1.4,1.4,0,0,1,1.5,2.352L153,135.525l10.309-5.951a1.4,1.4,0,0,1,1.552,2.316l-13.8,10.661,12.247-7.07a1.4,1.4,0,0,1,1.519,2.344l-3.932,2.841,2.414-1.4a1.4,1.4,0,0,1,1.636,2.237l-9.274,8.37,7.638-4.408a1.4,1.4,0,0,1,1.608,2.271l-3.02,2.581,1.4-.814a1.4,1.4,0,0,1,1.753,2.128l-3.39,3.887,1.636-.942A1.4,1.4,0,1,1,164.7,157l-8.9,5.137a1.4,1.4,0,0,1-1.754-2.128l3.39-3.89-7.3,4.237a1.4,1.4,0,0,1-1.608-2.274l3.02-2.579-5.915,3.42a1.4,1.4,0,0,1-1.636-2.237l9.271-8.373-14.582,8.418a1.4,1.4,0,0,1-1.519-2.344l3.915-2.836-6.637,3.829a1.4,1.4,0,0,1-1.555-2.316l13.8-10.658-18.85,10.882a1.4,1.4,0,0,1-1.5-2.352l11.808-8.34-15.6,9.011a1.4,1.4,0,0,1-1.485-2.369l9.257-6.251-12.395,7.157a1.4,1.4,0,0,1-1.493-2.36l18.713-12.951-23.593,13.611a1.4,1.4,0,0,1-1.488-2.366l22.765-15.558-40.8,23.556a1.4,1.4,0,0,1-1.435-2.4l.383-.238-10.7,6.175a1.4,1.4,0,0,1-1.435-2.388l8.351-5.185-19.89,11.483a1.4,1.4,0,0,1-1.457-2.388l48.536-31.225L52.1,163.863a1.381,1.381,0,0,1-.7.187Z" transform="translate(0.93 0)" fill="#d7e6f4"/>
        <path id="Trazado_256283" data-name="Trazado 256283" d="M20.946,162.439a1.4,1.4,0,0,1-.777-2.562L41.11,145.852,21.646,157.089A1.4,1.4,0,0,1,20.2,154.7l2.576-1.642-1.119.646a1.4,1.4,0,0,1-1.471-2.374l18.055-11.967-16.584,9.573a1.4,1.4,0,0,1-1.491-2.36l26.817-18.458L21.646,142.731a1.4,1.4,0,0,1-1.485-2.366l24.656-16.78-23.17,13.368a1.4,1.4,0,0,1-1.491-2.363l26.227-18L21.646,130.87a1.4,1.4,0,0,1-1.485-2.366L44.321,112.1,21.646,125.185a1.4,1.4,0,0,1-1.488-2.366l25.316-17.292L21.646,119.284a1.4,1.4,0,0,1-1.488-2.366L45.389,99.69l-23.744,13.7a1.4,1.4,0,0,1-1.493-2.358L47.61,92.055l-25.964,15a1.4,1.4,0,0,1-1.488-2.366L45.848,87.1l-24.2,13.983A1.4,1.4,0,0,1,20.189,98.7l9.2-5.951-7.744,4.475a1.4,1.4,0,0,1-1.477-2.369L41.424,80.595,21.646,92a1.4,1.4,0,1,1-1.454-2.389l6.368-4.089-4.914,2.833a1.4,1.4,0,0,1-1.454-2.386L26.224,82.1l-4.578,2.64a1.4,1.4,0,0,1-1.493-2.358L47.688,63.336,21.646,78.371A1.4,1.4,0,0,1,20.169,76L40.887,62.128,21.646,73.239a1.4,1.4,0,0,1-1.485-2.369L44.293,54.482,21.64,67.556a1.4,1.4,0,0,1-1.463-2.38l13.83-9.047L21.646,63.266A1.4,1.4,0,0,1,20.161,60.9L45.031,43.944l-23.386,13.5a1.4,1.4,0,0,1-1.485-2.366l24.664-16.8L21.646,51.654a1.4,1.4,0,0,1-1.454-2.383L28,44.238,21.646,47.9a1.4,1.4,0,0,1-1.465-2.377l14.59-9.567L21.646,43.544a1.4,1.4,0,0,1-1.482-2.369L43.021,25.74,21.646,38.077a1.4,1.4,0,0,1-1.5-2.358L42.307,20.3,21.646,32.223a1.4,1.4,0,0,1-1.491-2.363L25.8,25.995l-4.15,2.394a1.4,1.4,0,0,1-1.527-2.338L22.06,24.63l-.414.238a1.4,1.4,0,0,1-2.042-1.6l1.144-3.938a1.4,1.4,0,0,1-.5-2.6l1.994-1.149a1.4,1.4,0,0,1,2.044,1.6l-1.026,3.524L42.937,9.349a1.4,1.4,0,0,1,1.524,2.338l-1.933,1.418,13.144-7.6A1.4,1.4,0,0,1,57.163,7.87l-5.633,3.873L69.578,1.314a1.4,1.4,0,0,1,1.5,2.358L48.916,19.1l27.1-15.645A1.4,1.4,0,0,1,77.5,5.825L54.649,21.257,76.019,8.921a1.4,1.4,0,0,1,1.465,2.38l-14.6,9.573L76.024,13.29a1.4,1.4,0,0,1,1.454,2.386L69.69,20.709l6.337-3.658a1.4,1.4,0,0,1,1.485,2.366L52.84,36.222,76.03,22.835A1.4,1.4,0,0,1,77.515,25.2L52.647,42.146l23.383-13.5a1.4,1.4,0,0,1,1.463,2.377L63.649,40.087l12.384-7.148a1.4,1.4,0,0,1,1.485,2.369L53.41,51.68,76.035,38.616a1.4,1.4,0,0,1,1.477,2.372L56.761,54.879,76.038,43.751a1.4,1.4,0,0,1,1.493,2.36L50,65.146,76.038,50.113A1.4,1.4,0,0,1,77.5,52.5l-6.013,3.854,4.561-2.634A1.4,1.4,0,0,1,77.5,56.11l-6.39,4.106,4.936-2.85a1.4,1.4,0,0,1,1.479,2.372L56.271,74,76.047,62.561a1.4,1.4,0,0,1,1.46,2.386l-9.187,5.94,7.73-4.475a1.4,1.4,0,1,1,1.491,2.366l-25.7,17.611L76.052,72.406a1.4,1.4,0,0,1,1.5,2.36L50.093,93.744,76.055,78.757a1.4,1.4,0,0,1,1.491,2.363L52.306,98.359l23.752-13.7a1.4,1.4,0,1,1,1.491,2.366L52.236,104.308,76.061,90.528A1.4,1.4,0,0,1,77.548,92.9L53.4,109.3,76.063,96.214a1.4,1.4,0,0,1,1.491,2.36L51.313,116.588,76.069,102.3a1.4,1.4,0,0,1,1.485,2.363L52.9,121.44l23.168-13.374a1.4,1.4,0,0,1,1.491,2.363L50.751,128.888l25.324-14.618a1.4,1.4,0,0,1,1.474,2.374L59.479,128.622l16.6-9.567a1.4,1.4,0,0,1,1.451,2.388l-2.556,1.63,1.119-.638a1.4,1.4,0,0,1,1.477,2.369L56.6,138.838,76.083,127.6a1.4,1.4,0,0,1,1.479,2.369l-13.371,9L76.086,132.1a1.4,1.4,0,0,1,1.561,2.313L66.4,143.17l9.693-5.593a1.4,1.4,0,0,1,1.72,2.165l-3.356,3.6,1.65-.948a1.4,1.4,0,1,1,1.4,2.419l-9.788,5.646a1.4,1.4,0,0,1-1.72-2.165l3.356-3.6L50.264,155.713A1.4,1.4,0,0,1,48.7,153.4l11.254-8.762L30.416,161.7a1.4,1.4,0,0,1-1.479-2.372l13.354-8.986L21.646,162.249a1.4,1.4,0,0,1-.7.19Z" transform="translate(35.083 0.655)" fill="#b1cbdd"/>
        <path id="Trazado_256284" data-name="Trazado 256284" d="M31.13,62.976a1.4,1.4,0,0,1-1.138-2.212l1.653-2.313-4.782,2.763a1.4,1.4,0,0,1-1.678-2.2l2.623-2.59-5.694,3.286a1.4,1.4,0,0,1-1.639-2.237l5.635-5.154-9.688,5.593a1.4,1.4,0,0,1-1.622-2.26l10.138-8.891L9.45,55.708a1.4,1.4,0,0,1-1.513-2.346l4.6-3.289L6.72,53.428a1.4,1.4,0,0,1-1.5-2.355L9.9,47.782,6.642,49.664a1.4,1.4,0,0,1-1.5-2.358l3.3-2.293-1.8,1.038a1.4,1.4,0,0,1-1.563-2.307L20.376,31.7,6.636,39.607a1.4,1.4,0,0,1-1.493-2.363l1.144-.786a1.4,1.4,0,0,1-1.214-2.453l8.67-6.816-7.106,4.1A1.4,1.4,0,0,1,5.1,28.957l1.5-1.119a1.4,1.4,0,0,1-1.558-2.307l2.967-2.464-1.376.794a1.4,1.4,0,0,1-1.8-2.075l4.335-5.5L6.636,17.754a1.4,1.4,0,0,1-1.958-1.815L6.133,12.9a1.516,1.516,0,0,1-1.264-.7A1.4,1.4,0,0,1,5.378,10.3L8.519,8.48A1.4,1.4,0,0,1,10.476,10.3L9.153,13.064l4.933-2.85a1.4,1.4,0,0,1,1.8,2.078l-4.34,5.5,9.38-5.412a1.4,1.4,0,0,1,1.591,2.285l-2.959,2.458,5.8-3.356a1.4,1.4,0,0,1,1.538,2.33l-1.5,1.119,3.843-2.2A1.4,1.4,0,0,1,30.8,17.329l-8.67,6.816L34.676,16.9a1.4,1.4,0,0,1,1.493,2.363l-.612.417.28-.148A1.4,1.4,0,0,1,37.4,21.84L22.1,33.885l13.734-7.929a1.4,1.4,0,0,1,1.5,2.358l-3.3,2.3,1.8-1.04a1.4,1.4,0,0,1,1.5,2.355l-4.7,3.3,3.2-1.846a1.4,1.4,0,0,1,1.513,2.346l-4.592,3.286,3.076-1.773a1.4,1.4,0,0,1,1.622,2.26L27.323,48.386l8.51-4.922A1.4,1.4,0,0,1,37.475,45.7l-5.641,5.163,4-2.31a1.4,1.4,0,0,1,1.678,2.207L34.9,53.342l.934-.537a1.4,1.4,0,0,1,1.837,2.025L35.99,57.165a1.4,1.4,0,1,1,1.233,2.517L31.82,62.8a1.37,1.37,0,0,1-.691.176Z" transform="translate(8.142 13.516)" fill="#aa1e51"/>
        <path id="Trazado_256285" data-name="Trazado 256285" d="M72.27,86.255a1.4,1.4,0,0,1-1.281-1.974l1.5-3.356L66.9,84.158a1.4,1.4,0,0,1-1.787-2.089l4.606-5.688-9.7,5.593a1.4,1.4,0,0,1-1.65-2.237l7.12-6.606L53.666,79.957a1.4,1.4,0,0,1-1.6-2.279l10.546-8.9-15.583,9a1.4,1.4,0,0,1-1.5-2.36l1.259-.87-1.135.654a1.4,1.4,0,0,1-1.519-2.344L52.693,66.7l-7.048,4.061a1.4,1.4,0,0,1-1.491-2.363l1.208-.839A1.4,1.4,0,0,1,44.1,65.109L57.962,54.435,45.656,61.544a1.4,1.4,0,0,1-1.524-2.338l6.779-4.956L45.645,57.3a1.4,1.4,0,0,1-1.614-2.268l9.853-8.5L45.645,51.28a1.4,1.4,0,0,1-1.664-2.221l6.379-6.105-4.715,2.718a1.4,1.4,0,0,1-1.658-2.237l1.77-1.678-.112.062a1.4,1.4,0,0,1-2-1.723l1.829-4.62a1.429,1.429,0,0,1-1.6-.646,1.4,1.4,0,0,1,.515-1.91l3.141-1.812a1.4,1.4,0,0,1,2,1.726l-1.8,4.559,6.992-4.036a1.4,1.4,0,0,1,1.658,2.237l-1.768,1.678L59,34.732a1.4,1.4,0,0,1,1.664,2.221L54.29,43.06l10.988-6.348a1.4,1.4,0,0,1,1.614,2.268l-9.85,8.51,14.971-8.645a1.4,1.4,0,0,1,1.524,2.338l-6.793,4.964,8.068-4.656a1.4,1.4,0,0,1,1.552,2.318L62.5,54.482l12.339-7.118a1.4,1.4,0,0,1,1.491,2.363l-1.214.839a1.4,1.4,0,0,1,1.242,2.467L67.82,59.195l7.022-4.052a1.4,1.4,0,0,1,1.5,2.36l-1.356.94a1.4,1.4,0,0,1,1.46,2.349L65.9,69.688l8.949-5.163a1.4,1.4,0,0,1,1.65,2.237l-7.123,6.611,5.47-3.157a1.4,1.4,0,0,1,1.784,2.089l-4.6,5.686,2.819-1.625a1.4,1.4,0,0,1,1.974,1.784l-1.583,3.515a1.435,1.435,0,0,1,1.379.691,1.4,1.4,0,0,1-.512,1.907l-3.138,1.815a1.4,1.4,0,0,1-.694.176Z" transform="translate(78.204 54.166)" fill="#3cc184"/>
        <path id="Trazado_256286" data-name="Trazado 256286" d="M25.255,68.977a1.4,1.4,0,0,1-1.007-2.366l3.882-4.047-2.5,1.443a1.4,1.4,0,0,1-1.639-2.237l1.376-1.239A1.4,1.4,0,0,1,23.9,58.257l4.931-5.4-3.2,1.86A1.4,1.4,0,0,1,24,52.476l1.245-1.119a1.379,1.379,0,0,1-1.267-.338,1.4,1.4,0,0,1-.3-1.633l1.72-3.546a1.4,1.4,0,0,1-1.161-2.531l3.686-2.128A1.4,1.4,0,0,1,29.872,43l-1.7,3.513,7.081-4.1a1.4,1.4,0,0,1,1.633,2.237l-1.239,1.119a1.4,1.4,0,0,1,1.342,2.307l-4.933,5.406,3.2-1.846a1.4,1.4,0,0,1,1.639,2.237l-1.373,1.236a1.4,1.4,0,0,1,1.443,2.3L33.08,61.454,35.259,60.2a1.4,1.4,0,1,1,1.4,2.422L25.965,68.8a1.4,1.4,0,0,1-.71.179Z" transform="translate(42.286 72.267)" fill="#4945d1"/>
        <path id="Trazado_256287" data-name="Trazado 256287" d="M33.555,74.336a1.4,1.4,0,0,1-.934-2.439l.61-.559a1.4,1.4,0,0,1-1.286-2.358l3.418-3.37-1.726,1a1.4,1.4,0,0,1-1.706-2.181l4.139-4.3-2.433,1.4a1.4,1.4,0,0,1-1.619-2.26l.956-.839a1.642,1.642,0,0,1-1.141-.543,1.4,1.4,0,0,1,.112-1.84l3.734-3.778-2.044,1.177a1.4,1.4,0,0,1-1.7-2.187l3.977-4.083-2.276,1.312a1.4,1.4,0,0,1-1.712-2.173l4.363-4.592-2.651,1.53a1.4,1.4,0,0,1-1.927-1.877l1.424-2.626a1.4,1.4,0,0,1-.895-2.6l3.686-2.125a1.4,1.4,0,0,1,1.927,1.879l-1.326,2.453,6.734-3.887a1.4,1.4,0,0,1,1.712,2.176l-4.36,4.584,2.648-1.524a1.4,1.4,0,0,1,1.7,2.184l-4,4.083,2.282-1.314a1.4,1.4,0,0,1,1.692,2.193L41.2,50.625l2.033-1.172a1.4,1.4,0,0,1,1.619,2.26l-.956.839a1.706,1.706,0,0,1,1.135.54,1.4,1.4,0,0,1-.092,1.829l-4.145,4.3,2.442-1.4a1.4,1.4,0,0,1,1.678,2.2l-3.4,3.378,1.723-.993a1.4,1.4,0,0,1,1.633,2.237l-.976.875a1.429,1.429,0,0,1,1.25.7,1.4,1.4,0,0,1-.509,1.907L34.243,74.148a1.368,1.368,0,0,1-.688.187Z" transform="translate(56.661 59.413)" fill="#4945d1"/>
        <g id="Outer_Lines" data-name="Outer Lines" transform="translate(-0.007 1.066)">
          <path id="Trazado_256288" data-name="Trazado 256288" d="M167.058,98.872c0-25.825.031-51.722-.017-77.507C165.061,11.037,130.617,7.373,120.5,2.06,100.88-3.388,80.778,11.568,61.285,14.841,46.966,17.19,32.591,7.035,18.445,4.275,11.837.821.381.1.767,10.318v66.6C3.139,90.715-5.1,145.479,5.813,149.445c57.5,20.458,47.885,16.142,104.573-.808C186.4,171.653,163.475,170.479,167.058,98.872ZM43.165,158c-9.688-5.21-35.543-5.859-38.315-16.64V21.885C6.039,16.818,1.494,5.105,8.9,4.546c15,4.475,29.894,9.967,45.027,14.056V161.47C50.3,160.57,46.692,159.113,43.165,158Zm19.963,2.187a49.025,49.025,0,0,1-5.157,1.575V18.406C75.355,13.652,92.524,7.815,109.855,2.913V146.12C94.26,150.728,78.716,155.547,63.128,160.184ZM162.969,148.5c-.5,3.915,2.047,11.525-4.038,11.62-14.987-4.539-29.95-9.833-45.027-14.112V3.2c10,5.21,46.682,10.348,49.071,19.18Z" transform="translate(0.007 -0.877)" fill="#262626"/>
          <path id="Trazado_256289" data-name="Trazado 256289" d="M39.141,20.131c-.408-4.953-6.967-4.5-10.485-6.2-7.271-.9-18.76-10.323-24.141-2.469-.579,13.424,0,27.128-.2,40.574.347,2.674,2.551,3.2,4.707,3.882,44.353,17.678,26.717-.123,30.115-35.786ZM35.08,59.525c-.35,3.4-9.081-2.1-11.726-2.123-4.528-2.408-12.512-1.74-14.979-6.432,1.1-12.764-2.086-28.887.982-40.09C46.619,21.856,32.636,15.1,35.08,59.525Z" transform="translate(7.655 12.565)" fill="#262626"/>
          <path id="Trazado_256290" data-name="Trazado 256290" d="M78.544,41.85c-.336-2.62-2.486-3.054-4.587-3.72-44.21-17.678-27.019.12-30.229,35.89.895,4.754,7.439,4.2,11.011,5.977,7.1.945,18.654,10.149,23.71,2.056.308-13.337-.02-26.815.1-40.2Zm-4.05,30.028c-.436,2.237,1.012,12.006-.853,11.3C65.587,80.615,57.42,78.1,49.377,75.491c-4.262-11.271-.254-28.574-1.6-41.391-.54-2.346,1.636-.982,2.693-.6,33.616,9.179,22.192,6.955,24.021,38.382Z" transform="translate(77.318 53.648)" fill="#262626"/>
          <path id="Trazado_256291" data-name="Trazado 256291" d="M32.555,41.329c-4.64,1.451-10.843,2.067-9.044,8.521C24.674,55.833,20.993,66.2,25.3,70.233c4.2-.956,11-1.569,13.455-5.283C37.128,59,43.607,35.174,32.555,41.329ZM29.034,67.254c-.406.129-.954.232-1.468.375-.025-7.414.039-15.038,0-22.373a2.374,2.374,0,0,0-.817.176l7.94-2.517c.025,7.512,0,15.029.014,22.541Z" transform="translate(41.601 69.992)" fill="#262626"/>
          <path id="Trazado_256292" data-name="Trazado 256292" d="M46.73,35.4c-.931-4.645-6.729-.9-9.584-.327A13.466,13.466,0,0,0,32.33,36.94c-2.495,11.413-.07,24.485-.884,36.407.915,5.034,7.252.8,10.283.246,9.73.185,3.233-30.134,5-38.191ZM42.761,70.41h-.017l.028-.028Zm-2.978.945c-1.208.38-2.917.649-4.217,1.2-.059-11.366-.025-22.762,0-34.1,2.349-.8,4.69-1.507,7.05-2.26-.034,11.352.039,22.849,0,34.254Z" transform="translate(56.017 57.028)" fill="#262626"/>
          <path id="Trazado_256293" data-name="Trazado 256293" d="M24.826,40.984c19.051,2.593-12.2-6.611-16.246-7.806C-3.172,34.059,22.13,39.532,24.826,40.984Z" transform="translate(9.872 57.157)" fill="#262626"/>
          <path id="Trazado_256294" data-name="Trazado 256294" d="M30.868,45.955C4.685,36.248-8.378,37.5,27.579,47.683,28.507,48.145,32.182,47.1,30.868,45.955Z" transform="translate(9.949 68.188)" fill="#262626"/>
          <path id="Trazado_256295" data-name="Trazado 256295" d="M30.547,51.983c-3.594-.171-28.165-11.718-24.77-4.57C9.374,47.584,33.945,59.132,30.547,51.983Z" transform="translate(9.822 78.543)" fill="#262626"/>
          <path id="Trazado_256296" data-name="Trazado 256296" d="M51.472,23.343c-18.841-2.579,12.143,6.474,16.221,7.71C79.218,30.181,54.235,24.831,51.472,23.343Z" transform="translate(81.669 38.661)" fill="#262626"/>
          <path id="Trazado_256297" data-name="Trazado 256297" d="M71.065,23.675C66.5,23.32,45.579,12.791,45.414,18.362,49.975,18.708,70.9,29.241,71.065,23.675Z" transform="translate(81.613 27.621)" fill="#262626"/>
          <path id="Trazado_256298" data-name="Trazado 256298" d="M45.415,12.375c4.5.344,25.615,10.907,25.646,5.314C66.558,17.334,45.446,6.754,45.415,12.375Z" transform="translate(81.615 16.83)" fill="#262626"/>
          <path id="Trazado_256299" data-name="Trazado 256299" d="M28.5,18.894c7.691-3.155,17.555-4.136,24.174-8.482C52.7,8.457,17.254,19.923,28.5,18.894Z" transform="translate(47.26 15.849)" fill="#262626"/>
          <path id="Trazado_256300" data-name="Trazado 256300" d="M50.172,16.051c-2.218,1.259-31.672,8.189-21.755,9.4C30.626,24.2,60.092,17.268,50.172,16.051Z" transform="translate(47.42 26.385)" fill="#262626"/>
          <path id="Trazado_256301" data-name="Trazado 256301" d="M50.363,22.051c-7.5,3.356-18.178,3.8-24.088,8.8,6.583,1.46,14.867-4.391,21.909-5.565,2.416-.168,7.663-3.443,2.179-3.239Z" transform="translate(47.227 37.149)" fill="#262626"/>
          <path id="Trazado_256302" data-name="Trazado 256302" d="M50.217,27.933C47.926,29.3,17.851,35.962,28.637,38,30.928,36.631,61,29.966,50.217,27.933Z" transform="translate(47.289 47.734)" fill="#262626"/>
        </g>
      </g>
    </g>
  </g>
</svg>
