<svg xmlns="http://www.w3.org/2000/svg" xmlns:xlink="http://www.w3.org/1999/xlink" width="1173.455" height="373.178" viewBox="0 0 1173.455 373.178">
  <defs>
    <clipPath id="clip-path">
      <rect id="Rectángulo_90493" data-name="Rectángulo 90493" width="333.455" height="373.178" fill="none"/>
    </clipPath>
    <clipPath id="clip-path-2">
      <rect id="Rectángulo_90483" data-name="Rectángulo 90483" width="333.455" height="373.179" fill="#a7e446"/>
    </clipPath>
    <clipPath id="clip-path-3">
      <rect id="Rectángulo_90482" data-name="Rectángulo 90482" width="232.444" height="232.444" fill="#a7e446"/>
    </clipPath>
    <clipPath id="clip-path-5">
      <path id="Trazado_262414" data-name="Trazado 262414" d="M68.384,123.753A159.592,159.592,0,1,0,181.234,77.009,159.592,159.592,0,0,0,68.384,123.753" transform="translate(-21.641 -77.009)" fill="none"/>
    </clipPath>
    <linearGradient id="linear-gradient" x1="0.067" y1="0.947" x2="0.068" y2="0.947" gradientUnits="objectBoundingBox">
      <stop offset="0" stop-color="#dedfe1"/>
      <stop offset="0.406" stop-color="#e9eaec"/>
      <stop offset="0.987" stop-color="#fafafa"/>
      <stop offset="1" stop-color="#fafafa"/>
    </linearGradient>
    <clipPath id="clip-path-6">
      <rect id="Rectángulo_90491" data-name="Rectángulo 90491" width="333.455" height="373.179" fill="none"/>
    </clipPath>
    <clipPath id="clip-path-7">
      <rect id="Rectángulo_90486" data-name="Rectángulo 90486" width="282.616" height="150.718" fill="none"/>
    </clipPath>
    <clipPath id="clip-path-8">
      <path id="Trazado_262415" data-name="Trazado 262415" d="M26.388,540.091A157.74,157.74,0,0,0,298.905,641.107,37.462,37.462,0,0,0,309,615.43V540.091Z" transform="translate(-26.388 -540.091)" fill="none"/>
    </clipPath>
    <linearGradient id="linear-gradient-2" x1="-0.104" y1="0.836" x2="-0.103" y2="0.836" gradientUnits="objectBoundingBox">
      <stop offset="0"/>
      <stop offset="0.989" stop-color="#8c8c8c"/>
      <stop offset="1" stop-color="#8c8c8c"/>
    </linearGradient>
    <clipPath id="clip-path-10">
      <path id="Trazado_262416" data-name="Trazado 262416" d="M26.388,241.029A157.74,157.74,0,0,1,298.905,140.013,37.461,37.461,0,0,1,309,165.69v75.338Z" transform="translate(-26.388 -90.311)" fill="none"/>
    </clipPath>
    <linearGradient id="linear-gradient-3" x1="-0.111" y1="1.334" x2="-0.109" y2="1.334" xlink:href="#linear-gradient-2"/>
    <clipPath id="clip-path-11">
      <rect id="Rectángulo_90490" data-name="Rectángulo 90490" width="163.061" height="163.062" fill="none"/>
    </clipPath>
    <clipPath id="clip-path-13">
      <path id="Trazado_262418" data-name="Trazado 262418" d="M150.469,123.569a146.876,146.876,0,1,0,55.085-10.721,145.44,145.44,0,0,0-55.085,10.721" transform="translate(-59.161 -112.848)" fill="#f5faec"/>
    </clipPath>
  </defs>
  <g id="Grupo_161329" data-name="Grupo 161329" transform="translate(-213 -3755.7)">
    <g id="Grupo_149605" data-name="Grupo 149605" transform="translate(213 3755.7)" clip-path="url(#clip-path)">
      <g id="Grupo_149582" data-name="Grupo 149582" transform="translate(0 -0.001)">
        <g id="Grupo_149581" data-name="Grupo 149581" clip-path="url(#clip-path-2)">
          <path id="Trazado_262410" data-name="Trazado 262410" d="M231.457,715.477A186.007,186.007,0,0,0,363.4,660.827L231.629,529.059,99.692,661a186,186,0,0,0,131.765,54.482" transform="translate(-64.5 -342.298)" fill="#a7e446"/>
          <path id="Trazado_262411" data-name="Trazado 262411" d="M99.692,54.479,231.629,186.416,363.4,54.649a186.585,186.585,0,0,0-263.7-.169" transform="translate(-64.5 0.002)" fill="#a7e446"/>
          <path id="Trazado_262412" data-name="Trazado 262412" d="M284.622,105.63a166.728,166.728,0,1,1-235.789,0,166.728,166.728,0,0,1,235.789,0" transform="translate(0 -36.746)" fill="#a7e446"/>
          <g id="Grupo_149580" data-name="Grupo 149580" transform="translate(79.463 68.627)" style="mix-blend-mode: multiply;isolation: isolate">
            <g id="Grupo_149579" data-name="Grupo 149579">
              <g id="Grupo_149578" data-name="Grupo 149578" clip-path="url(#clip-path-3)">
                <g id="Grupo_149577" data-name="Grupo 149577">
                  <g id="Grupo_149576" data-name="Grupo 149576">
                    <g id="Grupo_149575" data-name="Grupo 149575" clip-path="url(#clip-path-3)">
                      <path id="Trazado_262413" data-name="Trazado 262413" d="M423.734,228.221c45.262,45.262,45.059,118.849-.454,164.362s-119.1,45.716-164.362.454-45.059-118.849.454-164.362,119.1-45.716,164.362-.454" transform="translate(-225.105 -194.407)" fill="#a7e446"/>
                    </g>
                  </g>
                </g>
              </g>
            </g>
          </g>
        </g>
      </g>
      <g id="Grupo_149584" data-name="Grupo 149584" transform="translate(7.639 27.184)">
        <g id="Grupo_149583" data-name="Grupo 149583" clip-path="url(#clip-path-5)">
          <rect id="Rectángulo_90484" data-name="Rectángulo 90484" width="386.656" height="399.534" transform="translate(-68.613 326.143) rotate(-80.764)" fill="url(#linear-gradient)"/>
        </g>
      </g>
      <g id="Grupo_149602" data-name="Grupo 149602" transform="translate(0 -0.001)">
        <g id="Grupo_149601" data-name="Grupo 149601" clip-path="url(#clip-path-6)">
          <g id="Grupo_149589" data-name="Grupo 149589" transform="translate(9.315 190.655)" style="mix-blend-mode: screen;isolation: isolate">
            <g id="Grupo_149588" data-name="Grupo 149588">
              <g id="Grupo_149587" data-name="Grupo 149587" clip-path="url(#clip-path-7)">
                <g id="Grupo_149586" data-name="Grupo 149586">
                  <g id="Grupo_149585" data-name="Grupo 149585" clip-path="url(#clip-path-8)">
                    <rect id="Rectángulo_90485" data-name="Rectángulo 90485" width="249.215" height="319.047" transform="matrix(0.391, -0.92, 0.92, 0.391, -54.236, 127.679)" fill="url(#linear-gradient-2)"/>
                  </g>
                </g>
              </g>
            </g>
          </g>
          <g id="Grupo_149594" data-name="Grupo 149594" transform="translate(9.315 31.881)" style="mix-blend-mode: screen;isolation: isolate">
            <g id="Grupo_149593" data-name="Grupo 149593">
              <g id="Grupo_149592" data-name="Grupo 149592" clip-path="url(#clip-path-7)">
                <g id="Grupo_149591" data-name="Grupo 149591" transform="translate(0 0)">
                  <g id="Grupo_149590" data-name="Grupo 149590" clip-path="url(#clip-path-10)">
                    <rect id="Rectángulo_90487" data-name="Rectángulo 90487" width="246.567" height="318.651" transform="translate(-52.851 129.078) rotate(-67.733)" fill="url(#linear-gradient-3)"/>
                  </g>
                </g>
              </g>
            </g>
          </g>
          <g id="Grupo_149600" data-name="Grupo 149600" transform="translate(126.141 111.315)" opacity="0.15" style="mix-blend-mode: multiply;isolation: isolate">
            <g id="Grupo_149599" data-name="Grupo 149599">
              <g id="Grupo_149598" data-name="Grupo 149598" clip-path="url(#clip-path-11)">
                <g id="Grupo_149597" data-name="Grupo 149597">
                  <g id="Grupo_149596" data-name="Grupo 149596">
                    <g id="Grupo_149595" data-name="Grupo 149595" clip-path="url(#clip-path-11)">
                      <path id="Trazado_262417" data-name="Trazado 262417" d="M438.866,478.4a81.291,81.291,0,1,1,31.737-6.409,81.032,81.032,0,0,1-31.737,6.409" transform="translate(-357.335 -315.336)" fill="#262626"/>
                    </g>
                  </g>
                </g>
              </g>
            </g>
          </g>
        </g>
      </g>
      <g id="Grupo_149604" data-name="Grupo 149604" transform="translate(20.884 39.836)">
        <g id="Grupo_149603" data-name="Grupo 149603" clip-path="url(#clip-path-13)">
          <rect id="Rectángulo_90492" data-name="Rectángulo 90492" width="390.044" height="390.044" transform="translate(-113.413 238.957) rotate(-64.61)" fill="#f5faec"/>
        </g>
      </g>
    </g>
    <path id="Trazado_264161" data-name="Trazado 264161" d="M-50.972-5.229h-5.062V0h-2.637V-12.8h8.332v2.136h-5.7v3.3h5.063Zm1.415.387a5.64,5.64,0,0,1,.545-2.522,3.989,3.989,0,0,1,1.569-1.714,4.577,4.577,0,0,1,2.377-.606,4.33,4.33,0,0,1,3.142,1.178,4.727,4.727,0,0,1,1.358,3.2l.018.65A4.97,4.97,0,0,1-41.77-1.147,4.247,4.247,0,0,1-45.048.176a4.268,4.268,0,0,1-3.283-1.318,5.058,5.058,0,0,1-1.226-3.586Zm2.54.18a3.555,3.555,0,0,0,.51,2.073,1.682,1.682,0,0,0,1.459.717,1.686,1.686,0,0,0,1.441-.709,3.89,3.89,0,0,0,.519-2.267,3.519,3.519,0,0,0-.519-2.06,1.686,1.686,0,0,0-1.459-.731,1.658,1.658,0,0,0-1.441.726A3.955,3.955,0,0,0-47.017-4.662ZM-36.3,0h-2.549V-13.5H-36.3Zm4.772,0H-34.08V-13.5h2.549Zm6.469.176a4.668,4.668,0,0,1-3.406-1.283,4.561,4.561,0,0,1-1.314-3.419v-.246a5.745,5.745,0,0,1,.554-2.562,4.064,4.064,0,0,1,1.569-1.74,4.4,4.4,0,0,1,2.316-.611,3.947,3.947,0,0,1,3.072,1.23,5,5,0,0,1,1.121,3.489v1.037h-6.056a2.36,2.36,0,0,0,.743,1.494,2.245,2.245,0,0,0,1.569.563A2.742,2.742,0,0,0-22.6-2.936l1.248,1.4A3.813,3.813,0,0,1-22.9-.277,5.075,5.075,0,0,1-25.062.176Zm-.29-7.813a1.587,1.587,0,0,0-1.226.512,2.651,2.651,0,0,0-.6,1.466h3.533v-.2A1.891,1.891,0,0,0-24.1-7.174,1.638,1.638,0,0,0-25.352-7.638Zm8.684-4.21V-9.51h1.626v1.863h-1.626V-2.9a1.133,1.133,0,0,0,.2.756,1.015,1.015,0,0,0,.773.229,4.051,4.051,0,0,0,.747-.062V-.053a5.229,5.229,0,0,1-1.538.229,2.425,2.425,0,0,1-2.725-2.7V-7.646H-20.6V-9.51h1.389v-2.338Zm2.382,7a5.64,5.64,0,0,1,.545-2.522,3.989,3.989,0,0,1,1.569-1.714A4.577,4.577,0,0,1-9.8-9.686,4.33,4.33,0,0,1-6.653-8.508,4.727,4.727,0,0,1-5.3-5.309l.018.65A4.97,4.97,0,0,1-6.5-1.147,4.247,4.247,0,0,1-9.778.176a4.268,4.268,0,0,1-3.283-1.318,5.058,5.058,0,0,1-1.226-3.586Zm2.54.18a3.555,3.555,0,0,0,.51,2.073,1.682,1.682,0,0,0,1.459.717,1.686,1.686,0,0,0,1.441-.709,3.89,3.89,0,0,0,.519-2.267,3.519,3.519,0,0,0-.519-2.06A1.686,1.686,0,0,0-9.8-7.638a1.658,1.658,0,0,0-1.441.726A3.955,3.955,0,0,0-11.747-4.662ZM.374-4.825a5.731,5.731,0,0,1,1-3.542A3.237,3.237,0,0,1,4.1-9.686,2.913,2.913,0,0,1,6.394-8.648V-13.5H8.943V0H6.649L6.526-1.011A2.989,2.989,0,0,1,4.083.176,3.228,3.228,0,0,1,1.389-1.147,5.916,5.916,0,0,1,.374-4.825Zm2.54.181a3.775,3.775,0,0,0,.466,2.057,1.516,1.516,0,0,0,1.354.715,1.7,1.7,0,0,0,1.661-1V-6.64a1.675,1.675,0,0,0-1.644-1Q2.914-7.638,2.914-4.644ZM13.654,0h-2.54V-9.51h2.54Zm-.747-13.368h2.769l-2.435,2.725H11.175Zm11.5,8.7a5.7,5.7,0,0,1-1,3.52A3.2,3.2,0,0,1,20.711.176a2.963,2.963,0,0,1-2.329-1V3.656h-2.54V-9.51H18.2l.088.932a2.985,2.985,0,0,1,2.408-1.107,3.22,3.22,0,0,1,2.733,1.3A5.858,5.858,0,0,1,24.4-4.8Zm-2.54-.194a3.763,3.763,0,0,0-.47-2.054,1.53,1.53,0,0,0-1.367-.723,1.662,1.662,0,0,0-1.644.917v3.906a1.691,1.691,0,0,0,1.661.943Q21.863-1.872,21.863-4.861Zm7.154-6.987V-9.51h1.626v1.863H29.017V-2.9a1.133,1.133,0,0,0,.2.756,1.015,1.015,0,0,0,.773.229,4.051,4.051,0,0,0,.747-.062V-.053A5.229,5.229,0,0,1,29.2.176a2.425,2.425,0,0,1-2.725-2.7V-7.646H25.088V-9.51h1.389v-2.338ZM34.739,0H32.19V-9.51h2.549Zm-2.7-11.971a1.251,1.251,0,0,1,.382-.94,1.436,1.436,0,0,1,1.042-.369,1.44,1.44,0,0,1,1.037.369,1.244,1.244,0,0,1,.387.94,1.247,1.247,0,0,1-.391.949,1.443,1.443,0,0,1-1.033.369,1.443,1.443,0,0,1-1.033-.369A1.247,1.247,0,0,1,32.041-11.971Zm8.745,10.1a1.666,1.666,0,0,0,1.143-.387,1.355,1.355,0,0,0,.457-1.028h2.382a3.258,3.258,0,0,1-.527,1.771A3.48,3.48,0,0,1,42.82-.268,4.442,4.442,0,0,1,40.83.176a4.129,4.129,0,0,1-3.217-1.3A5.13,5.13,0,0,1,36.435-4.7v-.167A5.071,5.071,0,0,1,37.6-8.376a4.08,4.08,0,0,1,3.208-1.31A4,4,0,0,1,43.673-8.67a3.594,3.594,0,0,1,1.094,2.7H42.385a1.745,1.745,0,0,0-.457-1.206,1.524,1.524,0,0,0-1.16-.464,1.53,1.53,0,0,0-1.34.647,3.749,3.749,0,0,0-.453,2.1v.264a3.8,3.8,0,0,0,.448,2.113A1.549,1.549,0,0,0,40.786-1.872Zm5.036-2.971a5.64,5.64,0,0,1,.545-2.522,3.989,3.989,0,0,1,1.569-1.714,4.577,4.577,0,0,1,2.377-.606,4.33,4.33,0,0,1,3.142,1.178,4.727,4.727,0,0,1,1.358,3.2l.018.65a4.97,4.97,0,0,1-1.222,3.511A4.247,4.247,0,0,1,50.331.176a4.268,4.268,0,0,1-3.283-1.318,5.058,5.058,0,0,1-1.226-3.586Zm2.54.18a3.555,3.555,0,0,0,.51,2.073,1.682,1.682,0,0,0,1.459.717,1.686,1.686,0,0,0,1.441-.709,3.89,3.89,0,0,0,.519-2.267,3.519,3.519,0,0,0-.519-2.06,1.686,1.686,0,0,0-1.459-.731,1.658,1.658,0,0,0-1.441.726A3.955,3.955,0,0,0,48.362-4.662Zm8.692,7.87-1.327-.694.316-.571A4.567,4.567,0,0,0,56.65-.193V-2.162h2.145L58.786-.4a4.566,4.566,0,0,1-.492,1.969A5.047,5.047,0,0,1,57.054,3.208ZM-50.682,24.176a4.155,4.155,0,0,1-3.146-1.27,4.714,4.714,0,0,1-1.213-3.4v-.3a5.707,5.707,0,0,1,.541-2.527,4.217,4.217,0,0,1,1.512-1.74,3.8,3.8,0,0,1,2.1-.628A3.562,3.562,0,0,1-48,15.536a5.289,5.289,0,0,1,1.028,3.5v.677h-6.442a3.38,3.38,0,0,0,.822,2.272,2.583,2.583,0,0,0,2,.866,2.832,2.832,0,0,0,1.459-.352,3.666,3.666,0,0,0,1.046-.932l.993.773A3.993,3.993,0,0,1-50.682,24.176Zm-.2-8.525a2.169,2.169,0,0,0-1.652.716,3.482,3.482,0,0,0-.826,2.008H-48.6v-.123a3.1,3.1,0,0,0-.668-1.92A2.042,2.042,0,0,0-50.884,15.65Zm11.329,5.827a1.2,1.2,0,0,0-.5-1.024,4.78,4.78,0,0,0-1.731-.628,8.186,8.186,0,0,1-1.96-.633,2.788,2.788,0,0,1-1.072-.879,2.1,2.1,0,0,1-.347-1.213,2.467,2.467,0,0,1,.989-1.978,3.861,3.861,0,0,1,2.527-.809,3.974,3.974,0,0,1,2.624.835,2.652,2.652,0,0,1,1.006,2.136h-1.635a1.468,1.468,0,0,0-.567-1.151,2.124,2.124,0,0,0-1.428-.483,2.223,2.223,0,0,0-1.389.387,1.217,1.217,0,0,0-.5,1.011.986.986,0,0,0,.466.888,5.731,5.731,0,0,0,1.683.571,8.77,8.77,0,0,1,1.973.65,2.878,2.878,0,0,1,1.121.91,2.237,2.237,0,0,1,.365,1.3,2.434,2.434,0,0,1-1.02,2.043,4.277,4.277,0,0,1-2.646.769,4.789,4.789,0,0,1-2.021-.4,3.288,3.288,0,0,1-1.375-1.129,2.722,2.722,0,0,1-.5-1.569h1.626a1.683,1.683,0,0,0,.655,1.3,2.54,2.54,0,0,0,1.613.479,2.622,2.622,0,0,0,1.481-.374A1.148,1.148,0,0,0-39.555,21.478Zm7.8-2.312a5.571,5.571,0,0,1,1.037-3.52A3.28,3.28,0,0,1-28,14.314a3.3,3.3,0,0,1,2.646,1.143V10.5h1.626V24H-25.22l-.079-1.02a3.311,3.311,0,0,1-2.716,1.2,3.248,3.248,0,0,1-2.694-1.354,5.634,5.634,0,0,1-1.042-3.533Zm1.626.185a4.218,4.218,0,0,0,.668,2.531,2.159,2.159,0,0,0,1.846.914,2.372,2.372,0,0,0,2.259-1.389V17.039a2.39,2.39,0,0,0-2.241-1.345,2.17,2.17,0,0,0-1.863.923A4.644,4.644,0,0,0-30.125,19.351Zm12.867,4.825a4.155,4.155,0,0,1-3.146-1.27,4.714,4.714,0,0,1-1.213-3.4v-.3a5.707,5.707,0,0,1,.541-2.527,4.217,4.217,0,0,1,1.512-1.74,3.8,3.8,0,0,1,2.1-.628,3.562,3.562,0,0,1,2.883,1.222,5.289,5.289,0,0,1,1.028,3.5v.677h-6.442a3.38,3.38,0,0,0,.822,2.272,2.583,2.583,0,0,0,2,.866A2.832,2.832,0,0,0-15.71,22.5a3.666,3.666,0,0,0,1.046-.932l.993.773A3.993,3.993,0,0,1-17.257,24.176Zm-.2-8.525a2.169,2.169,0,0,0-1.652.716,3.482,3.482,0,0,0-.826,2.008h4.764v-.123a3.1,3.1,0,0,0-.668-1.92A2.042,2.042,0,0,0-17.459,15.65Zm9.606,7.2a2.342,2.342,0,0,0,1.521-.527A1.855,1.855,0,0,0-5.612,21h1.538a2.949,2.949,0,0,1-.562,1.556,3.7,3.7,0,0,1-1.384,1.178,3.994,3.994,0,0,1-1.833.439,3.918,3.918,0,0,1-3.089-1.3,5.163,5.163,0,0,1-1.147-3.546v-.272a5.725,5.725,0,0,1,.51-2.47,3.883,3.883,0,0,1,1.463-1.679,4.157,4.157,0,0,1,2.254-.6,3.814,3.814,0,0,1,2.659.958A3.424,3.424,0,0,1-4.074,17.76H-5.612a2.241,2.241,0,0,0-.7-1.516,2.174,2.174,0,0,0-1.551-.593,2.276,2.276,0,0,0-1.92.892,4.19,4.19,0,0,0-.681,2.58v.308a4.106,4.106,0,0,0,.677,2.531A2.287,2.287,0,0,0-7.853,22.849ZM-.479,24H-2.1V14.49H-.479ZM-2.237,11.968A.971.971,0,0,1-2,11.3a.907.907,0,0,1,.716-.272.922.922,0,0,1,.721.272.96.96,0,0,1,.246.668.929.929,0,0,1-.246.659.938.938,0,0,1-.721.264A.924.924,0,0,1-2,12.627.938.938,0,0,1-2.237,11.968Zm8.956,3.981a4.873,4.873,0,0,0-.8-.062A2.143,2.143,0,0,0,3.749,17.25V24H2.123V14.49H3.7l.026,1.1A2.532,2.532,0,0,1,6,14.314a1.661,1.661,0,0,1,.721.123Zm5.555,3.217a5.571,5.571,0,0,1,1.037-3.52,3.28,3.28,0,0,1,2.716-1.332,3.3,3.3,0,0,1,2.646,1.143V10.5H20.3V24H18.8l-.079-1.02a3.311,3.311,0,0,1-2.716,1.2,3.248,3.248,0,0,1-2.694-1.354,5.634,5.634,0,0,1-1.042-3.533Zm1.626.185a4.218,4.218,0,0,0,.668,2.531,2.159,2.159,0,0,0,1.846.914,2.372,2.372,0,0,0,2.259-1.389V17.039a2.39,2.39,0,0,0-2.241-1.345,2.17,2.17,0,0,0-1.863.923A4.644,4.644,0,0,0,13.9,19.351Zm8.49-.193a5.617,5.617,0,0,1,.549-2.514,4.1,4.1,0,0,1,1.529-1.723,4.163,4.163,0,0,1,2.237-.606,4.01,4.01,0,0,1,3.142,1.345,5.174,5.174,0,0,1,1.2,3.577v.114a5.666,5.666,0,0,1-.532,2.492A4.038,4.038,0,0,1,29,23.561a4.211,4.211,0,0,1-2.272.615,4,4,0,0,1-3.133-1.345,5.147,5.147,0,0,1-1.2-3.56Zm1.635.193a4.068,4.068,0,0,0,.734,2.54,2.487,2.487,0,0,0,3.933-.013,4.449,4.449,0,0,0,.729-2.72,4.061,4.061,0,0,0-.743-2.536,2.361,2.361,0,0,0-1.973-.971,2.335,2.335,0,0,0-1.942.958A4.416,4.416,0,0,0,24.025,19.351Zm17.112,0a5.654,5.654,0,0,1-1,3.5,3.2,3.2,0,0,1-2.689,1.323A3.315,3.315,0,0,1,34.66,22.9L34.581,24H33.086V10.5h1.626v5.036a3.3,3.3,0,0,1,2.716-1.222,3.221,3.221,0,0,1,2.72,1.31,5.824,5.824,0,0,1,.989,3.586Zm-1.626-.185A4.394,4.394,0,0,0,38.87,16.6a2.124,2.124,0,0,0-1.846-.905,2.387,2.387,0,0,0-2.312,1.494V21.3A2.454,2.454,0,0,0,37.042,22.8a2.112,2.112,0,0,0,1.819-.905A4.672,4.672,0,0,0,39.511,19.166ZM44.952,24H43.326V10.5h1.626Zm6.548.176a4.155,4.155,0,0,1-3.146-1.27,4.714,4.714,0,0,1-1.213-3.4v-.3a5.707,5.707,0,0,1,.541-2.527,4.217,4.217,0,0,1,1.512-1.74,3.8,3.8,0,0,1,2.1-.628,3.562,3.562,0,0,1,2.883,1.222,5.289,5.289,0,0,1,1.028,3.5v.677H48.766a3.38,3.38,0,0,0,.822,2.272,2.583,2.583,0,0,0,2,.866,2.832,2.832,0,0,0,1.459-.352,3.666,3.666,0,0,0,1.046-.932l.993.773A3.993,3.993,0,0,1,51.5,24.176Zm-.2-8.525a2.169,2.169,0,0,0-1.652.716,3.482,3.482,0,0,0-.826,2.008h4.764v-.123a3.1,3.1,0,0,0-.668-1.92A2.042,2.042,0,0,0,51.3,15.65Zm-73.367,27.7a5.694,5.694,0,0,1-.993,3.5,3.183,3.183,0,0,1-2.689,1.327,3.488,3.488,0,0,1-2.725-1.1v4.579H-30.1V38.49h1.485l.079,1.055a3.35,3.35,0,0,1,2.76-1.23,3.243,3.243,0,0,1,2.711,1.292,5.756,5.756,0,0,1,1,3.595Zm-1.626-.185a4.2,4.2,0,0,0-.686-2.54,2.208,2.208,0,0,0-1.881-.932A2.39,2.39,0,0,0-28.477,41v4.544a2.4,2.4,0,0,0,2.232,1.3,2.2,2.2,0,0,0,1.859-.927A4.587,4.587,0,0,0-23.7,43.166ZM-18.237,48h-1.626V34.5h1.626Zm4.368,0H-15.5V38.49h1.626Zm-1.758-12.032a.971.971,0,0,1,.242-.668.907.907,0,0,1,.716-.272.922.922,0,0,1,.721.272.96.96,0,0,1,.246.668.929.929,0,0,1-.246.659.938.938,0,0,1-.721.264.924.924,0,0,1-.716-.264A.938.938,0,0,1-15.627,35.968Zm8.306,12.208a4.155,4.155,0,0,1-3.146-1.27,4.714,4.714,0,0,1-1.213-3.4v-.3a5.707,5.707,0,0,1,.541-2.527,4.217,4.217,0,0,1,1.512-1.74,3.8,3.8,0,0,1,2.1-.628,3.562,3.562,0,0,1,2.883,1.222,5.289,5.289,0,0,1,1.028,3.5v.677h-6.442a3.38,3.38,0,0,0,.822,2.272,2.583,2.583,0,0,0,2,.866A2.832,2.832,0,0,0-5.774,46.5a3.666,3.666,0,0,0,1.046-.932l.993.773A3.993,3.993,0,0,1-7.321,48.176Zm-.2-8.525a2.169,2.169,0,0,0-1.652.716A3.482,3.482,0,0,0-10,42.375h4.764v-.123a3.1,3.1,0,0,0-.668-1.92A2.042,2.042,0,0,0-7.523,39.65Zm5.405,3.516A5.589,5.589,0,0,1-1.09,39.628a3.289,3.289,0,0,1,2.725-1.314,3.271,3.271,0,0,1,2.716,1.23L4.43,38.49H5.915v9.281a3.869,3.869,0,0,1-1.094,2.909,4.038,4.038,0,0,1-2.94,1.063A4.891,4.891,0,0,1-.132,51.3a3.465,3.465,0,0,1-1.5-1.2l.844-.976a3.18,3.18,0,0,0,2.558,1.292,2.491,2.491,0,0,0,1.85-.668,2.553,2.553,0,0,0,.664-1.881v-.817a3.342,3.342,0,0,1-2.663,1.125,3.248,3.248,0,0,1-2.7-1.345A5.876,5.876,0,0,1-2.118,43.166Zm1.635.185a4.264,4.264,0,0,0,.659,2.527,2.142,2.142,0,0,0,1.846.918A2.382,2.382,0,0,0,4.28,45.4V41.057a2.41,2.41,0,0,0-2.241-1.362,2.161,2.161,0,0,0-1.854.923A4.644,4.644,0,0,0-.483,43.351ZM14.238,47.06a3.454,3.454,0,0,1-2.786,1.116,2.956,2.956,0,0,1-2.316-.883,3.823,3.823,0,0,1-.8-2.615V38.49H9.958v6.144q0,2.162,1.758,2.162a2.434,2.434,0,0,0,2.479-1.389V38.49H15.82V48H14.273Zm8,1.116a4.155,4.155,0,0,1-3.146-1.27,4.714,4.714,0,0,1-1.213-3.4v-.3a5.707,5.707,0,0,1,.541-2.527,4.217,4.217,0,0,1,1.512-1.74,3.8,3.8,0,0,1,2.1-.628,3.562,3.562,0,0,1,2.883,1.222,5.289,5.289,0,0,1,1.028,3.5v.677H19.5a3.38,3.38,0,0,0,.822,2.272,2.583,2.583,0,0,0,2,.866,2.832,2.832,0,0,0,1.459-.352,3.666,3.666,0,0,0,1.046-.932l.993.773A3.993,3.993,0,0,1,22.236,48.176Zm-.2-8.525a2.169,2.169,0,0,0-1.652.716,3.482,3.482,0,0,0-.826,2.008h4.764v-.123a3.1,3.1,0,0,0-.668-1.92A2.042,2.042,0,0,0,22.034,39.65Zm5.827,7.5a1.018,1.018,0,0,1,.25-.7.954.954,0,0,1,.751-.281.983.983,0,0,1,.76.281,1,1,0,0,1,.259.7.944.944,0,0,1-.259.677,1,1,0,0,1-.76.272.9.9,0,0,1-1-.949Z" transform="translate(379.728 3961.289)" fill="#12263f"/>
    <path id="Trazado_262419" data-name="Trazado 262419" d="M15,8H69.838V95.1H15Z" transform="translate(337.309 3825.517)" fill="#f5b95b"/>
    <path id="Trazado_262420" data-name="Trazado 262420" d="M66.613,2,15,11.677H66.613Z" transform="translate(337.309 3821.84)" fill="#f5b95b"/>
    <path id="Trazado_262421" data-name="Trazado 262421" d="M69.838,8H15V32.193c0,34.74,21.663,62.9,48.387,62.9h6.452Z" transform="translate(337.309 3825.517)" fill="#f9d18f"/>
    <path id="Trazado_264162" data-name="Trazado 264162" d="M20.741,0A20.741,20.741,0,1,1,0,20.741,20.741,20.741,0,0,1,20.741,0Z" transform="translate(358.844 3846.67)" fill="#c7e2fb"/>
    <path id="Trazado_262422" data-name="Trazado 262422" d="M38.129,16a20.866,20.866,0,0,0-13.808,5.214A23.371,23.371,0,0,0,49.99,54.251,20.968,20.968,0,0,0,38.129,16Z" transform="translate(341.599 3830.42)" fill="#ebf7fe"/>
    <path id="Trazado_264163" data-name="Trazado 264163" d="M3.333,0A3.333,3.333,0,1,1,0,3.333,3.333,3.333,0,0,1,3.333,0Z" transform="translate(376.621 3857.781)" fill="#f5b95b"/>
    <path id="Trazado_262423" data-name="Trazado 262423" d="M57.752,37.452H54.089a22.664,22.664,0,0,1-12.581-3.806,15.748,15.748,0,0,0-19.871,1.966l-1.323,1.324a20.942,20.942,0,0,0,37.437.516Z" transform="translate(340.565 3839.613)" fill="#669e54"/>
    <path id="Trazado_262424" data-name="Trazado 262424" d="M45.607,37.449h3.652a21,21,0,0,0,1.252-2.9L47.88,32.793a10.656,10.656,0,0,0-11.819,0l-1.906,1.544a22.655,22.655,0,0,0,11.453,3.113Z" transform="translate(349.048 3839.616)" fill="#669e54"/>
    <path id="Trazado_262425" data-name="Trazado 262425" d="M32.613,23a3.266,3.266,0,0,0-.7.082A3.577,3.577,0,0,0,31,25.419a4.1,4.1,0,0,0,2.976,3.721A3.226,3.226,0,0,0,32.613,23Z" transform="translate(347.114 3834.71)" fill="#f9d18f"/>
    <path id="Trazado_262426" data-name="Trazado 262426" d="M39.509,33.645a15.7,15.7,0,0,0-15.918-.9,23.352,23.352,0,0,0,25.4,12.316,21.087,21.087,0,0,0,6.75-7.61H52.081a22.665,22.665,0,0,1-12.573-3.807Z" transform="translate(342.573 3839.613)" fill="#78b761"/>
    <path id="Trazado_262427" data-name="Trazado 262427" d="M70.451,10.678H68.838V2.613a1.613,1.613,0,0,0-1.911-1.585L15.315,10.7A1.613,1.613,0,0,0,14,12.29v87.1A1.613,1.613,0,0,0,15.613,101H70.451a1.613,1.613,0,0,0,1.613-1.613V12.29A1.613,1.613,0,0,0,70.451,10.678ZM65.613,4.557v6.121H32.968Zm3.226,93.217H17.226V13.9H68.838Z" transform="translate(336.695 3821.227)"/>
    <path id="Trazado_262428" data-name="Trazado 262428" d="M33.839,31.677A4.839,4.839,0,1,0,29,26.839,4.839,4.839,0,0,0,33.839,31.677Zm0-6.452a1.613,1.613,0,1,1-1.613,1.613A1.613,1.613,0,0,1,33.839,25.226Z" transform="translate(345.889 3834.098)"/>
    <path id="Trazado_262429" data-name="Trazado 262429" d="M40.581,60.161A22.581,22.581,0,1,0,18,37.581,22.581,22.581,0,0,0,40.581,60.161Zm0-3.226a19.355,19.355,0,0,1-16.864-9.887l.484-.484A14.134,14.134,0,0,1,42.034,44.8a24.218,24.218,0,0,0,13.474,4.071h.761a19.324,19.324,0,0,1-15.689,8.064Zm6.439-13.089a9.182,9.182,0,0,1,9.866.09l1.571,1.048c-.094.224-.2.439-.3.66H55.508A20.977,20.977,0,0,1,47.019,43.847ZM40.581,18.226A19.308,19.308,0,0,1,59.463,41.774l-.787-.526a12.464,12.464,0,0,0-13.61,0l-1.26.848a17.324,17.324,0,0,0-21.492,1.831,19.306,19.306,0,0,1,18.266-25.7Z" transform="translate(339.146 3829.808)"/>
    <path id="Trazado_262430" data-name="Trazado 262430" d="M18,45H63.161v3.226H18Z" transform="translate(339.146 3848.194)"/>
    <path id="Trazado_262431" data-name="Trazado 262431" d="M18,49H56.71v3.226H18Z" transform="translate(339.146 3850.646)"/>
    <path id="Trazado_262432" data-name="Trazado 262432" d="M44,49h3.226v3.226H44Z" transform="translate(355.082 3850.646)"/>
    <g id="Grupo_149605-2" data-name="Grupo 149605" transform="translate(1053 3755.7)" clip-path="url(#clip-path)">
      <g id="Grupo_149582-2" data-name="Grupo 149582" transform="translate(0 -0.001)">
        <g id="Grupo_149581-2" data-name="Grupo 149581" clip-path="url(#clip-path-2)">
          <path id="Trazado_262410-2" data-name="Trazado 262410" d="M231.457,715.477A186.007,186.007,0,0,0,363.4,660.827L231.629,529.059,99.692,661a186,186,0,0,0,131.765,54.482" transform="translate(-64.5 -342.298)" fill="#a7e446"/>
          <path id="Trazado_262411-2" data-name="Trazado 262411" d="M99.692,54.479,231.629,186.416,363.4,54.649a186.585,186.585,0,0,0-263.7-.169" transform="translate(-64.5 0.002)" fill="#a7e446"/>
          <path id="Trazado_262412-2" data-name="Trazado 262412" d="M284.622,105.63a166.728,166.728,0,1,1-235.789,0,166.728,166.728,0,0,1,235.789,0" transform="translate(0 -36.746)" fill="#a7e446"/>
          <g id="Grupo_149580-2" data-name="Grupo 149580" transform="translate(79.463 68.627)" style="mix-blend-mode: multiply;isolation: isolate">
            <g id="Grupo_149579-2" data-name="Grupo 149579">
              <g id="Grupo_149578-2" data-name="Grupo 149578" clip-path="url(#clip-path-3)">
                <g id="Grupo_149577-2" data-name="Grupo 149577">
                  <g id="Grupo_149576-2" data-name="Grupo 149576">
                    <g id="Grupo_149575-2" data-name="Grupo 149575" clip-path="url(#clip-path-3)">
                      <path id="Trazado_262413-2" data-name="Trazado 262413" d="M423.734,228.221c45.262,45.262,45.059,118.849-.454,164.362s-119.1,45.716-164.362.454-45.059-118.849.454-164.362,119.1-45.716,164.362-.454" transform="translate(-225.105 -194.407)" fill="#a7e446"/>
                    </g>
                  </g>
                </g>
              </g>
            </g>
          </g>
        </g>
      </g>
      <g id="Grupo_149584-2" data-name="Grupo 149584" transform="translate(7.639 27.184)">
        <g id="Grupo_149583-2" data-name="Grupo 149583" clip-path="url(#clip-path-5)">
          <rect id="Rectángulo_90484-2" data-name="Rectángulo 90484" width="386.656" height="399.534" transform="translate(-68.613 326.143) rotate(-80.764)" fill="url(#linear-gradient)"/>
        </g>
      </g>
      <g id="Grupo_149602-2" data-name="Grupo 149602" transform="translate(0 -0.001)">
        <g id="Grupo_149601-2" data-name="Grupo 149601" clip-path="url(#clip-path-6)">
          <g id="Grupo_149589-2" data-name="Grupo 149589" transform="translate(9.315 190.655)" style="mix-blend-mode: screen;isolation: isolate">
            <g id="Grupo_149588-2" data-name="Grupo 149588">
              <g id="Grupo_149587-2" data-name="Grupo 149587" clip-path="url(#clip-path-7)">
                <g id="Grupo_149586-2" data-name="Grupo 149586">
                  <g id="Grupo_149585-2" data-name="Grupo 149585" clip-path="url(#clip-path-8)">
                    <rect id="Rectángulo_90485-2" data-name="Rectángulo 90485" width="249.215" height="319.047" transform="matrix(0.391, -0.92, 0.92, 0.391, -54.236, 127.679)" fill="url(#linear-gradient-2)"/>
                  </g>
                </g>
              </g>
            </g>
          </g>
          <g id="Grupo_149594-2" data-name="Grupo 149594" transform="translate(9.315 31.881)" style="mix-blend-mode: screen;isolation: isolate">
            <g id="Grupo_149593-2" data-name="Grupo 149593">
              <g id="Grupo_149592-2" data-name="Grupo 149592" clip-path="url(#clip-path-7)">
                <g id="Grupo_149591-2" data-name="Grupo 149591" transform="translate(0 0)">
                  <g id="Grupo_149590-2" data-name="Grupo 149590" clip-path="url(#clip-path-10)">
                    <rect id="Rectángulo_90487-2" data-name="Rectángulo 90487" width="246.567" height="318.651" transform="translate(-52.851 129.078) rotate(-67.733)" fill="url(#linear-gradient-3)"/>
                  </g>
                </g>
              </g>
            </g>
          </g>
          <g id="Grupo_149600-2" data-name="Grupo 149600" transform="translate(126.141 111.315)" opacity="0.15" style="mix-blend-mode: multiply;isolation: isolate">
            <g id="Grupo_149599-2" data-name="Grupo 149599">
              <g id="Grupo_149598-2" data-name="Grupo 149598" clip-path="url(#clip-path-11)">
                <g id="Grupo_149597-2" data-name="Grupo 149597">
                  <g id="Grupo_149596-2" data-name="Grupo 149596">
                    <g id="Grupo_149595-2" data-name="Grupo 149595" clip-path="url(#clip-path-11)">
                      <path id="Trazado_262417-2" data-name="Trazado 262417" d="M438.866,478.4a81.291,81.291,0,1,1,31.737-6.409,81.032,81.032,0,0,1-31.737,6.409" transform="translate(-357.335 -315.336)" fill="#262626"/>
                    </g>
                  </g>
                </g>
              </g>
            </g>
          </g>
        </g>
      </g>
      <g id="Grupo_149604-2" data-name="Grupo 149604" transform="translate(20.884 39.836)">
        <g id="Grupo_149603-2" data-name="Grupo 149603" clip-path="url(#clip-path-13)">
          <rect id="Rectángulo_90492-2" data-name="Rectángulo 90492" width="390.044" height="390.044" transform="translate(-113.413 238.957) rotate(-64.61)" fill="#f5faec"/>
        </g>
      </g>
    </g>
    <g id="Grupo_156213" data-name="Grupo 156213" transform="translate(1179.103 3818.091)">
      <path id="Trazado_262433" data-name="Trazado 262433" d="M12,1.747H79.383V86.409H12Z" transform="translate(-12 -1.747)" fill="#fff5f5"/>
      <path id="Trazado_262434" data-name="Trazado 262434" d="M83.266,17.88V89.938H29.75v12.6H97.133V17.88Z" transform="translate(-15.883 -5.276)" fill="#efeaea"/>
      <g id="Grupo_156212" data-name="Grupo 156212" transform="translate(6.25 44.245)">
        <path id="Trazado_262435" data-name="Trazado 262435" d="M20,58.38H74.883v6.831H20Z" transform="translate(-20 -58.38)" fill="#635a70"/>
        <path id="Trazado_262436" data-name="Trazado 262436" d="M20,75.875H74.883v6.831H20Z" transform="translate(-20 -62.207)" fill="#635a70"/>
        <path id="Trazado_262437" data-name="Trazado 262437" d="M20,93.37H74.883V100.2H20Z" transform="translate(-20 -66.034)" fill="#635a70"/>
      </g>
      <path id="Trazado_262438" data-name="Trazado 262438" d="M62.6,27.738,47.441,39.169,32.278,27.738,20,40.591v4.831H74.883V40.591Z" transform="translate(-13.75 -7.433)" fill="#8affc7"/>
      <path id="Trazado_262439" data-name="Trazado 262439" d="M47.441,35.224,62.6,23.793,74.883,36.646V9.7H20V36.646L32.278,23.793Z" transform="translate(-13.75 -3.487)" fill="#19cffc"/>
      <circle id="Elipse_5708" data-name="Elipse 5708" cx="4.439" cy="4.439" r="4.439" transform="translate(29.252 11.081)" fill="#fff04a"/>
    </g>
    <g id="Grupo_156214" data-name="Grupo 156214" transform="translate(1177.735 3816.727)">
      <path id="Trazado_262440" data-name="Trazado 262440" d="M92.867,12.6h-12.5V1.365A1.368,1.368,0,0,0,79,0H11.617A1.368,1.368,0,0,0,10.25,1.367V86.027a1.367,1.367,0,0,0,1.367,1.367h12.5V98.63A1.368,1.368,0,0,0,25.484,100H92.867a1.368,1.368,0,0,0,1.367-1.367V13.969A1.368,1.368,0,0,0,92.867,12.6ZM12.984,2.734H77.633V84.659H12.984ZM91.5,97.266H26.852V87.394H79a1.367,1.367,0,0,0,1.367-1.367V15.336H91.5Z" transform="translate(-10.25 0)"/>
      <path id="Trazado_262441" data-name="Trazado 262441" d="M19.617,66.2H74.5a1.368,1.368,0,0,0,1.367-1.367V58A1.368,1.368,0,0,0,74.5,56.63H19.617A1.368,1.368,0,0,0,18.25,58v6.831A1.368,1.368,0,0,0,19.617,66.2Zm1.367-6.831H73.133v4.1H20.984Z" transform="translate(-12 -12.388)"/>
      <path id="Trazado_262442" data-name="Trazado 262442" d="M39.742,82.869a1.367,1.367,0,0,0,0,2.734h3.613a1.367,1.367,0,1,0,0-2.734Z" transform="translate(-16.402 -18.128)"/>
      <path id="Trazado_262443" data-name="Trazado 262443" d="M19.617,83.691h7.617a1.367,1.367,0,0,0,0-2.734h-6.25v-4.1H73.133v4.1H47.059a1.367,1.367,0,0,0,0,2.734H74.5a1.368,1.368,0,0,0,1.367-1.367V75.492A1.368,1.368,0,0,0,74.5,74.125H19.617a1.368,1.368,0,0,0-1.367,1.367v6.831A1.368,1.368,0,0,0,19.617,83.691Z" transform="translate(-12 -16.215)"/>
      <path id="Trazado_262444" data-name="Trazado 262444" d="M75.867,99.818V92.987A1.368,1.368,0,0,0,74.5,91.62H19.617a1.368,1.368,0,0,0-1.367,1.367v6.831a1.367,1.367,0,0,0,1.367,1.367H74.5A1.367,1.367,0,0,0,75.867,99.818Zm-2.734-1.367H20.984v-4.1H73.133Z" transform="translate(-12 -20.042)"/>
      <path id="Trazado_262445" data-name="Trazado 262445" d="M19.617,42.46H74.5a1.367,1.367,0,0,0,1.367-1.367V9.317A1.368,1.368,0,0,0,74.5,7.95H19.617A1.368,1.368,0,0,0,18.25,9.317V41.091a1.367,1.367,0,0,0,1.367,1.37ZM73.133,10.687V32.852L63.211,22.465a1.368,1.368,0,0,0-1.812-.147L52.534,29a1.367,1.367,0,0,0,1.646,2.184l7.891-5.951L73.133,36.811v2.915H20.984V36.811L32.044,25.234l14.192,10.7a1.369,1.369,0,0,0,1.645-2.187L32.718,22.318a1.368,1.368,0,0,0-1.812.147L20.984,32.852V10.687Z" transform="translate(-12 -1.739)"/>
      <path id="Trazado_262446" data-name="Trazado 262446" d="M53.5,25.794a5.807,5.807,0,1,0-5.807-5.807A5.807,5.807,0,0,0,53.5,25.794Zm0-8.879a3.073,3.073,0,1,1-3.073,3.072A3.073,3.073,0,0,1,53.5,16.915Z" transform="translate(-18.44 -3.102)"/>
    </g>
    <g id="Grupo_149605-3" data-name="Grupo 149605" transform="translate(633 3755.7)" clip-path="url(#clip-path)">
      <g id="Grupo_149582-3" data-name="Grupo 149582" transform="translate(0 -0.001)">
        <g id="Grupo_149581-3" data-name="Grupo 149581" clip-path="url(#clip-path-2)">
          <path id="Trazado_262410-3" data-name="Trazado 262410" d="M231.457,715.477A186.007,186.007,0,0,0,363.4,660.827L231.629,529.059,99.692,661a186,186,0,0,0,131.765,54.482" transform="translate(-64.5 -342.298)" fill="#a7e446"/>
          <path id="Trazado_262411-3" data-name="Trazado 262411" d="M99.692,54.479,231.629,186.416,363.4,54.649a186.585,186.585,0,0,0-263.7-.169" transform="translate(-64.5 0.002)" fill="#a7e446"/>
          <path id="Trazado_262412-3" data-name="Trazado 262412" d="M284.622,105.63a166.728,166.728,0,1,1-235.789,0,166.728,166.728,0,0,1,235.789,0" transform="translate(0 -36.746)" fill="#a7e446"/>
          <g id="Grupo_149580-3" data-name="Grupo 149580" transform="translate(79.463 68.627)" style="mix-blend-mode: multiply;isolation: isolate">
            <g id="Grupo_149579-3" data-name="Grupo 149579">
              <g id="Grupo_149578-3" data-name="Grupo 149578" clip-path="url(#clip-path-3)">
                <g id="Grupo_149577-3" data-name="Grupo 149577">
                  <g id="Grupo_149576-3" data-name="Grupo 149576">
                    <g id="Grupo_149575-3" data-name="Grupo 149575" clip-path="url(#clip-path-3)">
                      <path id="Trazado_262413-3" data-name="Trazado 262413" d="M423.734,228.221c45.262,45.262,45.059,118.849-.454,164.362s-119.1,45.716-164.362.454-45.059-118.849.454-164.362,119.1-45.716,164.362-.454" transform="translate(-225.105 -194.407)" fill="#a7e446"/>
                    </g>
                  </g>
                </g>
              </g>
            </g>
          </g>
        </g>
      </g>
      <g id="Grupo_149584-3" data-name="Grupo 149584" transform="translate(7.639 27.184)">
        <g id="Grupo_149583-3" data-name="Grupo 149583" clip-path="url(#clip-path-5)">
          <rect id="Rectángulo_90484-3" data-name="Rectángulo 90484" width="386.656" height="399.534" transform="translate(-68.613 326.143) rotate(-80.764)" fill="url(#linear-gradient)"/>
        </g>
      </g>
      <g id="Grupo_149602-3" data-name="Grupo 149602" transform="translate(0 -0.001)">
        <g id="Grupo_149601-3" data-name="Grupo 149601" clip-path="url(#clip-path-6)">
          <g id="Grupo_149589-3" data-name="Grupo 149589" transform="translate(9.315 190.655)" style="mix-blend-mode: screen;isolation: isolate">
            <g id="Grupo_149588-3" data-name="Grupo 149588">
              <g id="Grupo_149587-3" data-name="Grupo 149587" clip-path="url(#clip-path-7)">
                <g id="Grupo_149586-3" data-name="Grupo 149586">
                  <g id="Grupo_149585-3" data-name="Grupo 149585" clip-path="url(#clip-path-8)">
                    <rect id="Rectángulo_90485-3" data-name="Rectángulo 90485" width="249.215" height="319.047" transform="matrix(0.391, -0.92, 0.92, 0.391, -54.236, 127.679)" fill="url(#linear-gradient-2)"/>
                  </g>
                </g>
              </g>
            </g>
          </g>
          <g id="Grupo_149594-3" data-name="Grupo 149594" transform="translate(9.315 31.881)" style="mix-blend-mode: screen;isolation: isolate">
            <g id="Grupo_149593-3" data-name="Grupo 149593">
              <g id="Grupo_149592-3" data-name="Grupo 149592" clip-path="url(#clip-path-7)">
                <g id="Grupo_149591-3" data-name="Grupo 149591" transform="translate(0 0)">
                  <g id="Grupo_149590-3" data-name="Grupo 149590" clip-path="url(#clip-path-10)">
                    <rect id="Rectángulo_90487-3" data-name="Rectángulo 90487" width="246.567" height="318.651" transform="translate(-52.851 129.078) rotate(-67.733)" fill="url(#linear-gradient-3)"/>
                  </g>
                </g>
              </g>
            </g>
          </g>
          <g id="Grupo_149600-3" data-name="Grupo 149600" transform="translate(126.141 111.315)" opacity="0.15" style="mix-blend-mode: multiply;isolation: isolate">
            <g id="Grupo_149599-3" data-name="Grupo 149599">
              <g id="Grupo_149598-3" data-name="Grupo 149598" clip-path="url(#clip-path-11)">
                <g id="Grupo_149597-3" data-name="Grupo 149597">
                  <g id="Grupo_149596-3" data-name="Grupo 149596">
                    <g id="Grupo_149595-3" data-name="Grupo 149595" clip-path="url(#clip-path-11)">
                      <path id="Trazado_262417-3" data-name="Trazado 262417" d="M438.866,478.4a81.291,81.291,0,1,1,31.737-6.409,81.032,81.032,0,0,1-31.737,6.409" transform="translate(-357.335 -315.336)" fill="#262626"/>
                    </g>
                  </g>
                </g>
              </g>
            </g>
          </g>
        </g>
      </g>
      <g id="Grupo_149604-3" data-name="Grupo 149604" transform="translate(20.884 39.836)">
        <g id="Grupo_149603-3" data-name="Grupo 149603" clip-path="url(#clip-path-13)">
          <rect id="Rectángulo_90492-3" data-name="Rectángulo 90492" width="390.044" height="390.044" transform="translate(-113.413 238.957) rotate(-64.61)" fill="#f5faec"/>
        </g>
      </g>
    </g>
    <g id="Grupo_156230" data-name="Grupo 156230" transform="translate(746.465 3824.749)">
      <g id="Grupo_156215" data-name="Grupo 156215" transform="translate(64.713)">
        <path id="Trazado_262447" data-name="Trazado 262447" d="M338.833,66.9v62.609l32.357-18.473V48.43Z" transform="translate(-338.833 -48.43)" fill="#e3edf6"/>
      </g>
      <g id="Grupo_156216" data-name="Grupo 156216" transform="translate(64.713 16.039)">
        <path id="Trazado_262448" data-name="Trazado 262448" d="M343.1,188.223V130.548l-4.264,2.434v62.609l32.357-18.473v-4.934Z" transform="translate(-338.833 -130.548)" fill="#c5d9ec"/>
      </g>
      <g id="Grupo_156217" data-name="Grupo 156217" transform="translate(32.357 0.001)">
        <path id="Trazado_262449" data-name="Trazado 262449" d="M173.167,48.435v62.608l32.357,18.473V66.907Z" transform="translate(-173.167 -48.435)" fill="#b6e6fa"/>
      </g>
      <g id="Grupo_156218" data-name="Grupo 156218" transform="translate(32.357 0.001)">
        <path id="Trazado_262450" data-name="Trazado 262450" d="M177.692,108.537V51.018l-4.525-2.583v62.608l32.357,18.473v-5.089Z" transform="translate(-173.167 -48.435)" fill="#8ad8f6"/>
      </g>
      <g id="Grupo_156219" data-name="Grupo 156219" transform="translate(0 0.001)">
        <path id="Trazado_262451" data-name="Trazado 262451" d="M7.5,66.907v62.609l32.357-18.473V48.435Z" transform="translate(-7.5 -48.435)" fill="#e3edf6"/>
      </g>
      <g id="Grupo_156220" data-name="Grupo 156220" transform="translate(0 15.932)">
        <path id="Trazado_262452" data-name="Trazado 262452" d="M11.951,187.522V130L7.5,132.543v62.609l32.357-18.473V171.59Z" transform="translate(-7.5 -130.002)" fill="#c5d9ec"/>
      </g>
      <g id="Grupo_156221" data-name="Grupo 156221" transform="translate(71.973 12.982)">
        <path id="Trazado_262453" data-name="Trazado 262453" d="M393.578,160.864,376,170.908V124.942L393.578,114.9Z" transform="translate(-376 -114.897)" fill="#fcad42"/>
      </g>
      <g id="Grupo_156222" data-name="Grupo 156222" transform="translate(71.973 20.515)">
        <path id="Trazado_262454" data-name="Trazado 262454" d="M380.395,194.448V153.469L376,155.98v45.967L393.578,191.9v-4.988Z" transform="translate(-376 -153.469)" fill="#f69500"/>
      </g>
      <g id="Grupo_156223" data-name="Grupo 156223" transform="translate(39.746 13.114)">
        <path id="Trazado_262455" data-name="Trazado 262455" d="M211,115.572v22.6l17.578,10.045v-22.6Z" transform="translate(-211 -115.572)" fill="#b6f600"/>
      </g>
      <g id="Grupo_156224" data-name="Grupo 156224" transform="translate(39.746 13.114)">
        <path id="Trazado_262456" data-name="Trazado 262456" d="M215.376,135.48V118.072l-4.376-2.5v22.6l17.578,10.045v-5.193Z" transform="translate(-211 -115.572)" fill="#abe700"/>
      </g>
      <g id="Grupo_156225" data-name="Grupo 156225" transform="translate(7.52 35.714)">
        <path id="Trazado_262457" data-name="Trazado 262457" d="M46,241.331v22.6l17.578-10.045v-22.6Z" transform="translate(-46 -231.286)" fill="#f696c3"/>
      </g>
      <g id="Grupo_156226" data-name="Grupo 156226" transform="translate(7.52 43.258)">
        <path id="Trazado_262458" data-name="Trazado 262458" d="M50.376,287.346V269.912L46,272.413v22.6l17.578-10.044V279.8Z" transform="translate(-46 -269.912)" fill="#f072ae"/>
      </g>
      <g id="Grupo_156227" data-name="Grupo 156227" transform="translate(76.367 25.893)">
        <rect id="Rectángulo_90542" data-name="Rectángulo 90542" width="2.93" height="2.93" fill="#fff"/>
      </g>
      <g id="Grupo_156228" data-name="Grupo 156228" transform="translate(44.141 22.963)">
        <rect id="Rectángulo_90543" data-name="Rectángulo 90543" width="2.93" height="2.93" fill="#fff"/>
      </g>
      <g id="Grupo_156229" data-name="Grupo 156229" transform="translate(11.914 47.865)">
        <rect id="Rectángulo_90544" data-name="Rectángulo 90544" width="2.93" height="2.93" fill="#fff"/>
      </g>
    </g>
    <g id="Grupo_156244" data-name="Grupo 156244" transform="translate(745 3822.226)">
      <g id="Grupo_156231" data-name="Grupo 156231">
        <path id="Trazado_262459" data-name="Trazado 262459" d="M0,121.64V55.658L33.822,36.349,66.178,54.821,100,35.512V84.436H97.07V40.558L66.178,58.195,33.822,39.723,2.93,57.359v59.236L33.822,98.958l32.357,18.473L97.07,99.794V93.225H100v8.27L66.178,120.8,33.822,102.331Z" transform="translate(0 -35.512)"/>
      </g>
      <g id="Grupo_156232" data-name="Grupo 156232" transform="translate(97.07 51.853)">
        <rect id="Rectángulo_90545" data-name="Rectángulo 90545" width="2.93" height="2.93"/>
      </g>
      <g id="Grupo_156233" data-name="Grupo 156233" transform="translate(64.713 20.996)">
        <rect id="Rectángulo_90546" data-name="Rectángulo 90546" width="2.93" height="62.609"/>
      </g>
      <g id="Grupo_156234" data-name="Grupo 156234" transform="translate(32.4 2.971)">
        <rect id="Rectángulo_90547" data-name="Rectángulo 90547" width="2.93" height="62.609"/>
      </g>
      <g id="Grupo_156235" data-name="Grupo 156235" transform="translate(71.973 12.981)">
        <path id="Trazado_262460" data-name="Trazado 262460" d="M368.5,163.033V113.692l20.508-11.719v49.341Zm2.93-47.641v42.592l14.648-8.371V107.021Z" transform="translate(-368.5 -101.973)"/>
      </g>
      <g id="Grupo_156236" data-name="Grupo 156236" transform="translate(39.746 13.112)">
        <path id="Trazado_262461" data-name="Trazado 262461" d="M224.008,140.341l-10.981-6.275,1.453-2.544,6.6,3.77V116.067L206.43,107.7v19.226l5.121,2.927-1.454,2.544-6.6-3.77V102.648l20.508,11.719Z" transform="translate(-203.5 -102.648)"/>
      </g>
      <g id="Grupo_156237" data-name="Grupo 156237" transform="translate(40.484 44.499)">
        <rect id="Rectángulo_90548" data-name="Rectángulo 90548" width="2.93" height="20.246" transform="translate(0 2.544) rotate(-60.256)"/>
      </g>
      <g id="Grupo_156238" data-name="Grupo 156238" transform="translate(40.484 52.032)">
        <rect id="Rectángulo_90549" data-name="Rectángulo 90549" width="2.93" height="20.246" transform="translate(0 2.544) rotate(-60.255)"/>
      </g>
      <g id="Grupo_156239" data-name="Grupo 156239" transform="translate(40.484 59.566)">
        <rect id="Rectángulo_90550" data-name="Rectángulo 90550" width="2.93" height="20.246" transform="translate(0 2.544) rotate(-60.256)"/>
      </g>
      <g id="Grupo_156240" data-name="Grupo 156240" transform="translate(7.52 35.713)">
        <path id="Trazado_262462" data-name="Trazado 262462" d="M38.5,256.056V243.292h2.93v7.716l14.648-8.37V223.411L41.43,231.781v8.581H38.5V230.081l20.508-11.719v25.975Z" transform="translate(-38.5 -218.362)"/>
      </g>
      <g id="Grupo_156241" data-name="Grupo 156241" transform="translate(8.258 29.432)">
        <rect id="Rectángulo_90551" data-name="Rectángulo 90551" width="20.246" height="2.93" transform="translate(0 10.045) rotate(-29.746)"/>
      </g>
      <g id="Grupo_156242" data-name="Grupo 156242" transform="translate(8.258 21.898)">
        <rect id="Rectángulo_90552" data-name="Rectángulo 90552" width="20.246" height="2.93" transform="translate(0 10.045) rotate(-29.746)"/>
      </g>
      <g id="Grupo_156243" data-name="Grupo 156243" transform="translate(8.258 14.365)">
        <rect id="Rectángulo_90553" data-name="Rectángulo 90553" width="20.246" height="2.93" transform="translate(0 10.045) rotate(-29.746)"/>
      </g>
    </g>
    <path id="Trazado_264164" data-name="Trazado 264164" d="M-54.466-5.229h-5.062V0h-2.637V-12.8h8.332v2.136h-5.7v3.3h5.063Zm1.415.387a5.64,5.64,0,0,1,.545-2.522,3.989,3.989,0,0,1,1.569-1.714,4.577,4.577,0,0,1,2.377-.606,4.33,4.33,0,0,1,3.142,1.178,4.727,4.727,0,0,1,1.358,3.2l.018.65a4.97,4.97,0,0,1-1.222,3.511A4.247,4.247,0,0,1-48.542.176a4.268,4.268,0,0,1-3.283-1.318,5.058,5.058,0,0,1-1.226-3.586Zm2.54.18A3.555,3.555,0,0,0-50-2.589a1.682,1.682,0,0,0,1.459.717A1.686,1.686,0,0,0-47.1-2.581a3.89,3.89,0,0,0,.519-2.267,3.519,3.519,0,0,0-.519-2.06,1.686,1.686,0,0,0-1.459-.731A1.658,1.658,0,0,0-50-6.911,3.955,3.955,0,0,0-50.511-4.662ZM-39.8,0h-2.549V-13.5H-39.8Zm4.772,0h-2.549V-13.5h2.549Zm6.469.176a4.668,4.668,0,0,1-3.406-1.283,4.561,4.561,0,0,1-1.314-3.419v-.246a5.745,5.745,0,0,1,.554-2.562,4.064,4.064,0,0,1,1.569-1.74,4.4,4.4,0,0,1,2.316-.611,3.947,3.947,0,0,1,3.072,1.23,5,5,0,0,1,1.121,3.489v1.037H-30.7a2.36,2.36,0,0,0,.743,1.494,2.245,2.245,0,0,0,1.569.563,2.742,2.742,0,0,0,2.294-1.063l1.248,1.4A3.813,3.813,0,0,1-26.394-.277,5.075,5.075,0,0,1-28.556.176Zm-.29-7.813a1.587,1.587,0,0,0-1.226.512,2.651,2.651,0,0,0-.6,1.466h3.533v-.2A1.891,1.891,0,0,0-27.6-7.174,1.638,1.638,0,0,0-28.846-7.638Zm8.684-4.21V-9.51h1.626v1.863h-1.626V-2.9a1.133,1.133,0,0,0,.2.756,1.015,1.015,0,0,0,.773.229,4.051,4.051,0,0,0,.747-.062V-.053a5.229,5.229,0,0,1-1.538.229,2.425,2.425,0,0,1-2.725-2.7V-7.646h-1.389V-9.51H-22.7v-2.338Zm2.382,7a5.64,5.64,0,0,1,.545-2.522,3.989,3.989,0,0,1,1.569-1.714,4.577,4.577,0,0,1,2.377-.606,4.33,4.33,0,0,1,3.142,1.178,4.727,4.727,0,0,1,1.358,3.2l.018.65A4.97,4.97,0,0,1-9.993-1.147,4.247,4.247,0,0,1-13.271.176a4.268,4.268,0,0,1-3.283-1.318A5.058,5.058,0,0,1-17.78-4.729Zm2.54.18a3.555,3.555,0,0,0,.51,2.073,1.682,1.682,0,0,0,1.459.717,1.686,1.686,0,0,0,1.441-.709,3.89,3.89,0,0,0,.519-2.267,3.519,3.519,0,0,0-.519-2.06,1.686,1.686,0,0,0-1.459-.731,1.658,1.658,0,0,0-1.441.726A3.955,3.955,0,0,0-15.24-4.662ZM.316-11.848V-9.51H1.942v1.863H.316V-2.9a1.133,1.133,0,0,0,.2.756,1.015,1.015,0,0,0,.773.229,4.051,4.051,0,0,0,.747-.062V-.053A5.229,5.229,0,0,1,.5.176a2.425,2.425,0,0,1-2.725-2.7V-7.646H-3.612V-9.51h1.389v-2.338ZM8.7-7.128a6.9,6.9,0,0,0-.914-.07,1.86,1.86,0,0,0-1.89.976V0H3.357V-9.51h2.4l.07,1.134a2.354,2.354,0,0,1,2.118-1.31,2.662,2.662,0,0,1,.791.114ZM12.665,0h-2.54V-9.51h2.54Zm-.747-13.368h2.769l-2.435,2.725H10.187Zm11.5,8.7a5.7,5.7,0,0,1-1,3.52A3.2,3.2,0,0,1,19.723.176a2.963,2.963,0,0,1-2.329-1V3.656h-2.54V-9.51h2.355l.088.932a2.985,2.985,0,0,1,2.408-1.107,3.22,3.22,0,0,1,2.733,1.3A5.858,5.858,0,0,1,23.414-4.8Zm-2.54-.194a3.763,3.763,0,0,0-.47-2.054,1.53,1.53,0,0,0-1.367-.723,1.662,1.662,0,0,0-1.644.917v3.906a1.691,1.691,0,0,0,1.661.943Q20.874-1.872,20.874-4.861Zm7.154-6.987V-9.51h1.626v1.863H28.028V-2.9a1.133,1.133,0,0,0,.2.756A1.015,1.015,0,0,0,29-1.916a4.051,4.051,0,0,0,.747-.062V-.053a5.229,5.229,0,0,1-1.538.229,2.425,2.425,0,0,1-2.725-2.7V-7.646H24.1V-9.51h1.389v-2.338ZM33.75,0H31.2V-9.51H33.75Zm-2.7-11.971a1.251,1.251,0,0,1,.382-.94,1.436,1.436,0,0,1,1.042-.369,1.44,1.44,0,0,1,1.037.369,1.244,1.244,0,0,1,.387.94,1.247,1.247,0,0,1-.391.949,1.443,1.443,0,0,1-1.033.369,1.443,1.443,0,0,1-1.033-.369A1.247,1.247,0,0,1,31.052-11.971ZM39.8-1.872a1.666,1.666,0,0,0,1.143-.387A1.355,1.355,0,0,0,41.4-3.287h2.382a3.258,3.258,0,0,1-.527,1.771A3.48,3.48,0,0,1,41.832-.268a4.442,4.442,0,0,1-1.991.444,4.129,4.129,0,0,1-3.217-1.3A5.13,5.13,0,0,1,35.446-4.7v-.167a5.071,5.071,0,0,1,1.169-3.507,4.08,4.08,0,0,1,3.208-1.31A4,4,0,0,1,42.684-8.67a3.594,3.594,0,0,1,1.094,2.7H41.4a1.745,1.745,0,0,0-.457-1.206,1.524,1.524,0,0,0-1.16-.464,1.53,1.53,0,0,0-1.34.647,3.749,3.749,0,0,0-.453,2.1v.264a3.8,3.8,0,0,0,.448,2.113A1.549,1.549,0,0,0,39.8-1.872Zm5.036-2.971a5.64,5.64,0,0,1,.545-2.522,3.989,3.989,0,0,1,1.569-1.714,4.577,4.577,0,0,1,2.377-.606,4.33,4.33,0,0,1,3.142,1.178,4.727,4.727,0,0,1,1.358,3.2l.018.65A4.97,4.97,0,0,1,52.62-1.147,4.247,4.247,0,0,1,49.342.176a4.268,4.268,0,0,1-3.283-1.318,5.058,5.058,0,0,1-1.226-3.586Zm2.54.18a3.555,3.555,0,0,0,.51,2.073,1.682,1.682,0,0,0,1.459.717,1.686,1.686,0,0,0,1.441-.709A3.89,3.89,0,0,0,51.3-4.847a3.519,3.519,0,0,0-.519-2.06,1.686,1.686,0,0,0-1.459-.731,1.658,1.658,0,0,0-1.441.726A3.955,3.955,0,0,0,47.373-4.662Zm8.692,7.87-1.327-.694.316-.571a4.567,4.567,0,0,0,.606-2.136V-2.162h2.145L57.8-.4A4.566,4.566,0,0,1,57.3,1.564,5.047,5.047,0,0,1,56.065,3.208ZM-62.244,24.176a4.155,4.155,0,0,1-3.146-1.27,4.714,4.714,0,0,1-1.213-3.4v-.3a5.707,5.707,0,0,1,.541-2.527,4.217,4.217,0,0,1,1.512-1.74,3.8,3.8,0,0,1,2.1-.628,3.562,3.562,0,0,1,2.883,1.222,5.289,5.289,0,0,1,1.028,3.5v.677h-6.442a3.38,3.38,0,0,0,.822,2.272,2.583,2.583,0,0,0,2,.866A2.832,2.832,0,0,0-60.7,22.5a3.666,3.666,0,0,0,1.046-.932l.993.773A3.993,3.993,0,0,1-62.244,24.176Zm-.2-8.525a2.169,2.169,0,0,0-1.652.716,3.482,3.482,0,0,0-.826,2.008h4.764v-.123a3.1,3.1,0,0,0-.668-1.92A2.042,2.042,0,0,0-62.446,15.65Zm11.329,5.827a1.2,1.2,0,0,0-.5-1.024,4.78,4.78,0,0,0-1.731-.628,8.186,8.186,0,0,1-1.96-.633,2.788,2.788,0,0,1-1.072-.879,2.1,2.1,0,0,1-.347-1.213,2.467,2.467,0,0,1,.989-1.978,3.861,3.861,0,0,1,2.527-.809,3.974,3.974,0,0,1,2.624.835,2.652,2.652,0,0,1,1.006,2.136h-1.635a1.468,1.468,0,0,0-.567-1.151,2.124,2.124,0,0,0-1.428-.483,2.223,2.223,0,0,0-1.389.387,1.217,1.217,0,0,0-.5,1.011.986.986,0,0,0,.466.888,5.731,5.731,0,0,0,1.683.571,8.77,8.77,0,0,1,1.973.65,2.878,2.878,0,0,1,1.121.91,2.237,2.237,0,0,1,.365,1.3,2.434,2.434,0,0,1-1.02,2.043,4.277,4.277,0,0,1-2.646.769,4.789,4.789,0,0,1-2.021-.4,3.288,3.288,0,0,1-1.375-1.129,2.722,2.722,0,0,1-.5-1.569h1.626a1.683,1.683,0,0,0,.655,1.3,2.54,2.54,0,0,0,1.613.479,2.622,2.622,0,0,0,1.481-.374A1.148,1.148,0,0,0-51.117,21.478Zm7.8-2.312a5.571,5.571,0,0,1,1.037-3.52,3.28,3.28,0,0,1,2.716-1.332,3.3,3.3,0,0,1,2.646,1.143V10.5h1.626V24h-1.494l-.079-1.02a3.311,3.311,0,0,1-2.716,1.2,3.248,3.248,0,0,1-2.694-1.354,5.634,5.634,0,0,1-1.042-3.533Zm1.626.185a4.218,4.218,0,0,0,.668,2.531,2.159,2.159,0,0,0,1.846.914,2.372,2.372,0,0,0,2.259-1.389V17.039a2.39,2.39,0,0,0-2.241-1.345,2.17,2.17,0,0,0-1.863.923A4.644,4.644,0,0,0-41.687,19.351Zm12.867,4.825a4.155,4.155,0,0,1-3.146-1.27,4.714,4.714,0,0,1-1.213-3.4v-.3a5.707,5.707,0,0,1,.541-2.527,4.217,4.217,0,0,1,1.512-1.74,3.8,3.8,0,0,1,2.1-.628,3.562,3.562,0,0,1,2.883,1.222,5.289,5.289,0,0,1,1.028,3.5v.677h-6.442a3.38,3.38,0,0,0,.822,2.272,2.583,2.583,0,0,0,2,.866,2.832,2.832,0,0,0,1.459-.352,3.666,3.666,0,0,0,1.046-.932l.993.773A3.993,3.993,0,0,1-28.819,24.176Zm-.2-8.525a2.169,2.169,0,0,0-1.652.716,3.482,3.482,0,0,0-.826,2.008h4.764v-.123a3.1,3.1,0,0,0-.668-1.92A2.042,2.042,0,0,0-29.021,15.65Zm9.606,7.2a2.342,2.342,0,0,0,1.521-.527A1.855,1.855,0,0,0-17.174,21h1.538a2.949,2.949,0,0,1-.562,1.556,3.7,3.7,0,0,1-1.384,1.178,3.994,3.994,0,0,1-1.833.439,3.918,3.918,0,0,1-3.089-1.3,5.163,5.163,0,0,1-1.147-3.546v-.272a5.725,5.725,0,0,1,.51-2.47,3.883,3.883,0,0,1,1.463-1.679,4.157,4.157,0,0,1,2.254-.6,3.814,3.814,0,0,1,2.659.958,3.424,3.424,0,0,1,1.129,2.487h-1.538a2.241,2.241,0,0,0-.7-1.516,2.174,2.174,0,0,0-1.551-.593,2.276,2.276,0,0,0-1.92.892,4.19,4.19,0,0,0-.681,2.58v.308a4.106,4.106,0,0,0,.677,2.531A2.287,2.287,0,0,0-19.415,22.849ZM-12.041,24h-1.626V14.49h1.626ZM-13.8,11.968a.971.971,0,0,1,.242-.668.907.907,0,0,1,.716-.272.922.922,0,0,1,.721.272.96.96,0,0,1,.246.668.929.929,0,0,1-.246.659.938.938,0,0,1-.721.264.924.924,0,0,1-.716-.264A.938.938,0,0,1-13.8,11.968Zm8.956,3.981a4.873,4.873,0,0,0-.8-.062A2.143,2.143,0,0,0-7.813,17.25V24H-9.439V14.49h1.582l.026,1.1a2.532,2.532,0,0,1,2.268-1.274,1.661,1.661,0,0,1,.721.123Zm.36,10.6-.923-.633a4.241,4.241,0,0,0,.861-2.373V22.075h1.591V23.35a4,4,0,0,1-.435,1.775A4.156,4.156,0,0,1-4.482,26.549Zm7.646-7.383A5.571,5.571,0,0,1,4.2,15.646a3.28,3.28,0,0,1,2.716-1.332,3.3,3.3,0,0,1,2.646,1.143V10.5h1.626V24H9.694l-.079-1.02a3.311,3.311,0,0,1-2.716,1.2,3.248,3.248,0,0,1-2.694-1.354,5.634,5.634,0,0,1-1.042-3.533Zm1.626.185a4.218,4.218,0,0,0,.668,2.531A2.159,2.159,0,0,0,7.3,22.8a2.372,2.372,0,0,0,2.259-1.389V17.039a2.39,2.39,0,0,0-2.241-1.345,2.17,2.17,0,0,0-1.863.923A4.644,4.644,0,0,0,4.79,19.351Zm8.49-.193a5.617,5.617,0,0,1,.549-2.514,4.1,4.1,0,0,1,1.529-1.723,4.163,4.163,0,0,1,2.237-.606,4.01,4.01,0,0,1,3.142,1.345,5.174,5.174,0,0,1,1.2,3.577v.114a5.666,5.666,0,0,1-.532,2.492,4.038,4.038,0,0,1-1.521,1.718,4.211,4.211,0,0,1-2.272.615,4,4,0,0,1-3.133-1.345,5.147,5.147,0,0,1-1.2-3.56Zm1.635.193a4.068,4.068,0,0,0,.734,2.54,2.487,2.487,0,0,0,3.933-.013,4.449,4.449,0,0,0,.729-2.72,4.061,4.061,0,0,0-.743-2.536A2.361,2.361,0,0,0,17.6,15.65a2.335,2.335,0,0,0-1.942.958A4.416,4.416,0,0,0,14.915,19.351Zm17.112,0a5.654,5.654,0,0,1-1,3.5,3.2,3.2,0,0,1-2.689,1.323A3.315,3.315,0,0,1,25.55,22.9L25.471,24H23.977V10.5H25.6v5.036a3.3,3.3,0,0,1,2.716-1.222,3.221,3.221,0,0,1,2.72,1.31,5.824,5.824,0,0,1,.989,3.586ZM30.4,19.166A4.394,4.394,0,0,0,29.76,16.6a2.124,2.124,0,0,0-1.846-.905A2.387,2.387,0,0,0,25.6,17.188V21.3A2.454,2.454,0,0,0,27.932,22.8a2.112,2.112,0,0,0,1.819-.905A4.672,4.672,0,0,0,30.4,19.166ZM35.842,24H34.216V10.5h1.626Zm8.473,0a3.416,3.416,0,0,1-.229-1,3.628,3.628,0,0,1-2.707,1.178,3.357,3.357,0,0,1-2.307-.8,2.573,2.573,0,0,1-.9-2.017A2.688,2.688,0,0,1,39.3,19.056a5.325,5.325,0,0,1,3.177-.822H44.06v-.747a1.826,1.826,0,0,0-.51-1.358,2.049,2.049,0,0,0-1.5-.505,2.371,2.371,0,0,0-1.459.439A1.3,1.3,0,0,0,40,17.127H38.364a2.244,2.244,0,0,1,.505-1.375,3.449,3.449,0,0,1,1.371-1.05,4.613,4.613,0,0,1,1.9-.387,3.759,3.759,0,0,1,2.575.822,2.964,2.964,0,0,1,.967,2.263v4.377a5.351,5.351,0,0,0,.334,2.083V24Zm-2.7-1.239a2.858,2.858,0,0,0,1.45-.4,2.392,2.392,0,0,0,.993-1.028V19.386H42.785q-2.988,0-2.988,1.749a1.48,1.48,0,0,0,.51,1.2A1.959,1.959,0,0,0,41.616,22.761Zm6.223-3.595a5.571,5.571,0,0,1,1.037-3.52,3.529,3.529,0,0,1,5.361-.189V10.5h1.626V24H54.369l-.079-1.02a3.311,3.311,0,0,1-2.716,1.2,3.248,3.248,0,0,1-2.694-1.354,5.634,5.634,0,0,1-1.042-3.533Zm1.626.185a4.218,4.218,0,0,0,.668,2.531,2.159,2.159,0,0,0,1.846.914,2.372,2.372,0,0,0,2.259-1.389V17.039A2.39,2.39,0,0,0,52,15.694a2.17,2.17,0,0,0-1.863.923A4.644,4.644,0,0,0,49.465,19.351Zm8.49-.193a5.617,5.617,0,0,1,.549-2.514,4.1,4.1,0,0,1,1.529-1.723,4.163,4.163,0,0,1,2.237-.606,4.01,4.01,0,0,1,3.142,1.345,5.174,5.174,0,0,1,1.2,3.577v.114a5.666,5.666,0,0,1-.532,2.492,4.038,4.038,0,0,1-1.521,1.718,4.211,4.211,0,0,1-2.272.615,4,4,0,0,1-3.133-1.345,5.147,5.147,0,0,1-1.2-3.56Zm1.635.193a4.068,4.068,0,0,0,.734,2.54,2.487,2.487,0,0,0,3.933-.013,4.449,4.449,0,0,0,.729-2.72,4.061,4.061,0,0,0-.743-2.536,2.361,2.361,0,0,0-1.973-.971,2.335,2.335,0,0,0-1.942.958A4.416,4.416,0,0,0,59.59,19.351ZM-52.251,48.176a4.155,4.155,0,0,1-3.146-1.27,4.714,4.714,0,0,1-1.213-3.4v-.3a5.707,5.707,0,0,1,.541-2.527,4.217,4.217,0,0,1,1.512-1.74,3.8,3.8,0,0,1,2.1-.628,3.562,3.562,0,0,1,2.883,1.222,5.289,5.289,0,0,1,1.028,3.5v.677h-6.442a3.38,3.38,0,0,0,.822,2.272,2.583,2.583,0,0,0,2,.866A2.832,2.832,0,0,0-50.7,46.5a3.666,3.666,0,0,0,1.046-.932l.993.773A3.993,3.993,0,0,1-52.251,48.176Zm-.2-8.525a2.169,2.169,0,0,0-1.652.716,3.482,3.482,0,0,0-.826,2.008h4.764v-.123a3.1,3.1,0,0,0-.668-1.92A2.042,2.042,0,0,0-52.453,39.65Zm7.33-1.16.053,1.2a3.465,3.465,0,0,1,2.848-1.371q3.015,0,3.041,3.4V48h-1.626V41.707a2.189,2.189,0,0,0-.47-1.521,1.884,1.884,0,0,0-1.437-.492,2.347,2.347,0,0,0-1.389.422,2.865,2.865,0,0,0-.932,1.107V48h-1.626V38.49Zm15.056-2.3v2.3h1.775v1.257h-1.775v5.9a1.32,1.32,0,0,0,.237.858,1,1,0,0,0,.809.286,3.937,3.937,0,0,0,.773-.105V48a4.742,4.742,0,0,1-1.248.175,2.025,2.025,0,0,1-1.644-.659,2.832,2.832,0,0,1-.554-1.872v-5.9h-1.731V38.49h1.731v-2.3Zm8.271,3.762a4.873,4.873,0,0,0-.8-.062,2.143,2.143,0,0,0-2.171,1.362V48h-1.626V38.49h1.582l.026,1.1a2.532,2.532,0,0,1,2.268-1.274,1.661,1.661,0,0,1,.721.123Zm5.273,8.227a4.155,4.155,0,0,1-3.146-1.27,4.714,4.714,0,0,1-1.213-3.4v-.3a5.707,5.707,0,0,1,.541-2.527,4.217,4.217,0,0,1,1.512-1.74,3.8,3.8,0,0,1,2.1-.628,3.562,3.562,0,0,1,2.883,1.222,5.289,5.289,0,0,1,1.028,3.5v.677h-6.442a3.38,3.38,0,0,0,.822,2.272,2.583,2.583,0,0,0,2,.866,2.832,2.832,0,0,0,1.459-.352,3.666,3.666,0,0,0,1.046-.932l.993.773A3.993,3.993,0,0,1-16.523,48.176Zm-.2-8.525a2.169,2.169,0,0,0-1.652.716,3.482,3.482,0,0,0-.826,2.008h4.764v-.123a3.1,3.1,0,0,0-.668-1.92A2.042,2.042,0,0,0-16.726,39.65ZM-5.4,45.478a1.2,1.2,0,0,0-.5-1.024,4.78,4.78,0,0,0-1.731-.628,8.186,8.186,0,0,1-1.96-.633,2.788,2.788,0,0,1-1.072-.879A2.1,2.1,0,0,1-11,41.1a2.467,2.467,0,0,1,.989-1.978,3.861,3.861,0,0,1,2.527-.809,3.974,3.974,0,0,1,2.624.835,2.652,2.652,0,0,1,1.006,2.136H-5.493a1.468,1.468,0,0,0-.567-1.151,2.124,2.124,0,0,0-1.428-.483,2.223,2.223,0,0,0-1.389.387,1.217,1.217,0,0,0-.5,1.011.986.986,0,0,0,.466.888,5.731,5.731,0,0,0,1.683.571,8.77,8.77,0,0,1,1.973.65,2.878,2.878,0,0,1,1.121.91,2.237,2.237,0,0,1,.365,1.3,2.434,2.434,0,0,1-1.02,2.043,4.277,4.277,0,0,1-2.646.769,4.789,4.789,0,0,1-2.021-.4,3.288,3.288,0,0,1-1.375-1.129,2.722,2.722,0,0,1-.5-1.569H-9.7a1.683,1.683,0,0,0,.655,1.3,2.54,2.54,0,0,0,1.613.479,2.622,2.622,0,0,0,1.481-.374A1.148,1.148,0,0,0-5.4,45.478Zm16.233-2.127a5.694,5.694,0,0,1-.993,3.5,3.183,3.183,0,0,1-2.689,1.327,3.488,3.488,0,0,1-2.725-1.1v4.579H2.8V38.49H4.289l.079,1.055a3.35,3.35,0,0,1,2.76-1.23,3.243,3.243,0,0,1,2.711,1.292,5.756,5.756,0,0,1,1,3.595Zm-1.626-.185a4.2,4.2,0,0,0-.686-2.54,2.208,2.208,0,0,0-1.881-.932A2.39,2.39,0,0,0,4.43,41v4.544a2.4,2.4,0,0,0,2.232,1.3,2.2,2.2,0,0,0,1.859-.927A4.587,4.587,0,0,0,9.211,43.166ZM18.773,48a3.416,3.416,0,0,1-.229-1,3.628,3.628,0,0,1-2.707,1.178,3.357,3.357,0,0,1-2.307-.8,2.573,2.573,0,0,1-.9-2.017,2.688,2.688,0,0,1,1.129-2.307,5.325,5.325,0,0,1,3.177-.822h1.582v-.747a1.826,1.826,0,0,0-.51-1.358,2.049,2.049,0,0,0-1.5-.505,2.371,2.371,0,0,0-1.459.439,1.3,1.3,0,0,0-.589,1.063H12.823a2.244,2.244,0,0,1,.505-1.375A3.449,3.449,0,0,1,14.7,38.7a4.613,4.613,0,0,1,1.9-.387,3.759,3.759,0,0,1,2.575.822,2.964,2.964,0,0,1,.967,2.263v4.377a5.351,5.351,0,0,0,.334,2.083V48Zm-2.7-1.239a2.858,2.858,0,0,0,1.45-.4,2.392,2.392,0,0,0,.993-1.028V43.386H17.244q-2.988,0-2.988,1.749a1.48,1.48,0,0,0,.51,1.2A1.959,1.959,0,0,0,16.075,46.761ZM27.29,39.949a4.873,4.873,0,0,0-.8-.062,2.143,2.143,0,0,0-2.171,1.362V48H22.693V38.49h1.582l.026,1.1a2.532,2.532,0,0,1,2.268-1.274,1.661,1.661,0,0,1,.721.123Zm4.14-3.762v2.3h1.775v1.257H31.43v5.9a1.32,1.32,0,0,0,.237.858,1,1,0,0,0,.809.286,3.937,3.937,0,0,0,.773-.105V48A4.742,4.742,0,0,1,32,48.176a2.025,2.025,0,0,1-1.644-.659,2.832,2.832,0,0,1-.554-1.872v-5.9H28.072V38.49H29.8v-2.3Zm7.62,11.988a4.155,4.155,0,0,1-3.146-1.27,4.714,4.714,0,0,1-1.213-3.4v-.3a5.707,5.707,0,0,1,.541-2.527,4.217,4.217,0,0,1,1.512-1.74,3.8,3.8,0,0,1,2.1-.628,3.562,3.562,0,0,1,2.883,1.222,5.289,5.289,0,0,1,1.028,3.5v.677H36.316a3.38,3.38,0,0,0,.822,2.272,2.583,2.583,0,0,0,2,.866A2.832,2.832,0,0,0,40.6,46.5a3.666,3.666,0,0,0,1.046-.932l.993.773A3.993,3.993,0,0,1,39.05,48.176Zm-.2-8.525a2.169,2.169,0,0,0-1.652.716,3.482,3.482,0,0,0-.826,2.008h4.764v-.123a3.1,3.1,0,0,0-.668-1.92A2.042,2.042,0,0,0,38.848,39.65Zm11.329,5.827a1.2,1.2,0,0,0-.5-1.024,4.78,4.78,0,0,0-1.731-.628,8.186,8.186,0,0,1-1.96-.633,2.788,2.788,0,0,1-1.072-.879,2.1,2.1,0,0,1-.347-1.213,2.467,2.467,0,0,1,.989-1.978,3.861,3.861,0,0,1,2.527-.809,3.974,3.974,0,0,1,2.624.835,2.652,2.652,0,0,1,1.006,2.136H50.08a1.468,1.468,0,0,0-.567-1.151,2.124,2.124,0,0,0-1.428-.483,2.223,2.223,0,0,0-1.389.387,1.217,1.217,0,0,0-.5,1.011.986.986,0,0,0,.466.888,5.731,5.731,0,0,0,1.683.571,8.77,8.77,0,0,1,1.973.65,2.878,2.878,0,0,1,1.121.91,2.237,2.237,0,0,1,.365,1.3,2.434,2.434,0,0,1-1.02,2.043,4.277,4.277,0,0,1-2.646.769,4.789,4.789,0,0,1-2.021-.4,3.288,3.288,0,0,1-1.375-1.129,2.722,2.722,0,0,1-.5-1.569H45.87a1.683,1.683,0,0,0,.655,1.3,2.54,2.54,0,0,0,1.613.479,2.622,2.622,0,0,0,1.481-.374A1.148,1.148,0,0,0,50.177,45.478Zm3.779,1.67a1.018,1.018,0,0,1,.25-.7.954.954,0,0,1,.751-.281.983.983,0,0,1,.76.281,1,1,0,0,1,.259.7.944.944,0,0,1-.259.677,1,1,0,0,1-.76.272.9.9,0,0,1-1-.949Z" transform="translate(800 3961.289)" fill="#12263f"/>
    <path id="Trazado_264165" data-name="Trazado 264165" d="M-77.735-12.8l3.287,9.281,3.27-9.281h3.463V0h-2.646V-3.5l.264-6.038L-73.551,0h-1.811l-3.445-9.527.264,6.029V0H-81.18V-12.8ZM-60.069,0a2.821,2.821,0,0,1-.255-.853,3.073,3.073,0,0,1-2.4,1.028,3.376,3.376,0,0,1-2.316-.809,2.6,2.6,0,0,1-.918-2.039,2.687,2.687,0,0,1,1.121-2.32A5.529,5.529,0,0,1-61.6-5.81h1.169v-.545a1.567,1.567,0,0,0-.338-1.055,1.331,1.331,0,0,0-1.068-.4,1.513,1.513,0,0,0-1.006.308,1.045,1.045,0,0,0-.365.844h-2.54a2.551,2.551,0,0,1,.51-1.529,3.37,3.37,0,0,1,1.441-1.1,5.253,5.253,0,0,1,2.092-.4,4.15,4.15,0,0,1,2.791.883A3.09,3.09,0,0,1-57.88-6.319V-2.2A4.546,4.546,0,0,0-57.5-.149V0Zm-2.1-1.767a2.188,2.188,0,0,0,1.037-.25,1.645,1.645,0,0,0,.7-.672V-4.324h-.949q-1.907,0-2.03,1.318l-.009.149a1.017,1.017,0,0,0,.334.782A1.3,1.3,0,0,0-62.169-1.767Zm8.578-7.743.079,1.1a3.32,3.32,0,0,1,2.733-1.274,2.759,2.759,0,0,1,2.25.888,4.142,4.142,0,0,1,.756,2.654V0h-2.54V-6.1a1.654,1.654,0,0,0-.352-1.176,1.572,1.572,0,0,0-1.169-.366,1.747,1.747,0,0,0-1.608.916V0h-2.54V-9.51ZM-40.153-.967a3.185,3.185,0,0,1-2.6,1.143A3,3,0,0,1-45.088-.7a3.752,3.752,0,0,1-.822-2.575V-9.51h2.54v6.151q0,1.487,1.354,1.487a1.834,1.834,0,0,0,1.775-.9V-9.51h2.549V0h-2.391ZM-30.265,0a2.821,2.821,0,0,1-.255-.853,3.073,3.073,0,0,1-2.4,1.028,3.376,3.376,0,0,1-2.316-.809,2.6,2.6,0,0,1-.918-2.039,2.687,2.687,0,0,1,1.121-2.32,5.529,5.529,0,0,1,3.239-.817h1.169v-.545a1.567,1.567,0,0,0-.338-1.055,1.331,1.331,0,0,0-1.068-.4,1.513,1.513,0,0,0-1.006.308,1.045,1.045,0,0,0-.365.844h-2.54a2.551,2.551,0,0,1,.51-1.529,3.37,3.37,0,0,1,1.441-1.1,5.253,5.253,0,0,1,2.092-.4,4.15,4.15,0,0,1,2.791.883,3.09,3.09,0,0,1,1.033,2.483V-2.2A4.546,4.546,0,0,0-27.7-.149V0Zm-2.1-1.767a2.188,2.188,0,0,0,1.037-.25,1.645,1.645,0,0,0,.7-.672V-4.324h-.949q-1.907,0-2.03,1.318l-.009.149a1.017,1.017,0,0,0,.334.782A1.3,1.3,0,0,0-32.366-1.767ZM-23.445,0h-2.549V-13.5h2.549ZM-8.31-4.667a5.7,5.7,0,0,1-1,3.52A3.2,3.2,0,0,1-12,.176a2.963,2.963,0,0,1-2.329-1V3.656h-2.54V-9.51h2.355l.088.932a2.985,2.985,0,0,1,2.408-1.107,3.22,3.22,0,0,1,2.733,1.3A5.858,5.858,0,0,1-8.31-4.8Zm-2.54-.194a3.763,3.763,0,0,0-.47-2.054,1.53,1.53,0,0,0-1.367-.723,1.662,1.662,0,0,0-1.644.917v3.906a1.691,1.691,0,0,0,1.661.943Q-10.85-1.872-10.85-4.861ZM-1.042-.967A3.185,3.185,0,0,1-3.643.176,3,3,0,0,1-5.977-.7,3.752,3.752,0,0,1-6.8-3.278V-9.51h2.54v6.151q0,1.487,1.354,1.487a1.834,1.834,0,0,0,1.775-.9V-9.51H1.419V0H-.971ZM11.9-4.667A5.758,5.758,0,0,1,10.929-1.1,3.231,3.231,0,0,1,8.2.176a2.969,2.969,0,0,1-2.47-1.187L5.621,0H3.335V-13.5h2.54v4.843A2.893,2.893,0,0,1,8.187-9.686a3.258,3.258,0,0,1,2.729,1.279,5.767,5.767,0,0,1,.989,3.6Zm-2.54-.194a3.8,3.8,0,0,0-.457-2.111,1.544,1.544,0,0,0-1.362-.666,1.675,1.675,0,0,0-1.67,1v3.764a1.7,1.7,0,0,0,1.688,1A1.569,1.569,0,0,0,9.18-3.089,6.294,6.294,0,0,0,9.365-4.861ZM16.15,0H13.6V-13.5H16.15Zm4.772,0H18.374V-9.51h2.549Zm-2.7-11.971a1.251,1.251,0,0,1,.382-.94,1.436,1.436,0,0,1,1.042-.369,1.44,1.44,0,0,1,1.037.369,1.244,1.244,0,0,1,.387.94,1.247,1.247,0,0,1-.391.949,1.443,1.443,0,0,1-1.033.369,1.443,1.443,0,0,1-1.033-.369A1.247,1.247,0,0,1,18.224-11.971Zm8.745,10.1a1.666,1.666,0,0,0,1.143-.387,1.355,1.355,0,0,0,.457-1.028h2.382a3.258,3.258,0,0,1-.527,1.771A3.48,3.48,0,0,1,29-.268a4.442,4.442,0,0,1-1.991.444,4.129,4.129,0,0,1-3.217-1.3A5.13,5.13,0,0,1,22.619-4.7v-.167a5.071,5.071,0,0,1,1.169-3.507A4.08,4.08,0,0,1,27-9.686,4,4,0,0,1,29.856-8.67a3.594,3.594,0,0,1,1.094,2.7H28.569a1.745,1.745,0,0,0-.457-1.206,1.524,1.524,0,0,0-1.16-.464,1.53,1.53,0,0,0-1.34.647,3.749,3.749,0,0,0-.453,2.1v.264a3.8,3.8,0,0,0,.448,2.113A1.549,1.549,0,0,0,26.969-1.872ZM35.082,0H32.533V-9.51h2.549Zm-2.7-11.971a1.251,1.251,0,0,1,.382-.94,1.436,1.436,0,0,1,1.042-.369,1.44,1.44,0,0,1,1.037.369,1.244,1.244,0,0,1,.387.94,1.247,1.247,0,0,1-.391.949,1.443,1.443,0,0,1-1.033.369,1.443,1.443,0,0,1-1.033-.369A1.247,1.247,0,0,1,32.383-11.971Zm7.831.123V-9.51H41.84v1.863H40.214V-2.9a1.133,1.133,0,0,0,.2.756,1.015,1.015,0,0,0,.773.229,4.051,4.051,0,0,0,.747-.062V-.053A5.229,5.229,0,0,1,40.4.176a2.425,2.425,0,0,1-2.725-2.7V-7.646H36.286V-9.51h1.389v-2.338ZM48.766,0a2.821,2.821,0,0,1-.255-.853,3.073,3.073,0,0,1-2.4,1.028A3.376,3.376,0,0,1,43.8-.633a2.6,2.6,0,0,1-.918-2.039A2.687,2.687,0,0,1,44-4.992a5.529,5.529,0,0,1,3.239-.817h1.169v-.545a1.567,1.567,0,0,0-.338-1.055A1.331,1.331,0,0,0,47-7.8a1.513,1.513,0,0,0-1.006.308,1.045,1.045,0,0,0-.365.844h-2.54a2.551,2.551,0,0,1,.51-1.529,3.37,3.37,0,0,1,1.441-1.1,5.253,5.253,0,0,1,2.092-.4,4.15,4.15,0,0,1,2.791.883,3.09,3.09,0,0,1,1.033,2.483V-2.2a4.546,4.546,0,0,0,.378,2.048V0Zm-2.1-1.767a2.188,2.188,0,0,0,1.037-.25,1.645,1.645,0,0,0,.7-.672V-4.324h-.949q-1.907,0-2.03,1.318l-.009.149a1.017,1.017,0,0,0,.334.782A1.3,1.3,0,0,0,46.666-1.767ZM58.25-7.128a6.9,6.9,0,0,0-.914-.07,1.86,1.86,0,0,0-1.89.976V0h-2.54V-9.51h2.4l.07,1.134a2.354,2.354,0,0,1,2.118-1.31,2.662,2.662,0,0,1,.791.114ZM62.152,0H59.6V-9.51h2.549Zm-2.7-11.971a1.251,1.251,0,0,1,.382-.94,1.436,1.436,0,0,1,1.042-.369,1.44,1.44,0,0,1,1.037.369,1.244,1.244,0,0,1,.387.94,1.247,1.247,0,0,1-.391.949,1.443,1.443,0,0,1-1.033.369,1.443,1.443,0,0,1-1.033-.369A1.247,1.247,0,0,1,59.454-11.971Zm4.395,7.128a5.64,5.64,0,0,1,.545-2.522,3.989,3.989,0,0,1,1.569-1.714,4.577,4.577,0,0,1,2.377-.606,4.33,4.33,0,0,1,3.142,1.178,4.727,4.727,0,0,1,1.358,3.2l.018.65a4.97,4.97,0,0,1-1.222,3.511A4.247,4.247,0,0,1,68.357.176a4.268,4.268,0,0,1-3.283-1.318,5.058,5.058,0,0,1-1.226-3.586Zm2.54.18a3.555,3.555,0,0,0,.51,2.073,1.682,1.682,0,0,0,1.459.717A1.686,1.686,0,0,0,69.8-2.581a3.89,3.89,0,0,0,.519-2.267,3.519,3.519,0,0,0-.519-2.06,1.686,1.686,0,0,0-1.459-.731,1.658,1.658,0,0,0-1.441.726A3.955,3.955,0,0,0,66.388-4.662Zm8.692,7.87-1.327-.694.316-.571a4.567,4.567,0,0,0,.606-2.136V-2.162h2.145L76.812-.4a4.566,4.566,0,0,1-.492,1.969A5.047,5.047,0,0,1,75.081,3.208ZM-119.8,14.49l.044,1.055a3.512,3.512,0,0,1,2.821-1.23,2.719,2.719,0,0,1,2.716,1.529,3.6,3.6,0,0,1,1.235-1.107,3.647,3.647,0,0,1,1.8-.422q3.129,0,3.182,3.313V24h-1.626V17.725A2.184,2.184,0,0,0-110.1,16.2a2.051,2.051,0,0,0-1.564-.505,2.156,2.156,0,0,0-1.5.541,2.193,2.193,0,0,0-.694,1.455V24H-115.5V17.769a1.814,1.814,0,0,0-2.03-2.074,2.175,2.175,0,0,0-2.188,1.362V24h-1.626V14.49Zm20.118,8.569a3.454,3.454,0,0,1-2.786,1.116,2.956,2.956,0,0,1-2.316-.883,3.823,3.823,0,0,1-.8-2.615V14.49h1.626v6.144q0,2.162,1.758,2.162a2.434,2.434,0,0,0,2.479-1.389V14.49H-98.1V24H-99.65Zm8,1.116a4.155,4.155,0,0,1-3.146-1.27,4.714,4.714,0,0,1-1.213-3.4v-.3a5.707,5.707,0,0,1,.541-2.527,4.217,4.217,0,0,1,1.512-1.74,3.8,3.8,0,0,1,2.1-.628,3.562,3.562,0,0,1,2.883,1.222,5.289,5.289,0,0,1,1.028,3.5v.677h-6.442a3.38,3.38,0,0,0,.822,2.272,2.583,2.583,0,0,0,2,.866,2.832,2.832,0,0,0,1.459-.352,3.666,3.666,0,0,0,1.046-.932l.993.773A3.993,3.993,0,0,1-91.687,24.176Zm-.2-8.525a2.169,2.169,0,0,0-1.652.716,3.482,3.482,0,0,0-.826,2.008H-89.6v-.123a3.1,3.1,0,0,0-.668-1.92A2.042,2.042,0,0,0-91.89,15.65Zm11.329,5.827a1.2,1.2,0,0,0-.5-1.024,4.78,4.78,0,0,0-1.731-.628,8.186,8.186,0,0,1-1.96-.633,2.788,2.788,0,0,1-1.072-.879,2.1,2.1,0,0,1-.347-1.213,2.467,2.467,0,0,1,.989-1.978,3.861,3.861,0,0,1,2.527-.809,3.974,3.974,0,0,1,2.624.835,2.652,2.652,0,0,1,1.006,2.136h-1.635a1.468,1.468,0,0,0-.567-1.151,2.124,2.124,0,0,0-1.428-.483,2.223,2.223,0,0,0-1.389.387,1.217,1.217,0,0,0-.5,1.011.986.986,0,0,0,.466.888,5.731,5.731,0,0,0,1.683.571,8.77,8.77,0,0,1,1.973.65,2.878,2.878,0,0,1,1.121.91,2.237,2.237,0,0,1,.365,1.3,2.434,2.434,0,0,1-1.02,2.043,4.277,4.277,0,0,1-2.646.769,4.789,4.789,0,0,1-2.021-.4A3.288,3.288,0,0,1-86,22.642a2.722,2.722,0,0,1-.5-1.569h1.626a1.683,1.683,0,0,0,.655,1.3,2.54,2.54,0,0,0,1.613.479,2.622,2.622,0,0,0,1.481-.374A1.148,1.148,0,0,0-80.561,21.478Zm5.95-9.29v2.3h1.775v1.257H-74.61v5.9a1.32,1.32,0,0,0,.237.858,1,1,0,0,0,.809.286,3.937,3.937,0,0,0,.773-.105V24a4.742,4.742,0,0,1-1.248.175,2.025,2.025,0,0,1-1.644-.659,2.832,2.832,0,0,1-.554-1.872v-5.9h-1.731V14.49h1.731v-2.3Zm8.271,3.762a4.873,4.873,0,0,0-.8-.062,2.143,2.143,0,0,0-2.171,1.362V24h-1.626V14.49h1.582l.026,1.1a2.532,2.532,0,0,1,2.268-1.274,1.661,1.661,0,0,1,.721.123ZM-59.326,24a3.416,3.416,0,0,1-.229-1,3.628,3.628,0,0,1-2.707,1.178,3.357,3.357,0,0,1-2.307-.8,2.573,2.573,0,0,1-.9-2.017,2.688,2.688,0,0,1,1.129-2.307,5.325,5.325,0,0,1,3.177-.822h1.582v-.747a1.826,1.826,0,0,0-.51-1.358,2.049,2.049,0,0,0-1.5-.505,2.371,2.371,0,0,0-1.459.439,1.3,1.3,0,0,0-.589,1.063h-1.635a2.244,2.244,0,0,1,.505-1.375A3.449,3.449,0,0,1-63.4,14.7a4.613,4.613,0,0,1,1.9-.387,3.759,3.759,0,0,1,2.575.822,2.964,2.964,0,0,1,.967,2.263v4.377a5.351,5.351,0,0,0,.334,2.083V24Zm-2.7-1.239a2.858,2.858,0,0,0,1.45-.4,2.392,2.392,0,0,0,.993-1.028V19.386h-1.274q-2.988,0-2.988,1.749a1.48,1.48,0,0,0,.51,1.2A1.959,1.959,0,0,0-62.024,22.761ZM-49.184,24H-50.81V14.49h1.626Zm-1.758-12.032A.971.971,0,0,1-50.7,11.3a.907.907,0,0,1,.716-.272.922.922,0,0,1,.721.272.96.96,0,0,1,.246.668.929.929,0,0,1-.246.659.938.938,0,0,1-.721.264.924.924,0,0,1-.716-.264A.938.938,0,0,1-50.941,11.968Zm5.9,2.522.053,1.2a3.465,3.465,0,0,1,2.848-1.371q3.015,0,3.041,3.4V24h-1.626V17.707a2.189,2.189,0,0,0-.47-1.521,1.884,1.884,0,0,0-1.437-.492,2.347,2.347,0,0,0-1.389.422,2.865,2.865,0,0,0-.932,1.107V24h-1.626V14.49ZM-35.851,24V15.747h-1.5V14.49h1.5v-.976a3.238,3.238,0,0,1,.817-2.364,3.088,3.088,0,0,1,2.312-.835,4.293,4.293,0,0,1,1.116.148l-.088,1.311a4.67,4.67,0,0,0-.879-.079,1.586,1.586,0,0,0-1.222.463,1.877,1.877,0,0,0-.431,1.327V14.49h2.03v1.257h-2.03V24Zm5.019-4.843a5.617,5.617,0,0,1,.549-2.514,4.1,4.1,0,0,1,1.529-1.723,4.163,4.163,0,0,1,2.237-.606,4.01,4.01,0,0,1,3.142,1.345,5.174,5.174,0,0,1,1.2,3.577v.114a5.666,5.666,0,0,1-.532,2.492,4.038,4.038,0,0,1-1.521,1.718,4.211,4.211,0,0,1-2.272.615,4,4,0,0,1-3.133-1.345,5.147,5.147,0,0,1-1.2-3.56Zm1.635.193a4.068,4.068,0,0,0,.734,2.54,2.349,2.349,0,0,0,1.964.958,2.335,2.335,0,0,0,1.969-.971,4.449,4.449,0,0,0,.729-2.72,4.061,4.061,0,0,0-.743-2.536,2.361,2.361,0,0,0-1.973-.971,2.335,2.335,0,0,0-1.942.958A4.416,4.416,0,0,0-29.2,19.351Zm13.658-3.4a4.873,4.873,0,0,0-.8-.062A2.143,2.143,0,0,0-18.51,17.25V24h-1.626V14.49h1.582l.026,1.1a2.532,2.532,0,0,1,2.268-1.274,1.661,1.661,0,0,1,.721.123Zm3.023-1.459.044,1.055a3.512,3.512,0,0,1,2.821-1.23,2.719,2.719,0,0,1,2.716,1.529A3.6,3.6,0,0,1-5.7,14.736a3.647,3.647,0,0,1,1.8-.422q3.129,0,3.182,3.313V24H-2.347V17.725A2.184,2.184,0,0,0-2.812,16.2a2.051,2.051,0,0,0-1.564-.505,2.156,2.156,0,0,0-1.5.541,2.193,2.193,0,0,0-.694,1.455V24H-8.209V17.769a1.814,1.814,0,0,0-2.03-2.074,2.175,2.175,0,0,0-2.188,1.362V24h-1.626V14.49ZM7.6,24a3.416,3.416,0,0,1-.229-1,3.628,3.628,0,0,1-2.707,1.178,3.357,3.357,0,0,1-2.307-.8,2.573,2.573,0,0,1-.9-2.017,2.688,2.688,0,0,1,1.129-2.307,5.325,5.325,0,0,1,3.177-.822H7.348v-.747a1.826,1.826,0,0,0-.51-1.358,2.049,2.049,0,0,0-1.5-.505,2.371,2.371,0,0,0-1.459.439,1.3,1.3,0,0,0-.589,1.063H1.652a2.244,2.244,0,0,1,.505-1.375A3.449,3.449,0,0,1,3.529,14.7a4.613,4.613,0,0,1,1.9-.387,3.759,3.759,0,0,1,2.575.822A2.964,2.964,0,0,1,8.974,17.4v4.377a5.351,5.351,0,0,0,.334,2.083V24ZM4.9,22.761a2.858,2.858,0,0,0,1.45-.4,2.392,2.392,0,0,0,.993-1.028V19.386H6.073q-2.988,0-2.988,1.749a1.48,1.48,0,0,0,.51,1.2A1.959,1.959,0,0,0,4.9,22.761Zm10.433.088a2.342,2.342,0,0,0,1.521-.527A1.855,1.855,0,0,0,17.578,21h1.538a2.949,2.949,0,0,1-.562,1.556,3.7,3.7,0,0,1-1.384,1.178,3.994,3.994,0,0,1-1.833.439,3.918,3.918,0,0,1-3.089-1.3A5.163,5.163,0,0,1,11.1,19.333v-.272a5.725,5.725,0,0,1,.51-2.47,3.883,3.883,0,0,1,1.463-1.679,4.157,4.157,0,0,1,2.254-.6,3.814,3.814,0,0,1,2.659.958,3.424,3.424,0,0,1,1.129,2.487H17.578a2.241,2.241,0,0,0-.7-1.516,2.174,2.174,0,0,0-1.551-.593,2.276,2.276,0,0,0-1.92.892,4.19,4.19,0,0,0-.681,2.58v.308a4.106,4.106,0,0,0,.677,2.531A2.287,2.287,0,0,0,15.337,22.849ZM22.711,24H21.085V14.49h1.626ZM20.953,11.968a.971.971,0,0,1,.242-.668.907.907,0,0,1,.716-.272.922.922,0,0,1,.721.272.96.96,0,0,1,.246.668.929.929,0,0,1-.246.659.938.938,0,0,1-.721.264.924.924,0,0,1-.716-.264A.938.938,0,0,1,20.953,11.968Zm3.929,7.189a5.617,5.617,0,0,1,.549-2.514,4.1,4.1,0,0,1,1.529-1.723,4.163,4.163,0,0,1,2.237-.606,4.01,4.01,0,0,1,3.142,1.345,5.174,5.174,0,0,1,1.2,3.577v.114a5.666,5.666,0,0,1-.532,2.492,4.038,4.038,0,0,1-1.521,1.718,4.211,4.211,0,0,1-2.272.615,4,4,0,0,1-3.133-1.345,5.147,5.147,0,0,1-1.2-3.56Zm1.635.193a4.068,4.068,0,0,0,.734,2.54,2.487,2.487,0,0,0,3.933-.013,4.449,4.449,0,0,0,.729-2.72,4.061,4.061,0,0,0-.743-2.536A2.361,2.361,0,0,0,29.2,15.65a2.335,2.335,0,0,0-1.942.958A4.416,4.416,0,0,0,26.517,19.351Zm3.419-8.833H31.9L29.549,13.1l-1.31,0Zm7.181,3.973.053,1.2a3.465,3.465,0,0,1,2.848-1.371q3.015,0,3.041,3.4V24H41.432V17.707a2.189,2.189,0,0,0-.47-1.521,1.884,1.884,0,0,0-1.437-.492,2.347,2.347,0,0,0-1.389.422,2.865,2.865,0,0,0-.932,1.107V24H35.578V14.49ZM49.57,19.166a5.571,5.571,0,0,1,1.037-3.52,3.529,3.529,0,0,1,5.361-.189V10.5h1.626V24H56.1l-.079-1.02a3.311,3.311,0,0,1-2.716,1.2,3.248,3.248,0,0,1-2.694-1.354,5.634,5.634,0,0,1-1.042-3.533Zm1.626.185a4.218,4.218,0,0,0,.668,2.531,2.159,2.159,0,0,0,1.846.914,2.372,2.372,0,0,0,2.259-1.389V17.039a2.39,2.39,0,0,0-2.241-1.345,2.17,2.17,0,0,0-1.863.923A4.644,4.644,0,0,0,51.2,19.351Zm12.867,4.825a4.155,4.155,0,0,1-3.146-1.27,4.714,4.714,0,0,1-1.213-3.4v-.3a5.707,5.707,0,0,1,.541-2.527,4.217,4.217,0,0,1,1.512-1.74,3.8,3.8,0,0,1,2.1-.628,3.562,3.562,0,0,1,2.883,1.222,5.289,5.289,0,0,1,1.028,3.5v.677H61.33a3.38,3.38,0,0,0,.822,2.272,2.583,2.583,0,0,0,2,.866A2.832,2.832,0,0,0,65.61,22.5a3.666,3.666,0,0,0,1.046-.932l.993.773A3.993,3.993,0,0,1,64.063,24.176Zm-.2-8.525a2.169,2.169,0,0,0-1.652.716,3.482,3.482,0,0,0-.826,2.008h4.764v-.123a3.1,3.1,0,0,0-.668-1.92A2.042,2.042,0,0,0,63.861,15.65Zm8-3.463v2.3h1.775v1.257H71.859v5.9a1.32,1.32,0,0,0,.237.858,1,1,0,0,0,.809.286,3.937,3.937,0,0,0,.773-.105V24a4.742,4.742,0,0,1-1.248.175,2.025,2.025,0,0,1-1.644-.659,2.832,2.832,0,0,1-.554-1.872v-5.9H68.5V14.49h1.731v-2.3ZM81.4,24a3.416,3.416,0,0,1-.229-1,3.628,3.628,0,0,1-2.707,1.178,3.357,3.357,0,0,1-2.307-.8,2.573,2.573,0,0,1-.9-2.017,2.688,2.688,0,0,1,1.129-2.307,5.325,5.325,0,0,1,3.177-.822h1.582v-.747a1.826,1.826,0,0,0-.51-1.358,2.049,2.049,0,0,0-1.5-.505,2.371,2.371,0,0,0-1.459.439,1.3,1.3,0,0,0-.589,1.063H75.454a2.244,2.244,0,0,1,.505-1.375,3.449,3.449,0,0,1,1.371-1.05,4.613,4.613,0,0,1,1.9-.387,3.759,3.759,0,0,1,2.575.822,2.964,2.964,0,0,1,.967,2.263v4.377a5.351,5.351,0,0,0,.334,2.083V24Zm-2.7-1.239a2.858,2.858,0,0,0,1.45-.4,2.392,2.392,0,0,0,.993-1.028V19.386H79.875q-2.988,0-2.988,1.749a1.48,1.48,0,0,0,.51,1.2A1.959,1.959,0,0,0,78.706,22.761ZM87.091,24H85.465V10.5h1.626Zm4.368,0H89.833V10.5h1.626Zm8.473,0a3.416,3.416,0,0,1-.229-1A3.628,3.628,0,0,1,97,24.176a3.357,3.357,0,0,1-2.307-.8,2.573,2.573,0,0,1-.9-2.017,2.688,2.688,0,0,1,1.129-2.307,5.325,5.325,0,0,1,3.177-.822h1.582v-.747a1.826,1.826,0,0,0-.51-1.358,2.049,2.049,0,0,0-1.5-.505,2.371,2.371,0,0,0-1.459.439,1.3,1.3,0,0,0-.589,1.063H93.981a2.244,2.244,0,0,1,.505-1.375,3.449,3.449,0,0,1,1.371-1.05,4.613,4.613,0,0,1,1.9-.387,3.759,3.759,0,0,1,2.575.822A2.964,2.964,0,0,1,101.3,17.4v4.377a5.351,5.351,0,0,0,.334,2.083V24Zm-2.7-1.239a2.858,2.858,0,0,0,1.45-.4,2.392,2.392,0,0,0,.993-1.028V19.386H98.4q-2.988,0-2.988,1.749a1.48,1.48,0,0,0,.51,1.2A1.959,1.959,0,0,0,97.233,22.761Zm6.223-3.595a5.571,5.571,0,0,1,1.037-3.52,3.529,3.529,0,0,1,5.361-.189V10.5h1.626V24h-1.494l-.079-1.02a3.311,3.311,0,0,1-2.716,1.2,3.248,3.248,0,0,1-2.694-1.354,5.634,5.634,0,0,1-1.042-3.533Zm1.626.185a4.218,4.218,0,0,0,.668,2.531,2.159,2.159,0,0,0,1.846.914,2.372,2.372,0,0,0,2.259-1.389V17.039a2.39,2.39,0,0,0-2.241-1.345,2.17,2.17,0,0,0-1.863.923A4.644,4.644,0,0,0,105.082,19.351ZM119.874,24a3.416,3.416,0,0,1-.229-1,3.628,3.628,0,0,1-2.707,1.178,3.357,3.357,0,0,1-2.307-.8,2.573,2.573,0,0,1-.9-2.017,2.688,2.688,0,0,1,1.129-2.307,5.325,5.325,0,0,1,3.177-.822h1.582v-.747a1.826,1.826,0,0,0-.51-1.358,2.049,2.049,0,0,0-1.5-.505,2.371,2.371,0,0,0-1.459.439,1.3,1.3,0,0,0-.589,1.063h-1.635a2.244,2.244,0,0,1,.505-1.375A3.449,3.449,0,0,1,115.8,14.7a4.613,4.613,0,0,1,1.9-.387,3.759,3.759,0,0,1,2.575.822,2.964,2.964,0,0,1,.967,2.263v4.377a5.351,5.351,0,0,0,.334,2.083V24Zm-2.7-1.239a2.858,2.858,0,0,0,1.45-.4,2.392,2.392,0,0,0,.993-1.028V19.386h-1.274q-2.988,0-2.988,1.749a1.48,1.48,0,0,0,.51,1.2A1.959,1.959,0,0,0,117.176,22.761ZM-74.36,43.166a5.571,5.571,0,0,1,1.037-3.52,3.28,3.28,0,0,1,2.716-1.332,3.3,3.3,0,0,1,2.646,1.143V34.5h1.626V48H-67.83l-.079-1.02a3.311,3.311,0,0,1-2.716,1.2,3.248,3.248,0,0,1-2.694-1.354,5.634,5.634,0,0,1-1.042-3.533Zm1.626.185a4.218,4.218,0,0,0,.668,2.531,2.159,2.159,0,0,0,1.846.914,2.372,2.372,0,0,0,2.259-1.389V41.039A2.39,2.39,0,0,0-70.2,39.694a2.17,2.17,0,0,0-1.863.923A4.644,4.644,0,0,0-72.734,43.351Zm12.867,4.825a4.155,4.155,0,0,1-3.146-1.27,4.714,4.714,0,0,1-1.213-3.4v-.3a5.707,5.707,0,0,1,.541-2.527,4.217,4.217,0,0,1,1.512-1.74,3.8,3.8,0,0,1,2.1-.628,3.562,3.562,0,0,1,2.883,1.222,5.289,5.289,0,0,1,1.028,3.5v.677H-62.6a3.38,3.38,0,0,0,.822,2.272,2.583,2.583,0,0,0,2,.866A2.832,2.832,0,0,0-58.32,46.5a3.666,3.666,0,0,0,1.046-.932l.993.773A3.993,3.993,0,0,1-59.867,48.176Zm-.2-8.525a2.169,2.169,0,0,0-1.652.716,3.482,3.482,0,0,0-.826,2.008h4.764v-.123a3.1,3.1,0,0,0-.668-1.92A2.042,2.042,0,0,0-60.069,39.65Zm14.063,7.2a2.342,2.342,0,0,0,1.521-.527A1.855,1.855,0,0,0-43.765,45h1.538a2.949,2.949,0,0,1-.562,1.556,3.7,3.7,0,0,1-1.384,1.178,3.994,3.994,0,0,1-1.833.439,3.918,3.918,0,0,1-3.089-1.3,5.163,5.163,0,0,1-1.147-3.546v-.272a5.725,5.725,0,0,1,.51-2.47,3.883,3.883,0,0,1,1.463-1.679,4.157,4.157,0,0,1,2.254-.6,3.814,3.814,0,0,1,2.659.958,3.424,3.424,0,0,1,1.129,2.487h-1.538a2.241,2.241,0,0,0-.7-1.516,2.174,2.174,0,0,0-1.551-.593,2.276,2.276,0,0,0-1.92.892,4.19,4.19,0,0,0-.681,2.58v.308a4.106,4.106,0,0,0,.677,2.531A2.287,2.287,0,0,0-46.006,46.849ZM-34.528,48a3.416,3.416,0,0,1-.229-1,3.628,3.628,0,0,1-2.707,1.178,3.357,3.357,0,0,1-2.307-.8,2.573,2.573,0,0,1-.9-2.017,2.688,2.688,0,0,1,1.129-2.307,5.325,5.325,0,0,1,3.177-.822h1.582v-.747a1.826,1.826,0,0,0-.51-1.358,2.049,2.049,0,0,0-1.5-.505,2.371,2.371,0,0,0-1.459.439,1.3,1.3,0,0,0-.589,1.063h-1.635a2.244,2.244,0,0,1,.505-1.375A3.449,3.449,0,0,1-38.6,38.7a4.613,4.613,0,0,1,1.9-.387,3.759,3.759,0,0,1,2.575.822,2.964,2.964,0,0,1,.967,2.263v4.377a5.351,5.351,0,0,0,.334,2.083V48Zm-2.7-1.239a2.858,2.858,0,0,0,1.45-.4,2.392,2.392,0,0,0,.993-1.028V43.386h-1.274q-2.988,0-2.988,1.749a1.48,1.48,0,0,0,.51,1.2A1.959,1.959,0,0,0-37.226,46.761ZM-31,43.166a5.571,5.571,0,0,1,1.037-3.52,3.28,3.28,0,0,1,2.716-1.332A3.3,3.3,0,0,1-24.6,39.457V34.5h1.626V48h-1.494l-.079-1.02a3.311,3.311,0,0,1-2.716,1.2,3.248,3.248,0,0,1-2.694-1.354A5.634,5.634,0,0,1-31,43.289Zm1.626.185a4.218,4.218,0,0,0,.668,2.531,2.159,2.159,0,0,0,1.846.914A2.372,2.372,0,0,0-24.6,45.407V41.039a2.39,2.39,0,0,0-2.241-1.345,2.17,2.17,0,0,0-1.863.923A4.644,4.644,0,0,0-29.377,43.351ZM-14.585,48a3.416,3.416,0,0,1-.229-1,3.628,3.628,0,0,1-2.707,1.178,3.357,3.357,0,0,1-2.307-.8,2.573,2.573,0,0,1-.9-2.017A2.688,2.688,0,0,1-19.6,43.056a5.325,5.325,0,0,1,3.177-.822h1.582v-.747a1.826,1.826,0,0,0-.51-1.358,2.049,2.049,0,0,0-1.5-.505,2.371,2.371,0,0,0-1.459.439,1.3,1.3,0,0,0-.589,1.063h-1.635a2.244,2.244,0,0,1,.505-1.375,3.449,3.449,0,0,1,1.371-1.05,4.613,4.613,0,0,1,1.9-.387,3.759,3.759,0,0,1,2.575.822,2.964,2.964,0,0,1,.967,2.263v4.377a5.351,5.351,0,0,0,.334,2.083V48Zm-2.7-1.239a2.858,2.858,0,0,0,1.45-.4,2.392,2.392,0,0,0,.993-1.028V43.386h-1.274q-2.988,0-2.988,1.749a1.48,1.48,0,0,0,.51,1.2A1.959,1.959,0,0,0-17.284,46.761Zm16.945.3a3.454,3.454,0,0,1-2.786,1.116,2.956,2.956,0,0,1-2.316-.883,3.823,3.823,0,0,1-.8-2.615V38.49h1.626v6.144q0,2.162,1.758,2.162A2.434,2.434,0,0,0-.382,45.407V38.49H1.244V48H-.3Zm5.59-8.569.053,1.2a3.465,3.465,0,0,1,2.848-1.371q3.015,0,3.041,3.4V48H9.567V41.707a2.189,2.189,0,0,0-.47-1.521,1.884,1.884,0,0,0-1.437-.492,2.347,2.347,0,0,0-1.389.422,2.865,2.865,0,0,0-.932,1.107V48H3.713V38.49Zm7.963,4.667a5.617,5.617,0,0,1,.549-2.514,4.1,4.1,0,0,1,1.529-1.723,4.163,4.163,0,0,1,2.237-.606,4.01,4.01,0,0,1,3.142,1.345,5.174,5.174,0,0,1,1.2,3.577v.114a5.666,5.666,0,0,1-.532,2.492,4.038,4.038,0,0,1-1.521,1.718,4.211,4.211,0,0,1-2.272.615,4,4,0,0,1-3.133-1.345,5.147,5.147,0,0,1-1.2-3.56Zm1.635.193a4.068,4.068,0,0,0,.734,2.54,2.487,2.487,0,0,0,3.933-.013,4.449,4.449,0,0,0,.729-2.72,4.061,4.061,0,0,0-.743-2.536,2.361,2.361,0,0,0-1.973-.971,2.335,2.335,0,0,0-1.942.958A4.416,4.416,0,0,0,14.849,43.351Zm13.122-.185a5.571,5.571,0,0,1,1.037-3.52,3.529,3.529,0,0,1,5.361-.189V34.5H36V48H34.5l-.079-1.02a3.311,3.311,0,0,1-2.716,1.2,3.248,3.248,0,0,1-2.694-1.354,5.634,5.634,0,0,1-1.042-3.533Zm1.626.185a4.218,4.218,0,0,0,.668,2.531,2.159,2.159,0,0,0,1.846.914,2.372,2.372,0,0,0,2.259-1.389V41.039a2.39,2.39,0,0,0-2.241-1.345,2.17,2.17,0,0,0-1.863.923A4.644,4.644,0,0,0,29.6,43.351Zm12.867,4.825a4.155,4.155,0,0,1-3.146-1.27,4.714,4.714,0,0,1-1.213-3.4v-.3a5.707,5.707,0,0,1,.541-2.527,4.217,4.217,0,0,1,1.512-1.74,3.8,3.8,0,0,1,2.1-.628,3.562,3.562,0,0,1,2.883,1.222,5.289,5.289,0,0,1,1.028,3.5v.677H39.731a3.38,3.38,0,0,0,.822,2.272,2.583,2.583,0,0,0,2,.866,2.832,2.832,0,0,0,1.459-.352,3.666,3.666,0,0,0,1.046-.932l.993.773A3.993,3.993,0,0,1,42.464,48.176Zm-.2-8.525a2.169,2.169,0,0,0-1.652.716,3.482,3.482,0,0,0-.826,2.008h4.764v-.123a3.1,3.1,0,0,0-.668-1.92A2.042,2.042,0,0,0,42.262,39.65ZM54.277,48H52.651V34.5h1.626Zm2.171-4.843A5.617,5.617,0,0,1,57,40.644a4.1,4.1,0,0,1,1.529-1.723,4.163,4.163,0,0,1,2.237-.606,4.01,4.01,0,0,1,3.142,1.345,5.174,5.174,0,0,1,1.2,3.577v.114a5.666,5.666,0,0,1-.532,2.492,4.038,4.038,0,0,1-1.521,1.718,4.211,4.211,0,0,1-2.272.615,4,4,0,0,1-3.133-1.345,5.147,5.147,0,0,1-1.2-3.56Zm1.635.193a4.068,4.068,0,0,0,.734,2.54,2.487,2.487,0,0,0,3.933-.013,4.449,4.449,0,0,0,.729-2.72,4.061,4.061,0,0,0-.743-2.536,2.361,2.361,0,0,0-1.973-.971,2.335,2.335,0,0,0-1.942.958A4.416,4.416,0,0,0,58.083,43.351Zm14.6,2.127a1.2,1.2,0,0,0-.5-1.024,4.78,4.78,0,0,0-1.731-.628,8.186,8.186,0,0,1-1.96-.633,2.788,2.788,0,0,1-1.072-.879,2.1,2.1,0,0,1-.347-1.213,2.467,2.467,0,0,1,.989-1.978,3.861,3.861,0,0,1,2.527-.809,3.974,3.974,0,0,1,2.624.835,2.652,2.652,0,0,1,1.006,2.136H72.584a1.468,1.468,0,0,0-.567-1.151,2.124,2.124,0,0,0-1.428-.483,2.223,2.223,0,0,0-1.389.387,1.217,1.217,0,0,0-.5,1.011.986.986,0,0,0,.466.888,5.731,5.731,0,0,0,1.683.571,8.77,8.77,0,0,1,1.973.65,2.878,2.878,0,0,1,1.121.91,2.237,2.237,0,0,1,.365,1.3,2.434,2.434,0,0,1-1.02,2.043,4.277,4.277,0,0,1-2.646.769,4.789,4.789,0,0,1-2.021-.4,3.288,3.288,0,0,1-1.375-1.129,2.722,2.722,0,0,1-.5-1.569h1.626a1.683,1.683,0,0,0,.655,1.3,2.54,2.54,0,0,0,1.613.479,2.622,2.622,0,0,0,1.481-.374A1.148,1.148,0,0,0,72.681,45.478Zm-174.01,25.371a2.342,2.342,0,0,0,1.521-.527A1.855,1.855,0,0,0-99.088,69h1.538a2.949,2.949,0,0,1-.562,1.556A3.7,3.7,0,0,1-99.5,71.736a3.994,3.994,0,0,1-1.833.439,3.918,3.918,0,0,1-3.089-1.3,5.163,5.163,0,0,1-1.147-3.546v-.272a5.725,5.725,0,0,1,.51-2.47,3.883,3.883,0,0,1,1.463-1.679,4.157,4.157,0,0,1,2.254-.6,3.814,3.814,0,0,1,2.659.958A3.424,3.424,0,0,1-97.55,65.76h-1.538a2.241,2.241,0,0,0-.7-1.516,2.174,2.174,0,0,0-1.551-.593,2.276,2.276,0,0,0-1.92.892,4.19,4.19,0,0,0-.681,2.58v.308a4.106,4.106,0,0,0,.677,2.531A2.287,2.287,0,0,0-101.329,70.849Zm5.177-3.691a5.617,5.617,0,0,1,.549-2.514,4.1,4.1,0,0,1,1.529-1.723,4.163,4.163,0,0,1,2.237-.606,4.01,4.01,0,0,1,3.142,1.345,5.174,5.174,0,0,1,1.2,3.577v.114a5.666,5.666,0,0,1-.532,2.492,4.038,4.038,0,0,1-1.521,1.718,4.211,4.211,0,0,1-2.272.615,4,4,0,0,1-3.133-1.345,5.147,5.147,0,0,1-1.2-3.56Zm1.635.193a4.068,4.068,0,0,0,.734,2.54,2.349,2.349,0,0,0,1.964.958,2.335,2.335,0,0,0,1.969-.971,4.449,4.449,0,0,0,.729-2.72,4.061,4.061,0,0,0-.743-2.536,2.361,2.361,0,0,0-1.973-.971,2.335,2.335,0,0,0-1.942.958A4.416,4.416,0,0,0-94.518,67.351Zm10.591-4.86.044,1.055a3.512,3.512,0,0,1,2.821-1.23,2.719,2.719,0,0,1,2.716,1.529,3.6,3.6,0,0,1,1.235-1.107,3.647,3.647,0,0,1,1.8-.422q3.129,0,3.182,3.313V72h-1.626V65.725a2.184,2.184,0,0,0-.466-1.525,2.051,2.051,0,0,0-1.564-.505,2.156,2.156,0,0,0-1.5.541,2.193,2.193,0,0,0-.694,1.455V72H-79.62V65.769a1.814,1.814,0,0,0-2.03-2.074,2.175,2.175,0,0,0-2.188,1.362V72h-1.626V62.49Zm22.28,4.86a5.694,5.694,0,0,1-.993,3.5,3.183,3.183,0,0,1-2.689,1.327,3.488,3.488,0,0,1-2.725-1.1v4.579H-69.68V62.49h1.485l.079,1.055a3.35,3.35,0,0,1,2.76-1.23,3.243,3.243,0,0,1,2.711,1.292,5.756,5.756,0,0,1,1,3.595Zm-1.626-.185a4.2,4.2,0,0,0-.686-2.54,2.208,2.208,0,0,0-1.881-.932A2.39,2.39,0,0,0-68.054,65v4.544a2.4,2.4,0,0,0,2.232,1.3,2.2,2.2,0,0,0,1.859-.927A4.587,4.587,0,0,0-63.272,67.166Zm3.261-.009a5.617,5.617,0,0,1,.549-2.514,4.1,4.1,0,0,1,1.529-1.723,4.163,4.163,0,0,1,2.237-.606,4.01,4.01,0,0,1,3.142,1.345,5.174,5.174,0,0,1,1.2,3.577v.114a5.666,5.666,0,0,1-.532,2.492,4.038,4.038,0,0,1-1.521,1.718,4.211,4.211,0,0,1-2.272.615,4,4,0,0,1-3.133-1.345,5.147,5.147,0,0,1-1.2-3.56Zm1.635.193a4.068,4.068,0,0,0,.734,2.54,2.349,2.349,0,0,0,1.964.958,2.335,2.335,0,0,0,1.969-.971,4.449,4.449,0,0,0,.729-2.72,4.061,4.061,0,0,0-.743-2.536A2.361,2.361,0,0,0-55.7,63.65a2.335,2.335,0,0,0-1.942.958A4.416,4.416,0,0,0-58.377,67.351Zm10.6-4.86.053,1.2a3.465,3.465,0,0,1,2.848-1.371q3.015,0,3.041,3.4V72h-1.626V65.707a2.189,2.189,0,0,0-.47-1.521,1.884,1.884,0,0,0-1.437-.492,2.347,2.347,0,0,0-1.389.422,2.865,2.865,0,0,0-.932,1.107V72h-1.626V62.49Zm12.34,9.686a4.155,4.155,0,0,1-3.146-1.27,4.714,4.714,0,0,1-1.213-3.4v-.3a5.707,5.707,0,0,1,.541-2.527,4.217,4.217,0,0,1,1.512-1.74,3.8,3.8,0,0,1,2.1-.628,3.562,3.562,0,0,1,2.883,1.222,5.289,5.289,0,0,1,1.028,3.5v.677h-6.442a3.38,3.38,0,0,0,.822,2.272,2.583,2.583,0,0,0,2,.866,2.832,2.832,0,0,0,1.459-.352,3.666,3.666,0,0,0,1.046-.932l.993.773A3.993,3.993,0,0,1-35.437,72.176Zm-.2-8.525a2.169,2.169,0,0,0-1.652.716,3.482,3.482,0,0,0-.826,2.008h4.764v-.123a3.1,3.1,0,0,0-.668-1.92A2.042,2.042,0,0,0-35.64,63.65Zm7.33-1.16.053,1.2a3.465,3.465,0,0,1,2.848-1.371q3.015,0,3.041,3.4V72h-1.626V65.707a2.189,2.189,0,0,0-.47-1.521,1.884,1.884,0,0,0-1.437-.492,2.347,2.347,0,0,0-1.389.422,2.865,2.865,0,0,0-.932,1.107V72h-1.626V62.49Zm10.6-2.3v2.3h1.775v1.257H-17.71v5.9a1.32,1.32,0,0,0,.237.858,1,1,0,0,0,.809.286,3.937,3.937,0,0,0,.773-.105V72a4.742,4.742,0,0,1-1.248.175,2.025,2.025,0,0,1-1.644-.659,2.832,2.832,0,0,1-.554-1.872v-5.9h-1.731V62.49h1.731v-2.3Zm7.62,11.988a4.155,4.155,0,0,1-3.146-1.27,4.714,4.714,0,0,1-1.213-3.4v-.3a5.707,5.707,0,0,1,.541-2.527,4.217,4.217,0,0,1,1.512-1.74,3.8,3.8,0,0,1,2.1-.628,3.562,3.562,0,0,1,2.883,1.222,5.289,5.289,0,0,1,1.028,3.5v.677h-6.442A3.38,3.38,0,0,0-12,69.983a2.583,2.583,0,0,0,2,.866A2.832,2.832,0,0,0-8.543,70.5,3.666,3.666,0,0,0-7.5,69.565l.993.773A3.993,3.993,0,0,1-10.09,72.176Zm-.2-8.525a2.169,2.169,0,0,0-1.652.716,3.482,3.482,0,0,0-.826,2.008h4.764v-.123a3.1,3.1,0,0,0-.668-1.92A2.042,2.042,0,0,0-10.292,63.65ZM1.037,69.478a1.2,1.2,0,0,0-.5-1.024,4.78,4.78,0,0,0-1.731-.628,8.186,8.186,0,0,1-1.96-.633,2.788,2.788,0,0,1-1.072-.879A2.1,2.1,0,0,1-4.57,65.1a2.467,2.467,0,0,1,.989-1.978,3.861,3.861,0,0,1,2.527-.809,3.974,3.974,0,0,1,2.624.835,2.652,2.652,0,0,1,1.006,2.136H.94a1.468,1.468,0,0,0-.567-1.151,2.124,2.124,0,0,0-1.428-.483,2.223,2.223,0,0,0-1.389.387,1.217,1.217,0,0,0-.5,1.011.986.986,0,0,0,.466.888A5.731,5.731,0,0,0-.8,66.507a8.77,8.77,0,0,1,1.973.65,2.878,2.878,0,0,1,1.121.91,2.237,2.237,0,0,1,.365,1.3,2.434,2.434,0,0,1-1.02,2.043A4.277,4.277,0,0,1-1,72.176a4.789,4.789,0,0,1-2.021-.4A3.288,3.288,0,0,1-4.4,70.642a2.722,2.722,0,0,1-.5-1.569H-3.27a1.683,1.683,0,0,0,.655,1.3A2.54,2.54,0,0,0-1,70.849a2.622,2.622,0,0,0,1.481-.374A1.148,1.148,0,0,0,1.037,69.478Zm13.737,0a1.2,1.2,0,0,0-.5-1.024,4.78,4.78,0,0,0-1.731-.628,8.186,8.186,0,0,1-1.96-.633,2.788,2.788,0,0,1-1.072-.879A2.1,2.1,0,0,1,9.167,65.1a2.467,2.467,0,0,1,.989-1.978,3.861,3.861,0,0,1,2.527-.809,3.974,3.974,0,0,1,2.624.835,2.652,2.652,0,0,1,1.006,2.136H14.678a1.468,1.468,0,0,0-.567-1.151,2.124,2.124,0,0,0-1.428-.483,2.223,2.223,0,0,0-1.389.387,1.217,1.217,0,0,0-.5,1.011.986.986,0,0,0,.466.888,5.731,5.731,0,0,0,1.683.571,8.77,8.77,0,0,1,1.973.65,2.878,2.878,0,0,1,1.121.91,2.237,2.237,0,0,1,.365,1.3,2.434,2.434,0,0,1-1.02,2.043,4.277,4.277,0,0,1-2.646.769,4.789,4.789,0,0,1-2.021-.4,3.288,3.288,0,0,1-1.375-1.129,2.722,2.722,0,0,1-.5-1.569h1.626a1.683,1.683,0,0,0,.655,1.3,2.54,2.54,0,0,0,1.613.479,2.622,2.622,0,0,0,1.481-.374A1.148,1.148,0,0,0,14.774,69.478ZM20.285,72H18.659V62.49h1.626ZM18.527,59.968a.971.971,0,0,1,.242-.668.907.907,0,0,1,.716-.272.922.922,0,0,1,.721.272.96.96,0,0,1,.246.668.929.929,0,0,1-.246.659.938.938,0,0,1-.721.264.924.924,0,0,1-.716-.264A.938.938,0,0,1,18.527,59.968Zm5.9,2.522.053,1.2a3.465,3.465,0,0,1,2.848-1.371q3.015,0,3.041,3.4V72H28.74V65.707a2.189,2.189,0,0,0-.47-1.521,1.884,1.884,0,0,0-1.437-.492,2.347,2.347,0,0,0-1.389.422,2.865,2.865,0,0,0-.932,1.107V72H22.887V62.49Zm12.454,4.676a5.571,5.571,0,0,1,1.037-3.52,3.529,3.529,0,0,1,5.361-.189V58.5H44.9V72H43.409l-.079-1.02a3.311,3.311,0,0,1-2.716,1.2,3.248,3.248,0,0,1-2.694-1.354,5.634,5.634,0,0,1-1.042-3.533Zm1.626.185a4.218,4.218,0,0,0,.668,2.531,2.159,2.159,0,0,0,1.846.914,2.372,2.372,0,0,0,2.259-1.389V65.039a2.39,2.39,0,0,0-2.241-1.345,2.17,2.17,0,0,0-1.863.923A4.644,4.644,0,0,0,38.5,67.351Zm12.867,4.825a4.155,4.155,0,0,1-3.146-1.27,4.714,4.714,0,0,1-1.213-3.4v-.3a5.707,5.707,0,0,1,.541-2.527,4.217,4.217,0,0,1,1.512-1.74,3.8,3.8,0,0,1,2.1-.628,3.562,3.562,0,0,1,2.883,1.222,5.289,5.289,0,0,1,1.028,3.5v.677H48.639a3.38,3.38,0,0,0,.822,2.272,2.583,2.583,0,0,0,2,.866,2.832,2.832,0,0,0,1.459-.352,3.666,3.666,0,0,0,1.046-.932l.993.773A3.993,3.993,0,0,1,51.372,72.176Zm-.2-8.525a2.169,2.169,0,0,0-1.652.716,3.482,3.482,0,0,0-.826,2.008h4.764v-.123a3.1,3.1,0,0,0-.668-1.92A2.042,2.042,0,0,0,51.17,63.65ZM58.729,72H57.1V58.5h1.626ZM63.1,72H61.471V62.49H63.1ZM61.339,59.968a.971.971,0,0,1,.242-.668.907.907,0,0,1,.716-.272.922.922,0,0,1,.721.272.96.96,0,0,1,.246.668.929.929,0,0,1-.246.659.938.938,0,0,1-.721.264.924.924,0,0,1-.716-.264A.938.938,0,0,1,61.339,59.968Zm5.889,2.522.044,1.055a3.512,3.512,0,0,1,2.821-1.23,2.719,2.719,0,0,1,2.716,1.529,3.6,3.6,0,0,1,1.235-1.107,3.647,3.647,0,0,1,1.8-.422q3.129,0,3.182,3.313V72H77.4V65.725a2.184,2.184,0,0,0-.466-1.525,2.051,2.051,0,0,0-1.564-.505,2.156,2.156,0,0,0-1.5.541,2.193,2.193,0,0,0-.694,1.455V72H71.534V65.769a1.814,1.814,0,0,0-2.03-2.074,2.175,2.175,0,0,0-2.188,1.362V72H65.689V62.49ZM83.241,72H81.615V62.49h1.626ZM81.483,59.968a.971.971,0,0,1,.242-.668.907.907,0,0,1,.716-.272.922.922,0,0,1,.721.272.96.96,0,0,1,.246.668.929.929,0,0,1-.246.659.938.938,0,0,1-.721.264.924.924,0,0,1-.716-.264A.938.938,0,0,1,81.483,59.968Zm6.565.22v2.3h1.775v1.257H88.049v5.9a1.32,1.32,0,0,0,.237.858,1,1,0,0,0,.809.286,3.937,3.937,0,0,0,.773-.105V72a4.742,4.742,0,0,1-1.248.175,2.025,2.025,0,0,1-1.644-.659,2.832,2.832,0,0,1-.554-1.872v-5.9H84.691V62.49h1.731v-2.3ZM97.594,72a3.416,3.416,0,0,1-.229-1,3.628,3.628,0,0,1-2.707,1.178,3.357,3.357,0,0,1-2.307-.8,2.573,2.573,0,0,1-.9-2.017,2.688,2.688,0,0,1,1.129-2.307,5.325,5.325,0,0,1,3.177-.822h1.582v-.747a1.826,1.826,0,0,0-.51-1.358,2.049,2.049,0,0,0-1.5-.505,2.371,2.371,0,0,0-1.459.439,1.3,1.3,0,0,0-.589,1.063H91.644a2.244,2.244,0,0,1,.505-1.375A3.449,3.449,0,0,1,93.52,62.7a4.613,4.613,0,0,1,1.9-.387A3.759,3.759,0,0,1,98,63.136a2.964,2.964,0,0,1,.967,2.263v4.377a5.351,5.351,0,0,0,.334,2.083V72Zm-2.7-1.239a2.858,2.858,0,0,0,1.45-.4,2.392,2.392,0,0,0,.993-1.028V67.386H96.064q-2.988,0-2.988,1.749a1.48,1.48,0,0,0,.51,1.2A1.959,1.959,0,0,0,94.9,70.761Zm11.215-6.812a4.873,4.873,0,0,0-.8-.062,2.143,2.143,0,0,0-2.171,1.362V72h-1.626V62.49H103.1l.026,1.1a2.532,2.532,0,0,1,2.268-1.274,1.661,1.661,0,0,1,.721.123ZM-47.5,96h-1.626V82.5H-47.5Zm8.473,0a3.416,3.416,0,0,1-.229-1,3.628,3.628,0,0,1-2.707,1.178,3.357,3.357,0,0,1-2.307-.8,2.573,2.573,0,0,1-.9-2.017,2.688,2.688,0,0,1,1.129-2.307,5.325,5.325,0,0,1,3.177-.822h1.582v-.747a1.826,1.826,0,0,0-.51-1.358,2.049,2.049,0,0,0-1.5-.505,2.371,2.371,0,0,0-1.459.439,1.3,1.3,0,0,0-.589,1.063h-1.635a2.244,2.244,0,0,1,.505-1.375,3.449,3.449,0,0,1,1.371-1.05,4.613,4.613,0,0,1,1.9-.387,3.759,3.759,0,0,1,2.575.822,2.964,2.964,0,0,1,.967,2.263v4.377a5.351,5.351,0,0,0,.334,2.083V96Zm-2.7-1.239a2.858,2.858,0,0,0,1.45-.4,2.392,2.392,0,0,0,.993-1.028V91.386h-1.274q-2.988,0-2.988,1.749a1.48,1.48,0,0,0,.51,1.2A1.959,1.959,0,0,0-41.73,94.761Zm15.021,1.415a4.155,4.155,0,0,1-3.146-1.27,4.714,4.714,0,0,1-1.213-3.4v-.3a5.707,5.707,0,0,1,.541-2.527,4.217,4.217,0,0,1,1.512-1.74,3.8,3.8,0,0,1,2.1-.628,3.562,3.562,0,0,1,2.883,1.222A5.289,5.289,0,0,1-23,91.034v.677h-6.442a3.38,3.38,0,0,0,.822,2.272,2.583,2.583,0,0,0,2,.866,2.832,2.832,0,0,0,1.459-.352,3.666,3.666,0,0,0,1.046-.932l.993.773A3.993,3.993,0,0,1-26.71,96.176Zm-.2-8.525a2.169,2.169,0,0,0-1.652.716,3.482,3.482,0,0,0-.826,2.008h4.764v-.123a3.1,3.1,0,0,0-.668-1.92A2.042,2.042,0,0,0-26.912,87.65Zm8.982,2.312,2.109-3.472h1.9l-3.111,4.7L-13.825,96h-1.881l-2.2-3.56L-20.1,96h-1.89l3.208-4.808-3.111-4.7h1.881Zm7.937-5.774v2.3h1.775v1.257H-9.993v5.9a1.32,1.32,0,0,0,.237.858,1,1,0,0,0,.809.286,3.937,3.937,0,0,0,.773-.105V96a4.742,4.742,0,0,1-1.248.175,2.025,2.025,0,0,1-1.644-.659,2.832,2.832,0,0,1-.554-1.872v-5.9h-1.731V86.49h1.731v-2.3Zm7.62,11.988a4.155,4.155,0,0,1-3.146-1.27,4.714,4.714,0,0,1-1.213-3.4v-.3a5.707,5.707,0,0,1,.541-2.527,4.217,4.217,0,0,1,1.512-1.74,3.8,3.8,0,0,1,2.1-.628A3.562,3.562,0,0,1,.308,87.536a5.289,5.289,0,0,1,1.028,3.5v.677H-5.106a3.38,3.38,0,0,0,.822,2.272,2.583,2.583,0,0,0,2,.866A2.832,2.832,0,0,0-.826,94.5,3.666,3.666,0,0,0,.22,93.565l.993.773A3.993,3.993,0,0,1-2.373,96.176Zm-.2-8.525a2.169,2.169,0,0,0-1.652.716,3.482,3.482,0,0,0-.826,2.008H-.29v-.123a3.1,3.1,0,0,0-.668-1.92A2.042,2.042,0,0,0-2.575,87.65Zm7.33-1.16.053,1.2a3.465,3.465,0,0,1,2.848-1.371q3.015,0,3.041,3.4V96H9.07V89.707a2.189,2.189,0,0,0-.47-1.521,1.884,1.884,0,0,0-1.437-.492,2.347,2.347,0,0,0-1.389.422,2.865,2.865,0,0,0-.932,1.107V96H3.217V86.49Zm13.931,6.987a1.2,1.2,0,0,0-.5-1.024,4.78,4.78,0,0,0-1.731-.628,8.186,8.186,0,0,1-1.96-.633,2.788,2.788,0,0,1-1.072-.879,2.1,2.1,0,0,1-.347-1.213,2.467,2.467,0,0,1,.989-1.978,3.861,3.861,0,0,1,2.527-.809,3.974,3.974,0,0,1,2.624.835,2.652,2.652,0,0,1,1.006,2.136H18.589a1.468,1.468,0,0,0-.567-1.151,2.124,2.124,0,0,0-1.428-.483,2.223,2.223,0,0,0-1.389.387,1.217,1.217,0,0,0-.5,1.011.986.986,0,0,0,.466.888,5.731,5.731,0,0,0,1.683.571,8.77,8.77,0,0,1,1.973.65,2.878,2.878,0,0,1,1.121.91,2.237,2.237,0,0,1,.365,1.3,2.434,2.434,0,0,1-1.02,2.043,4.277,4.277,0,0,1-2.646.769,4.789,4.789,0,0,1-2.021-.4,3.288,3.288,0,0,1-1.375-1.129,2.722,2.722,0,0,1-.5-1.569h1.626a1.683,1.683,0,0,0,.655,1.3,2.54,2.54,0,0,0,1.613.479,2.622,2.622,0,0,0,1.481-.374A1.148,1.148,0,0,0,18.686,93.478ZM24.2,96H22.57V86.49H24.2ZM22.438,83.968a.971.971,0,0,1,.242-.668.907.907,0,0,1,.716-.272.922.922,0,0,1,.721.272.96.96,0,0,1,.246.668.929.929,0,0,1-.246.659.938.938,0,0,1-.721.264.924.924,0,0,1-.716-.264A.938.938,0,0,1,22.438,83.968Zm3.929,7.189a5.617,5.617,0,0,1,.549-2.514,4.1,4.1,0,0,1,1.529-1.723,4.163,4.163,0,0,1,2.237-.606,4.01,4.01,0,0,1,3.142,1.345,5.174,5.174,0,0,1,1.2,3.577v.114a5.666,5.666,0,0,1-.532,2.492,4.038,4.038,0,0,1-1.521,1.718,4.211,4.211,0,0,1-2.272.615,4,4,0,0,1-3.133-1.345,5.147,5.147,0,0,1-1.2-3.56ZM28,91.351a4.068,4.068,0,0,0,.734,2.54,2.487,2.487,0,0,0,3.933-.013,4.449,4.449,0,0,0,.729-2.72,4.061,4.061,0,0,0-.743-2.536,2.361,2.361,0,0,0-1.973-.971,2.335,2.335,0,0,0-1.942.958A4.416,4.416,0,0,0,28,91.351Zm3.419-8.833H33.39L31.034,85.1l-1.31,0ZM38.6,86.49l.053,1.2A3.465,3.465,0,0,1,41.5,86.314q3.015,0,3.041,3.4V96H42.917V89.707a2.189,2.189,0,0,0-.47-1.521,1.884,1.884,0,0,0-1.437-.492,2.347,2.347,0,0,0-1.389.422,2.865,2.865,0,0,0-.932,1.107V96H37.063V86.49Zm8.429,8.657a1.018,1.018,0,0,1,.25-.7.954.954,0,0,1,.751-.281.983.983,0,0,1,.76.281,1,1,0,0,1,.259.7.944.944,0,0,1-.259.677,1,1,0,0,1-.76.272.9.9,0,0,1-1-.949Z" transform="translate(1228.166 3949.289)" fill="#12263f"/>
  </g>
</svg>
