<svg xmlns="http://www.w3.org/2000/svg" width="139.935" height="99.925" viewBox="0 0 139.935 99.925">
  <g id="Grupo_156844" data-name="Grupo 156844" transform="translate(-413 -564)">
    <g id="Grupo_117447" data-name="Grupo 117447" transform="translate(-3234.279 1189.209)" opacity="0.3">
      <path id="Trazado_158283" data-name="Trazado 158283" d="M3677.784-530.075h0a16.354,16.354,0,0,0,23.129,0l67.216-67.214a16.357,16.357,0,0,0,0-23.129,16.355,16.355,0,0,0-23.129,0L3677.784-553.2A16.353,16.353,0,0,0,3677.784-530.075Z" transform="translate(14.296)" fill="#fc4b52"/>
      <path id="Trazado_158284" data-name="Trazado 158284" d="M3652.069-530.075h0a16.354,16.354,0,0,0,23.129,0l67.216-67.214a16.358,16.358,0,0,0,0-23.129,16.355,16.355,0,0,0-23.129,0L3652.069-553.2A16.354,16.354,0,0,0,3652.069-530.075Z" transform="translate(0)" fill="#feca2e"/>
    </g>
    <g id="Layer_32" transform="translate(434.109 568.05)">
      <path id="Trazado_263413" data-name="Trazado 263413" d="M107.621,2.5H83.235A5.944,5.944,0,0,0,77.3,8.435v10.4a5.944,5.944,0,0,0,5.935,5.935h6.293a2.192,2.192,0,0,1,1.824.965l3.54,5.4a.626.626,0,0,0,.858.179.431.431,0,0,0,.179-.179l3.54-5.4a2.146,2.146,0,0,1,1.824-.965h6.293a5.944,5.944,0,0,0,5.935-5.935V8.435A5.89,5.89,0,0,0,107.621,2.5Z" transform="translate(-47.161 -1.638)" fill="#6dcc6d"/>
      <path id="Trazado_263414" data-name="Trazado 263414" d="M195.133,32.7H177.326a4,4,0,0,0-2.288.679v4.863A5.918,5.918,0,0,1,173,42.712v1.931A4.372,4.372,0,0,0,177.326,49h4.612a1.611,1.611,0,0,1,1.323.715l2.61,3.933a.5.5,0,0,0,.644.143c.036-.036.107-.072.143-.143l2.61-3.933A1.611,1.611,0,0,1,190.592,49H195.2a4.326,4.326,0,0,0,4.326-4.362v-7.58A4.483,4.483,0,0,0,195.133,32.7Z" transform="translate(-108.643 -21.04)" fill="#ffcd29"/>
      <path id="Trazado_263415" data-name="Trazado 263415" d="M33.421,38.242V33.379a4.287,4.287,0,0,0-2.288-.679H13.326A4.372,4.372,0,0,0,9,37.062v7.616a4.372,4.372,0,0,0,4.326,4.362h4.612a1.611,1.611,0,0,1,1.323.715l2.61,3.933a.5.5,0,0,0,.644.143c.036-.036.107-.072.143-.143l2.61-3.933a1.611,1.611,0,0,1,1.323-.715H31.2a4.38,4.38,0,0,0,4.362-4.362V42.747A5.8,5.8,0,0,1,33.421,38.242Z" transform="translate(-3.282 -21.04)" fill="#55acd5"/>
      <path id="Trazado_263416" data-name="Trazado 263416" d="M113.835,93.616a4.955,4.955,0,0,0-2.539.715,5.018,5.018,0,0,0-4.219-2.431h-2.539a8.965,8.965,0,0,0-8.939,8.939v4a3.6,3.6,0,0,1,2.789-.751v-.429a.473.473,0,0,1,.465-.465h.107c1.573.322,6.221.894,9.368-3.075a.428.428,0,0,1,.644-.072l.036.036c.715.715,2.61,2.145,6.221,2.253a.443.443,0,0,1,.429.465v1.287a3.628,3.628,0,0,1,3.075.965V98.551A4.914,4.914,0,0,0,113.835,93.616Z" transform="translate(-58.918 -59.073)" fill="#6d6c6b"/>
      <path id="Trazado_263417" data-name="Trazado 263417" d="M27.982,104.8a9.606,9.606,0,0,0-9.582,9.582V121a9.435,9.435,0,0,0,.858,3.969,2.435,2.435,0,0,0,2.253,1.43h3.683v-.715a6.682,6.682,0,0,1-3.683-6.078v-3a.794.794,0,0,1,.787-.787h.25a6.56,6.56,0,0,0,5.149-2.467.79.79,0,0,1,1.108-.107l.107.107a6.56,6.56,0,0,0,5.149,2.467h0a.764.764,0,0,1,.787.751h0v3.146a6.729,6.729,0,0,1-3.5,5.864v.822h3.075a2.5,2.5,0,0,0,2.253-1.43A9.026,9.026,0,0,0,37.529,121v-6.615A9.575,9.575,0,0,0,27.982,104.8Z" transform="translate(-9.321 -67.36)" fill="#898989"/>
      <path id="Trazado_263418" data-name="Trazado 263418" d="M193.3,101.5c-5.113,0-9.3,3.9-9.3,8.689v2.968a3.062,3.062,0,0,1,1.573-.429,2.038,2.038,0,0,1,.465.036v-.179s2-1.108,2-2.825v-.036a1.4,1.4,0,0,1,1.394-1.394.99.99,0,0,1,.322.036,16.54,16.54,0,0,0,7.008,0,1.427,1.427,0,0,1,1.716,1,.99.99,0,0,1,.036.322v.036c0,1.681,2,2.825,2,2.825v.179a2.039,2.039,0,0,1,.465-.036,3.062,3.062,0,0,1,1.573.429v-2.968C202.593,105.433,198.409,101.5,193.3,101.5Z" transform="translate(-115.71 -65.24)" fill="#e9e9ea"/>
      <path id="Trazado_263419" data-name="Trazado 263419" d="M40.368,163.822h0a6.6,6.6,0,0,1-2.968-.715v2.467l1.037,3a.431.431,0,0,0,.429.286h3.218a.465.465,0,0,0,.429-.286l1.037-3V163A6.592,6.592,0,0,1,40.368,163.822Z" transform="translate(-21.527 -104.751)" fill="#f9d0b4"/>
      <path id="Trazado_263420" data-name="Trazado 263420" d="M230.7,132.952a2.36,2.36,0,0,0-.5.036c0,.143.036.286.036.465v4.684a2.038,2.038,0,0,1-.036.465,2.2,2.2,0,0,0,.5.036,2.849,2.849,0,1,0,.393-5.685.734.734,0,0,0-.393,0Z" transform="translate(-145.391 -85.429)" fill="#f9d0b4"/>
      <path id="Trazado_263421" data-name="Trazado 263421" d="M183.392,133.388a2.039,2.039,0,0,1,.036-.465,2.2,2.2,0,0,0-.5-.036,2.849,2.849,0,0,0-.393,5.685h.393a2.36,2.36,0,0,0,.5-.036c0-.143-.036-.286-.036-.465Z" transform="translate(-113.064 -85.401)" fill="#f9d0b4"/>
      <path id="Trazado_263422" data-name="Trazado 263422" d="M202.279,122.122v-.036a1.4,1.4,0,0,0-1.394-1.394.99.99,0,0,0-.322.036,16.54,16.54,0,0,1-7.008,0,1.427,1.427,0,0,0-1.716,1,.99.99,0,0,0-.036.322v.036c0,1.681-2,2.825-2,2.825V130.1a7.054,7.054,0,0,0,6.543,6.9c4.291.393,7.973-2.789,7.973-6.758v-5.328C204.281,124.947,202.279,123.8,202.279,122.122Z" transform="translate(-119.436 -77.567)" fill="#f9d0b4"/>
      <path id="Trazado_263423" data-name="Trazado 263423" d="M152.372,125.9a3.075,3.075,0,0,0-.572.036c0,.179.036.393.036.572v5.971a3.076,3.076,0,0,1-.036.572,3.606,3.606,0,0,0,1.18-7.115,3.677,3.677,0,0,0-.608-.036Z" transform="translate(-95.023 -80.916)" fill="#f9d0b4"/>
      <path id="Trazado_263424" data-name="Trazado 263424" d="M96.025,126.485a3.076,3.076,0,0,1,.036-.572,3.606,3.606,0,0,0-1.18,7.115,3.471,3.471,0,0,0,1.216,0c0-.179-.036-.393-.036-.572Z" transform="translate(-56.518 -80.894)" fill="#f9d0b4"/>
      <path id="Trazado_263425" data-name="Trazado 263425" d="M120.834,117.276a.5.5,0,0,0-.429-.465,9.119,9.119,0,0,1-6.221-2.253.453.453,0,0,0-.644,0l-.036.036c-3.146,3.969-7.83,3.4-9.368,3.075a.455.455,0,0,0-.536.358v7.08a8.635,8.635,0,0,0,17.27,0V117.42A.27.27,0,0,1,120.834,117.276Z" transform="translate(-64.057 -73.544)" fill="#f9d0b4"/>
      <path id="Trazado_263426" data-name="Trazado 263426" d="M120.662,166.573h0a8.651,8.651,0,0,1-3.862-.93v3.182l1.359,3.9a.581.581,0,0,0,.536.393h4.183a.537.537,0,0,0,.536-.393l1.359-3.9V165.5A8.207,8.207,0,0,1,120.662,166.573Z" transform="translate(-72.538 -106.357)" fill="#f9d0b4"/>
      <path id="Trazado_263427" data-name="Trazado 263427" d="M39.549,130.752h0a6.684,6.684,0,0,1-5.185-2.467.79.79,0,0,0-1.108-.107l-.107.107A6.56,6.56,0,0,1,28,130.752h-.215A.764.764,0,0,0,27,131.5v3.039a6.783,6.783,0,0,0,6.007,6.794,6.669,6.669,0,0,0,7.294-6.007,3.677,3.677,0,0,0,.036-.608v-3.146a.743.743,0,0,0-.787-.822Z" transform="translate(-14.845 -82.264)" fill="#f9d0b4"/>
      <path id="Trazado_263428" data-name="Trazado 263428" d="M203.76,165.208a7.656,7.656,0,0,1-2.36-.608v2.038l1.037,3a.431.431,0,0,0,.429.286h3.218a.465.465,0,0,0,.429-.286l1.037-3v-2A8.528,8.528,0,0,1,203.76,165.208Z" transform="translate(-126.889 -105.779)" fill="#f9d0b4"/>
      <path id="Trazado_263429" data-name="Trazado 263429" d="M113.285,200.58l-1.073-18.986a3.351,3.351,0,0,0-2.574-3.111l-6.722-1.68-4.04-2-1.359,3.9a.581.581,0,0,1-.536.393H92.8a.537.537,0,0,1-.536-.393L90.9,174.8l-4.04,2-6.722,1.68a3.385,3.385,0,0,0-2.574,3.111L76.493,200.58a2.238,2.238,0,0,0,2.11,2.36H111a2.228,2.228,0,0,0,2.217-2.217C113.285,200.687,113.285,200.651,113.285,200.58Z" transform="translate(-46.64 -112.332)" fill="#e9e9ea"/>
      <path id="Trazado_263430" data-name="Trazado 263430" d="M200.71,189.894l-.644-11.3a6.821,6.821,0,0,0-5.149-6.221l-2.181-.536-3.111-1.537-1.037,3a.431.431,0,0,1-.429.286h-3.218a.465.465,0,0,1-.429-.286l-1.037-3-3.111,1.537-2.181.536a6.845,6.845,0,0,0-4.684,4.112,3.4,3.4,0,0,1,1.037,2.253l.751,13.23h23.491A1.961,1.961,0,0,0,200.746,190,.131.131,0,0,1,200.71,189.894Z" transform="translate(-108.964 -109.441)" fill="#b26e3b"/>
      <path id="Trazado_263431" data-name="Trazado 263431" d="M28.918,172.274l-2.181-.536L23.626,170.2l-1.037,3a.431.431,0,0,1-.429.286H18.942a.465.465,0,0,1-.429-.286l-1.037-3-3.111,1.537-2.181.536A6.821,6.821,0,0,0,7.036,178.5l-.644,11.3a1.962,1.962,0,0,0,1.859,2.074h23.6l.751-13.23a3.326,3.326,0,0,1,1.037-2.253A6.975,6.975,0,0,0,28.918,172.274Z" transform="translate(-1.604 -109.376)" fill="#fc7783"/>
      <path id="Trazado_263432" data-name="Trazado 263432" d="M221.916.683c0-.072-.036-.107-.036-.179-.036-.036-.036-.107-.072-.143s-.072-.107-.107-.143a.864.864,0,0,0-1.251,0h0a.494.494,0,0,0-.107.143.271.271,0,0,0-.072.143.268.268,0,0,0-.036.179c0,.072-.036.107-.036.179a.322.322,0,0,0,.036.179c0,.072.036.107.036.179.036.072.036.107.072.143s.072.107.107.143a.932.932,0,0,0,1.251,0,.494.494,0,0,0,.107-.143.271.271,0,0,0,.072-.143.322.322,0,0,0,.036-.179.322.322,0,0,1,.036-.179A.322.322,0,0,0,221.916.683Z" transform="translate(-138.967)" fill="#ffcd29"/>
      <path id="Trazado_263433" data-name="Trazado 263433" d="M53.868,16.131a1.27,1.27,0,0,0-.143-.322c-.036-.036-.072-.107-.107-.143a.932.932,0,0,0-1.251,0,.494.494,0,0,0-.107.143.271.271,0,0,0-.072.143.322.322,0,0,0-.036.179.609.609,0,0,0,0,.358c0,.072.036.107.036.179.036.036.036.107.072.143s.072.107.107.143a.864.864,0,0,0,1.251,0h0a.494.494,0,0,0,.107-.143.271.271,0,0,0,.072-.143.268.268,0,0,0,.036-.179A.423.423,0,0,0,53.868,16.131Z" transform="translate(-30.987 -9.942)" fill="#55acd5"/>
      <path id="Trazado_263434" data-name="Trazado 263434" d="M199.88,7.491A3.352,3.352,0,0,1,197.2,4.809c0-.036-.036-.072-.072-.036a.035.035,0,0,0-.036.036,3.352,3.352,0,0,1-2.682,2.682c-.036,0-.072.036-.036.072a.035.035,0,0,0,.036.036,3.352,3.352,0,0,1,2.682,2.682c0,.036.036.072.072.036a.035.035,0,0,0,.036-.036A3.352,3.352,0,0,1,199.88,7.6c.036,0,.072-.036.036-.072A.035.035,0,0,0,199.88,7.491Z" transform="translate(-122.365 -3.089)" fill="#ea4647"/>
      <path id="Trazado_263435" data-name="Trazado 263435" d="M76.969,93.937h-.644v-.644a.894.894,0,0,0-1.788,0v.644h-.644a.894.894,0,0,0,0,1.788h.644v.644a.894.894,0,0,0,1.788,0v-.644h.644a.894.894,0,1,0,0-1.788Z" transform="translate(-44.399 -59.394)" fill="#6dcc6d"/>
      <path id="Trazado_263436" data-name="Trazado 263436" d="M106.014,0H81.629A6.852,6.852,0,0,0,74.8,6.829v10.4a6.829,6.829,0,0,0,6.829,6.829h6.293a1.308,1.308,0,0,1,1.073.572l3.54,5.4a1.539,1.539,0,0,0,2.11.429,1.232,1.232,0,0,0,.429-.429l3.54-5.4a1.308,1.308,0,0,1,1.073-.572h6.293a6.829,6.829,0,0,0,6.829-6.829V6.829A6.8,6.8,0,0,0,106.014,0Zm5.042,17.234a5.036,5.036,0,0,1-5.042,5.042H99.722a3.025,3.025,0,0,0-2.574,1.394l-3.325,5.042L90.5,23.67a3.111,3.111,0,0,0-2.574-1.394H81.629a5.036,5.036,0,0,1-5.042-5.042V6.829a5.036,5.036,0,0,1,5.042-5.042h24.349a5.036,5.036,0,0,1,5.042,5.042v10.4Z" transform="translate(-45.555 -0.032)" fill="#231f20"/>
      <path id="Trazado_263437" data-name="Trazado 263437" d="M193.4,30.2H175.592a5.574,5.574,0,0,0-2.789.787.972.972,0,0,0-.429.751V36.6a4.951,4.951,0,0,1-1.752,3.79,1.016,1.016,0,0,0-.322.679V43a5.28,5.28,0,0,0,5.22,5.256H180.2a.607.607,0,0,1,.572.322l2.61,3.933a1.344,1.344,0,0,0,2.253,0l2.61-3.933a.788.788,0,0,1,.572-.322h4.612A5.234,5.234,0,0,0,198.654,43V35.456A5.311,5.311,0,0,0,193.4,30.2Zm3.433,12.836A3.487,3.487,0,0,1,193.4,46.5h-4.612a2.545,2.545,0,0,0-2.074,1.108l-2.217,3.361-2.217-3.361A2.456,2.456,0,0,0,180.2,46.5h-4.612a3.441,3.441,0,0,1-3.433-3.468V41.5a6.759,6.759,0,0,0,2.038-4.863V32.31a3.185,3.185,0,0,1,1.394-.322H193.4a3.441,3.441,0,0,1,3.433,3.468Z" transform="translate(-106.909 -19.434)" fill="#231f20"/>
      <path id="Trazado_263438" data-name="Trazado 263438" d="M34.461,40.526a5.063,5.063,0,0,1-1.752-3.79v-4.9a.8.8,0,0,0-.429-.751,5.062,5.062,0,0,0-2.789-.787H11.72A5.226,5.226,0,0,0,6.5,35.52v7.616a5.28,5.28,0,0,0,5.22,5.256h4.612a.607.607,0,0,1,.572.322l2.61,3.933a1.344,1.344,0,0,0,2.253,0l2.61-3.933a.788.788,0,0,1,.572-.322h4.612a5.288,5.288,0,0,0,5.256-5.256V41.205A1.24,1.24,0,0,0,34.461,40.526Zm-1.5,2.574a3.5,3.5,0,0,1-3.468,3.468H24.914a2.545,2.545,0,0,0-2.074,1.108l-2.217,3.361-2.217-3.361a2.456,2.456,0,0,0-2.074-1.108H11.72A3.441,3.441,0,0,1,8.288,43.1V35.52a3.487,3.487,0,0,1,3.433-3.468H29.526a3.074,3.074,0,0,1,1.394.322V36.7a6.907,6.907,0,0,0,2.038,4.863Z" transform="translate(-1.676 -19.498)" fill="#231f20"/>
      <path id="Trazado_263439" data-name="Trazado 263439" d="M118.181,17.9h0l-19.487.072a.894.894,0,1,0,0,1.788h0l19.487-.072a.894.894,0,0,0,0-1.788Z" transform="translate(-60.331 -11.532)" fill="#231f20"/>
      <path id="Trazado_263440" data-name="Trazado 263440" d="M118.281,31.1l-19.487.072a.894.894,0,1,0,0,1.788h0l19.487-.072a.894.894,0,0,0,0-1.788Z" transform="translate(-60.395 -20.012)" fill="#231f20"/>
      <path id="Trazado_263441" data-name="Trazado 263441" d="M118.281,44.3l-19.487.072a.894.894,0,1,0,0,1.788h0l19.487-.072a.885.885,0,0,0,.894-.894h0A.933.933,0,0,0,118.281,44.3Z" transform="translate(-60.395 -28.492)" fill="#231f20"/>
      <path id="Trazado_263442" data-name="Trazado 263442" d="M66.194,200.3a.885.885,0,0,0-.894.894v10.047a.894.894,0,0,0,1.788,0V201.194A.885.885,0,0,0,66.194,200.3Z" transform="translate(-39.452 -128.714)" fill="#231f20"/>
      <path id="Trazado_263443" data-name="Trazado 263443" d="M21.994,200.3a.885.885,0,0,0-.894.894v10.047a.894.894,0,0,0,1.788,0V201.194A.885.885,0,0,0,21.994,200.3Z" transform="translate(-11.056 -128.714)" fill="#231f20"/>
      <path id="Trazado_263444" data-name="Trazado 263444" d="M42.244,160.659a.812.812,0,0,0-.894,0,6.182,6.182,0,0,1-2.753.715,5.8,5.8,0,0,1-2.574-.608.94.94,0,0,0-1.216.393.721.721,0,0,0-.107.393v2.467a.7.7,0,0,0,.036.286l1.037,3a1.31,1.31,0,0,0,1.251.894h3.218a1.31,1.31,0,0,0,1.251-.894l1.037-3a.787.787,0,0,0,.036-.286v-2.61A.566.566,0,0,0,42.244,160.659Zm-1.323,3.182-.894,2.574H37.453l-.894-2.574v-1a7.555,7.555,0,0,0,4.362-.072Z" transform="translate(-19.793 -103.161)" fill="#231f20"/>
      <path id="Trazado_263445" data-name="Trazado 263445" d="M229.154,130.5a3.272,3.272,0,0,0-.608.036.867.867,0,0,0-.751.93v5.471a.9.9,0,0,0,.751.965,3.469,3.469,0,0,0,.608.036,3.724,3.724,0,1,0,0-7.437Zm.429,5.614v-3.79a1.876,1.876,0,0,1,1.68,2.11,1.9,1.9,0,0,1-1.68,1.681Z" transform="translate(-143.844 -83.871)" fill="#231f20"/>
      <path id="Trazado_263446" data-name="Trazado 263446" d="M182.692,131.794V131.4a.9.9,0,0,0-.751-.965,3.469,3.469,0,0,0-.608-.036,3.724,3.724,0,1,0,0,7.437,3.272,3.272,0,0,0,.608-.036.88.88,0,0,0,.751-.965v-5.042Zm-1.788,4.255a1.907,1.907,0,0,1,0-3.79Z" transform="translate(-111.47 -83.807)" fill="#231f20"/>
      <path id="Trazado_263447" data-name="Trazado 263447" d="M203.1,122.5c-.429-.25-1.537-1.073-1.537-2.038v-.036a2.292,2.292,0,0,0-.822-1.788,2.373,2.373,0,0,0-2-.465,15.863,15.863,0,0,1-6.615,0,2.26,2.26,0,0,0-2,.465,2.207,2.207,0,0,0-.822,1.824c0,.965-1.108,1.788-1.537,2.038a.888.888,0,0,0-.465.787v5.149a8.006,8.006,0,0,0,7.366,7.795,5.794,5.794,0,0,0,.787.036,8.378,8.378,0,0,0,5.685-2.181,7.346,7.346,0,0,0,2.467-5.506v-5.328A1,1,0,0,0,203.1,122.5Zm-1.323,6.078a5.667,5.667,0,0,1-1.9,4.183,6.667,6.667,0,0,1-5.077,1.681,6.189,6.189,0,0,1-5.721-6.007v-4.684a4.34,4.34,0,0,0,2-3.29v-.072a.5.5,0,0,1,.179-.358.569.569,0,0,1,.465-.107,17.389,17.389,0,0,0,7.437,0,.516.516,0,0,1,.465.107.44.44,0,0,1,.179.358v.072a4.34,4.34,0,0,0,2,3.29Z" transform="translate(-117.83 -75.911)" fill="#231f20"/>
      <path id="Trazado_263448" data-name="Trazado 263448" d="M230.194,200.3a.885.885,0,0,0-.894.894v10.047a.894.894,0,0,0,1.788,0V201.194A.885.885,0,0,0,230.194,200.3Z" transform="translate(-144.813 -128.714)" fill="#231f20"/>
      <path id="Trazado_263449" data-name="Trazado 263449" d="M186.094,200.3a.885.885,0,0,0-.894.894v10.047a.894.894,0,0,0,1.788,0V201.194A.908.908,0,0,0,186.094,200.3Z" transform="translate(-116.481 -128.714)" fill="#231f20"/>
      <path id="Trazado_263450" data-name="Trazado 263450" d="M112.569,198.962h0L111.5,179.976a4.307,4.307,0,0,0-3.254-3.933l-6.615-1.681-3.969-1.931a.887.887,0,0,0-1.18.393c0,.036-.036.072-.036.107l-1.287,3.683H91.438l-1.287-3.683a.888.888,0,0,0-1.144-.536c-.036,0-.072.036-.107.036l-3.969,1.931-6.615,1.681a4.307,4.307,0,0,0-3.254,3.933l-1.073,18.986a3.117,3.117,0,0,0,2.932,3.29h32.466a3.113,3.113,0,0,0,3.111-3.111.2.2,0,0,0,.072-.179Zm-2.145,1.073a1.417,1.417,0,0,1-.965.429H77.136a1.32,1.32,0,0,1-1.323-1.323v-.072l1.073-18.986a2.479,2.479,0,0,1,1.9-2.288l6.722-1.681c.072,0,.107-.036.179-.072l3.146-1.537,1.037,2.968a1.476,1.476,0,0,0,1.394.965h4.183a1.511,1.511,0,0,0,1.394-.965l1.037-2.968,3.146,1.537c.072.036.107.036.179.072l6.722,1.681a2.514,2.514,0,0,1,1.9,2.288l1.073,18.986a2.213,2.213,0,0,1-.465.965Z" transform="translate(-45.03 -110.75)" fill="#231f20"/>
      <path id="Trazado_263451" data-name="Trazado 263451" d="M150.761,123.4a4.845,4.845,0,0,0-.715.072.867.867,0,0,0-.751.93c0,.179.036.358.036.536v5.971a2.707,2.707,0,0,1-.036.536.867.867,0,0,0,.751.93,4.491,4.491,0,1,0,1.43-8.867,1.744,1.744,0,0,0-.715-.107Zm.322,7.187v-5.4a2.721,2.721,0,0,1,0,5.4Z" transform="translate(-93.412 -79.31)" fill="#231f20"/>
      <path id="Trazado_263452" data-name="Trazado 263452" d="M95.361,124.863a2.706,2.706,0,0,1,.036-.536.867.867,0,0,0-.751-.93,4.491,4.491,0,0,0-1.43,8.867,3.611,3.611,0,0,0,1.43,0,.867.867,0,0,0,.751-.93c0-.179-.036-.358-.036-.536Zm-1.788,5.685a2.721,2.721,0,0,1,0-5.4Z" transform="translate(-54.96 -79.272)" fill="#231f20"/>
      <path id="Trazado_263453" data-name="Trazado 263453" d="M119.929,115.626a1.343,1.343,0,0,0-1.323-1.323,8.178,8.178,0,0,1-5.614-2,1.393,1.393,0,0,0-1.931,0l-.107.107a8.4,8.4,0,0,1-8.51,2.753,1.378,1.378,0,0,0-1.609,1.037.787.787,0,0,0-.036.286v6.937a9.547,9.547,0,0,0,19.093,0v-7.687Zm-1.788,7.866a7.759,7.759,0,1,1-15.518,0h0v-6.436c1.9.286,6.293.5,9.439-3.146a9.9,9.9,0,0,0,6.043,2.181v7.4Z" transform="translate(-62.259 -71.93)" fill="#231f20"/>
      <path id="Trazado_263454" data-name="Trazado 263454" d="M112.229,91.116a5.53,5.53,0,0,0-2.253.465,5.952,5.952,0,0,0-4.505-2.181h-2.539A9.85,9.85,0,0,0,93.1,99.233v4a.885.885,0,0,0,.894.894,1.08,1.08,0,0,0,.572-.179,2.633,2.633,0,0,1,2.11-.572.917.917,0,0,0,1.037-.751v-.036a10.311,10.311,0,0,0,9.475-3.146,9.9,9.9,0,0,0,6.043,2.181v.858a.885.885,0,0,0,.894.894h.143a1.741,1.741,0,0,1,.429-.036,2.805,2.805,0,0,1,1.9.751.864.864,0,0,0,1.251-.036,1.014,1.014,0,0,0,.25-.608V96.944A5.883,5.883,0,0,0,112.229,91.116Zm4.04,10.727a4.84,4.84,0,0,0-1.287-.286v-.393a1.343,1.343,0,0,0-1.323-1.323,8.178,8.178,0,0,1-5.614-2,1.393,1.393,0,0,0-1.931,0l-.107.107A8.4,8.4,0,0,1,97.5,100.7a1.341,1.341,0,0,0-1.144.286,1.169,1.169,0,0,0-.393.536,5.531,5.531,0,0,0-1.108.215V99.2a8.08,8.08,0,0,1,8.045-8.045h2.539a4.022,4.022,0,0,1,3.468,1.967.882.882,0,0,0,1.216.322h0a4.054,4.054,0,0,1,5.542,1.359,3.983,3.983,0,0,1,.572,2.11Z" transform="translate(-57.312 -57.467)" fill="#231f20"/>
      <path id="Trazado_263455" data-name="Trazado 263455" d="M127.054,197.935a.96.96,0,0,0-.822-.25c-.072,0-.107.036-.179.036-.072.036-.107.036-.143.072s-.107.072-.143.107a.494.494,0,0,0-.107.143.271.271,0,0,0-.072.143.322.322,0,0,0-.036.179.609.609,0,0,0,0,.358c0,.072.036.107.036.179.036.036.036.107.072.143s.072.107.107.143a.494.494,0,0,0,.143.107.271.271,0,0,0,.143.072.322.322,0,0,0,.179.036c.072,0,.107.036.179.036a.885.885,0,0,0,.894-.894.933.933,0,0,0-.25-.608Z" transform="translate(-78.143 -127.028)" fill="#231f20"/>
      <path id="Trazado_263456" data-name="Trazado 263456" d="M127.054,210.835a.96.96,0,0,0-.822-.25c-.072,0-.107.036-.179.036-.036.036-.107.036-.143.072s-.107.072-.143.107a.494.494,0,0,0-.107.143.271.271,0,0,0-.072.143.322.322,0,0,0-.036.179.609.609,0,0,0,0,.358c0,.072.036.107.036.179.036.036.036.107.072.143s.072.107.107.143a.494.494,0,0,0,.143.107.271.271,0,0,0,.143.072.322.322,0,0,0,.179.036.322.322,0,0,1,.179.036,1.028,1.028,0,0,0,.644-.25A.932.932,0,0,0,127.054,210.835Z" transform="translate(-78.143 -135.315)" fill="#231f20"/>
      <path id="Trazado_263457" data-name="Trazado 263457" d="M127.054,223.735a.96.96,0,0,0-.822-.25c-.072,0-.107.036-.179.036-.072.036-.107.036-.143.072s-.107.072-.143.107a.494.494,0,0,0-.107.143.271.271,0,0,0-.072.143.322.322,0,0,0-.036.179.609.609,0,0,0,0,.358c0,.072.036.107.036.179.036.036.036.107.072.143s.072.107.107.143a.493.493,0,0,0,.143.107.271.271,0,0,0,.143.072.322.322,0,0,0,.179.036.322.322,0,0,1,.179.036,1.028,1.028,0,0,0,.644-.25A.932.932,0,0,0,127.054,223.735Z" transform="translate(-78.143 -143.603)" fill="#231f20"/>
      <path id="Trazado_263458" data-name="Trazado 263458" d="M127.054,236.635a.96.96,0,0,0-.822-.25c-.072,0-.107.036-.179.036-.072.036-.107.036-.143.072s-.107.072-.143.107a.494.494,0,0,0-.107.143.271.271,0,0,0-.072.143.322.322,0,0,0-.036.179.609.609,0,0,0,0,.358c0,.072.036.107.036.179.036.036.036.107.072.143s.072.107.107.143a.494.494,0,0,0,.143.107.271.271,0,0,0,.143.072.322.322,0,0,0,.179.036h.179a.885.885,0,0,0,.894-.894,1.012,1.012,0,0,0-.25-.572Z" transform="translate(-78.143 -151.891)" fill="#231f20"/>
      <path id="Trazado_263459" data-name="Trazado 263459" d="M154.694,214.6a.885.885,0,0,0-.894.894v13.015a.894.894,0,0,0,1.788,0V215.494A.885.885,0,0,0,154.694,214.6Z" transform="translate(-96.308 -137.901)" fill="#231f20"/>
      <path id="Trazado_263460" data-name="Trazado 263460" d="M97.394,214.6a.885.885,0,0,0-.894.894v13.015a.894.894,0,0,0,1.788,0V215.494A.885.885,0,0,0,97.394,214.6Z" transform="translate(-59.496 -137.901)" fill="#231f20"/>
      <path id="Trazado_263461" data-name="Trazado 263461" d="M123.568,163.159a.812.812,0,0,0-.894,0,7.82,7.82,0,0,1-3.683.93,7.737,7.737,0,0,1-3.468-.822.94.94,0,0,0-1.216.393.721.721,0,0,0-.107.393v3.182a.7.7,0,0,0,.036.286l1.359,3.9a1.476,1.476,0,0,0,1.394.965h4.183a1.511,1.511,0,0,0,1.394-.965l1.359-3.9a.787.787,0,0,0,.036-.286V163.91A.72.72,0,0,0,123.568,163.159Zm-1.359,3.933-1.251,3.54h-3.719l-1.251-3.54v-1.716a9.891,9.891,0,0,0,6.186-.072Z" transform="translate(-70.867 -104.767)" fill="#231f20"/>
      <path id="Trazado_263462" data-name="Trazado 263462" d="M39.16,128.737a1.7,1.7,0,0,0-1.216-.5h0v0a5.731,5.731,0,0,1-4.469-2.145,1.692,1.692,0,0,0-2.36-.25.835.835,0,0,0-.25.25,5.765,5.765,0,0,1-4.648,2.145A1.539,1.539,0,0,0,25,128.7a1.7,1.7,0,0,0-.5,1.216v3a7.74,7.74,0,0,0,6.829,7.687,5.036,5.036,0,0,0,.715.036,7.584,7.584,0,0,0,7.58-7.58v-3.146A1.42,1.42,0,0,0,39.16,128.737Zm-1.287,4.291a5.767,5.767,0,0,1-6.329,5.721,5.948,5.948,0,0,1-5.22-5.9v-2.86a7.524,7.524,0,0,0,5.864-2.682,7.391,7.391,0,0,0,5.685,2.682Z" transform="translate(-13.24 -80.642)" fill="#231f20"/>
      <path id="Trazado_263463" data-name="Trazado 263463" d="M26.376,102.3A10.468,10.468,0,0,0,15.9,112.776v6.615a10.215,10.215,0,0,0,.965,4.362,3.438,3.438,0,0,0,3.075,1.967h3.683a.885.885,0,0,0,.894-.894v-.715a.857.857,0,0,0-.5-.787A6.019,6.019,0,0,1,20.8,118v-2.86a7.524,7.524,0,0,0,5.864-2.682,7.391,7.391,0,0,0,5.685,2.682v3a5.8,5.8,0,0,1-3.039,5.077.888.888,0,0,0-.465.787v.822a.885.885,0,0,0,.894.894h3.075a3.376,3.376,0,0,0,3.075-1.967,10.215,10.215,0,0,0,.965-4.362v-6.615A10.514,10.514,0,0,0,26.376,102.3Zm8.653,17.091A8.991,8.991,0,0,1,34.243,123a1.578,1.578,0,0,1-1.466.93H31.418a7.475,7.475,0,0,0,2.682-5.757v-3.146a1.683,1.683,0,0,0-.5-1.18,1.7,1.7,0,0,0-1.216-.5,5.731,5.731,0,0,1-4.469-2.145,1.692,1.692,0,0,0-2.36-.25.835.835,0,0,0-.25.25,5.765,5.765,0,0,1-4.648,2.145,1.539,1.539,0,0,0-1.216.465,1.7,1.7,0,0,0-.5,1.216v3a7.878,7.878,0,0,0,2.717,5.935H19.869a1.655,1.655,0,0,1-1.466-.93,8.429,8.429,0,0,1-.787-3.611v-6.615a8.689,8.689,0,0,1,17.377,0v6.579Z" transform="translate(-7.715 -65.754)" fill="#231f20"/>
      <path id="Trazado_263464" data-name="Trazado 263464" d="M44.394,177a.885.885,0,0,0-.894.894v4a.894.894,0,1,0,1.788,0v-4A.885.885,0,0,0,44.394,177Z" transform="translate(-25.446 -113.745)" fill="#231f20"/>
      <path id="Trazado_263465" data-name="Trazado 263465" d="M216.676,198h-2.682a.894.894,0,1,0,0,1.788h2.682a.885.885,0,0,0,.894-.894A.908.908,0,0,0,216.676,198Z" transform="translate(-134.405 -127.236)" fill="#231f20"/>
      <path id="Trazado_263466" data-name="Trazado 263466" d="M191.69,99c-5.614,0-10.19,4.291-10.19,9.582v2.968a.885.885,0,0,0,.894.894.849.849,0,0,0,.429-.107,2.58,2.58,0,0,1,1.144-.286.99.99,0,0,1,.322.036.892.892,0,0,0,.965-.536,4.506,4.506,0,0,0,2.074-3.361v-.072a.5.5,0,0,1,.179-.358.569.569,0,0,1,.465-.107,17.389,17.389,0,0,0,7.437,0,.516.516,0,0,1,.465.107.44.44,0,0,1,.179.358v.072a4.506,4.506,0,0,0,2.074,3.361.887.887,0,0,0,.965.536c.107,0,.215-.036.322-.036a2.58,2.58,0,0,1,1.144.286.882.882,0,0,0,1.216-.322.952.952,0,0,0,.107-.429v-2.968C201.881,103.291,197.3,99,191.69,99Zm8.4,11.3a3.94,3.94,0,0,0-.644-.072l-.036-.036c-.429-.25-1.537-1.073-1.537-2.074a2.285,2.285,0,0,0-2.825-2.253,15.863,15.863,0,0,1-6.615,0,2.26,2.26,0,0,0-2,.465,2.207,2.207,0,0,0-.822,1.824c0,.965-1.108,1.788-1.537,2.038l-.036.036a3.94,3.94,0,0,0-.644.072v-1.716c0-4.291,3.754-7.795,8.4-7.795s8.4,3.5,8.4,7.795Z" transform="translate(-114.104 -63.634)" fill="#231f20"/>
      <path id="Trazado_263467" data-name="Trazado 263467" d="M206.444,162.221a.912.912,0,0,0-.858-.072,6.745,6.745,0,0,1-3.361.536,6.821,6.821,0,0,1-2.074-.536.876.876,0,0,0-1.18.465,1.27,1.27,0,0,0-.072.358v2.038a.7.7,0,0,0,.036.286l1.037,3a1.31,1.31,0,0,0,1.251.894h3.218a1.31,1.31,0,0,0,1.251-.894l1.037-3a.787.787,0,0,0,.036-.286v-2A.7.7,0,0,0,206.444,162.221Zm-1.394,2.61-.894,2.574h-2.574l-.894-2.574v-.608a9.518,9.518,0,0,0,1.394.25,8.3,8.3,0,0,0,2.968-.25Z" transform="translate(-125.282 -104.151)" fill="#231f20"/>
      <path id="Trazado_263468" data-name="Trazado 263468" d="M206.232,147.11l-1.394-.572a1.875,1.875,0,0,0-2,.358.173.173,0,0,1-.25,0,2.043,2.043,0,0,0-2-.358l-1.394.572a.883.883,0,1,0,.644,1.645h0l1.394-.572a.157.157,0,0,1,.179.036,1.958,1.958,0,0,0,2.574,0,.157.157,0,0,1,.179-.036l1.394.572a.87.87,0,0,0,1.144-.5.828.828,0,0,0-.465-1.144Z" transform="translate(-125.105 -94.081)" fill="#231f20"/>
      <path id="Trazado_263469" data-name="Trazado 263469" d="M199.947,188.212h0l-.644-11.3a7.692,7.692,0,0,0-5.828-7.044l-2.11-.536-3.039-1.5a.887.887,0,0,0-1.18.393c0,.036-.036.072-.036.107l-.93,2.717h-2.574l-.93-2.717a.888.888,0,0,0-1.144-.536c-.036,0-.072.036-.107.036l-3.039,1.5-2.11.536a7.75,7.75,0,0,0-5.292,4.648.891.891,0,0,0,.215.965,2.446,2.446,0,0,1,.751,1.681l.751,13.229a.928.928,0,0,0,.894.858h23.491a2.869,2.869,0,0,0,2.86-2.86v-.179Zm-2.074.894a1.051,1.051,0,0,1-.787.322H174.453l-.679-12.407a4.094,4.094,0,0,0-.894-2.36,5.971,5.971,0,0,1,3.862-3.075l2.181-.536c.072,0,.107-.036.179-.072l2.217-1.073.715,2.074a1.31,1.31,0,0,0,1.251.894H186.5a1.31,1.31,0,0,0,1.251-.894l.715-2.074,2.217,1.073c.072.036.107.036.179.072l2.181.536a5.942,5.942,0,0,1,4.469,5.4l.644,11.3a.981.981,0,0,1-.286.822Z" transform="translate(-107.307 -107.795)" fill="#231f20"/>
      <path id="Trazado_263470" data-name="Trazado 263470" d="M32.821,174.418a7.75,7.75,0,0,0-5.292-4.648l-2.11-.536-3.039-1.5a.887.887,0,0,0-1.18.393c0,.036-.036.072-.036.107l-.93,2.717H17.66l-.93-2.717a.888.888,0,0,0-1.144-.536c-.036,0-.072.036-.107.036l-3.039,1.5-2.11.536A7.692,7.692,0,0,0,4.5,176.813l-.608,11.334a2.844,2.844,0,0,0,2.682,3H30.21a.9.9,0,0,0,.894-.858l.751-13.23h0a2.7,2.7,0,0,1,.751-1.681A.82.82,0,0,0,32.821,174.418Zm-2.753,2.539-.679,12.407H6.755a1.076,1.076,0,0,1-1.073-1.073v-.072l.644-11.3a5.872,5.872,0,0,1,4.469-5.4l2.181-.536c.072,0,.107-.036.179-.072l2.217-1.073.715,2.074a1.31,1.31,0,0,0,1.251.894h3.218a1.31,1.31,0,0,0,1.251-.894l.715-2.074,2.217,1.073c.072.036.107.036.179.072l2.181.536a5.971,5.971,0,0,1,3.862,3.075,4.094,4.094,0,0,0-.894,2.36Z" transform="translate(0 -107.73)" fill="#231f20"/>
    </g>
  </g>
</svg>
