<svg xmlns="http://www.w3.org/2000/svg" width="251.5" height="225.205" viewBox="0 0 251.5 225.205">
  <g id="g9154" transform="translate(0 -35.688)">
    <g id="g9160" transform="translate(23.546 39.372)">
      <g id="path9162" transform="translate(0 0)">
        <path id="Trazado_263727" data-name="Trazado 263727" d="M126.66,45.688h-25.78a17.025,17.025,0,0,0-15.7,10.45H79.443a15.53,15.53,0,0,0-15.53,15.53v46.337h87.9V70.838a25.15,25.15,0,0,0-25.151-25.15" transform="translate(-63.913 -45.688)" fill="#785252"/>
      </g>
    </g>
    <g id="g9164" transform="translate(19.862 35.688)">
      <g id="path9166">
        <path id="Trazado_263728" data-name="Trazado 263728" d="M145.5,115.373H57.6a3.684,3.684,0,0,1-3.684-3.684v-22.5a3.684,3.684,0,0,1,7.368,0V108h80.529V64.522a21.49,21.49,0,0,0-21.466-21.466H94.565a13.312,13.312,0,0,0-12.307,8.189,3.684,3.684,0,0,1-3.4,2.261H73.128A11.859,11.859,0,0,0,61.282,65.352V72a3.684,3.684,0,0,1-7.368,0V65.352A19.235,19.235,0,0,1,73.128,46.138h3.446a20.656,20.656,0,0,1,17.992-10.45h25.78A28.867,28.867,0,0,1,149.18,64.522v47.167A3.684,3.684,0,0,1,145.5,115.373Z" transform="translate(-53.914 -35.688)"/>
      </g>
    </g>
    <g id="path9168" transform="translate(53.926 123.707)">
      <path id="Trazado_263729" data-name="Trazado 263729" d="M146.375,321.554h27.137V274.6H146.375Z" transform="translate(-146.375 -274.604)" fill="#ffcdbe"/>
    </g>
    <g id="g9170" transform="translate(53.926 123.707)">
      <g id="path9172">
        <path id="Trazado_263730" data-name="Trazado 263730" d="M173.512,274.6H146.375v32.11a27.857,27.857,0,0,0,11.94,2.675h3.254a27.854,27.854,0,0,0,11.943-2.676Z" transform="translate(-146.375 -274.604)" fill="#ebae9d"/>
      </g>
    </g>
    <g id="path9174" transform="translate(50.242 120.023)">
      <path id="Trazado_263731" data-name="Trazado 263731" d="M167.2,318.922H140.059a3.684,3.684,0,0,1-3.684-3.684v-46.95a3.684,3.684,0,0,1,3.684-3.684H167.2a3.684,3.684,0,0,1,3.684,3.684v46.95A3.684,3.684,0,0,1,167.2,318.922Zm-23.453-7.368h19.769V271.972H143.743Z" transform="translate(-136.375 -264.604)"/>
    </g>
    <g id="g9176" transform="translate(18.665 101.427)">
      <g id="path9178">
        <path id="Trazado_263732" data-name="Trazado 263732" d="M50.663,223.639a9.512,9.512,0,0,0,9.512,9.512h78.638a9.511,9.511,0,0,0,0-19.023H60.175a9.511,9.511,0,0,0-9.512,9.511" transform="translate(-50.663 -214.128)" fill="#ffcdbe"/>
      </g>
    </g>
    <g id="g9180" transform="translate(14.981 97.743)">
      <g id="path9182" transform="translate(0 0)">
        <path id="Trazado_263733" data-name="Trazado 263733" d="M132.5,230.519H53.859a13.2,13.2,0,0,1,0-26.391H132.5a13.2,13.2,0,0,1,0,26.391ZM53.859,211.5a5.827,5.827,0,0,0,0,11.655H132.5a5.827,5.827,0,0,0,0-11.655Z" transform="translate(-40.664 -204.128)"/>
      </g>
    </g>
    <g id="g9184" transform="translate(37.903 67.181)">
      <g id="path9186" transform="translate(0 0)">
        <path id="Trazado_263734" data-name="Trazado 263734" d="M162.067,134.343V174.69A27.968,27.968,0,0,1,134.1,202.658h-3.253a27.963,27.963,0,0,1-27.963-27.964V128.881a7.71,7.71,0,0,1,7.709-7.71h4.82a10.12,10.12,0,0,1,4.77,1.211,71.936,71.936,0,0,0,37.956,8.282,3.694,3.694,0,0,1,3.929,3.679" transform="translate(-102.883 -121.171)" fill="#ffcdbe"/>
      </g>
    </g>
    <g id="g9188" transform="translate(34.218 63.497)">
      <g id="path9190" transform="translate(0 0)">
        <path id="Trazado_263735" data-name="Trazado 263735" d="M127.783,200.026h-3.253a31.683,31.683,0,0,1-31.647-31.647V122.565a11.407,11.407,0,0,1,11.394-11.394h4.82a13.856,13.856,0,0,1,6.506,1.646,68.668,68.668,0,0,0,36,7.854,7.378,7.378,0,0,1,7.832,7.357v40.346A31.688,31.688,0,0,1,127.783,200.026Zm-23.507-81.486a4.03,4.03,0,0,0-4.026,4.026v45.813a24.307,24.307,0,0,0,24.279,24.279h3.253a24.311,24.311,0,0,0,24.284-24.284V128.021a76.127,76.127,0,0,1-39.938-8.707,6.465,6.465,0,0,0-3.032-.775Z" transform="translate(-92.882 -111.171)"/>
      </g>
    </g>
    <g id="g9192" transform="translate(56.393 123.593)">
      <g id="path9194">
        <path id="Trazado_263736" data-name="Trazado 263736" d="M164.75,284.452h-1.155a13.46,13.46,0,0,1-9.4-3.827,3.684,3.684,0,1,1,5.125-5.294,6.13,6.13,0,0,0,4.277,1.752h1.155a6.128,6.128,0,0,0,4.277-1.753,3.684,3.684,0,1,1,5.125,5.294A13.461,13.461,0,0,1,164.75,284.452Z" transform="translate(-153.071 -274.294)"/>
      </g>
    </g>
    <g id="g9196" transform="translate(3.684 167.491)">
      <g id="path9198" transform="translate(0 0)">
        <path id="Trazado_263737" data-name="Trazado 263737" d="M137.622,411.589v66.558H32.632V443.454H10V411.589a18.14,18.14,0,0,1,18.137-18.137h91.348a18.14,18.14,0,0,1,18.137,18.137" transform="translate(-10 -393.452)" fill="#e5936a"/>
      </g>
    </g>
    <g id="g9200" transform="translate(108.673 167.491)">
      <g id="path9202" transform="translate(0 0)">
        <path id="Trazado_263738" data-name="Trazado 263738" d="M299.475,393.452a4.5,4.5,0,0,0-4.5,4.5v80.2h22.634V411.589a18.137,18.137,0,0,0-18.137-18.137" transform="translate(-294.979 -393.452)" fill="#e27c48"/>
      </g>
    </g>
    <g id="g9204" transform="translate(104.989 224.264)">
      <g id="path9206">
        <path id="Trazado_263739" data-name="Trazado 263739" d="M288.663,579.161a3.684,3.684,0,0,1-3.684-3.684V551.238a3.684,3.684,0,0,1,7.368,0v24.239A3.684,3.684,0,0,1,288.663,579.161Z" transform="translate(-284.979 -547.554)"/>
      </g>
    </g>
    <g id="g9208" transform="translate(0 163.807)">
      <g id="path9210" transform="translate(0 0)">
        <path id="Trazado_263740" data-name="Trazado 263740" d="M131.306,475.515H26.316a3.684,3.684,0,0,1-3.684-3.684V440.821H3.684A3.684,3.684,0,0,1,0,437.137V405.273a21.846,21.846,0,0,1,21.821-21.822h91.348a21.846,21.846,0,0,1,21.821,21.822v66.558A3.685,3.685,0,0,1,131.306,475.515ZM30,468.147h97.622V405.273a14.47,14.47,0,0,0-14.453-14.453H21.821A14.47,14.47,0,0,0,7.368,405.273v28.181H26.316A3.684,3.684,0,0,1,30,437.137Z" transform="translate(0 -383.451)"/>
      </g>
    </g>
    <g id="g9212" transform="translate(131.553 62.744)">
      <g id="path9214" transform="translate(0 0)">
        <path id="Trazado_263741" data-name="Trazado 263741" d="M357.085,109.129v80.244a2.456,2.456,0,0,0,2.456,2.456H463.525a2.456,2.456,0,0,0,2.456-2.456V109.129Z" transform="translate(-357.085 -109.129)" fill="#ddebfd"/>
      </g>
    </g>
    <g id="g9216" transform="translate(131.553 130.703)">
      <g id="path9218">
        <path id="Trazado_263742" data-name="Trazado 263742" d="M463.525,296.05H359.541a2.456,2.456,0,0,1-2.456-2.456V305.88a2.456,2.456,0,0,0,2.456,2.456H463.525a2.456,2.456,0,0,0,2.456-2.456V293.594a2.456,2.456,0,0,1-2.456,2.456" transform="translate(-357.085 -293.594)" fill="#bed9fd"/>
      </g>
    </g>
    <g id="g9220" transform="translate(127.869 59.06)">
      <g id="path9222" transform="translate(0 0)">
        <path id="Trazado_263743" data-name="Trazado 263743" d="M457.21,189.2H353.225a6.147,6.147,0,0,1-6.14-6.14V102.813a3.684,3.684,0,0,1,3.684-3.684h108.9a3.684,3.684,0,0,1,3.684,3.684v80.244A6.147,6.147,0,0,1,457.21,189.2Zm-102.756-7.368H455.981V106.5H354.453Z" transform="translate(-347.085 -99.129)"/>
      </g>
    </g>
    <g id="g9224" transform="translate(124.187 50.978)">
      <g id="path9226" transform="translate(0 0)">
        <path id="Trazado_263744" data-name="Trazado 263744" d="M337.09,86.5V79.648a2.456,2.456,0,0,1,2.456-2.456H458.263a2.456,2.456,0,0,1,2.456,2.456V86.5a2.456,2.456,0,0,1-2.456,2.456H339.546A2.456,2.456,0,0,1,337.09,86.5" transform="translate(-337.09 -77.192)" fill="#80b6fc"/>
      </g>
    </g>
    <g id="g9228" transform="translate(120.503 47.294)">
      <g id="path9230">
        <path id="Trazado_263745" data-name="Trazado 263745" d="M451.948,86.326H333.23a6.147,6.147,0,0,1-6.14-6.14V73.332a6.147,6.147,0,0,1,6.14-6.14H451.948a6.147,6.147,0,0,1,6.14,6.14v6.854A6.147,6.147,0,0,1,451.948,86.326ZM334.458,78.958H450.719v-4.4H334.458Z" transform="translate(-327.09 -67.192)"/>
      </g>
    </g>
    <g id="g9232" transform="translate(3.684 167.491)">
      <g id="path9234" transform="translate(0 0)">
        <path id="Trazado_263746" data-name="Trazado 263746" d="M82.049,427.242l-49.415,28.53V397.948a4.5,4.5,0,0,0-4.5-4.5A18.14,18.14,0,0,0,10,411.573v56.965a14.631,14.631,0,0,0,14.632,14.632h1.893a14.628,14.628,0,0,0,7.316-1.961l59.524-34.366Z" transform="translate(-10.001 -393.452)" fill="#e27c48"/>
      </g>
    </g>
    <g id="g9236" transform="translate(6.03 215.763)">
      <g id="path9238">
        <path id="Trazado_263747" data-name="Trazado 263747" d="M93.065,525.27,33.541,559.636a14.634,14.634,0,0,1-7.316,1.96H24.333a14.556,14.556,0,0,1-7.964-2.36,14.616,14.616,0,0,0,12.286,6.69h1.893a14.624,14.624,0,0,0,7.316-1.961L97.387,529.6l-2.956-5.118Z" transform="translate(-16.369 -524.481)" fill="#df6937"/>
      </g>
    </g>
    <g id="g9240" transform="translate(0 163.807)">
      <g id="path9242">
        <path id="Trazado_263748" data-name="Trazado 263748" d="M20.209,480.538H18.317A18.337,18.337,0,0,1,0,462.222V405.257a21.85,21.85,0,0,1,21.82-21.8H29.7a3.684,3.684,0,1,1,0,7.368H21.821A14.472,14.472,0,0,0,7.369,405.26v56.962a10.96,10.96,0,0,0,10.948,10.948h1.893a10.96,10.96,0,0,0,5.474-1.467L58.62,452.687a3.684,3.684,0,0,1,3.684,6.381L29.368,478.083A18.337,18.337,0,0,1,20.209,480.538Z" transform="translate(-0.001 -383.452)"/>
      </g>
    </g>
    <g id="g9244" transform="translate(22.634 197.597)">
      <g id="path9246">
        <path id="Trazado_263749" data-name="Trazado 263749" d="M65.12,511.068a3.684,3.684,0,0,1-3.684-3.684v-17.23a3.684,3.684,0,1,1,7.368,0V501l43.888-25.339a3.684,3.684,0,0,1,5.033,1.348l11.316,19.6a3.684,3.684,0,0,1-1.348,5.032l-11.317,6.534a3.684,3.684,0,0,1-3.684-6.381l8.126-4.691-7.633-13.22L66.962,510.575A3.679,3.679,0,0,1,65.12,511.068Z" transform="translate(-61.436 -475.17)"/>
      </g>
    </g>
    <g id="g9248" transform="translate(96.973 126.382)">
      <g id="path9250">
        <path id="Trazado_263750" data-name="Trazado 263750" d="M266.9,360.726a3.685,3.685,0,0,1-2.94-5.9l53.851-71.491a3.684,3.684,0,1,1,5.885,4.433l-53.851,71.492A3.678,3.678,0,0,1,266.9,360.726Z" transform="translate(-263.222 -281.865)"/>
      </g>
    </g>
    <g id="g9252" transform="translate(75.732 190.233)">
      <g id="path9254">
        <path id="Trazado_263751" data-name="Trazado 263751" d="M205.566,466.23l16.508-9.531a11.317,11.317,0,1,1,11.317,19.6l-16.508,9.531Z" transform="translate(-205.566 -455.181)" fill="#ffcdbe"/>
      </g>
    </g>
    <g id="g9256" transform="translate(84.094 191.687)">
      <g id="path9258">
        <path id="Trazado_263752" data-name="Trazado 263752" d="M251.867,463.334a11.266,11.266,0,0,0-4.255-4.206,11.314,11.314,0,0,1-4.209,15.335L228.262,483.2l2.955,5.119,16.508-9.53a11.317,11.317,0,0,0,4.142-15.459" transform="translate(-228.262 -459.128)" fill="#ebae9d"/>
      </g>
    </g>
    <g id="g9260" transform="translate(72.048 186.553)">
      <g id="path9262">
        <path id="Trazado_263753" data-name="Trazado 263753" d="M210.569,483.207a3.682,3.682,0,0,1-3.194-1.843l-11.317-19.6a3.684,3.684,0,0,1,1.348-5.032l16.508-9.531a15,15,0,1,1,15,25.982l-16.507,9.531A3.669,3.669,0,0,1,210.569,483.207Zm-6.287-21.937,7.632,13.22,13.317-7.689a7.633,7.633,0,1,0-7.632-13.22Z" transform="translate(-195.565 -445.194)"/>
      </g>
    </g>
    <g id="g9264" transform="translate(67.495 167.491)">
      <g id="path9266" transform="translate(0 0)">
        <path id="Trazado_263754" data-name="Trazado 263754" d="M183.208,393.452l9.047,15.194a2.457,2.457,0,0,0,3.732.588l17.955-15.782Z" transform="translate(-183.208 -393.452)" fill="#4980ac"/>
      </g>
    </g>
    <g id="g9268" transform="translate(36.762 167.491)">
      <g id="path9270" transform="translate(0 0)">
        <path id="Trazado_263755" data-name="Trazado 263755" d="M130.519,393.452l-9.047,15.194a2.457,2.457,0,0,1-3.732.588L99.786,393.452Z" transform="translate(-99.786 -393.452)" fill="#4980ac"/>
      </g>
    </g>
    <g id="g9272" transform="translate(63.811 163.807)">
      <g id="path9274">
        <path id="Trazado_263756" data-name="Trazado 263756" d="M188.055,407.214a6.147,6.147,0,0,1-5.282-3l-9.047-15.194a3.684,3.684,0,0,1,3.166-5.569h30.733a3.684,3.684,0,0,1,2.432,6.451L192.1,405.685A6.121,6.121,0,0,1,188.055,407.214Zm-4.682-16.394,4.975,8.355,9.505-8.355Z" transform="translate(-173.207 -383.452)"/>
      </g>
    </g>
    <g id="g9276" transform="translate(33.078 163.807)">
      <g id="path9278">
        <path id="Trazado_263757" data-name="Trazado 263757" d="M113.04,407.214a6.122,6.122,0,0,1-4.047-1.527L91.038,389.9a3.684,3.684,0,0,1,2.432-6.451H124.2a3.684,3.684,0,0,1,3.165,5.569l-9.047,15.194a6.148,6.148,0,0,1-5.282,3Zm-9.8-16.394,9.505,8.356,4.975-8.356Z" transform="translate(-89.786 -383.452)"/>
      </g>
    </g>
    <g id="g9280" transform="translate(182.835 141.76)">
      <g id="path9282">
        <path id="Trazado_263758" data-name="Trazado 263758" d="M499.968,343.076a3.684,3.684,0,0,1-3.684-3.684v-12.1a3.684,3.684,0,1,1,7.368,0v12.1A3.684,3.684,0,0,1,499.968,343.076Z" transform="translate(-496.284 -323.609)"/>
      </g>
    </g>
    <g id="g9284" transform="translate(174.96 153.859)">
      <g id="path9286">
        <path id="Trazado_263759" data-name="Trazado 263759" d="M486.468,379.568a11.559,11.559,0,1,1,11.558-11.559A11.572,11.572,0,0,1,486.468,379.568Zm0-15.75a4.191,4.191,0,1,0,4.19,4.191A4.2,4.2,0,0,0,486.468,363.818Z" transform="translate(-474.909 -356.45)"/>
      </g>
    </g>
  </g>
</svg>
