<svg id="entusiasmado" xmlns="http://www.w3.org/2000/svg" width="93.523" height="93.523" viewBox="0 0 93.523 93.523">
  <g id="Grupo_156864" data-name="Grupo 156864" transform="translate(1.508 1.508)">
    <g id="Grupo_156847" data-name="Grupo 156847" transform="translate(32.271 45.253)">
      <path id="Trazado_263507" data-name="Trazado 263507" d="M189.115,263.092a9.057,9.057,0,0,0-5.576,2.232l-4.39,3.839,2.423-12.113,3.183-2.121a3.016,3.016,0,0,0,1.343-2.51V248h0a12.294,12.294,0,0,0,10.557,12.068v1.508a1.508,1.508,0,0,1-1.508,1.508H189.5c-.128,0-.256,0-.385.008Z" transform="translate(-179.15 -248)" fill="#b27946"/>
    </g>
    <g id="Grupo_156848" data-name="Grupo 156848" transform="translate(9.051 46.094)">
      <path id="Trazado_263508" data-name="Trazado 263508" d="M76.973,252.46l-10.629,24.8H61.468a5.92,5.92,0,0,1-4.184-1.733,4.385,4.385,0,0,1,1.139-7.022l1.588-.792a3.663,3.663,0,0,0,2.023-3.275V260.67a6.034,6.034,0,0,1,6.034-6.034h3.017A9.023,9.023,0,0,0,76.973,252.46Z" transform="translate(-56 -252.46)" fill="#b27946"/>
    </g>
    <g id="Grupo_156849" data-name="Grupo 156849" transform="translate(6.034 27.518)">
      <path id="Trazado_263509" data-name="Trazado 263509" d="M61.118,153.94v5.668a9.051,9.051,0,0,1-9.051,9.051H49.543a6.528,6.528,0,0,0-6.458,7.467,7.459,7.459,0,0,1,4.373-13.5h4.976A8.684,8.684,0,0,0,61.118,153.94Z" transform="translate(-40 -153.94)" fill="#b27946"/>
    </g>
    <g id="Grupo_156850" data-name="Grupo 156850" transform="translate(0 21.848)">
      <path id="Trazado_263510" data-name="Trazado 263510" d="M35.152,123.87v5.67a8.684,8.684,0,0,1-8.685,8.685H21.491a7.441,7.441,0,0,0-5.99,3.017l-4.484-3.017-1.143-1.143A6.4,6.4,0,0,1,14.4,126.157H27.61A13.511,13.511,0,0,0,35.152,123.87Z" transform="translate(-8 -123.87)" fill="#b27946"/>
    </g>
    <g id="Grupo_156851" data-name="Grupo 156851" transform="translate(9.051)">
      <path id="Trazado_263511" data-name="Trazado 263511" d="M81.461,48.911a4.522,4.522,0,0,0,2.327,1.241l-.026.145a3.1,3.1,0,0,0-.609-.06H80.616a3.018,3.018,0,0,0-2.774,1.829l-.869,2.029a9.023,9.023,0,0,1-5.889,2.176H68.068A6.035,6.035,0,0,0,62.034,62.3v3.771A3.665,3.665,0,0,0,60.011,62.8l-.4-.2a6.526,6.526,0,0,1,2.919-12.364h2.525A9.051,9.051,0,0,0,74.1,41.186V24.593a16.594,16.594,0,0,1,30.753-8.653v0a10.9,10.9,0,0,0-3.6,4.126,10.917,10.917,0,0,0-9.763-6.034h-2.3A17.975,17.975,0,0,0,86.169,24v.679l0,0a18.044,18.044,0,0,0-6.036,13.491v7.542a4.518,4.518,0,0,0,1.326,3.2Z" transform="translate(-56 -8)" fill="#b27946"/>
    </g>
    <g id="Grupo_156852" data-name="Grupo 156852" transform="translate(33.186 12.068)">
      <path id="Trazado_263512" data-name="Trazado 263512" d="M220.2,94.749a7.665,7.665,0,0,0-7.665-7.665h-2.979a7.183,7.183,0,0,1-6.426-3.973,3.73,3.73,0,0,0-7.065,1.669v2.3a6.035,6.035,0,0,0-6.034,6.034h-1.508A4.527,4.527,0,0,0,184,97.644V90.1A18.106,18.106,0,0,1,202.1,72h6.034a18.106,18.106,0,0,1,18.1,18.1v7.542a4.526,4.526,0,0,0-4.525-4.525H220.2Z" transform="translate(-184 -72)" fill="#b27946"/>
    </g>
    <g id="Grupo_156853" data-name="Grupo 156853" transform="translate(54.304 6.034)">
      <path id="Trazado_263513" data-name="Trazado 263513" d="M311.084,49.963v.679l0,0a18.023,18.023,0,0,0-12.066-4.61H296A10.929,10.929,0,0,1,305.763,40h2.3a17.975,17.975,0,0,1,3.017,9.963Z" transform="translate(-296 -40)" fill="#fcd770"/>
    </g>
    <g id="Grupo_156854" data-name="Grupo 156854" transform="translate(39.219 6.034)">
      <path id="Trazado_263514" data-name="Trazado 263514" d="M231.084,46.034h-3.017A18.023,18.023,0,0,0,216,50.644l0,0v-.679A17.976,17.976,0,0,1,219.017,40h2.3A10.917,10.917,0,0,1,231.084,46.034Z" transform="translate(-216 -40)" fill="#fcd770"/>
    </g>
    <g id="Grupo_156855" data-name="Grupo 156855" transform="translate(18.101 42.236)">
      <path id="Trazado_263515" data-name="Trazado 263515" d="M117.25,260.783l5.664,6.607-4.348,4.348A8.532,8.532,0,0,1,104,265.7a9.9,9.9,0,0,1,.8-3.89l.494-1.154h0l10.629-24.8.869-2.029A3.018,3.018,0,0,1,119.565,232H122.1a3.1,3.1,0,0,1,.609.06,3.018,3.018,0,0,1,2.408,2.957v4.42a3.016,3.016,0,0,1-1.343,2.51l-3.183,2.121L118.17,256.18Z" transform="translate(-104 -232)" fill="#f0d0b4"/>
    </g>
    <g id="Grupo_156856" data-name="Grupo 156856" transform="translate(72.017 45.253)">
      <path id="Trazado_263516" data-name="Trazado 263516" d="M398.465,272.844l3.931-12.776-2.133-2.133a3.018,3.018,0,0,1-.884-2.134v-4.784A3.016,3.016,0,0,1,402.4,248h3.017a3.016,3.016,0,0,1,3.017,3.017v29.464a6.738,6.738,0,0,1-10.876,5.319l-7.614-5.921,7.1-8.283Z" transform="translate(-389.94 -248)" fill="#f0d0b4"/>
    </g>
    <g id="Grupo_156857" data-name="Grupo 156857" transform="translate(69.388 33.186)">
      <path id="Trazado_263517" data-name="Trazado 263517" d="M377.508,184a4.525,4.525,0,0,1,0,9.051H376V184Z" transform="translate(-376 -184)" fill="#f0d0b4"/>
    </g>
    <g id="Grupo_156858" data-name="Grupo 156858" transform="translate(39.219 21.118)">
      <path id="Trazado_263518" data-name="Trazado 263518" d="M246.169,141.118v2.909A12.3,12.3,0,0,1,235.61,156.2v1.508a1.508,1.508,0,0,0,1.508,1.508,9.763,9.763,0,0,1-5.4,8.732l-.637.319-.637-.319a9.763,9.763,0,0,1-5.4-8.732,1.508,1.508,0,0,0,1.508-1.508V156.2A12.294,12.294,0,0,1,216,144.135c0-.036,0-.072,0-.107v-11.96a6.035,6.035,0,0,1,6.034-6.034v-2.3a3.729,3.729,0,0,1,7.065-1.669,7.183,7.183,0,0,0,6.426,3.973H238.5a7.665,7.665,0,0,1,7.665,7.665Z" transform="translate(-216 -120)" fill="#f0d0b4"/>
    </g>
    <g id="Grupo_156859" data-name="Grupo 156859" transform="translate(33.186 33.186)">
      <path id="Trazado_263519" data-name="Trazado 263519" d="M190.034,184v9.051h-1.508a4.448,4.448,0,0,1-.873-.085,4.525,4.525,0,0,1,.873-8.966Z" transform="translate(-184 -184)" fill="#f0d0b4"/>
    </g>
    <g id="Grupo_156860" data-name="Grupo 156860" transform="translate(31.351 60.345)">
      <path id="Trazado_263520" data-name="Trazado 263520" d="M182.15,343.106l-2.216,2.216-5.664-6.607.92-4.6,4.39-3.839a9.056,9.056,0,0,1,5.576-2.232,15.088,15.088,0,0,0,6.034,12.06l6.034-3.017,6.034,3.017a15.088,15.088,0,0,0,6.034-12.06,9.056,9.056,0,0,1,5.576,2.232l7.169,6.271-7.1,8.283-2.63-2.046a10.554,10.554,0,0,1-.752,3.732l-.752,1.878a21.129,21.129,0,0,0-1.51,7.844V358.2H185.155v-1.967a21.129,21.129,0,0,0-1.51-7.844l-.752-1.878a10.616,10.616,0,0,1-.743-3.407Z" transform="translate(-174.27 -328.04)" fill="#5cd6b3"/>
    </g>
    <g id="Grupo_156861" data-name="Grupo 156861" transform="translate(54.304 60.338)">
      <path id="Trazado_263521" data-name="Trazado 263521" d="M307.683,328c.128,0,.256,0,.385.008a15.089,15.089,0,0,1-6.034,12.06L296,337.051l.637-.319a9.763,9.763,0,0,0,5.4-8.732Z" transform="translate(-296 -328)" fill="#48cfad"/>
    </g>
    <g id="Grupo_156862" data-name="Grupo 156862" transform="translate(42.236 60.338)">
      <path id="Trazado_263522" data-name="Trazado 263522" d="M244.068,337.051l-6.034,3.017A15.088,15.088,0,0,1,232,328.008c.128-.006.256-.008.385-.008h5.649a9.763,9.763,0,0,0,5.4,8.732Z" transform="translate(-232 -328)" fill="#48cfad"/>
    </g>
    <g id="Grupo_156863" data-name="Grupo 156863" transform="translate(45.253 42.236)">
      <path id="Trazado_263523" data-name="Trazado 263523" d="M248,232h18.1a9.051,9.051,0,0,1-18.1,0Z" transform="translate(-248 -232)" fill="#ff826e"/>
    </g>
  </g>
  <g id="Grupo_156865" data-name="Grupo 156865" transform="translate(0 0)">
    <path id="Trazado_263524" data-name="Trazado 263524" d="M240,225.508a10.559,10.559,0,0,0,21.118,0V224H240Zm17.95,1.508a7.543,7.543,0,0,1-14.781,0Z" transform="translate(-194.747 -181.764)"/>
    <path id="Trazado_263525" data-name="Trazado 263525" d="M244.476,186.51l4.083-4.084-4.083-4.084-2.133,2.133,1.95,1.95-1.95,1.95Z" transform="translate(-196.648 -144.715)"/>
    <path id="Trazado_263526" data-name="Trazado 263526" d="M322.9,184.377l-1.95-1.95,1.95-1.95-2.133-2.133-4.083,4.084,4.083,4.084Z" transform="translate(-256.974 -144.715)"/>
    <circle id="Elipse_5737" data-name="Elipse 5737" cx="1.503" cy="1.503" r="1.503" transform="translate(60.131 78.491)"/>
    <circle id="Elipse_5738" data-name="Elipse 5738" cx="1.503" cy="1.503" r="1.503" transform="translate(60.131 84.504)"/>
    <path id="Trazado_263527" data-name="Trazado 263527" d="M89,45.253H85.981a4.531,4.531,0,0,0-4.525,4.525v4.784a4.5,4.5,0,0,0,1.325,3.2l1.491,1.491-2.98,9.684L74.449,62.95A10.554,10.554,0,0,0,67.5,60.338h-5.65v-.264A13.806,13.806,0,0,0,72.405,46.655v-1.4a6.041,6.041,0,0,0,6.034-6.034V31.677a19.554,19.554,0,0,0-6.034-14.137v-.034a19.41,19.41,0,0,0-3.27-10.8l-.448-.672H65.575a12.429,12.429,0,0,0-5.712,1.379A18.1,18.1,0,0,0,27.152,18.1v4.41a11.989,11.989,0,0,1-6.034,1.623H7.908a7.908,7.908,0,0,0-5.592,13.5l1.142,1.142,2.133-2.133L4.45,35.5a4.891,4.891,0,0,1,3.459-8.35h13.21a14.993,14.993,0,0,0,6.034-1.263v3.138A7.184,7.184,0,0,1,19.976,36.2H15A8.965,8.965,0,0,0,9.248,52.045a7.982,7.982,0,0,0,4.244,5.412l.4.2a2.153,2.153,0,0,1,0,3.851l-1.587.793a5.893,5.893,0,0,0-1.531,9.437l1.733,1.733,2.133-2.133L12.91,69.606A2.876,2.876,0,0,1,13.657,65l1.587-.793A5.142,5.142,0,0,0,18.1,59.583V55.812a4.531,4.531,0,0,1,4.525-4.525h3.017a10.559,10.559,0,0,0,2.835-.389L19.021,72.966a11.32,11.32,0,0,0-.92,4.482,10.042,10.042,0,0,0,17.142,7.1l4.532-4.532c.092.293.192.583.307.87l.751,1.879a19.522,19.522,0,0,1,1.4,7.283v3.475H69.388V90.048a19.528,19.528,0,0,1,1.4-7.283l.751-1.878a12.115,12.115,0,0,0,.487-1.5l8.184,6.365a8.247,8.247,0,0,0,13.311-6.51V49.779A4.531,4.531,0,0,0,89,45.253ZM39.219,42.236a3.017,3.017,0,0,1,0-6.034Zm1,12.71a4.529,4.529,0,0,0,1.079-1.01,13.754,13.754,0,0,0,8.479,6.138v.264h-5.65a10.556,10.556,0,0,0-6.953,2.613l-1.045.914,1.429-7.144Zm8.149,8.408a11.177,11.177,0,0,0,4.3,7.428l-2.7,1.35a13.665,13.665,0,0,1-4.63-8.777Zm14.884,0h3.031a13.665,13.665,0,0,1-4.63,8.777l-2.7-1.35a11.177,11.177,0,0,0,4.3-7.428Zm6.134-16.7a10.843,10.843,0,0,1-9.264,10.681l-1.295.185v2.817A3.015,3.015,0,0,0,60.268,62.9a8.2,8.2,0,0,1-4.456,6.3,8.2,8.2,0,0,1-4.456-6.3A3.015,3.015,0,0,0,52.8,60.338V57.521L51.5,57.336a10.843,10.843,0,0,1-9.264-10.681V34.694a4.53,4.53,0,0,1,4.525-4.525H48.27V26.356a2.221,2.221,0,0,1,4.207-.993,8.647,8.647,0,0,0,7.777,4.806h2.979a6.163,6.163,0,0,1,6.156,6.155Zm3.017-4.418V36.2a3.017,3.017,0,0,1,0,6.034Zm3.017-10.559V34a6,6,0,0,0-3.017-.812V30.169a9.061,9.061,0,0,0-9.051-9.051v3.017a6.042,6.042,0,0,1,6,5.362,9.134,9.134,0,0,0-6.117-2.345H60.254a5.647,5.647,0,0,1-5.079-3.139,5.237,5.237,0,0,0-9.922,2.342V27.3a7.564,7.564,0,0,0-5.88,5.882h-.153A6,6,0,0,0,36.2,34v-2.32A16.612,16.612,0,0,1,52.8,15.084h6.034A16.612,16.612,0,0,1,75.422,31.677Zm-33-16.634a16.384,16.384,0,0,1,2.152-5.992H46.05a9.352,9.352,0,0,1,6.91,3.017H52.8A19.49,19.49,0,0,0,42.423,15.043ZM67.05,9.051A16.383,16.383,0,0,1,69.2,15.043a19.491,19.491,0,0,0-10.373-2.976h-.164a9.352,9.352,0,0,1,6.91-3.017ZM15,39.219h4.976a10.153,10.153,0,0,0,6.966-2.762,7.554,7.554,0,0,1-7.332,5.778H17.085a8.048,8.048,0,0,0-7.548,5.281A5.944,5.944,0,0,1,15,39.219ZM25.644,48.27H22.627a7.552,7.552,0,0,0-7.486,6.638l-.3-.15a5.017,5.017,0,0,1,2.244-9.505H19.61A10.571,10.571,0,0,0,30.169,34.694V24.127A15.07,15.07,0,0,0,36.2,12.068H33.186a12.014,12.014,0,0,1-3.017,7.969V18.1a15.085,15.085,0,0,1,27.2-8.986,12.374,12.374,0,0,0-1.558,1.653A12.345,12.345,0,0,0,46.05,6.034H42.938l-.448.672a19.409,19.409,0,0,0-3.27,10.8v.034a19.554,19.554,0,0,0-6.034,14.137v7.542a6,6,0,0,0,.892,3.154,4.519,4.519,0,0,0-3.063,2.606l-.724,1.689a7.544,7.544,0,0,1-4.648,1.6ZM33.11,82.415a7.025,7.025,0,0,1-11.992-4.967,8.315,8.315,0,0,1,.676-3.294L33.789,46.168a1.506,1.506,0,0,1,1.387-.914h2.536a1.51,1.51,0,0,1,1.508,1.508v4.419a1.506,1.506,0,0,1-.672,1.255l-3.7,2.468L30.2,78.143l2.958.592.575-2.873,2.738,3.194Zm10.525-.77-.751-1.879a9.049,9.049,0,0,1,.308-7.407l.394-.788-2.7-1.349-.394.788A12.127,12.127,0,0,0,39.222,76.3l-.614.614L34.482,72.1l.676-3.38,4-3.5a7.538,7.538,0,0,1,3.168-1.647A16.684,16.684,0,0,0,48.873,75.12l.746.559L54.3,73.337V90.506H45.253v-.458a22.526,22.526,0,0,0-1.618-8.4Zm25.106-1.878-.751,1.878a22.526,22.526,0,0,0-1.618,8.4v.458H57.321V73.337l4.685,2.342.746-.559A16.684,16.684,0,0,0,69.3,63.574a7.536,7.536,0,0,1,3.168,1.647l6.045,5.289-5.191,6.056-.928-.722a12.13,12.13,0,0,0-1.257-4.835l-.394-.788-2.7,1.349.394.788a9.049,9.049,0,0,1,.308,7.408Zm21.765-.524a5.23,5.23,0,0,1-8.441,4.128L75.7,78.421l4.172-4.867L78.506,78l2.884.887L87.69,58.4l-2.775-2.775a1.5,1.5,0,0,1-.442-1.067V49.779a1.51,1.51,0,0,1,1.508-1.508H89a1.51,1.51,0,0,1,1.508,1.508V79.243Z" transform="translate(0 0)"/>
  </g>
</svg>
