<svg xmlns="http://www.w3.org/2000/svg" width="139.935" height="99.925" viewBox="0 0 139.935 99.925">
  <g id="Grupo_156748" data-name="Grupo 156748" transform="translate(-308 -2017)">
    <g id="Grupo_117447" data-name="Grupo 117447" transform="translate(-3339.279 2642.209)" opacity="0.3">
      <path id="Trazado_158283" data-name="Trazado 158283" d="M3677.784-530.075h0a16.354,16.354,0,0,0,23.129,0l67.216-67.214a16.357,16.357,0,0,0,0-23.129,16.355,16.355,0,0,0-23.129,0L3677.784-553.2A16.353,16.353,0,0,0,3677.784-530.075Z" transform="translate(14.296)" fill="#fc4b52"/>
      <path id="Trazado_158284" data-name="Trazado 158284" d="M3652.069-530.075h0a16.354,16.354,0,0,0,23.129,0l67.216-67.214a16.358,16.358,0,0,0,0-23.129,16.355,16.355,0,0,0-23.129,0L3652.069-553.2A16.354,16.354,0,0,0,3652.069-530.075Z" transform="translate(0)" fill="#feca2e"/>
    </g>
    <g id="distribucion-global" transform="translate(345.265 2017.645)">
      <g id="Grupo_156727" data-name="Grupo 156727" transform="translate(3.799 19.347)">
        <path id="Trazado_263129" data-name="Trazado 263129" d="M88.82,59.059l-1.861,3.224a.4.4,0,0,1-.7,0l-6.291-10.9a7.62,7.62,0,0,1-1.033-3.556,33.744,33.744,0,0,0-16.614-6.291,3.326,3.326,0,1,1-6.575,0A33.93,33.93,0,0,0,29.565,58.49a6.724,6.724,0,0,1,5.442,10.075L29.49,78.121a.354.354,0,0,1-.613,0l-3.6-6.23q-.168,1.684-.171,3.413A33.767,33.767,0,0,0,29.656,92.28a3.326,3.326,0,0,1,3.873,5.392,33.927,33.927,0,0,0,55.045-5.678l-3.523-6.1a6.733,6.733,0,0,1,7.9-9.765c.007-.273.01-.547.01-.822A33.766,33.766,0,0,0,88.82,59.059Z" transform="translate(-25.109 -41.539)" fill="#01c0fa"/>
        <path id="Trazado_263130" data-name="Trazado 263130" d="M147.623,73.353a3.326,3.326,0,1,1-.837-6.6c-2.424-12.383-9.322-21.782-17.8-23.749.008.094.013.188.013.284a3.326,3.326,0,1,1-6.652,0c0-.1,0-.19.013-.284-5.165,1.2-9.743,5.152-13.081,10.858a3.326,3.326,0,0,1-2.785,5.936,48.555,48.555,0,0,0-2.871,16.75c0,18.736,9.873,33.925,22.051,33.925,6.438,0,12.232-4.246,16.263-11.017a3.326,3.326,0,0,1,2.859-6,48.489,48.489,0,0,0,2.929-16.906q0-1.618-.1-3.2Z" transform="translate(-91.744 -42.785)" fill="#80d261"/>
        <g id="Grupo_156726" data-name="Grupo 156726" transform="translate(26.252 1.99)">
          <path id="Trazado_263131" data-name="Trazado 263131" d="M209.335,54.7a3.326,3.326,0,0,1-5.953,0c-2.071,3.107-3.758,9.361-4.7,17.308h15.346C213.094,64.059,211.407,57.8,209.335,54.7Z" transform="translate(-198.686 -54.698)" fill="#01c0fa"/>
          <path id="Trazado_263132" data-name="Trazado 263132" d="M198.686,360.458c1.358,11.5,4.283,19.457,7.673,19.457s6.315-7.958,7.673-19.457Z" transform="translate(-198.686 -314.215)" fill="#01c0fa"/>
        </g>
      </g>
      <g id="Grupo_156732" data-name="Grupo 156732" transform="translate(23.255 38.645)">
        <g id="Grupo_156728" data-name="Grupo 156728">
          <path id="Trazado_263133" data-name="Trazado 263133" d="M182.235,198.071h-28.02a.458.458,0,0,1-.458-.458v-28.02a.458.458,0,0,1,.458-.458h28.02a.458.458,0,0,1,.458.458v28.02A.458.458,0,0,1,182.235,198.071Z" transform="translate(-153.757 -169.135)" fill="#faea5e"/>
        </g>
        <g id="Grupo_156729" data-name="Grupo 156729">
          <path id="Trazado_263134" data-name="Trazado 263134" d="M158.485,197.613v-28.02a.458.458,0,0,1,.458-.458h-4.728a.458.458,0,0,0-.458.458v28.02a.458.458,0,0,0,.458.458h4.728A.458.458,0,0,1,158.485,197.613Z" transform="translate(-153.757 -169.135)" fill="#ffd600"/>
        </g>
        <g id="Grupo_156730" data-name="Grupo 156730" transform="translate(10.65)">
          <path id="Trazado_263135" data-name="Trazado 263135" d="M224.175,169.135v6.111a.275.275,0,0,0,.275.275h7.086a.275.275,0,0,0,.275-.275v-6.111Z" transform="translate(-224.175 -169.135)" fill="#fd4755"/>
        </g>
        <g id="Grupo_156731" data-name="Grupo 156731" transform="translate(10.65 0)">
          <path id="Trazado_263136" data-name="Trazado 263136" d="M227.327,175.246v-6.111h-3.152v6.111a.275.275,0,0,0,.275.275H227.6A.275.275,0,0,1,227.327,175.246Z" transform="translate(-224.175 -169.135)" fill="#fb2b3a"/>
        </g>
      </g>
      <g id="Grupo_156735" data-name="Grupo 156735" transform="translate(57.619 17.691)">
        <g id="Grupo_156733" data-name="Grupo 156733" transform="translate(0 0)">
          <path id="Trazado_263137" data-name="Trazado 263137" d="M389,52.99l6.292-10.9a7.668,7.668,0,1,0-13.282,0l6.291,10.9A.4.4,0,0,0,389,52.99Z" transform="translate(-380.971 -30.59)" fill="#fd4755"/>
        </g>
        <g id="Grupo_156734" data-name="Grupo 156734" transform="translate(0 0)">
          <path id="Trazado_263138" data-name="Trazado 263138" d="M388.066,42.093A7.68,7.68,0,0,1,391.679,31.2a7.683,7.683,0,0,0-9.669,10.891l6.291,10.9a.4.4,0,0,0,.7,0l2.679-4.64Z" transform="translate(-380.971 -30.591)" fill="#fb2b3a"/>
        </g>
        <circle id="Elipse_5718" data-name="Elipse 5718" cx="3.079" cy="3.079" r="3.079" transform="translate(4.6 4.894)" fill="#fff"/>
      </g>
      <g id="Grupo_156738" data-name="Grupo 156738" transform="translate(1.138 36.285)">
        <g id="Grupo_156736" data-name="Grupo 156736" transform="translate(0 0)">
          <path id="Trazado_263139" data-name="Trazado 263139" d="M14.559,173.176l5.518-9.557a6.725,6.725,0,1,0-11.648,0l5.518,9.557A.354.354,0,0,0,14.559,173.176Z" transform="translate(-7.517 -153.532)" fill="#fd4755"/>
        </g>
        <g id="Grupo_156737" data-name="Grupo 156737">
          <path id="Trazado_263140" data-name="Trazado 263140" d="M13.183,163.618a6.733,6.733,0,0,1,3.447-9.661,6.735,6.735,0,0,0-8.2,9.661l5.518,9.557a.354.354,0,0,0,.613,0l2.071-3.587Z" transform="translate(-7.517 -153.53)" fill="#fb2b3a"/>
        </g>
        <circle id="Elipse_5719" data-name="Elipse 5719" cx="2.701" cy="2.701" r="2.701" transform="translate(4.034 4.292)" fill="#fff"/>
      </g>
      <g id="Grupo_156741" data-name="Grupo 156741" transform="translate(62.83 53.612)">
        <g id="Grupo_156739" data-name="Grupo 156739">
          <path id="Trazado_263141" data-name="Trazado 263141" d="M422.462,287.739l5.518-9.557a6.725,6.725,0,1,0-11.648,0l5.518,9.557A.354.354,0,0,0,422.462,287.739Z" transform="translate(-415.42 -268.095)" fill="#fd4755"/>
        </g>
        <g id="Grupo_156740" data-name="Grupo 156740" transform="translate(0 0)">
          <path id="Trazado_263142" data-name="Trazado 263142" d="M421.1,278.183a6.733,6.733,0,0,1,3.442-9.659,6.735,6.735,0,0,0-8.206,9.659l5.518,9.557a.354.354,0,0,0,.613,0l2.076-3.6Z" transform="translate(-415.42 -268.096)" fill="#fb2b3a"/>
        </g>
        <circle id="Elipse_5720" data-name="Elipse 5720" cx="2.701" cy="2.701" r="2.701" transform="translate(4.034 4.292)" fill="#fff"/>
      </g>
      <g id="Grupo_156742" data-name="Grupo 156742" transform="translate(6.792 69.577)">
        <circle id="Elipse_5721" data-name="Elipse 5721" cx="3.326" cy="3.326" r="3.326" fill="#fd4755"/>
      </g>
      <g id="Grupo_156743" data-name="Grupo 156743" transform="translate(55.85 43.301)">
        <circle id="Elipse_5722" data-name="Elipse 5722" cx="3.326" cy="3.326" r="3.326" fill="#fd4755"/>
      </g>
      <g id="Grupo_156744" data-name="Grupo 156744" transform="translate(52.191 69.743)">
        <circle id="Elipse_5723" data-name="Elipse 5723" cx="3.326" cy="3.326" r="3.326" fill="#fd4755"/>
      </g>
      <g id="Grupo_156745" data-name="Grupo 156745" transform="translate(34.397 16.527)">
        <circle id="Elipse_5724" data-name="Elipse 5724" cx="3.326" cy="3.326" r="3.326" transform="translate(0 0)" fill="#fd4755"/>
      </g>
      <g id="Grupo_156746" data-name="Grupo 156746" transform="translate(16.105 29.831)">
        <circle id="Elipse_5725" data-name="Elipse 5725" cx="3.326" cy="3.326" r="3.326" transform="translate(0 0)" fill="#fd4755"/>
      </g>
      <g id="Grupo_156747" data-name="Grupo 156747" transform="translate(0.001 15.393)">
        <path id="Trazado_263143" data-name="Trazado 263143" d="M220.986,237.887a1.135,1.135,0,0,0,1.6-.118l1.232-1.428v5.145a1.134,1.134,0,0,0,2.269,0v-5.145l1.232,1.428a1.134,1.134,0,1,0,1.718-1.482l-3.226-3.739a1.134,1.134,0,0,0-1.718,0l-3.226,3.739A1.134,1.134,0,0,0,220.986,237.887Z" transform="translate(-187.23 -199.372)"/>
        <path id="Trazado_263144" data-name="Trazado 263144" d="M226.923,313.778h-7a1.134,1.134,0,1,0,0,2.269h7a1.134,1.134,0,1,0,0-2.269Z" transform="translate(-185.703 -268.65)"/>
        <path id="Trazado_263145" data-name="Trazado 263145" d="M403.888,59.665a4.214,4.214,0,1,0,4.214-4.214A4.218,4.218,0,0,0,403.888,59.665Zm6.159,0A1.945,1.945,0,1,1,408.1,57.72,1.947,1.947,0,0,1,410.047,59.665Z" transform="translate(-342.804 -49.393)"/>
        <path id="Trazado_263146" data-name="Trazado 263146" d="M30.528,182.08a3.835,3.835,0,1,0-3.835-3.835A3.839,3.839,0,0,0,30.528,182.08Zm0-5.4a1.566,1.566,0,1,1-1.566,1.566A1.568,1.568,0,0,1,30.528,176.679Z" transform="translate(-22.656 -150.36)"/>
        <path id="Trazado_263147" data-name="Trazado 263147" d="M76.371,56.407a7.8,7.8,0,0,0-3.589-3.253c0-.014,0-.028,0-.041a34.886,34.886,0,0,0-3.969-16.235l4.109-7.117a9.109,9.109,0,0,0,.627-1.321,1.134,1.134,0,1,0-2.122-.8,6.818,6.818,0,0,1-.47.99l-5.659,9.8-5.659-9.8a6.535,6.535,0,1,1,11.8-5.492,1.134,1.134,0,0,0,2.13-.78,8.8,8.8,0,0,0-15.9-1.4,8.9,8.9,0,0,0-1.011,2.64,34.693,34.693,0,0,0-14.76-5.3,4.46,4.46,0,0,0-8.363,0A34.791,34.791,0,0,0,12.933,28.322,35.263,35.263,0,0,0,7.6,35.155,7.86,7.86,0,0,0,1.067,46.94l1.739,3.011q-.14,1.568-.141,3.162A34.871,34.871,0,0,0,6.89,69.829a4.457,4.457,0,0,0,5.117,7.112q.453.488.926.962a35.059,35.059,0,0,0,49.581,0,35.339,35.339,0,0,0,4.731-5.865l1.031,1.786a1.492,1.492,0,0,0,1.289.744h0a1.492,1.492,0,0,0,1.288-.744l5.518-9.557a7.781,7.781,0,0,0,0-7.86Zm-13.613,0a7.96,7.96,0,0,0-.857,2.168H60.63a53.625,53.625,0,0,0,.278-5.462c0-.789-.019-1.574-.054-2.355a4.477,4.477,0,0,0,2.661-3.108h6.543a33.12,33.12,0,0,1,.446,4.882,8.1,8.1,0,0,0-.941-.056A7.78,7.78,0,0,0,62.758,56.407ZM58.64,53.113a51.159,51.159,0,0,1-.291,5.462H53.326V55.564a1.134,1.134,0,0,0-2.269,0V66.447H24.39V39.779h8.381v4.977a1.411,1.411,0,0,0,1.409,1.409h7.086a1.411,1.411,0,0,0,1.409-1.409V39.779h8.381V50.27a1.134,1.134,0,1,0,2.269,0V47.651h1.51a4.47,4.47,0,0,0,3.761,3.4c.028.683.044,1.371.044,2.064Zm-2.5,15.539a4.454,4.454,0,0,0-4.885,3.116H45.959c.161-.989.308-2.008.441-3.053h5.333a1.594,1.594,0,0,0,1.592-1.592V60.844h4.726A45.192,45.192,0,0,1,56.136,68.652Zm1.573,4.416a2.192,2.192,0,1,1-2.192-2.192A2.194,2.194,0,0,1,57.709,73.069ZM17.053,69.047q.472,1.4,1.018,2.721h-3.64a4.459,4.459,0,0,0-5.607-3.134,32.4,32.4,0,0,1-2.979-7.79H15.1q.222,1.5.529,2.963a1.134,1.134,0,0,0,2.22-.467q-.26-1.235-.456-2.5h4.725v6.279a1.594,1.594,0,0,0,1.592,1.592h5.333c.134,1.044.28,2.064.441,3.053H20.544c-.489-1.1-.939-2.251-1.34-3.445a1.134,1.134,0,0,0-2.15.723Zm-6.3-34.589h4.412a4.48,4.48,0,0,0,1.955,2.513,45.984,45.984,0,0,0-1.428,5.163,7.893,7.893,0,0,0-1.012-3.053,7.774,7.774,0,0,0-4.6-3.62Q10.407,34.953,10.752,34.458ZM59.176,48.819a2.192,2.192,0,1,1,2.192-2.192A2.194,2.194,0,0,1,59.176,48.819Zm-4.282-3.437H53.326V39.1a1.594,1.594,0,0,0-1.592-1.592H46.4c-.134-1.044-.28-2.064-.441-3.053h8.957a42.1,42.1,0,0,1,2.594,8.033A4.479,4.479,0,0,0,54.894,45.382ZM45.556,32.189c-.225-1.165-.47-2.281-.735-3.34a28.9,28.9,0,0,0-2.85-7.638q.03-.093.055-.188c4.7,1.547,8.825,5.574,11.789,11.165ZM31.333,37.511c.137-1.047.288-2.066.453-3.053H43.661c.165.986.316,2.006.453,3.053Zm9.074,2.269V43.9H35.04V39.779ZM42.62,29.4c.222.889.43,1.821.624,2.789H32.2c.194-.968.4-1.9.624-2.789a30.7,30.7,0,0,1,2.095-6.079,4.448,4.448,0,0,0,5.6,0A30.709,30.709,0,0,1,42.62,29.4Zm-9.145-8.188a28.9,28.9,0,0,0-2.85,7.638c-.265,1.059-.51,2.175-.735,3.34H23.784a4.45,4.45,0,0,0-1.011-1.982c2.843-4.558,6.523-7.826,10.648-9.184q.026.095.055.188ZM17.395,45.382a45.21,45.21,0,0,1,1.9-7.768c.044,0,.089,0,.133,0a4.468,4.468,0,0,0,4.266-3.16h5.791c-.161.989-.308,2.008-.441,3.053H23.713A1.594,1.594,0,0,0,22.121,39.1v6.279Zm4.726,2.269V58.575H17.1a51.068,51.068,0,0,1,0-10.924Zm-.5-14.494a2.192,2.192,0,1,1-2.192-2.192A2.194,2.194,0,0,1,21.622,33.157Zm8.269,40.88c.225,1.165.47,2.281.735,3.34a27.912,27.912,0,0,0,3,7.887,17.389,17.389,0,0,1-6.74-4.134,27.838,27.838,0,0,1-5.241-7.093h8.245Zm1.442-5.322H44.114c-.137,1.047-.288,2.066-.453,3.053H31.786C31.621,70.782,31.47,69.762,31.333,68.715Zm1.494,8.111c-.222-.889-.43-1.822-.624-2.79H43.244c-.194.968-.4,1.9-.624,2.79-1.675,6.7-3.685,9.077-4.9,9.077S34.5,83.526,32.827,76.826Zm11.994.55c.265-1.059.51-2.175.735-3.34h5.608a4.459,4.459,0,0,0,1.314,2.292c-2.864,4.473-6.548,7.659-10.663,8.943a27.888,27.888,0,0,0,3.006-7.9ZM65.3,41.427a1.542,1.542,0,0,0,1.332-.769l.818-1.416a32.417,32.417,0,0,1,2.152,6.14H63.458a4.471,4.471,0,0,0-3.684-3.174,44.612,44.612,0,0,0-2.395-7.751h3.008l3.58,6.2a1.542,1.542,0,0,0,1.332.769Zm-6.221-9.238H56.351a35.542,35.542,0,0,0-2.085-3.683,27.077,27.077,0,0,0-5.546-6.3,32.442,32.442,0,0,1,7.807,4.038,8.84,8.84,0,0,0,1.147,3.518ZM37.723,17.662a2.192,2.192,0,1,1-2.192,2.192A2.194,2.194,0,0,1,37.723,17.662ZM14.537,29.927a32.674,32.674,0,0,1,12.188-7.721,27.08,27.08,0,0,0-5.545,6.3c-.094.145-.185.294-.278.441a4.457,4.457,0,0,0-5.825,3.242h-2.6Q13.448,31.019,14.537,29.927ZM3.031,40.215a5.591,5.591,0,0,1,9.684,0,5.534,5.534,0,0,1,0,5.591L7.873,54.192,3.031,45.806A5.534,5.534,0,0,1,3.031,40.215ZM6.584,56.5a1.488,1.488,0,0,0,2.577,0l5.107-8.846h.548a53.628,53.628,0,0,0,0,10.924H5.384a33.132,33.132,0,0,1-.446-4.931ZM7.926,72.9a2.192,2.192,0,1,1,2.192,2.192A2.194,2.194,0,0,1,7.926,72.9Zm5.825,2.582a4.443,4.443,0,0,0,.681-1.448h4.662a29.259,29.259,0,0,0,7.638,9.987A32.674,32.674,0,0,1,14.537,76.3q-.4-.4-.786-.814ZM60.91,76.3a32.676,32.676,0,0,1-12.19,7.723,27.079,27.079,0,0,0,5.547-6.3c.068-.1.133-.211.2-.317a4.457,4.457,0,0,0,5.4-3.366h3.1Q62,75.208,60.91,76.3ZM64.7,71.768H59.784a4.474,4.474,0,0,0-1.552-2.235,47.178,47.178,0,0,0,2.117-8.689h1.361a7.871,7.871,0,0,0,1.049,3.423l3.2,5.543Q65.365,70.808,64.7,71.768Zm9.707-8.636-4.842,8.386-4.842-8.386a5.591,5.591,0,1,1,9.684,0Z" transform="translate(-0.001 -15.393)"/>
        <path id="Trazado_263148" data-name="Trazado 263148" d="M438.431,288.975a3.835,3.835,0,1,0,3.835,3.835A3.839,3.839,0,0,0,438.431,288.975Zm0,5.4A1.566,1.566,0,1,1,440,292.81,1.568,1.568,0,0,1,438.431,294.376Z" transform="translate(-368.867 -247.598)"/>
      </g>
    </g>
  </g>
</svg>
