<svg id="capacitacion" xmlns="http://www.w3.org/2000/svg" width="99.137" height="99.137" viewBox="0 0 99.137 99.137">
  <path id="Trazado_263528" data-name="Trazado 263528" d="M103.939,55.969A47.969,47.969,0,1,1,55.969,8,47.97,47.97,0,0,1,103.939,55.969Zm0,0" transform="translate(-6.401 -6.401)" fill="#85d3c1"/>
  <path id="Trazado_263529" data-name="Trazado 263529" d="M54.4,88v6.4H48V88Zm0,0" transform="translate(-38.406 -70.411)" fill="#ff958a"/>
  <path id="Trazado_263530" data-name="Trazado 263530" d="M15.995,88v6.4H11.2A3.207,3.207,0,0,1,8,91.2,3.22,3.22,0,0,1,11.2,88Zm0,0" transform="translate(-6.401 -70.411)" fill="#f9d48a"/>
  <path id="Trazado_263531" data-name="Trazado 263531" d="M106.4,88h2.383l4.8,3.2-4.8,3.2H80V88Zm0,0" transform="translate(-64.01 -70.411)" fill="#f9d48a"/>
  <path id="Trazado_263532" data-name="Trazado 263532" d="M112,8h54.365V38.381l.048.192a6.4,6.4,0,0,0-4.845,6.2v3.2a6.363,6.363,0,0,0,3.2,5.532v4.061l-7.707,2.206a4.793,4.793,0,0,0-3.486,4.6,4.793,4.793,0,0,0-3.486-4.6l-7.707-2.206V53.507a6.363,6.363,0,0,0,3.2-5.532v-3.2a6.242,6.242,0,0,0-.192-1.551l.192-.048A14.391,14.391,0,1,0,132,23.99H112Zm0,0" transform="translate(-89.614 -6.401)" fill="#f5f7fa"/>
  <path id="Trazado_263533" data-name="Trazado 263533" d="M128.087,149.389a4.793,4.793,0,0,0-3.486,4.6,4.793,4.793,0,0,0-3.486-4.6l-7.707-2.206v-4.061a6.363,6.363,0,0,0,3.2-5.532v-3.2a6.438,6.438,0,0,0-1.871-4.525,6.559,6.559,0,0,0-2.974-1.679l.048-.192V120h19.267a14.348,14.348,0,0,0,4.542,8.97,6.346,6.346,0,0,0-3.022,5.421v3.2a6.363,6.363,0,0,0,3.2,5.532v4.061Zm0,0" transform="translate(-89.423 -96.015)" fill="#f5f7fa"/>
  <path id="Trazado_263534" data-name="Trazado 263534" d="M280,112h14.391A14.392,14.392,0,0,1,280,126.391Zm0,0" transform="translate(-224.036 -89.614)" fill="#f9d48a"/>
  <path id="Trazado_263535" data-name="Trazado 263535" d="M222.71,54.391V68.782l-.192.048a6.379,6.379,0,0,0-6.2-4.845,6.263,6.263,0,0,0-3.374.975,14.348,14.348,0,0,1-4.542-8.97h3.118l4.8-3.2-4.8-3.2h-2.383A14.4,14.4,0,0,1,222.71,40Zm0,0" transform="translate(-166.745 -32.005)" fill="#ff958a"/>
  <path id="Trazado_263536" data-name="Trazado 263536" d="M137.553,352v6.4H64V352Zm0,0" transform="translate(-51.208 -281.645)" fill="#ff958a"/>
  <path id="Trazado_263537" data-name="Trazado 263537" d="M136.784,387.2l.192.176a47.949,47.949,0,0,1-73.937,0l.192-.176V384h73.553Zm0,0" transform="translate(-50.439 -307.249)" fill="#f5f7fa"/>
  <path id="Trazado_263538" data-name="Trazado 263538" d="M198.386,268.792H176v-5.981a4.793,4.793,0,0,1,3.486-4.6L187.193,256l3.2,3.2,3.2-3.2,7.707,2.206a4.793,4.793,0,0,1,3.486,4.6v5.981Zm0,0" transform="translate(-140.822 -204.833)" fill="#f9d48a"/>
  <path id="Trazado_263539" data-name="Trazado 263539" d="M54.386,268.792H32v-5.981a4.793,4.793,0,0,1,3.486-4.6L43.193,256l3.2,3.2,3.2-3.2,7.707,2.206a4.793,4.793,0,0,1,3.486,4.6v5.981Zm0,0" transform="translate(-25.604 -204.833)" fill="#f9d48a"/>
  <path id="Trazado_263540" data-name="Trazado 263540" d="M342.386,268.792H320v-5.981a4.793,4.793,0,0,1,3.486-4.6L331.193,256l3.2,3.2,3.2-3.2,7.707,2.206a4.793,4.793,0,0,1,3.486,4.6v5.981Zm0,0" transform="translate(-256.041 -204.833)" fill="#f9d48a"/>
  <g id="Grupo_156866" data-name="Grupo 156866" transform="translate(3.805 31.98)">
    <path id="Trazado_263541" data-name="Trazado 263541" d="M107.974,320h2.59a44.739,44.739,0,0,1-2.543,6.428l-.048-.032H21.629l-.048.032A46.735,46.735,0,0,1,19.039,320Zm0,0" transform="translate(-19.039 -288.02)" fill="#f5f7fa"/>
    <path id="Trazado_263542" data-name="Trazado 263542" d="M382.4,235.68v4.061l-3.2,3.2-3.2-3.2V235.68a6.353,6.353,0,0,0,6.4,0Zm0,0" transform="translate(-304.653 -220.554)" fill="#f5f7fa"/>
    <path id="Trazado_263543" data-name="Trazado 263543" d="M369.594,175.127A6.4,6.4,0,0,1,360,169.594v-3.2a6.4,6.4,0,0,1,4.845-6.2A6.241,6.241,0,0,1,366.4,160a6.387,6.387,0,0,1,6.4,6.4v3.2A6.363,6.363,0,0,1,369.594,175.127Zm0,0" transform="translate(-291.851 -160)" fill="#f5f7fa"/>
    <path id="Trazado_263544" data-name="Trazado 263544" d="M238.4,235.68v4.061l-3.2,3.2-3.2-3.2V235.68a6.353,6.353,0,0,0,6.4,0Zm0,0" transform="translate(-189.435 -220.554)" fill="#f5f7fa"/>
    <path id="Trazado_263545" data-name="Trazado 263545" d="M225.594,175.127A6.4,6.4,0,0,1,216,169.594v-3.2a6.346,6.346,0,0,1,3.022-5.421A6.263,6.263,0,0,1,222.4,160a6.379,6.379,0,0,1,6.2,4.845,6.243,6.243,0,0,1,.192,1.551v3.2A6.363,6.363,0,0,1,225.594,175.127Zm0,0" transform="translate(-176.633 -160)" fill="#f5f7fa"/>
    <path id="Trazado_263546" data-name="Trazado 263546" d="M94.4,235.68v4.061l-3.2,3.2-3.2-3.2V235.68a6.353,6.353,0,0,0,6.4,0Zm0,0" transform="translate(-74.217 -220.554)" fill="#f5f7fa"/>
    <path id="Trazado_263547" data-name="Trazado 263547" d="M81.594,175.127A6.4,6.4,0,0,1,72,169.594v-3.2a6.394,6.394,0,0,1,6.4-6.4,6.242,6.242,0,0,1,1.551.192,6.559,6.559,0,0,1,2.974,1.679,6.438,6.438,0,0,1,1.871,4.525v3.2A6.363,6.363,0,0,1,81.594,175.127Zm0,0" transform="translate(-61.415 -160)" fill="#f5f7fa"/>
  </g>
  <path id="Trazado_263548" data-name="Trazado 263548" d="M78.35,9.231V0H20.787V9.231a49.87,49.87,0,0,0-7.659,6.759H4.8a4.8,4.8,0,1,0,0,9.594H6.2A49.568,49.568,0,1,0,78.35,9.231ZM95.939,49.568a46.276,46.276,0,0,1-1.6,12.055V57.984A6.426,6.426,0,0,0,89.7,51.832l-6.554-1.871V47.929a7.963,7.963,0,0,0,3.2-6.355v-3.2a8,8,0,0,0-7.995-7.995V13.217A46.4,46.4,0,0,1,95.939,49.568ZM87.944,71.954H90.16q-1.029,1.859-2.217,3.613Zm-80.573-3.2c-.478-1.047-.929-2.11-1.33-3.2H93.1c-.4,1.088-.853,2.151-1.33,3.2Zm3.822,6.811Q10,73.816,8.976,71.954h2.217Zm0-53.182v-3.2h3.2v3.2Zm6.4-3.2h26.7l2.4,1.6-2.4,1.6h-26.7Zm39.974,4.8H68.646A12.8,12.8,0,0,1,57.563,35.067Zm0-3.2V9.7A12.8,12.8,0,0,1,68.646,20.787Zm-3.2,11.234a7.87,7.87,0,0,0-7.856-1.027,12.742,12.742,0,0,1-2.919-5.411h1.666l7.2-4.8-7.2-4.8h-.347A12.794,12.794,0,0,1,54.365,9.72ZM78.35,33.578a4.8,4.8,0,0,1,4.8,4.8v3.2a4.8,4.8,0,0,1-9.594,0v-3.2A4.8,4.8,0,0,1,78.35,33.578Zm0,15.99a8,8,0,0,0,1.6-.162v1.1l-1.6,1.6-1.6-1.6v-1.1A8,8,0,0,0,78.35,49.568Zm-3.663,3.395,3.663,3.663,3.663-3.663,6.808,1.946a3.212,3.212,0,0,1,2.32,3.075V62.36h-3.2v-3.2h-3.2v3.2H71.954v-3.2h-3.2v3.2h-3.2V57.984a3.212,3.212,0,0,1,2.319-3.075ZM62.36,62.36h-3.2v-3.2h-3.2v3.2H43.172v-3.2h-3.2v3.2h-3.2V57.984A3.212,3.212,0,0,1,39.1,54.909l6.81-1.946,3.663,3.663,3.663-3.663,6.808,1.946a3.212,3.212,0,0,1,2.32,3.075ZM51.167,50.505l-1.6,1.6-1.6-1.6v-1.1a7.991,7.991,0,0,0,3.2,0Zm-1.6-4.135a4.8,4.8,0,0,1-4.8-4.8v-3.2a4.8,4.8,0,0,1,9.594,0v3.2A4.8,4.8,0,0,1,49.568,46.37ZM40.3,25.584a15.858,15.858,0,0,0,1.024,3.2H30.381v3.2H43.172v-.011c.215.286.446.563.681.835a7.976,7.976,0,0,0-1.6,2.374H30.381v3.2H41.573v3.2a7.958,7.958,0,0,0,3.2,6.355V49.96l-6.554,1.871a6.355,6.355,0,0,0-3.039,1.96,6.355,6.355,0,0,0-3.039-1.96l-6.554-1.869V47.929a7.963,7.963,0,0,0,3.2-6.355v-3.2a8,8,0,0,0-4.8-7.317V25.584ZM25.584,38.375v3.2a4.8,4.8,0,0,1-9.594,0v-3.2a4.8,4.8,0,0,1,9.594,0Zm-4.8,11.193a8,8,0,0,0,1.6-.162v1.1l-1.6,1.6-1.6-1.6v-1.1A8,8,0,0,0,20.787,49.568Zm-3.663,3.395,3.663,3.663,3.663-3.663,6.808,1.946a3.212,3.212,0,0,1,2.32,3.075V62.36h-3.2v-3.2h-3.2v3.2H14.391v-3.2h-3.2v3.2h-3.2V57.984a3.212,3.212,0,0,1,2.319-3.075ZM75.152,3.2v27.86a8,8,0,0,0-4.8,7.317v3.2a7.958,7.958,0,0,0,3.2,6.355V49.96L67,51.831a6.355,6.355,0,0,0-3.039,1.96,6.355,6.355,0,0,0-3.039-1.96l-6.554-1.869V47.93a7.963,7.963,0,0,0,3.2-6.355v-3.2c0-.027-.008-.053-.008-.08A15.99,15.99,0,1,0,41.31,15.99H23.985V3.2ZM20.787,13.22V15.99H17.616C18.633,15.022,19.687,14.093,20.787,13.22ZM3.2,20.787a1.6,1.6,0,0,1,1.6-1.6h3.2v3.2H4.8A1.6,1.6,0,0,1,3.2,20.787Zm6.7,4.8H20.787v4.8a8,8,0,0,0-7.995,7.995v3.2a7.958,7.958,0,0,0,3.2,6.355V49.96L9.435,51.831A6.427,6.427,0,0,0,4.8,57.984v3.639A46.256,46.256,0,0,1,9.9,25.584ZM49.568,95.939A46.268,46.268,0,0,1,14.391,79.728V78.35H71.954v-3.2H14.391v-3.2H84.746v3.2H75.152v3.2h9.594v1.378A46.268,46.268,0,0,1,49.568,95.939Zm0,0" fill="#232323"/>
  <path id="Trazado_263549" data-name="Trazado 263549" d="M136,32h3.2v3.2H136Zm0,0" transform="translate(-108.817 -25.604)" fill="#232323"/>
  <path id="Trazado_263550" data-name="Trazado 263550" d="M168,32h3.2v3.2H168Zm0,0" transform="translate(-134.421 -25.604)" fill="#232323"/>
  <path id="Trazado_263551" data-name="Trazado 263551" d="M200,32h3.2v3.2H200Zm0,0" transform="translate(-160.025 -25.604)" fill="#232323"/>
</svg>
