<svg xmlns="http://www.w3.org/2000/svg" xmlns:xlink="http://www.w3.org/1999/xlink" width="591.866" height="587.664" viewBox="0 0 591.866 587.664">
  <defs>
    <linearGradient id="linear-gradient" x1="0.614" y1="0.331" x2="0.371" y2="0.77" gradientUnits="objectBoundingBox">
      <stop offset="0" stop-color="#dae3fe"/>
      <stop offset="1" stop-color="#e9effd"/>
    </linearGradient>
    <clipPath id="clip-path">
      <path id="Trazado_263573" data-name="Trazado 263573" d="M2121.161,2022.93c-39.091,8.29-80.624-8.624-103.871-37.949-9.457-11.928-48.171-53.567-51.543-69.468-11.662-54.993,65.17-93.054,120.162-104.716s116.461,25.984,128.124,80.977c5.2,24.537-17.033,74.489-28.067,94.965C2172.269,2012.155,2151.617,2016.471,2121.161,2022.93Z" transform="translate(-1964.561 -1808.672)" fill="none"/>
    </clipPath>
    <linearGradient id="linear-gradient-2" x1="-11.225" y1="-0.339" x2="-12.273" y2="0.95" gradientUnits="objectBoundingBox">
      <stop offset="0" stop-color="#febbba"/>
      <stop offset="1" stop-color="#ff928e"/>
    </linearGradient>
    <linearGradient id="linear-gradient-3" x1="2.139" y1="-1.069" x2="1.519" y2="-0.42" gradientUnits="objectBoundingBox">
      <stop offset="0" stop-color="#09005d"/>
      <stop offset="1" stop-color="#1a0f91"/>
    </linearGradient>
    <linearGradient id="linear-gradient-4" x1="0.847" y1="0.14" x2="0.107" y2="1.142" gradientUnits="objectBoundingBox">
      <stop offset="0" stop-color="#4f52ff"/>
      <stop offset="1" stop-color="#4042e2"/>
    </linearGradient>
    <linearGradient id="linear-gradient-5" x1="4.259" y1="-1.088" x2="4.449" y2="-2.01" xlink:href="#linear-gradient-2"/>
    <linearGradient id="linear-gradient-6" x1="2.882" y1="-1.762" x2="4.167" y2="-0.623" xlink:href="#linear-gradient-2"/>
    <linearGradient id="linear-gradient-7" x1="5.371" y1="-4.049" x2="3.527" y2="-2.092" xlink:href="#linear-gradient-3"/>
    <linearGradient id="linear-gradient-8" x1="6.302" y1="-8.501" x2="9.73" y2="-4.408" xlink:href="#linear-gradient-2"/>
    <linearGradient id="linear-gradient-9" x1="-22.294" y1="1.047" x2="-19.16" y2="-1.146" xlink:href="#linear-gradient-2"/>
    <clipPath id="clip-path-2">
      <path id="Trazado_263592" data-name="Trazado 263592" d="M822.2,2189.919c-40.411,8.57-83.346-8.915-107.379-39.23-9.776-12.331-40.036-53.137-43.522-69.576-12.056-56.849,57.6-98.4,114.445-110.458s120.408,26.829,132.464,83.679c5.379,25.366-4.1,77.916-15.512,99.084C888.533,2179.692,853.68,2183.242,822.2,2189.919Z" transform="translate(-669.919 -1968.457)" fill="none"/>
    </clipPath>
    <linearGradient id="linear-gradient-10" x1="-31.234" y1="0.5" x2="-29.508" y2="0.5" gradientUnits="objectBoundingBox">
      <stop offset="0" stop-color="#a22b25"/>
      <stop offset="1" stop-color="#c0423c"/>
    </linearGradient>
    <linearGradient id="linear-gradient-11" x1="2.28" y1="-1.017" x2="1.535" y2="-0.346" xlink:href="#linear-gradient-4"/>
    <linearGradient id="linear-gradient-12" x1="0.204" y1="0.873" x2="1.655" y2="-1.427" xlink:href="#linear-gradient-4"/>
    <linearGradient id="linear-gradient-13" x1="13.734" y1="0.372" x2="13.71" y2="-0.738" xlink:href="#linear-gradient-10"/>
    <linearGradient id="linear-gradient-14" x1="-8.265" y1="-95.301" x2="-7.523" y2="-94.178" xlink:href="#linear-gradient-10"/>
    <linearGradient id="linear-gradient-15" x1="59.361" y1="3.772" x2="60.242" y2="4.601" xlink:href="#linear-gradient-3"/>
    <linearGradient id="linear-gradient-16" x1="-33.971" y1="-378.852" x2="-31.049" y2="-374.406" xlink:href="#linear-gradient-10"/>
    <linearGradient id="linear-gradient-17" x1="0.222" y1="0.802" x2="2.798" y2="-1.961" xlink:href="#linear-gradient-4"/>
    <linearGradient id="linear-gradient-18" x1="6.633" y1="-0.394" x2="7.068" y2="1.885" xlink:href="#linear-gradient-10"/>
    <linearGradient id="linear-gradient-19" x1="13.077" y1="-3.765" x2="14.055" y2="2.657" xlink:href="#linear-gradient-10"/>
    <linearGradient id="linear-gradient-20" x1="-61.571" y1="0.5" x2="-60.571" y2="0.5" xlink:href="#linear-gradient-10"/>
    <clipPath id="clip-path-3">
      <path id="Trazado_263604" data-name="Trazado 263604" d="M1508.7,808.626c37.474,7.3,192.839,7.744,215.483-20.818,9.211-11.618-64.877-41.784-61.593-57.272,11.359-53.563-22.129-95.81-75.692-107.169s-109.111,11.568-120.47,65.131c-5.068,23.9-10.748,67.887,0,87.831C1479.773,801.084,1478.94,802.829,1508.7,808.626Z" transform="translate(-1460.321 -620.527)" fill="none"/>
    </clipPath>
    <linearGradient id="linear-gradient-21" x1="1.056" y1="0.069" x2="-0.027" y2="1.029" gradientUnits="objectBoundingBox">
      <stop offset="0" stop-color="#ff928e"/>
      <stop offset="1" stop-color="#fe7062"/>
    </linearGradient>
    <linearGradient id="linear-gradient-22" x1="14.334" y1="5.767" x2="15.333" y2="5.767" xlink:href="#linear-gradient-2"/>
    <linearGradient id="linear-gradient-23" x1="1.91" y1="-0.147" x2="0.42" y2="0.502" xlink:href="#linear-gradient-21"/>
    <linearGradient id="linear-gradient-24" x1="-34.775" y1="0.5" x2="-33.775" y2="0.5" xlink:href="#linear-gradient-2"/>
    <linearGradient id="linear-gradient-25" x1="-16.853" y1="0.5" x2="-15.853" y2="0.5" xlink:href="#linear-gradient-2"/>
    <linearGradient id="linear-gradient-26" x1="3.889" y1="-0.557" x2="0.971" y2="0.329" xlink:href="#linear-gradient-21"/>
    <linearGradient id="linear-gradient-27" x1="-114.645" y1="0.411" x2="-105.573" y2="1.041" gradientUnits="objectBoundingBox">
      <stop offset="0" stop-color="#e1473d"/>
      <stop offset="1" stop-color="#e9605a"/>
    </linearGradient>
    <linearGradient id="linear-gradient-28" x1="83.696" y1="0.175" x2="82.38" y2="1.493" xlink:href="#linear-gradient-2"/>
    <linearGradient id="linear-gradient-29" x1="-22.416" y1="-0.149" x2="-22.881" y2="1.601" xlink:href="#linear-gradient-3"/>
    <linearGradient id="linear-gradient-30" x1="276.524" y1="2.7" x2="279.974" y2="0.456" xlink:href="#linear-gradient-2"/>
  </defs>
  <g id="Grupo_156898" data-name="Grupo 156898" transform="translate(-458.889 -460.681)">
    <path id="Trazado_263552" data-name="Trazado 263552" d="M983.191,966.132c-15.381,15.854-29.143,25.174-39.681,32.21-102.765,68.617-220.237,48.84-256.557,42.08-58.6-10.906-108.06-18.6-150.559-57-96.569-87.246-91.872-269.249-18.081-381.991,8.749-13.368,82.428-122.583,200.154-137.972,2.879-.376,5.028-.591,6.91-.79,18.212-1.928,131.068-12.105,223.091,64.991a274.529,274.529,0,0,1,54.029,61.3C1074.375,699.978,1074.6,871.908,983.191,966.132Z" transform="translate(-3.532 -0.388)" fill="url(#linear-gradient)"/>
    <g id="Grupo_156869" data-name="Grupo 156869" transform="translate(860.457 472.815)">
      <path id="Trazado_263553" data-name="Trazado 263553" d="M2800.389,1749.022l-5.219-2.29,19.754-45.008,5.877.792Z" transform="translate(-2701.517 -1450.794)" fill="#feca2e"/>
      <g id="Grupo_156867" data-name="Grupo 156867" transform="translate(71.048 146.392)">
        <path id="Trazado_263554" data-name="Trazado 263554" d="M2688.607,1274.622l1.184,6.939a5.527,5.527,0,0,0,4.551,4.524l5.514.907a4.622,4.622,0,0,1,3.409,2.577,49.314,49.314,0,0,0,6,9.525,4.624,4.624,0,0,1,.852,4.193l-1.569,5.37a5.527,5.527,0,0,0,2.11,6.06l5.744,4.07a5.527,5.527,0,0,0,6.417-.019l4.546-3.261a4.624,4.624,0,0,1,4.238-.586,49.345,49.345,0,0,0,10.975,2.5,4.621,4.621,0,0,1,3.562,2.361l2.685,4.9a5.526,5.526,0,0,0,5.777,2.793l6.939-1.184a5.527,5.527,0,0,0,4.524-4.551l.907-5.514a4.623,4.623,0,0,1,2.578-3.408,49.335,49.335,0,0,0,9.524-6,4.626,4.626,0,0,1,4.193-.852l5.37,1.569a5.526,5.526,0,0,0,6.06-2.11l4.069-5.744a5.528,5.528,0,0,0-.019-6.417l-3.261-4.546a4.624,4.624,0,0,1-.586-4.238,49.359,49.359,0,0,0,2.5-10.974,4.622,4.622,0,0,1,2.36-3.562l4.9-2.685a5.527,5.527,0,0,0,2.793-5.777l-1.184-6.94a5.526,5.526,0,0,0-4.55-4.524l-5.515-.907a4.622,4.622,0,0,1-3.408-2.577,49.319,49.319,0,0,0-6-9.524,4.625,4.625,0,0,1-.853-4.193l1.57-5.37a5.528,5.528,0,0,0-2.11-6.06l-5.744-4.07a5.527,5.527,0,0,0-6.417.019l-4.546,3.261a4.625,4.625,0,0,1-4.238.586,49.345,49.345,0,0,0-10.975-2.5,4.622,4.622,0,0,1-3.562-2.361l-2.685-4.9a5.526,5.526,0,0,0-5.776-2.793l-6.94,1.184a5.525,5.525,0,0,0-4.523,4.551l-.908,5.515a4.622,4.622,0,0,1-2.577,3.408,49.343,49.343,0,0,0-9.524,6,4.625,4.625,0,0,1-4.193.852l-5.37-1.569a5.527,5.527,0,0,0-6.061,2.11l-4.069,5.744a5.526,5.526,0,0,0,.019,6.417l3.261,4.546a4.625,4.625,0,0,1,.586,4.238,49.334,49.334,0,0,0-2.5,10.974,4.621,4.621,0,0,1-2.361,3.561l-4.9,2.685A5.527,5.527,0,0,0,2688.607,1274.622Zm18.553-3.783a40.965,40.965,0,1,1,43.655,38.085A40.965,40.965,0,0,1,2707.16,1270.838Z" transform="translate(-2688.528 -1208.551)" fill="#feca2e"/>
      </g>
      <path id="Trazado_263555" data-name="Trazado 263555" d="M2802.509,975.2,2783.2,888.123l6.53,3.122,16.749,75.511Z" transform="translate(-2692.082 -809.652)" fill="#feca2e"/>
      <path id="Trazado_263556" data-name="Trazado 263556" d="M2358.923,789.883l-5.576-5.116,60.343-6.7,5.641,5.108Z" transform="translate(-2353.347 -722.927)" fill="#feca2e"/>
      <g id="Grupo_156868" data-name="Grupo 156868" transform="translate(52.285 0)">
        <path id="Trazado_263557" data-name="Trazado 263557" d="M2600.067,566.756l.875,5.129a4.085,4.085,0,0,0,3.364,3.344l4.076.67a3.416,3.416,0,0,1,2.519,1.9,36.453,36.453,0,0,0,4.434,7.039,3.419,3.419,0,0,1,.63,3.1l-1.16,3.969a4.085,4.085,0,0,0,1.56,4.479l4.245,3.008a4.085,4.085,0,0,0,4.743-.014l3.36-2.41a3.418,3.418,0,0,1,3.132-.433,36.473,36.473,0,0,0,8.111,1.849,3.417,3.417,0,0,1,2.632,1.745l1.984,3.623a4.084,4.084,0,0,0,4.27,2.064l5.129-.875a4.085,4.085,0,0,0,3.343-3.364l.671-4.076a3.416,3.416,0,0,1,1.9-2.519,36.462,36.462,0,0,0,7.039-4.434,3.419,3.419,0,0,1,3.1-.63l3.969,1.16a4.085,4.085,0,0,0,4.479-1.559l3.007-4.245a4.085,4.085,0,0,0-.014-4.743l-2.41-3.36a3.418,3.418,0,0,1-.433-3.132,36.477,36.477,0,0,0,1.849-8.111,3.416,3.416,0,0,1,1.745-2.632l3.623-1.984a4.084,4.084,0,0,0,2.064-4.27l-.875-5.129a4.085,4.085,0,0,0-3.363-3.344l-4.076-.671a3.417,3.417,0,0,1-2.519-1.9,36.451,36.451,0,0,0-4.434-7.039,3.419,3.419,0,0,1-.63-3.1l1.16-3.969a4.085,4.085,0,0,0-1.559-4.479l-4.245-3.008a4.085,4.085,0,0,0-4.743.014l-3.36,2.41a3.418,3.418,0,0,1-3.133.433,36.453,36.453,0,0,0-8.111-1.849,3.415,3.415,0,0,1-2.632-1.745l-1.984-3.623a4.085,4.085,0,0,0-4.27-2.064l-5.129.875a4.084,4.084,0,0,0-3.343,3.363l-.671,4.076a3.416,3.416,0,0,1-1.9,2.519,36.469,36.469,0,0,0-7.04,4.433,3.418,3.418,0,0,1-3.1.63l-3.969-1.16a4.085,4.085,0,0,0-4.479,1.559l-3.008,4.245a4.085,4.085,0,0,0,.014,4.742l2.41,3.36a3.418,3.418,0,0,1,.433,3.133,36.474,36.474,0,0,0-1.849,8.111,3.416,3.416,0,0,1-1.745,2.633l-3.623,1.984A4.085,4.085,0,0,0,2600.067,566.756Zm13.713-2.8a30.277,30.277,0,1,1,32.266,28.149A30.277,30.277,0,0,1,2613.779,563.96Z" transform="translate(-2600.008 -517.923)" fill="#feca2e"/>
      </g>
    </g>
    <g id="Grupo_156872" data-name="Grupo 156872" transform="translate(480.82 460.681)">
      <rect id="Rectángulo_90644" data-name="Rectángulo 90644" width="5.7" height="72.08" transform="matrix(0.288, -0.958, 0.958, 0.288, 129.181, 88.944)" fill="#feca2e"/>
      <g id="Grupo_156871" data-name="Grupo 156871" transform="translate(0 0)">
        <g id="Grupo_156870" data-name="Grupo 156870">
          <path id="Trazado_263558" data-name="Trazado 263558" d="M565.03,507.7l-2.41,8.27a6.763,6.763,0,0,0,2.587,7.414l5.583,3.949a5.656,5.656,0,0,1,2.371,4.66,60.382,60.382,0,0,0,1.5,13.691,5.658,5.658,0,0,1-1.306,5.07l-4.6,5.069a6.763,6.763,0,0,0-.921,7.8l4.143,7.552a6.763,6.763,0,0,0,7.072,3.413l6.747-1.156a5.659,5.659,0,0,1,4.977,1.623,60.4,60.4,0,0,0,10.738,8.625,5.656,5.656,0,0,1,2.656,4.5l.331,6.831a6.763,6.763,0,0,0,4.862,6.165l8.27,2.411A6.763,6.763,0,0,0,625.048,601l3.95-5.583a5.655,5.655,0,0,1,4.66-2.371,60.365,60.365,0,0,0,13.691-1.5,5.66,5.66,0,0,1,5.07,1.306l5.069,4.6a6.763,6.763,0,0,0,7.8.921l7.552-4.143a6.764,6.764,0,0,0,3.413-7.072l-1.156-6.747a5.659,5.659,0,0,1,1.623-4.977,60.4,60.4,0,0,0,8.625-10.738,5.654,5.654,0,0,1,4.5-2.656l6.831-.331a6.762,6.762,0,0,0,6.165-4.862l2.411-8.27a6.762,6.762,0,0,0-2.586-7.413l-5.583-3.95a5.656,5.656,0,0,1-2.371-4.66,60.376,60.376,0,0,0-1.5-13.691,5.659,5.659,0,0,1,1.306-5.07l4.6-5.069a6.764,6.764,0,0,0,.921-7.8l-4.143-7.552a6.763,6.763,0,0,0-7.072-3.413l-6.747,1.156a5.659,5.659,0,0,1-4.977-1.623,60.367,60.367,0,0,0-10.738-8.625,5.655,5.655,0,0,1-2.656-4.5l-.331-6.831a6.763,6.763,0,0,0-4.862-6.165l-8.27-2.411a6.762,6.762,0,0,0-7.413,2.587l-3.95,5.583a5.655,5.655,0,0,1-4.66,2.371,60.387,60.387,0,0,0-13.691,1.5,5.659,5.659,0,0,1-5.07-1.306l-5.069-4.6a6.764,6.764,0,0,0-7.8-.921l-7.552,4.143a6.763,6.763,0,0,0-3.413,7.071l1.156,6.747a5.659,5.659,0,0,1-1.623,4.978,60.384,60.384,0,0,0-8.625,10.738,5.655,5.655,0,0,1-4.5,2.656l-6.831.331A6.763,6.763,0,0,0,565.03,507.7Zm22.441,5.765a50.127,50.127,0,1,1,27.658,65.273A50.127,50.127,0,0,1,587.471,513.462Z" transform="translate(-562.349 -460.681)" fill="#feca2e"/>
        </g>
      </g>
    </g>
    <g id="Grupo_156873" data-name="Grupo 156873" transform="translate(551.393 545.843)">
      <path id="Trazado_263559" data-name="Trazado 263559" d="M895.4,866.7a3.429,3.429,0,0,1,5.553-3.428c25.723,21.84,88.21,87.97,79.546,209.44-10.87,152.4,23.452,206.095,64.418,237.843,0,0-54.735-13.154-91.481-67.54C863.222,1109.483,910.032,923.945,895.4,866.7Z" transform="translate(-895.291 -862.444)" fill="#feca2e"/>
      <path id="Trazado_263560" data-name="Trazado 263560" d="M995.119,1097.245c3.918,16.709,7.5,33.487,10.472,50.372q4.584,25.3,7.611,50.823c1.946,17.013,3.572,34.059,4.472,51.149.977,17.085,1.218,34.193,1.4,51.371.279,17.167.461,34.462,2.415,51.791,1.934,17.294,5.964,34.636,13.043,50.727,1.769,4.01,3.618,8,5.683,11.848,2,3.885,4.163,7.682,6.4,11.439a180.527,180.527,0,0,0,53.6,56.853,3.317,3.317,0,0,0,3.851-5.4l-.01-.008c-3.415-2.5-6.8-5.046-10.056-7.729-1.651-1.316-3.24-2.7-4.854-4.058-1.561-1.415-3.177-2.77-4.693-4.232a174.877,174.877,0,0,1-17.171-18.476,191.731,191.731,0,0,1-26.053-43.131,167.039,167.039,0,0,1-8.156-23.806,189.433,189.433,0,0,1-4.6-24.85c-2.026-16.813-2.349-33.93-2.75-51.094-.424-17.167-.968-34.415-2.221-51.614q-.9-12.9-2.272-25.758c-.431-4.287-.945-8.566-1.451-12.845q-.821-6.411-1.723-12.809-3.68-25.583-8.93-50.881c-3.585-16.837-7.615-33.574-12.284-50.127a.89.89,0,0,0-1.723.445Z" transform="translate(-973.94 -1046.613)" fill="#fff" style="mix-blend-mode: soft-light;isolation: isolate"/>
    </g>
    <g id="Grupo_156875" data-name="Grupo 156875" transform="translate(458.889 618.829)">
      <g id="Grupo_156874" data-name="Grupo 156874" transform="translate(0 0)">
        <path id="Trazado_263561" data-name="Trazado 263561" d="M605.863,1582.084a8.622,8.622,0,0,1-13.418,4.984c-27.474-19.661-100.124-82.276-107.265-198.684-6.031-98.3-18.642-151.032-26.026-174.573a5.407,5.407,0,0,1,8.352-5.978C513.982,1241.788,656.764,1366.138,605.863,1582.084Z" transform="translate(-458.889 -1206.767)" fill="#a7e446"/>
        <path id="Trazado_263562" data-name="Trazado 263562" d="M774.019,1971.453a2.395,2.395,0,0,1-3.633-.66c-.729-1.307-73.094-132.253-87.654-268.557a2.391,2.391,0,1,1,4.755-.508c14.453,135.312,86.35,265.436,87.074,266.734A2.391,2.391,0,0,1,774.019,1971.453Z" transform="translate(-635.274 -1595.128)" fill="#fff" style="mix-blend-mode: soft-light;isolation: isolate"/>
      </g>
    </g>
    <path id="Trazado_263563" data-name="Trazado 263563" d="M1103.491,1281.439,1305.043,917.95l117.164,320.023Zm199.691-339.563-181.315,326.991,286.714-39.1Z" transform="translate(-507.966 -360.342)" fill="#fc4b52"/>
    <g id="Grupo_156881" data-name="Grupo 156881" transform="translate(778.046 733.762)">
      <circle id="Elipse_5739" data-name="Elipse 5739" cx="106.409" cy="106.409" r="106.409" transform="translate(33.504 28.853)" fill="#fff"/>
      <g id="Grupo_156877" data-name="Grupo 156877" transform="translate(0.158 0)">
        <g id="Grupo_156876" data-name="Grupo 156876">
          <path id="Trazado_263564" data-name="Trazado 263564" d="M1966.334,1868.475l-1,15.978a12.57,12.57,0,0,0,7.711,12.391l11.733,4.889a10.512,10.512,0,0,1,6.2,7.485,112.2,112.2,0,0,0,8.3,24.215,10.517,10.517,0,0,1-.3,9.726l-6.279,11.066a12.571,12.571,0,0,0,1.5,14.517l10.588,12.008a12.571,12.571,0,0,0,14.214,3.31l11.765-4.845a10.519,10.519,0,0,1,9.688.917,112.241,112.241,0,0,0,22.986,11.269,10.511,10.511,0,0,1,6.65,7.086l3.382,12.252a12.57,12.57,0,0,0,11.329,9.2l15.978,1a12.57,12.57,0,0,0,12.391-7.711l4.889-11.733a10.511,10.511,0,0,1,7.485-6.2,112.218,112.218,0,0,0,24.215-8.3,10.52,10.52,0,0,1,9.727.3l11.066,6.279a12.57,12.57,0,0,0,14.516-1.5l12.008-10.588a12.571,12.571,0,0,0,3.31-14.214l-4.844-11.765a10.518,10.518,0,0,1,.917-9.688,112.243,112.243,0,0,0,11.269-22.986,10.509,10.509,0,0,1,7.086-6.65l12.253-3.382a12.569,12.569,0,0,0,9.2-11.328l1-15.979a12.568,12.568,0,0,0-7.709-12.39l-11.733-4.889a10.511,10.511,0,0,1-6.2-7.485,112.2,112.2,0,0,0-8.3-24.215,10.521,10.521,0,0,1,.3-9.726l6.279-11.066a12.57,12.57,0,0,0-1.505-14.516l-10.588-12.008a12.57,12.57,0,0,0-14.214-3.309l-11.765,4.844a10.519,10.519,0,0,1-9.687-.917,112.231,112.231,0,0,0-22.986-11.269,10.51,10.51,0,0,1-6.651-7.086l-3.382-12.253a12.571,12.571,0,0,0-11.329-9.2l-15.979-1a12.568,12.568,0,0,0-12.39,7.71l-4.889,11.733a10.511,10.511,0,0,1-7.485,6.2,112.237,112.237,0,0,0-24.216,8.3,10.519,10.519,0,0,1-9.726-.3l-11.066-6.279a12.571,12.571,0,0,0-14.517,1.5l-12.008,10.589a12.57,12.57,0,0,0-3.309,14.213l4.844,11.765a10.518,10.518,0,0,1-.916,9.688,112.244,112.244,0,0,0-11.269,22.985,10.51,10.51,0,0,1-7.086,6.651l-12.253,3.382A12.57,12.57,0,0,0,1966.334,1868.475Zm43.043,1.317a93.167,93.167,0,1,1,76.738,107.105A93.167,93.167,0,0,1,2009.378,1869.792Z" transform="translate(-1965.306 -1748.982)" fill="#fc4b52"/>
        </g>
      </g>
      <g id="Grupo_156880" data-name="Grupo 156880" transform="translate(0 12.652)">
        <g id="Grupo_156879" data-name="Grupo 156879" clip-path="url(#clip-path)">
          <g id="Grupo_156878" data-name="Grupo 156878" transform="translate(25.566 12.014)">
            <path id="Trazado_263565" data-name="Trazado 263565" d="M2086.559,2154.686a1.522,1.522,0,0,1,2.828-.054c1.967,4.7,6.314,12.8,13.572,14.954.366.109.713.221,1.05.336a3.524,3.524,0,0,0-.828-3.109c-2.549-3,.75-7.948.75-7.948a10.029,10.029,0,0,0,4.049,6c2.842,1.808,4.674,6.4,3.4,10.51-1.9,14.926-5.075,34.75,18.394,45.991s48.975-32.94,48.975-32.94l-9.128,50.019s-21.251,20.231-51.554-.65-16.69-58.522-16.69-58.522S2079.545,2173.5,2086.559,2154.686Z" transform="translate(-2085.17 -2092.577)" fill="url(#linear-gradient-2)"/>
            <path id="Trazado_263566" data-name="Trazado 263566" d="M2488.964,1890.031s-9.838-27.426,23.423-24.02c0,0,15.367-4.536,18.026,10.172,0,0,10.951,5.392,5.157,19.139,0,0,28.6-15.388,45,9.31s6.192,40.707-5.952,46.069c0,0,10.869,3.848,7.487,16.047s-26.862,23.451-43.111,11.176c0,0-40.509,10.622-43.342-18.578,0,0-20.715-9.964-3.615-36.54S2488.964,1890.031,2488.964,1890.031Z" transform="translate(-2400.466 -1865.351)" fill="url(#linear-gradient-3)"/>
            <path id="Trazado_263567" data-name="Trazado 263567" d="M2462.619,2277.959c6.25-2.764,24.709-8.736,44.784,5.6a11.228,11.228,0,0,1,4.6,10.7c-2.6,18.394-8.736,72.547,5.3,93.88,0,0-16.967,24.189-40.655,9.391,0,0-14.924-40.808-29.871-57.667-10.319-11.639,7.89-49.572,12.547-58.768A6.756,6.756,0,0,1,2462.619,2277.959Z" transform="translate(-2367.674 -2187.651)" fill="url(#linear-gradient-4)"/>
            <path id="Trazado_263568" data-name="Trazado 263568" d="M2550.725,2114.042s13.021,25.962,15.251,37.858a20.706,20.706,0,0,1-21.037-.728s-4.461-27.006-6.589-31.675Z" transform="translate(-2442.29 -2061.327)" fill="url(#linear-gradient-5)"/>
            <path id="Trazado_263569" data-name="Trazado 263569" d="M2472.19,1942.688s-20.7,38.318-4.4,46.642,31.045-18.91,31.045-18.91,3.41-19.977-3.506-25.739S2472.19,1942.688,2472.19,1942.688Z" transform="translate(-2381.754 -1925.341)" fill="url(#linear-gradient-6)"/>
            <path id="Trazado_263570" data-name="Trazado 263570" d="M2516.357,1895.93s-11.2,4.186-12.159,9.611,17.633,8.007,22.7,7.61l6.71,20.563s9.511-21.333,3.317-32.184S2516.357,1895.93,2516.357,1895.93Z" transform="translate(-2415.349 -1888.447)" fill="url(#linear-gradient-7)"/>
            <path id="Trazado_263571" data-name="Trazado 263571" d="M2613,2039.971s8.355-12.554,13.173-5.66-7.177,14.033-12.026,10.96Z" transform="translate(-2501.118 -1996.867)" fill="url(#linear-gradient-8)"/>
            <path id="Trazado_263572" data-name="Trazado 263572" d="M2705.9,2327.785s33.892,21.644,45.888,55.533-39.993,44.188-39.993,44.188-8.121-7.057-16.218-3.157-2.4-13.8,7.5-15,6.3,7.2,19.494-.9c12.855-7.888,18.879-28.043-19.539-52.616a15.874,15.874,0,0,1-5.379-5.677C2688.757,2334,2692.715,2322.179,2705.9,2327.785Z" transform="translate(-2563.153 -2228.65)" fill="url(#linear-gradient-9)"/>
          </g>
        </g>
      </g>
    </g>
    <g id="Grupo_156889" data-name="Grupo 156889" transform="translate(494.171 767.173)">
      <circle id="Elipse_5740" data-name="Elipse 5740" cx="113.941" cy="113.941" r="113.941" transform="translate(26.645 24.79)" fill="#fff"/>
      <g id="Grupo_156882" data-name="Grupo 156882" transform="translate(0 0)">
        <path id="Trazado_263574" data-name="Trazado 263574" d="M626.4,2030.132l-1.038,16.518a13,13,0,0,0,7.971,12.809l12.129,5.054a10.866,10.866,0,0,1,6.407,7.738,116,116,0,0,0,8.584,25.033,10.872,10.872,0,0,1-.314,10.054l-6.491,11.44a13,13,0,0,0,1.556,15.007l10.946,12.414a13,13,0,0,0,14.694,3.421l12.163-5.008a10.873,10.873,0,0,1,10.015.948,116.015,116.015,0,0,0,23.762,11.649,10.867,10.867,0,0,1,6.875,7.325l3.5,12.666a13,13,0,0,0,11.711,9.511l16.518,1.038a13,13,0,0,0,12.81-7.971l5.054-12.129a10.865,10.865,0,0,1,7.738-6.407,116.013,116.013,0,0,0,25.032-8.584,10.875,10.875,0,0,1,10.055.314l11.439,6.491a12.994,12.994,0,0,0,15.007-1.555l12.414-10.946a13,13,0,0,0,3.422-14.694l-5.008-12.162a10.874,10.874,0,0,1,.948-10.015,116.051,116.051,0,0,0,11.649-23.761,10.863,10.863,0,0,1,7.325-6.875l12.667-3.5a12.994,12.994,0,0,0,9.511-11.711l1.038-16.519a12.994,12.994,0,0,0-7.97-12.809l-12.13-5.054a10.865,10.865,0,0,1-6.407-7.738,116.017,116.017,0,0,0-8.584-25.033,10.875,10.875,0,0,1,.314-10.055l6.491-11.44a12.994,12.994,0,0,0-1.556-15.006L865.7,1948.179A13,13,0,0,0,851,1944.758l-12.162,5.008a10.874,10.874,0,0,1-10.015-.948,116.019,116.019,0,0,0-23.762-11.649,10.865,10.865,0,0,1-6.875-7.325l-3.5-12.666a13,13,0,0,0-11.711-9.511l-16.519-1.038a12.992,12.992,0,0,0-12.808,7.97l-5.054,12.13a10.866,10.866,0,0,1-7.738,6.407,116.028,116.028,0,0,0-25.033,8.584,10.874,10.874,0,0,1-10.055-.313l-11.44-6.491a13,13,0,0,0-15.007,1.555l-12.414,10.946a12.994,12.994,0,0,0-3.421,14.693l5.008,12.163a10.873,10.873,0,0,1-.947,10.015,116.049,116.049,0,0,0-11.649,23.761,10.864,10.864,0,0,1-7.325,6.875l-12.667,3.5A12.994,12.994,0,0,0,626.4,2030.132Zm44.5,1.361a96.313,96.313,0,1,1,79.33,110.722A96.313,96.313,0,0,1,670.9,2031.492Z" transform="translate(-625.339 -1906.602)" fill="#fc4b52"/>
      </g>
      <g id="Grupo_156888" data-name="Grupo 156888" transform="translate(9.45 13.111)">
        <g id="Grupo_156887" data-name="Grupo 156887" clip-path="url(#clip-path-2)">
          <g id="Grupo_156886" data-name="Grupo 156886" transform="translate(62.114 16.532)">
            <path id="Trazado_263575" data-name="Trazado 263575" d="M1544.979,2807.947c5.606,4.517,12.339,6.242,20.217,2.165l3.577,8.107s-3.591,17.93-21.58,19.553a21.691,21.691,0,0,1-5.291-.2C1533.561,2824.57,1539.75,2813.8,1544.979,2807.947Z" transform="translate(-1415.964 -2646.532)" fill="url(#linear-gradient-10)"/>
            <path id="Trazado_263576" data-name="Trazado 263576" d="M1431.863,2672.943l8.589-51.165c.339.532,7.292,28.394,21.03,39.462-5.228,5.856-11.418,16.623-3.077,29.627C1443.859,2688.61,1431.863,2672.943,1431.863,2672.943Z" transform="translate(-1332.468 -2499.826)" fill="url(#linear-gradient-11)"/>
            <path id="Trazado_263577" data-name="Trazado 263577" d="M1099.267,2475.7s31.644-10.549,72.481-4.7c4.266.611,15.293,23.607,13.652,39.586-2.78,27.062-17.548,72.48-18.076,72.621-17.03,4.522-73.135.708-73.135.708Z" transform="translate(-1066.37 -2379.614)" fill="url(#linear-gradient-12)"/>
            <path id="Trazado_263578" data-name="Trazado 263578" d="M1265.278,2289.367l1.765,27.415a5.949,5.949,0,0,0,4.129,5.4c5.331,1.578,15.4,3.48,25.263-.5a3.926,3.926,0,0,0,2.126-4.817l-13.052-41.921Z" transform="translate(-1201.194 -2226.512)" fill="url(#linear-gradient-13)"/>
            <g id="Grupo_156883" data-name="Grupo 156883" transform="translate(41.236)">
              <path id="Trazado_263579" data-name="Trazado 263579" d="M1252.742,2144.228s14.7,14.835,18.865,24,8.541,14.463-1.561,20.558-21.325,4.241-29.894-3.172c0,0-13.333-11.374-13.882-17.939S1252.742,2144.228,1252.742,2144.228Z" transform="translate(-1211.683 -2123.502)" fill="url(#linear-gradient-14)"/>
              <path id="Trazado_263580" data-name="Trazado 263580" d="M1187.051,2100.416l1.37-.532s-10.139-9.384-5.97-13.343,22.255-15.593,23.787-24.208c1.476-8.305-5.538-15.57-11.932-15.881a.782.782,0,0,0-.795.7l-.12,1.03a.79.79,0,0,1-1.412.388.786.786,0,0,0-1.4.31c-.488,2.588-2.684,7.341-11.43,12.739-12.41,7.659-19.147,16.5-15.776,25.824a.79.79,0,0,1-.905,1.046c-1.22-.218-2.909.113-4.331,2.707-2.472,4.512,2.139,11.935,12.744,15.4a.784.784,0,0,1,.423,1.193c-1.09,1.516-2.386,4.62,4.418,5.444,6.96.843,10.241-.818,11.4-1.647a.79.79,0,0,0,.261-.978l-3.685-7.991a.789.789,0,0,1,.431-1.066Z" transform="translate(-1157.486 -2046.45)" fill="url(#linear-gradient-15)"/>
              <path id="Trazado_263581" data-name="Trazado 263581" d="M1256.894,2284.219s-7.393-10.253-11.265-5.07,7.615,11.747,11.891,10.578Z" transform="translate(-1226.327 -2228.671)" fill="url(#linear-gradient-16)"/>
            </g>
            <g id="Grupo_156884" data-name="Grupo 156884" transform="translate(0 96.084)">
              <path id="Trazado_263582" data-name="Trazado 263582" d="M996.088,2578.567c-1.712-12.089,10.808-29.861,15.986-36.6a11.206,11.206,0,0,0,2.331-6.719c.151-17.121-7.038-28.118-18.557-35.5,0,0-41.807,48.707-31.162,86.17a31.517,31.517,0,0,0,5.186,10.5C971.55,2582.3,987.866,2579.219,996.088,2578.567Z" transform="translate(-962.951 -2499.742)" fill="url(#linear-gradient-17)"/>
              <path id="Trazado_263583" data-name="Trazado 263583" d="M1117.037,2729.038l-1.593-.182c1.35-11.856,11.754-26.492,16.164-32.235l1.272.977C1128.551,2703.234,1118.343,2717.581,1117.037,2729.038Z" transform="translate(-1083.12 -2654.889)" fill="#a7e446"/>
              <path id="Trazado_263584" data-name="Trazado 263584" d="M1022.147,2873.285a14.032,14.032,0,0,1-.328-1.674c-8.222.651-24.538,3.731-26.216,17.847,18.657,24.675,70.082,15.772,70.082,15.772v-9.6S1026.19,2888.292,1022.147,2873.285Z" transform="translate(-988.682 -2792.786)" fill="url(#linear-gradient-18)"/>
            </g>
            <path id="Trazado_263585" data-name="Trazado 263585" d="M1302.9,2980.383s2.8-19.176,20.972-11.562c13.662,5.723,12.327,10.514,12.327,10.514Z" transform="translate(-1230.842 -2771.898)" fill="url(#linear-gradient-19)"/>
            <g id="Grupo_156885" data-name="Grupo 156885" transform="translate(113.369 112.993)">
              <path id="Trazado_263586" data-name="Trazado 263586" d="M1550.85,2622.793l-9.148,55.773a2.534,2.534,0,0,1-1.806,2.035c-3.484.981-12.3,2.864-20.956-.1a3.474,3.474,0,0,1-2.274-2.708l-9.691-56.205Z" transform="translate(-1505.028 -2612.668)" fill="#feca2e"/>
              <path id="Trazado_263587" data-name="Trazado 263587" d="M1559.619,2585.885l-2.088-4.654a1.363,1.363,0,0,0-1.126-.8c-4.066-.35-22.77-1.8-35.025-.107a2.1,2.1,0,0,0-1.65,1.277l-1.626,3.91Z" transform="translate(-1513.797 -2579.513)" fill="#a7e446"/>
              <path id="Trazado_263588" data-name="Trazado 263588" d="M1545.259,2604.469l.39,3.842a1.67,1.67,0,0,1-1.537,1.844c-7.079.486-34.221,2.06-45.239-1.46a1.58,1.58,0,0,1-1.032-1.908l.516-1.974a2.489,2.489,0,0,1,2.411-1.87l42.974.137A1.537,1.537,0,0,1,1545.259,2604.469Z" transform="translate(-1497.788 -2597.977)" fill="#feca2e"/>
              <path id="Trazado_263589" data-name="Trazado 263589" d="M1552.942,2686.826s-25.111,4.027-39.056,0l-.212-1.231-.743.782a1.634,1.634,0,0,0-.421,1.42l4.083,22.259s17.588,4.229,33.459.271l3.964-22.525a2.193,2.193,0,0,0-.4-1.766l-.446-.585Z" transform="translate(-1509.367 -2662.996)" fill="#a7e446"/>
              <path id="Trazado_263590" data-name="Trazado 263590" d="M1543.663,2722.8a.477.477,0,0,1-.468-.485l.377-20.355a.47.47,0,0,1,.486-.469.477.477,0,0,1,.468.485l-.377,20.355a.477.477,0,0,1-.477.468Zm-4.812-.06a.477.477,0,0,1-.468-.485l.373-20.127a.477.477,0,1,1,.954.017l-.373,20.127a.477.477,0,0,1-.477.468Zm9.627-.22a.478.478,0,0,1-.468-.486l.378-20.4a.451.451,0,0,1,.486-.469.478.478,0,0,1,.468.485l-.378,20.4a.477.477,0,0,1-.477.469Zm-15.344-.134a.477.477,0,0,1-.468-.486l.367-19.82a.514.514,0,0,1,.486-.469.477.477,0,0,1,.468.485l-.367,19.82a.478.478,0,0,1-.477.469Zm19.129-.321a.478.478,0,0,1-.466-.487l.448-20.3a.465.465,0,0,1,.488-.467.478.478,0,0,1,.466.487l-.448,20.3a.477.477,0,0,1-.477.467Zm-24.639-.822-1.439-19.679a.477.477,0,0,1,.441-.511.468.468,0,0,1,.51.442l1.439,19.679a.476.476,0,0,1-.44.51h-.035A.476.476,0,0,1,1527.624,2721.239Zm27.464.309a.477.477,0,0,1-.435-.515l1.726-20.3a.477.477,0,0,1,.95.08l-1.726,20.3a.477.477,0,0,1-.475.437Zm-31.206-.967-2.479-19.9a.477.477,0,0,1,.947-.117l2.479,19.9a.477.477,0,0,1-.414.532.416.416,0,0,1-.06,0A.478.478,0,0,1,1523.883,2720.581Z" transform="translate(-1516.395 -2674.574)" fill="#fff" style="mix-blend-mode: soft-light;isolation: isolate"/>
            </g>
            <path id="Trazado_263591" data-name="Trazado 263591" d="M1655.073,2744.259s-7.744-4.763-12.859-1.157c-4.874,3.435,3.076,24.154,5.938,26.177S1660.8,2755.228,1655.073,2744.259Z" transform="translate(-1497.012 -2594.37)" fill="url(#linear-gradient-20)"/>
          </g>
        </g>
      </g>
    </g>
    <g id="Grupo_156897" data-name="Grupo 156897" transform="translate(640.576 463.744)">
      <circle id="Elipse_5741" data-name="Elipse 5741" cx="106.409" cy="106.409" r="106.409" transform="translate(26.05 26.527)" fill="#fff"/>
      <g id="Grupo_156891" data-name="Grupo 156891" transform="translate(0 0)">
        <g id="Grupo_156890" data-name="Grupo 156890">
          <path id="Trazado_263593" data-name="Trazado 263593" d="M1570.976,580.484l-11.934-3.294a10.237,10.237,0,0,1-6.9-6.478,109.337,109.337,0,0,0-10.976-22.388,10.245,10.245,0,0,1-.893-9.436l4.719-11.46a12.243,12.243,0,0,0-3.223-13.844l-11.7-10.314a12.244,12.244,0,0,0-14.14-1.465l-10.778,6.115a10.245,10.245,0,0,1-9.473.3,109.321,109.321,0,0,0-23.586-8.087,10.238,10.238,0,0,1-7.291-6.037l-4.762-11.428a12.242,12.242,0,0,0-12.068-7.51l-15.564.978a12.243,12.243,0,0,0-11.034,8.961l-3.294,11.934a10.237,10.237,0,0,1-6.478,6.9,109.292,109.292,0,0,0-22.388,10.976,10.245,10.245,0,0,1-9.436.893l-11.459-4.718a12.244,12.244,0,0,0-13.845,3.224L1344.163,526a12.243,12.243,0,0,0-1.465,14.139l6.115,10.778a10.246,10.246,0,0,1,.3,9.473,109.3,109.3,0,0,0-8.087,23.586,10.237,10.237,0,0,1-6.037,7.291l-11.428,4.762a12.242,12.242,0,0,0-7.509,12.068l.978,15.564a12.243,12.243,0,0,0,8.961,11.034l11.934,3.294a10.236,10.236,0,0,1,6.9,6.477,109.334,109.334,0,0,0,10.976,22.388,10.244,10.244,0,0,1,.893,9.436l-4.718,11.459a12.245,12.245,0,0,0,3.224,13.845l11.7,10.313a12.243,12.243,0,0,0,14.139,1.466l10.778-6.116a10.247,10.247,0,0,1,9.474-.3,109.3,109.3,0,0,0,23.585,8.088,10.238,10.238,0,0,1,7.291,6.037l4.762,11.428a12.244,12.244,0,0,0,12.069,7.51l15.563-.978a12.243,12.243,0,0,0,11.034-8.961l3.294-11.934a10.237,10.237,0,0,1,6.477-6.9,109.305,109.305,0,0,0,22.388-10.976,10.246,10.246,0,0,1,9.436-.893l11.459,4.719a12.244,12.244,0,0,0,13.845-3.224l10.313-11.7a12.244,12.244,0,0,0,1.466-14.139l-6.116-10.779a10.245,10.245,0,0,1-.3-9.473,109.29,109.29,0,0,0,8.088-23.586,10.237,10.237,0,0,1,6.037-7.291l11.428-4.762a12.244,12.244,0,0,0,7.51-12.069l-.978-15.563A12.243,12.243,0,0,0,1570.976,580.484ZM1463.27,697.122A90.746,90.746,0,1,1,1538.013,592.8,90.746,90.746,0,0,1,1463.27,697.122Z" transform="translate(-1316.022 -475.131)" fill="#a7e446"/>
        </g>
      </g>
      <g id="Grupo_156896" data-name="Grupo 156896" transform="translate(30.587 30.82)">
        <g id="Grupo_156895" data-name="Grupo 156895" clip-path="url(#clip-path-3)">
          <g id="Grupo_156894" data-name="Grupo 156894" transform="translate(11.112 -0.787)">
            <path id="Trazado_263594" data-name="Trazado 263594" d="M1928.905,1018.07s39.22,70.922,95.41,76.053l3,8.449s-77.43,15.121-117.095-48.665Z" transform="translate(-1825.964 -933.016)" fill="url(#linear-gradient-21)"/>
            <path id="Trazado_263595" data-name="Trazado 263595" d="M2441.075,1360.424a5.434,5.434,0,0,1,4.661-7.871c.194,0,.394,0,.6.007,6.612.247,13.314-.772,15.791-2.467a1.776,1.776,0,0,1,2.511.441c.684,1.106.142,2.983-6.123,5.714,0,0,13.864,5.4,25.03.1,10.884-5.173-4.839,22.214-37.948,9.072a7.25,7.25,0,0,1-3.808-3.543Z" transform="translate(-2243.847 -1194.399)" fill="url(#linear-gradient-22)"/>
            <path id="Trazado_263596" data-name="Trazado 263596" d="M1690.606,1101.308s36.359-99.606,7.735-122.23c0,0-42.9-6.921-74.093,4.909l3.559,91.341S1650.7,1115.57,1690.606,1101.308Z" transform="translate(-1600.613 -900.703)" fill="url(#linear-gradient-23)"/>
            <path id="Trazado_263597" data-name="Trazado 263597" d="M1788.844,796.26s-5.573,13.535-6.992,24.177a7.152,7.152,0,0,1-5.942,6.1c-6.661,1.106-17.7,1.724-24.419-4.406a5.022,5.022,0,0,1-1.318-5.4c2.767-7.745,17.152-39.995,24.989-44.939Z" transform="translate(-1699.611 -738.944)" fill="url(#linear-gradient-24)"/>
            <g id="Grupo_156892" data-name="Grupo 156892" transform="translate(0 83.283)">
              <path id="Trazado_263598" data-name="Trazado 263598" d="M1589.2,1356.79c0,.058,0,.119,0,.176-.118,16.845,22.663,18.456,22.663,18.456s6.515-10.831,14.874-11.184,19.96,13.264,19.96,13.264l-18.55,2.971s-35.375,21.218-59.619-3.989C1572.809,1360.785,1583.024,1357.355,1589.2,1356.79Z" transform="translate(-1556.699 -1283.221)" fill="url(#linear-gradient-25)"/>
              <path id="Trazado_263599" data-name="Trazado 263599" d="M1536.379,1009.715c22.984,8.15,19.658,26.2,19.658,26.2s-10.606,30.488-10.794,47.369c-6.176.565-16.391,3.995-20.677,19.693-.575-.6-1.147-1.214-1.709-1.865C1493.88,1067.536,1536.379,1009.715,1536.379,1009.715Z" transform="translate(-1512.743 -1009.715)" fill="url(#linear-gradient-26)"/>
              <path id="Trazado_263600" data-name="Trazado 263600" d="M1662.746,1192.238a.894.894,0,0,0,.894-.884c.146-13.135,6.691-34.687,9.5-43.343a.894.894,0,0,0-1.7-.552c-2.832,8.734-9.437,30.494-9.586,43.875a.894.894,0,0,0,.884.9Z" transform="translate(-1630.245 -1117.775)" fill="url(#linear-gradient-27)"/>
            </g>
            <g id="Grupo_156893" data-name="Grupo 156893" transform="translate(64.459)">
              <path id="Trazado_263601" data-name="Trazado 263601" d="M1907.976,693.887c0,.674-15.051,42.608-15.051,42.608l-23.761-9.1,8.361-41.865S1907.976,682.606,1907.976,693.887Z" transform="translate(-1858.072 -670.694)" fill="url(#linear-gradient-28)"/>
              <path id="Trazado_263602" data-name="Trazado 263602" d="M1843.573,641.846l-6.127,21.694a3.111,3.111,0,0,0-.119.848c0,1.769.436,7.857,6.637,7.029,5.627-.751,10.774-1.353,14.047.188a3.146,3.146,0,0,1,1.623,3.912,136.023,136.023,0,0,1-8.559,19.317,3.14,3.14,0,0,1-4.039,1.293c-4.463-2.03-13.755-6.576-20.374-11.984a3.15,3.15,0,0,1-1.114-3.023c1.042-5.55,4.144-22.428,4.28-27.265.129-4.54-4.966-8.006-7.209-9.309a3.1,3.1,0,0,1-1.458-1.957c-.7-2.922-1.3-9.536,7.135-10.993a3.153,3.153,0,0,0,2.558-3.75c-.714-3.495-.486-8.638,6.151-10.532,6.746-1.925,10.99,2.135,13.15,5.249a3.151,3.151,0,0,0,3.905,1.042,2.491,2.491,0,0,1,2.792.5,3.1,3.1,0,0,0,4.537-.69c1.967-2.9,5.541-5.785,11.59-3.828,10.735,3.473,10.222,15.85,6.287,22.579s-15.36,2.3-20.768-2.158c-4.112-3.39-10.373-1.362-13.139-.2A3.122,3.122,0,0,0,1843.573,641.846Z" transform="translate(-1819.953 -616.814)" fill="url(#linear-gradient-29)"/>
              <path id="Trazado_263603" data-name="Trazado 263603" d="M1825.76,763.037s5.154-12.172.953-15.946-10.063-2.478-9.871,6.92C1817.08,765.7,1825.76,763.037,1825.76,763.037Z" transform="translate(-1816.838 -717.922)" fill="url(#linear-gradient-30)"/>
            </g>
          </g>
        </g>
      </g>
    </g>
  </g>
</svg>
