<svg xmlns="http://www.w3.org/2000/svg" width="632" height="276" viewBox="0 0 632 276">
  <g id="Grupo_161296" data-name="Grupo 161296" transform="translate(-788 -3659)">
    <rect id="Image_Place_Holder" data-name="Image Place Holder" width="632" height="276" transform="translate(788 3659)" fill="#d9eaea"/>
    <path id="Trazado_263149" data-name="Trazado 263149" d="M106.328,53.605H13.875a6.361,6.361,0,0,0-6.361,6.361v48.771H112.689V59.966A6.361,6.361,0,0,0,106.328,53.605Z" transform="translate(1126.999 3699.739)" fill="#90caf9"/>
    <path id="Trazado_263150" data-name="Trazado 263150" d="M121.569,100.255V77.778H116.48V53.605h-72.1v3.817H22.544V95.59H44.385V104.5H92.307v4.241H94.4l10.439-8.482Z" transform="translate(1115.149 3699.739)" fill="#64b5f6"/>
    <rect id="Rectángulo_90627" data-name="Rectángulo 90627" width="46.65" height="56.404" transform="translate(1163.775 3743.59)" fill="#fdcc15"/>
    <path id="Trazado_263151" data-name="Trazado 263151" d="M192.435,71.818V17.534H179.712V28.985H145.785V71.818h46.65Zm-8.482-4.241h-3.6V51.461h3.6Z" transform="translate(1017.99 3728.177)" fill="#f5b21b"/>
    <rect id="Rectángulo_90628" data-name="Rectángulo 90628" width="52.163" height="29.686" transform="translate(1141.934 3761.402)" fill="#1bb9db"/>
    <path id="Trazado_263152" data-name="Trazado 263152" d="M7.515,326.837a6.361,6.361,0,0,0,6.361,6.361h92.452a6.361,6.361,0,0,0,6.361-6.361V314.114H7.515Z" transform="translate(1126.998 3494.362)" fill="#b0bec5"/>
    <path id="Trazado_263153" data-name="Trazado 263153" d="M182.415,464.407H140.006a4.241,4.241,0,0,0-4.241,4.241v4.241h50.891v-4.241A4.241,4.241,0,0,0,182.415,464.407Z" transform="translate(1025.89 3375.876)" fill="#e0e0e0"/>
    <rect id="Rectángulo_90629" data-name="Rectángulo 90629" width="29.686" height="12.723" transform="translate(1172.257 3827.561)" fill="#b0bec5"/>
    <rect id="Rectángulo_90630" data-name="Rectángulo 90630" width="6.361" height="6.361" transform="translate(1183.919 3814.838)" fill="#fff"/>
    <rect id="Rectángulo_90631" data-name="Rectángulo 90631" width="52.163" height="4.241" transform="translate(1141.934 3786.848)" fill="#077fa6"/>
    <path id="Trazado_263154" data-name="Trazado 263154" d="M90.888,125.746,78.176,139.357,68.835,130.2,50.6,148.223h50.467V134.44Z" transform="translate(1093.032 3642.866)" fill="#9ccc65"/>
    <path id="Trazado_263155" data-name="Trazado 263155" d="M73.856,183.621,78.176,179l-3.029-2.97-7.093,7.6H54.89L50.6,187.862h50.467v-4.241Z" transform="translate(1093.032 3603.227)" fill="#7cb342"/>
    <rect id="Rectángulo_90632" data-name="Rectángulo 90632" width="25.446" height="25.446" transform="translate(1201.943 3749.952)" fill="#f44336"/>
    <path id="Trazado_263156" data-name="Trazado 263156" d="M374.7,77.943l-8.482,5.3v-10.6Z" transform="translate(844.21 3684.731)" fill="#fff"/>
    <path id="Trazado_263157" data-name="Trazado 263157" d="M372.47,187.867H346.176v13.995h5.513v5.513l6.786-5.513H372.47Z" transform="translate(860.008 3593.892)" fill="#c45e9a"/>
    <rect id="Rectángulo_90633" data-name="Rectángulo 90633" width="50.891" height="4.241" transform="translate(1161.655 3844.524)" fill="#bdbdbd"/>
    <rect id="Rectángulo_90634" data-name="Rectángulo 90634" width="29.686" height="4.241" transform="translate(1172.257 3827.561)" fill="#90a4ae"/>
    <path id="Trazado_263158" data-name="Trazado 263158" d="M100.4,9.754H96.057V6.361H79.093V0H29.262V9.754H7.952A7.961,7.961,0,0,0,0,17.706V79.2a7.961,7.961,0,0,0,7.952,7.952H37.744v9.542H32.973a5.838,5.838,0,0,0-5.831,5.831v5.831H81.214v-5.831a5.838,5.838,0,0,0-5.831-5.831H70.611V87.151H100.4a7.961,7.961,0,0,0,7.952-7.952V17.706A7.961,7.961,0,0,0,100.4,9.754Zm-7.528-.212V31.807H70.611V9.542ZM59.585,20.993V31.856l-8.712-7.441L38.235,37.946l-9.3-9.114L10.6,46.957V20.993Zm-8.464,7.816,8.464,7.23V47.5H33.666ZM29.314,47.5H14.58L28.949,33.3l7.114,6.975ZM75.382,99.874a2.653,2.653,0,0,1,2.65,2.65v2.65H30.323v-2.65a2.653,2.653,0,0,1,2.65-2.65ZM40.925,96.693V87.151H67.431v9.542ZM105.175,79.2A4.777,4.777,0,0,1,100.4,83.97H7.952A4.777,4.777,0,0,1,3.181,79.2V68.067H105.175V79.2Zm0-14.313H3.181V17.706a4.777,4.777,0,0,1,4.771-4.771H29.262v4.877H7.422V50.679H29.262V56.4H24.491v3.181H68.385V56.4H32.443V50.679H62.766V17.812H32.443V3.181H75.912V6.361H67.431V34.987h8.482v3.181H71.671V55.344h5.513v7.264l8.94-7.264h15.021V38.168H79.093V34.987H96.057V12.935H100.4a4.777,4.777,0,0,1,4.771,4.771v47.18ZM74.852,52.163V41.349H97.965V52.163H85l-4.631,3.762V52.163H74.852Z" transform="translate(1132.922 3742)"/>
    <path id="Trazado_263159" data-name="Trazado 263159" d="M243,336.658h-9.542V346.2H243Zm-3.181,6.361h-3.181v-3.181h3.181Z" transform="translate(948.873 3476.59)"/>
    <path id="Trazado_263160" data-name="Trazado 263160" d="M358.7,59.083V75.424l13.073-8.17Zm3.181,5.739,3.891,2.432-3.891,2.432Z" transform="translate(850.134 3695.421)"/>
    <g id="Grupo_156750" data-name="Grupo 156750" transform="translate(1146.811 3751.754)">
      <rect id="Rectángulo_90635" data-name="Rectángulo 90635" width="3.181" height="3.181" transform="translate(4.241 46.65)" fill="#fff"/>
      <path id="Trazado_263161" data-name="Trazado 263161" d="M213.042,49.271h-6.149V46.09h6.149Zm-9.33,0H188.869V46.09h14.843Z" transform="translate(-162.787 -46.09)" fill="#fff"/>
      <path id="Trazado_263162" data-name="Trazado 263162" d="M76.23,117.4H71.989v-3.181H76.23Zm-7.422,0H65.628v-3.181h3.181V117.4Z" transform="translate(-65.628 -99.804)" fill="#fff"/>
      <path id="Trazado_263163" data-name="Trazado 263163" d="M203.073,168.491l-2.325-2.171L202.919,164l2.325,2.171Zm4.342-4.649-2.325-2.171,4.564-4.887,2.325,2.171Z" transform="translate(-172.152 -133.358)" fill="#fff"/>
      <path id="Trazado_263164" data-name="Trazado 263164" d="M385.183,216.6H382v-3.181h3.181Zm-6.361,0h-10.6v-3.181h10.6Z" transform="translate(-304.181 -178.005)" fill="#fff"/>
    </g>
  </g>
</svg>
