<svg xmlns="http://www.w3.org/2000/svg" width="139.935" height="99.925" viewBox="0 0 139.935 99.925">
  <g id="Grupo_156206" data-name="Grupo 156206" transform="translate(-311 -1399.7)">
    <g id="Grupo_117447" data-name="Grupo 117447" transform="translate(-3336.279 2024.909)" opacity="0.3">
      <path id="Trazado_158283" data-name="Trazado 158283" d="M3677.784-530.075h0a16.354,16.354,0,0,0,23.129,0l67.216-67.214a16.357,16.357,0,0,0,0-23.129,16.355,16.355,0,0,0-23.129,0L3677.784-553.2A16.353,16.353,0,0,0,3677.784-530.075Z" transform="translate(14.296)" fill="#fc4b52"/>
      <path id="Trazado_158284" data-name="Trazado 158284" d="M3652.069-530.075h0a16.354,16.354,0,0,0,23.129,0l67.216-67.214a16.358,16.358,0,0,0,0-23.129,16.355,16.355,0,0,0-23.129,0L3652.069-553.2A16.354,16.354,0,0,0,3652.069-530.075Z" transform="translate(0)" fill="#feca2e"/>
    </g>
    <g id="viajar" transform="translate(353.028 1417.701)">
      <path id="Trazado_256303" data-name="Trazado 256303" d="M264,80.7h27.3V24H264Zm4.2-34.651V28.2h18.9V50.251H268.2Z" transform="translate(-229.349 -20.85)" fill="#a9cb73"/>
      <path id="Trazado_256304" data-name="Trazado 256304" d="M41.6,8H8V68.9H41.6V8ZM22.828,12.358l5.94,3.514-5.177,2.475-4.964-5.009ZM36.343,53.309a11.5,11.5,0,0,1-2.581,7.125h0a11.608,11.608,0,0,1-1.737,1.722c-.074.059-.151.112-.226.169-.24.184-.486.361-.741.526-.107.069-.218.133-.329.2q-.348.209-.71.4c-.128.065-.258.127-.39.188q-.353.162-.716.3c-.143.055-.285.108-.429.158-.246.083-.5.153-.748.219-.147.039-.292.081-.441.113-.274.061-.554.1-.836.145-.131.019-.26.045-.394.06a11.094,11.094,0,0,1-2.532,0c-.133-.015-.261-.041-.394-.06-.281-.041-.562-.085-.836-.145-.149-.033-.294-.075-.441-.113-.252-.066-.5-.137-.748-.219-.145-.049-.287-.1-.429-.158q-.364-.139-.716-.3c-.131-.061-.261-.123-.39-.188-.243-.123-.478-.256-.71-.4-.11-.066-.221-.13-.329-.2-.255-.165-.5-.342-.741-.526-.075-.058-.152-.11-.226-.169a11.658,11.658,0,0,1-1.737-1.722h0a11.5,11.5,0,0,1-2.581-7.125c0-.053-.007-.1-.007-.158a11.491,11.491,0,0,1,2.46-7.111h0a11.6,11.6,0,0,1,2.81-2.576c.03-.02.062-.037.092-.056q.461-.293.95-.544c.09-.046.183-.088.274-.132.273-.13.552-.251.837-.36.121-.046.243-.091.365-.133.268-.092.54-.172.815-.245.137-.036.271-.074.408-.105.286-.064.576-.112.87-.154.128-.019.253-.044.382-.059a10.954,10.954,0,0,1,2.569,0c.129.015.255.04.382.059.293.042.585.09.87.154.138.032.272.069.408.105.276.072.548.153.815.245.123.043.245.087.365.133.285.109.563.23.837.36.091.044.184.086.274.132q.49.25.95.544l.092.056a11.6,11.6,0,0,1,2.81,2.576h0a11.486,11.486,0,0,1,2.461,7.111C36.351,53.205,36.344,53.257,36.343,53.309Zm.312-36.866L30.43,19.55,29,24.8l-4.2,2.1.379-5.25L19.55,24.8H16.4l-3.15-6.3,5.629,2.1,14.886-7.118a1.049,1.049,0,0,1,.957.026l1.967,1.074A1.05,1.05,0,0,1,36.655,16.443Z" transform="translate(-6.95 -6.95)" fill="#eaeaea"/>
      <g id="Grupo_156202" data-name="Grupo 156202" transform="translate(6.3 5.408)">
        <path id="Trazado_256305" data-name="Trazado 256305" d="M71.439,50.184,69.472,49.11a1.053,1.053,0,0,0-.957-.026L53.629,56.2,48,54.1l3.15,6.3H54.3l5.629-3.15L59.55,62.5l4.2-2.1,1.429-5.25L71.4,52.045A1.05,1.05,0,0,0,71.439,50.184Z" transform="translate(-48 -47.96)" fill="#f4cd57"/>
        <path id="Trazado_256306" data-name="Trazado 256306" d="M99.108,44.714,93.168,41.2l-4.2.981,4.964,5.009Z" transform="translate(-83.591 -41.2)" fill="#f4cd57"/>
      </g>
      <path id="Trazado_256307" data-name="Trazado 256307" d="M68.64,268.44a11.6,11.6,0,0,0-2.81-2.576c-.03-.02-.062-.037-.092-.056q-.461-.293-.95-.544c-.09-.046-.183-.088-.274-.132-.273-.13-.552-.251-.837-.36-.121-.046-.243-.091-.365-.133-.268-.092-.54-.172-.815-.245-.137-.036-.271-.074-.408-.105-.286-.064-.576-.112-.87-.154-.128-.019-.253-.044-.382-.059a10.946,10.946,0,0,0-2.568,0c-.129.015-.255.04-.382.059-.293.042-.585.09-.87.154-.138.031-.272.069-.408.105-.276.072-.548.153-.815.245-.123.043-.245.087-.365.133-.285.109-.563.23-.837.36-.091.044-.184.086-.274.132q-.49.25-.95.544l-.092.056a11.6,11.6,0,0,0-2.81,2.576h0A11.486,11.486,0,0,0,48,275.55c0,.054.007.105.008.158a11.5,11.5,0,0,0,2.581,7.125h0a11.607,11.607,0,0,0,1.737,1.722c.074.059.151.112.226.169.24.184.486.361.741.526.107.069.218.133.329.2q.348.21.71.4c.128.065.258.127.39.188q.353.162.716.3c.143.055.285.108.429.158.246.083.5.153.748.219.147.039.292.081.441.113.274.061.554.1.836.145.131.019.26.045.394.06a11.094,11.094,0,0,0,2.532,0c.133-.015.261-.041.394-.06.281-.041.562-.085.836-.145.149-.033.294-.075.441-.113.252-.066.5-.136.748-.219.145-.049.287-.1.429-.158q.364-.139.716-.3c.131-.061.261-.123.39-.188.243-.123.478-.256.71-.4.11-.066.221-.13.329-.2.255-.165.5-.342.741-.526.075-.058.152-.11.226-.169a11.656,11.656,0,0,0,1.737-1.722h0a11.5,11.5,0,0,0,2.581-7.125c0-.052.007-.1.007-.158a11.486,11.486,0,0,0-2.461-7.111Z" transform="translate(-41.7 -229.349)" fill="#a9cb73"/>
      <g id="Grupo_156203" data-name="Grupo 156203" transform="translate(38.852 7.35)">
        <path id="Trazado_256308" data-name="Trazado 256308" d="M314.9,192H296v4.2h18.9Z" transform="translate(-296 -174.149)" fill="#eaeaea"/>
        <path id="Trazado_256309" data-name="Trazado 256309" d="M304.4,73.851l5.25-8.4,5.25,8.4V56H296V73.851l4.2-6.3Zm0-13.651a2.1,2.1,0,1,1-2.1,2.1A2.1,2.1,0,0,1,304.4,60.2Z" transform="translate(-296 -56)" fill="#eaeaea"/>
      </g>
      <g id="Grupo_156204" data-name="Grupo 156204" transform="translate(38.852 16.801)">
        <path id="Trazado_256310" data-name="Trazado 256310" d="M300.2,144l-4.2,6.3h8.4Z" transform="translate(-296 -141.9)" fill="#a9cb73"/>
        <path id="Trazado_256311" data-name="Trazado 256311" d="M360,136.4h10.5l-5.25-8.4Z" transform="translate(-351.6 -128)" fill="#a9cb73"/>
      </g>
      <circle id="Elipse_5705" data-name="Elipse 5705" cx="2.119" cy="2.119" r="2.119" transform="translate(44.993 11.622)" fill="#f4cd57"/>
      <g id="Grupo_156205" data-name="Grupo 156205">
        <path id="Trazado_256312" data-name="Trazado 256312" d="M43.266,47.164a1.051,1.051,0,0,0,.94.581h3.15a1.053,1.053,0,0,0,.512-.133l3.929-2.2-.239,3.306a1.051,1.051,0,0,0,1.517,1.016l4.2-2.1a1.052,1.052,0,0,0,.544-.664l1.306-4.8,5.8-2.9A2.1,2.1,0,0,0,65,35.554l-1.966-1.073a2.105,2.105,0,0,0-1.913-.053l-4.493,2.148-5.458-3.229a1.045,1.045,0,0,0-.773-.119l-4.2.981a1.05,1.05,0,0,0-.508,1.761l3.924,3.96-2.977,1.424-5.21-1.945a1.05,1.05,0,0,0-1.306,1.453ZM48.5,35.827l1.96-.458,3.884,2.3-2.727,1.3Zm-2.183,7.651a1.055,1.055,0,0,0,.82-.036l4.71-2.252h0l5.177-2.475a0,0,0,0,0,0,0l5-2.389L63.99,37.4l-6.225,3.107a1.049,1.049,0,0,0-.544.664l-1.306,4.8-2.131,1.066.247-3.411a1.049,1.049,0,0,0-.484-.962,1.038,1.038,0,0,0-.563-.166,1.048,1.048,0,0,0-.512.133l-5.391,3.017H44.854L43.187,42.31Z" transform="translate(-34.755 -28.844)" fill="#2d2d2d"/>
        <path id="Trazado_256313" data-name="Trazado 256313" d="M62.532,260.873c-.007-.009-.007-.022-.015-.03s-.038-.041-.056-.063a12.688,12.688,0,0,0-.866-.987c-.016-.016-.029-.034-.044-.049a12.763,12.763,0,0,0-1-.906c-.12-.1-.247-.184-.37-.276-.222-.168-.444-.335-.677-.488-.174-.115-.355-.219-.536-.326s-.392-.228-.593-.333-.392-.2-.591-.286-.411-.178-.621-.26-.4-.153-.6-.22c-.23-.077-.465-.142-.7-.2-.19-.05-.378-.105-.571-.147-.278-.061-.563-.1-.848-.146-.159-.023-.315-.056-.475-.072a12.058,12.058,0,0,0-2.733,0c-.16.017-.316.049-.475.072-.286.042-.569.085-.848.146-.193.042-.381.1-.571.147-.236.063-.47.128-.7.2-.2.067-.4.143-.6.22s-.417.168-.621.26-.4.185-.591.286-.4.217-.593.333c-.18.106-.36.21-.536.326-.233.153-.456.32-.677.488-.123.093-.25.179-.37.276a12.948,12.948,0,0,0-1,.906c-.016.016-.029.034-.044.049a12.681,12.681,0,0,0-.866.987c-.018.022-.038.041-.056.063s-.008.021-.015.03a12.536,12.536,0,0,0,.14,15.643c.006.008.007.02.014.028s.027.028.04.044a12.5,12.5,0,0,0,.855.94c.145.145.3.274.452.411.169.152.335.307.511.45s.37.281.558.417c.162.117.322.233.489.342.2.129.4.249.6.365q.261.151.53.29c.2.1.406.2.613.3s.4.169.6.248.395.153.6.219c.233.077.47.14.709.2.184.048.364.1.551.142.282.061.572.1.861.145.15.022.3.052.45.069a12.829,12.829,0,0,0,1.354.075,12.522,12.522,0,0,0,1.352-.076c.151-.016.3-.047.45-.069.29-.042.579-.084.861-.145.186-.04.368-.093.551-.142.238-.063.477-.126.709-.2.2-.066.4-.143.6-.219s.406-.159.6-.248.412-.192.613-.3q.269-.139.53-.29c.2-.118.4-.237.6-.365.167-.109.328-.226.489-.342.188-.137.376-.27.558-.417s.342-.3.511-.451c.151-.136.307-.266.452-.411a12.7,12.7,0,0,0,.855-.94c.013-.016.027-.028.04-.044s.007-.02.014-.028a12.535,12.535,0,0,0,.142-15.642Zm-1.305,13.7a17.461,17.461,0,0,0-1.935-.693,20.2,20.2,0,0,0,.626-4.072h3.109A10.445,10.445,0,0,1,61.227,274.573Zm-1.772,1.965c-.087.076-.173.153-.264.226-.179.145-.363.28-.551.413-.083.059-.164.119-.248.175-.2.131-.4.252-.607.37l-.114.065a12.845,12.845,0,0,0,.96-1.9c.391.114.782.227,1.147.363C59.67,276.345,59.564,276.443,59.454,276.538Zm-12.645.814c-.084-.056-.166-.117-.248-.175-.188-.132-.373-.269-.551-.413-.089-.072-.176-.15-.264-.226-.109-.095-.215-.193-.321-.292.363-.137.756-.249,1.147-.363a12.793,12.793,0,0,0,.96,1.9c-.039-.021-.077-.044-.114-.065C47.211,277.6,47.007,277.482,46.81,277.352Zm-4.634-7.543h3.109a20.2,20.2,0,0,0,.626,4.072,17.172,17.172,0,0,0-1.935.693A10.421,10.421,0,0,1,42.176,269.808Zm1.657-6.969a15.223,15.223,0,0,0,2,.765,20.69,20.69,0,0,0-.557,4.1H42.145A10.415,10.415,0,0,1,43.833,262.839Zm2.461-2.614c.153-.117.3-.236.463-.343.207-.139.422-.265.638-.389.047-.027.092-.058.14-.083a13.006,13.006,0,0,0-1.076,2.187c-.438-.134-.86-.279-1.251-.441.24-.24.491-.466.752-.68C46.067,260.387,46.183,260.309,46.294,260.225Zm12.15-.343c.159.107.31.227.463.343.111.084.227.163.335.251.259.214.511.44.752.68-.39.163-.813.307-1.251.441a13.005,13.005,0,0,0-1.076-2.187c.047.026.092.057.14.083C58.022,259.617,58.238,259.743,58.444,259.882Zm-6.894,2.553a22.431,22.431,0,0,1-3.034-.338,6.6,6.6,0,0,1,3.034-3.775Zm0,2.1v3.177H47.373a18.731,18.731,0,0,1,.506-3.6A24.213,24.213,0,0,0,51.55,264.531Zm0,5.278v3.176a24.654,24.654,0,0,0-3.6.4,18.429,18.429,0,0,1-.563-3.581Zm0,5.292v3.779A6.35,6.35,0,0,1,48.64,275.4,22.765,22.765,0,0,1,51.55,275.1Zm2.1,0a22.764,22.764,0,0,1,2.911.3,6.354,6.354,0,0,1-2.911,3.484Zm0-2.116v-3.176h4.16a18.442,18.442,0,0,1-.563,3.581A24.654,24.654,0,0,0,53.651,272.984Zm0-5.276v-3.177a24.184,24.184,0,0,0,3.67-.421,18.649,18.649,0,0,1,.506,3.6Zm0-5.273v-4.113a6.6,6.6,0,0,1,3.034,3.775A22.6,22.6,0,0,1,53.651,262.435Zm6.275,5.273a20.69,20.69,0,0,0-.557-4.1,14.987,14.987,0,0,0,2-.765,10.431,10.431,0,0,1,1.687,4.87Z" transform="translate(-34.75 -222.399)" fill="#2d2d2d"/>
        <path id="Trazado_256314" data-name="Trazado 256314" d="M61.952,2.1H35.7V1.05A1.05,1.05,0,0,0,34.651,0H1.05A1.05,1.05,0,0,0,0,1.05v60.9A1.05,1.05,0,0,0,1.05,63h33.6a1.05,1.05,0,0,0,1.05-1.05V60.9H61.952A1.05,1.05,0,0,0,63,59.852V3.15A1.05,1.05,0,0,0,61.952,2.1ZM33.6,60.9H2.1V2.1H33.6Zm27.3-2.1H35.7V4.2H60.9Z" fill="#2d2d2d"/>
        <path id="Trazado_256315" data-name="Trazado 256315" d="M35.15,164.2h18.9a1.05,1.05,0,1,1,0,2.1h-6.3a3.154,3.154,0,0,0-3.15,3.15v1.05h2.1v-1.05a1.051,1.051,0,0,1,1.05-1.05h6.3a3.15,3.15,0,0,0,0-6.3H35.15a1.051,1.051,0,0,1-1.05-1.05V160H32v1.05A3.154,3.154,0,0,0,35.15,164.2Z" transform="translate(-27.8 -138.999)" fill="#2d2d2d"/>
        <rect id="Rectángulo_90533" data-name="Rectángulo 90533" width="2.119" height="2.119" transform="translate(4.207 16.919)" fill="#2d2d2d"/>
        <path id="Trazado_256316" data-name="Trazado 256316" d="M339.15,86.3A3.15,3.15,0,1,0,336,83.15,3.154,3.154,0,0,0,339.15,86.3Zm0-4.2a1.05,1.05,0,1,1-1.05,1.05A1.051,1.051,0,0,1,339.15,82.1Z" transform="translate(-291.898 -69.5)" fill="#2d2d2d"/>
        <path id="Trazado_256317" data-name="Trazado 256317" d="M289.05,72.151h18.9A1.05,1.05,0,0,0,309,71.1V49.05a1.05,1.05,0,0,0-1.05-1.05h-18.9A1.05,1.05,0,0,0,288,49.05V71.1A1.05,1.05,0,0,0,289.05,72.151Zm1.05-2.1v-2.1h16.8v2.1Zm.912-4.2,2.238-3.357,2.238,3.357Zm8.332,0,3.356-5.369,3.356,5.369ZM306.9,50.1V63.239l-3.31-5.3a1.092,1.092,0,0,0-1.781,0l-4.388,7.022-3.3-4.947a1.089,1.089,0,0,0-1.747,0L290.1,63.432V50.1Z" transform="translate(-250.199 -41.7)" fill="#2d2d2d"/>
        <rect id="Rectángulo_90534" data-name="Rectángulo 90534" width="19.069" height="2.119" transform="translate(38.637 38.637)" fill="#2d2d2d"/>
        <rect id="Rectángulo_90535" data-name="Rectángulo 90535" width="18.901" height="2.1" transform="translate(38.978 44.102)" fill="#2d2d2d"/>
        <rect id="Rectángulo_90536" data-name="Rectángulo 90536" width="19.069" height="2.119" transform="translate(38.637 49.23)" fill="#2d2d2d"/>
        <rect id="Rectángulo_90537" data-name="Rectángulo 90537" width="2.119" height="2.119" transform="translate(42.874 54.527)" fill="#2d2d2d"/>
        <rect id="Rectángulo_90538" data-name="Rectángulo 90538" width="2.119" height="2.119" transform="translate(47.112 54.527)" fill="#2d2d2d"/>
        <rect id="Rectángulo_90539" data-name="Rectángulo 90539" width="2.119" height="2.119" transform="translate(51.349 54.527)" fill="#2d2d2d"/>
        <rect id="Rectángulo_90540" data-name="Rectángulo 90540" width="12.713" height="2.119" transform="translate(41.815 33.34)" fill="#2d2d2d"/>
      </g>
    </g>
  </g>
</svg>
