<svg id="g2623" xmlns="http://www.w3.org/2000/svg" width="245.961" height="245.961" viewBox="0 0 245.961 245.961">
  <g id="g2629" transform="translate(45.173 102.668)">
    <g id="path2631">
      <path id="Trazado_263625" data-name="Trazado 263625" d="M182.648,353.019H128.264a2.882,2.882,0,0,1-2.578-4.171l7.766-15.533a2.882,2.882,0,0,0-2.578-4.171h-2.61a2.882,2.882,0,0,1-2.578-4.171L144.9,286.548a2.882,2.882,0,0,1,5.156,0l16.749,33.5Z" transform="translate(-125.378 -284.955)" fill="#4fc123"/>
    </g>
  </g>
  <g id="g2633" transform="translate(61.746 102.668)">
    <g id="path2635">
      <path id="Trazado_263626" data-name="Trazado 263626" d="M196.229,320.047l-16.749-33.5a2.882,2.882,0,0,0-5.156,0l-2.946,5.893,13.8,27.6,15.846,32.973h11.049Z" transform="translate(-171.378 -284.956)" fill="#47a920"/>
    </g>
  </g>
  <g id="g2637" transform="translate(55.333 102.668)">
    <g id="path2639">
      <path id="Trazado_263627" data-name="Trazado 263627" d="M177.453,305.268l-9.359-18.719a2.882,2.882,0,0,0-5.156,0l-9.36,18.719Z" transform="translate(-153.578 -284.955)" fill="#a2e62e"/>
    </g>
  </g>
  <g id="g2641" transform="translate(61.746 102.668)">
    <g id="path2643">
      <path id="Trazado_263628" data-name="Trazado 263628" d="M177.791,305.268H188.84l-9.359-18.719a2.882,2.882,0,0,0-5.156,0l-2.946,5.893Z" transform="translate(-171.378 -284.955)" fill="#89d12a"/>
    </g>
  </g>
  <g id="g2645" transform="translate(159.362 102.668)">
    <g id="path2647">
      <path id="Trazado_263629" data-name="Trazado 263629" d="M442.311,353.019h38.54a2.883,2.883,0,0,0,2.578-4.171l-7.767-15.533a2.882,2.882,0,0,1,2.578-4.171h2.61a2.883,2.883,0,0,0,2.578-4.171l-19.212-38.424a2.882,2.882,0,0,0-5.156,0l-16.75,33.5Z" transform="translate(-442.311 -284.955)" fill="#4fc123"/>
    </g>
  </g>
  <g id="g2649" transform="translate(173.166 102.668)">
    <g id="path2651">
      <path id="Trazado_263630" data-name="Trazado 263630" d="M500.171,333.315a2.882,2.882,0,0,1,2.578-4.171h2.61a2.882,2.882,0,0,0,2.578-4.172l-19.212-38.423a2.882,2.882,0,0,0-5.156,0l-2.946,5.893,16.265,32.53a2.882,2.882,0,0,1-2.578,4.172H491.7a2.882,2.882,0,0,0-2.578,4.171l7.767,15.532a2.883,2.883,0,0,1-2.578,4.172h11.049a2.883,2.883,0,0,0,2.578-4.172Z" transform="translate(-480.623 -284.956)" fill="#47a920"/>
    </g>
  </g>
  <g id="g2653" transform="translate(51.354 85.502)">
    <g id="path2655">
      <path id="Trazado_263631" data-name="Trazado 263631" d="M142.533,382.094V343.31a2.885,2.885,0,0,1,.484-1.6L211.761,238.6a2.882,2.882,0,0,1,4.8,0L285.3,341.711a2.879,2.879,0,0,1,.484,1.6v38.784Z" transform="translate(-142.533 -237.312)" fill="#60b8fe"/>
    </g>
  </g>
  <g id="g2657" transform="translate(91.146 144.45)">
    <g id="path2659">
      <path id="Trazado_263632" data-name="Trazado 263632" d="M282.1,402.818l-29.125,80.094h63.668L287.52,402.818a2.882,2.882,0,0,0-5.417,0" transform="translate(-252.978 -400.921)" fill="#685e68"/>
    </g>
  </g>
  <g id="g2661" transform="translate(117.456 144.45)">
    <g id="path2663">
      <path id="Trazado_263633" data-name="Trazado 263633" d="M334.233,402.818a2.882,2.882,0,0,0-5.417,0L326,410.562l26.309,72.351h11.049Z" transform="translate(-326 -400.921)" fill="#554e56"/>
    </g>
  </g>
  <g id="g2665" transform="translate(68.334 146.347)">
    <g id="path2667">
      <path id="Trazado_263634" data-name="Trazado 263634" d="M241.6,406.187l-51.225,54.189a2.883,2.883,0,0,0,.131,3.936l21.969,21.969Z" transform="translate(-189.661 -406.187)" fill="#27a5fe"/>
    </g>
  </g>
  <g id="g2669" transform="translate(125.689 146.346)">
    <g id="path2671">
      <path id="Trazado_263635" data-name="Trazado 263635" d="M377.977,486.28l21.969-21.969a2.882,2.882,0,0,0,.131-3.936l-51.225-54.19Z" transform="translate(-348.851 -406.186)" fill="#27a5fe"/>
    </g>
  </g>
  <g id="g2673" transform="translate(166.752 102.668)">
    <g id="path2675">
      <path id="Trazado_263636" data-name="Trazado 263636" d="M486.7,305.268l-9.359-18.719a2.883,2.883,0,0,0-5.156,0l-9.36,18.719Z" transform="translate(-462.822 -284.955)" fill="#a2e62e"/>
    </g>
  </g>
  <g id="g2677" transform="translate(173.165 102.668)">
    <g id="path2679">
      <path id="Trazado_263637" data-name="Trazado 263637" d="M487.035,305.268h11.049l-9.359-18.719a2.883,2.883,0,0,0-5.157,0l-2.946,5.893Z" transform="translate(-480.622 -284.955)" fill="#89d12a"/>
    </g>
  </g>
  <g id="g2681" transform="translate(117.456 85.502)">
    <g id="path2683">
      <path id="Trazado_263638" data-name="Trazado 263638" d="M402.667,341.711,333.923,238.6a2.882,2.882,0,0,0-4.8,0L326,243.284l65.618,98.427a2.882,2.882,0,0,1,.484,1.6v38.784h11.049V343.31a2.881,2.881,0,0,0-.484-1.6" transform="translate(-326 -237.312)" fill="#27a5fe"/>
    </g>
  </g>
  <g id="g2685" transform="translate(11.561 226.441)">
    <g id="path2687">
      <path id="Trazado_263639" data-name="Trazado 263639" d="M35.932,628.489H251.083a3.843,3.843,0,0,1,3.843,3.843v12.073H32.089V632.332a3.843,3.843,0,0,1,3.843-3.843" transform="translate(-32.089 -628.489)" fill="#a2e62e"/>
    </g>
  </g>
  <g id="g2689" transform="translate(219.49 226.441)">
    <g id="path2691">
      <path id="Trazado_263640" data-name="Trazado 263640" d="M620.262,628.489H609.2a3.843,3.843,0,0,1,3.843,3.843v12.073h11.066V632.332a3.843,3.843,0,0,0-3.843-3.843" transform="translate(-609.196 -628.489)" fill="#89d12a"/>
    </g>
  </g>
  <g id="g2693" transform="translate(11.562 3.603)">
    <g id="path2695">
      <path id="Trazado_263641" data-name="Trazado 263641" d="M111.674,41.835a7.958,7.958,0,0,1,7.957,7.806,8.128,8.128,0,0,1-8.165,8.111H44.3a12.154,12.154,0,0,1-12.2-12.168A11.938,11.938,0,0,1,44.027,33.877h1.1a2.883,2.883,0,0,0,2.882-2.882V26.232A16.167,16.167,0,0,1,64.233,10,15.917,15.917,0,0,1,79.84,25.918a.271.271,0,0,0,.06.154.944.944,0,0,0,1.058.311,8.834,8.834,0,0,1,3.217-.46A12.042,12.042,0,0,1,95.757,38.017v.935a2.882,2.882,0,0,0,2.882,2.882Z" transform="translate(-32.089 -10.001)" fill="#c8effe"/>
    </g>
  </g>
  <g id="g2697" transform="translate(146.856 11.561)">
    <g id="path2699">
      <path id="Trazado_263642" data-name="Trazado 263642" d="M415.559,63.923a7.958,7.958,0,0,0-7.957,7.806,8.128,8.128,0,0,0,8.165,8.111h67.17a12.154,12.154,0,0,0,12.2-12.168,11.938,11.938,0,0,0-11.935-11.707h-1.1a2.883,2.883,0,0,1-2.882-2.882V48.32A16.167,16.167,0,0,0,463,32.092a15.916,15.916,0,0,0-15.607,15.914.274.274,0,0,1-.06.154.945.945,0,0,1-1.058.311,8.828,8.828,0,0,0-3.218-.46,12.041,12.041,0,0,0-11.582,12.094v.935a2.882,2.882,0,0,1-2.882,2.882Z" transform="translate(-407.601 -32.089)" fill="#badefc"/>
    </g>
  </g>
  <g id="g2701" transform="translate(146.856 11.561)">
    <g id="path2703">
      <path id="Trazado_263643" data-name="Trazado 263643" d="M415.559,63.923a7.958,7.958,0,0,0-7.957,7.806,8.128,8.128,0,0,0,8.165,8.111h67.17a12.154,12.154,0,0,0,12.2-12.168,11.938,11.938,0,0,0-11.935-11.707h-1.1a2.883,2.883,0,0,1-2.882-2.882V48.32A16.167,16.167,0,0,0,463,32.092a15.916,15.916,0,0,0-15.607,15.914.274.274,0,0,1-.06.154.945.945,0,0,1-1.058.311,8.828,8.828,0,0,0-3.218-.46,12.041,12.041,0,0,0-11.582,12.094v.935a2.882,2.882,0,0,1-2.882,2.882Z" transform="translate(-407.601 -32.089)" fill="#c8effe"/>
    </g>
  </g>
  <g id="g2705" transform="translate(196.985 11.562)">
    <g id="path2707">
      <path id="Trazado_263644" data-name="Trazado 263644" d="M572.211,55.965h-1.1a2.883,2.883,0,0,1-2.882-2.882V48.321A16.168,16.168,0,0,0,552,32.092a15.879,15.879,0,0,0-5.27,1,16.35,16.35,0,0,1,10.448,15.224v4.762a2.882,2.882,0,0,0,2.882,2.882h1.1A11.938,11.938,0,0,1,573.1,67.672a12.154,12.154,0,0,1-12.2,12.168h11.049a12.154,12.154,0,0,0,12.2-12.168,11.937,11.937,0,0,0-11.935-11.707" transform="translate(-546.735 -32.089)" fill="#99e2fc"/>
    </g>
  </g>
  <g id="g2709" transform="translate(37.926 3.603)">
    <g id="path2711">
      <path id="Trazado_263645" data-name="Trazado 263645" d="M115.6,25.917a.275.275,0,0,0,.06.154.944.944,0,0,0,1.058.311,8.812,8.812,0,0,1,3.217-.46,12.04,12.04,0,0,1,11.582,12.094v.935a2.882,2.882,0,0,0,2.882,2.882H145.45a2.882,2.882,0,0,1-2.882-2.882v-.935a12.041,12.041,0,0,0-11.582-12.094,8.81,8.81,0,0,0-3.217.46.943.943,0,0,1-1.058-.311.276.276,0,0,1-.06-.154A15.917,15.917,0,0,0,111.044,10a15.415,15.415,0,0,0-5.78,1.005A15.922,15.922,0,0,1,115.6,25.917" transform="translate(-105.264 -10)" fill="#99e2fc"/>
    </g>
  </g>
  <g id="g2713" transform="translate(79.889 35.437)">
    <g id="path2715">
      <path id="Trazado_263646" data-name="Trazado 263646" d="M232.99,98.356H221.941a7.958,7.958,0,0,1,7.957,7.806,8.128,8.128,0,0,1-8.165,8.111h11.049a8.128,8.128,0,0,0,8.165-8.111,7.958,7.958,0,0,0-7.957-7.806" transform="translate(-221.733 -98.356)" fill="#99e2fc"/>
    </g>
  </g>
  <g id="g2717" transform="translate(7.959 222.838)">
    <g id="path2719">
      <path id="Trazado_263647" data-name="Trazado 263647" d="M248.53,641.612a3.6,3.6,0,0,1-3.6-3.6V625.935a.241.241,0,0,0-.24-.24H29.535a.241.241,0,0,0-.24.24v12.074a3.6,3.6,0,0,1-7.206,0V625.935a7.455,7.455,0,0,1,7.446-7.446H244.686a7.455,7.455,0,0,1,7.446,7.446v12.074A3.6,3.6,0,0,1,248.53,641.612Z" transform="translate(-22.089 -618.489)"/>
    </g>
  </g>
  <g id="g2721" transform="translate(0 238.755)">
    <g id="path2723">
      <path id="Trazado_263648" data-name="Trazado 263648" d="M53.612,669.873H3.6a3.6,3.6,0,1,1,0-7.206H53.612a3.6,3.6,0,1,1,0,7.206Z" transform="translate(0 -662.667)"/>
    </g>
  </g>
  <g id="g2725" transform="translate(64.421 238.755)">
    <g id="path2727">
      <path id="Trazado_263649" data-name="Trazado 263649" d="M356.738,669.873H182.4a3.6,3.6,0,1,1,0-7.206H356.738a3.6,3.6,0,1,1,0,7.206Z" transform="translate(-178.801 -662.667)"/>
    </g>
  </g>
  <g id="g2729" transform="translate(7.958)">
    <g id="path2731">
      <path id="Trazado_263650" data-name="Trazado 263650" d="M105.276,54.957H37.629a15.54,15.54,0,1,1,0-31.081h.377V19.52a19.521,19.521,0,0,1,38.709-3.587q.352-.016.707-.016A15.558,15.558,0,0,1,92.962,31.458v.376h12.314a11.561,11.561,0,0,1,0,23.123ZM37.629,31.082a8.335,8.335,0,1,0,0,16.669h67.647a4.356,4.356,0,0,0,0-8.711H89.359a3.6,3.6,0,0,1-3.6-3.6V31.458A8.338,8.338,0,0,0,74.631,23.6a3.6,3.6,0,0,1-4.806-3.547c.008-.178.014-.356.014-.535a12.314,12.314,0,1,0-24.628,0v7.959a3.6,3.6,0,0,1-3.6,3.6Z" transform="translate(-22.088)"/>
    </g>
  </g>
  <g id="g2733" transform="translate(23.876 23.876)">
    <g id="path2735">
      <path id="Trazado_263651" data-name="Trazado 263651" d="M81.808,73.473H69.87a3.6,3.6,0,0,1,0-7.206H81.808a3.6,3.6,0,0,1,0,7.206Z" transform="translate(-66.267 -66.267)"/>
    </g>
  </g>
  <g id="g2737" transform="translate(143.253 7.959)">
    <g id="path2739">
      <path id="Trazado_263652" data-name="Trazado 263652" d="M476.809,77.046H409.162a11.561,11.561,0,0,1,0-23.123h12.314v-.377a15.558,15.558,0,0,1,15.541-15.54c.236,0,.472.005.707.016a19.521,19.521,0,0,1,38.709,3.587v4.355h.376a15.541,15.541,0,1,1,0,31.081ZM409.162,61.129a4.355,4.355,0,0,0,0,8.711h67.647a8.335,8.335,0,1,0,0-16.67H472.83a3.6,3.6,0,0,1-3.6-3.6V41.609a12.314,12.314,0,1,0-24.628,0c0,.18.006.359.014.537a3.6,3.6,0,0,1-4.805,3.545,8.339,8.339,0,0,0-11.126,7.854v3.98a3.6,3.6,0,0,1-3.6,3.6Z" transform="translate(-397.601 -22.089)"/>
    </g>
  </g>
  <g id="g2741" transform="translate(202.942 31.834)">
    <g id="path2743">
      <path id="Trazado_263653" data-name="Trazado 263653" d="M578.808,95.561H566.87a3.6,3.6,0,1,1,0-7.206h11.938a3.6,3.6,0,0,1,0,7.206Z" transform="translate(-563.267 -88.355)"/>
    </g>
  </g>
  <g id="g2745" transform="translate(23.875 79.585)">
    <g id="path2747">
      <path id="Trazado_263654" data-name="Trazado 263654" d="M260.876,371.348a3.6,3.6,0,0,1-3-1.6l-92.5-138.756-92.5,138.756a3.6,3.6,0,1,1-6-4l95.5-143.253a3.6,3.6,0,0,1,6,0l95.5,143.253a3.6,3.6,0,0,1-2.995,5.6Z" transform="translate(-66.266 -220.889)"/>
    </g>
  </g>
  <g id="g2749" transform="translate(39.793 95.502)">
    <g id="path2751">
      <path id="Trazado_263655" data-name="Trazado 263655" d="M135.271,343.9H114.048a3.6,3.6,0,0,1-3.223-5.214l9.33-18.661h-6.107a3.6,3.6,0,0,1-3.223-5.214L134.7,267.059a3.6,3.6,0,0,1,6.445,0l19.327,38.653a3.6,3.6,0,1,1-6.445,3.222l-16.1-32.208-18.046,36.092h6.108a3.6,3.6,0,0,1,3.222,5.214l-9.33,18.661h15.393a3.6,3.6,0,0,1,0,7.206Z" transform="translate(-110.445 -265.067)"/>
    </g>
  </g>
  <g id="g2753" transform="translate(51.73 95.502)">
    <g id="path2755">
      <path id="Trazado_263656" data-name="Trazado 263656" d="M171.056,296.148H147.181a3.6,3.6,0,0,1-3.223-5.214L155.9,267.059a3.6,3.6,0,0,1,6.445,0l11.938,23.875a3.6,3.6,0,0,1-3.223,5.214Zm-18.046-7.206h12.216l-6.108-12.216Z" transform="translate(-143.577 -265.067)"/>
    </g>
  </g>
  <g id="g2757" transform="translate(155.758 95.502)">
    <g id="path2759">
      <path id="Trazado_263657" data-name="Trazado 263657" d="M479.116,343.9H457.893a3.6,3.6,0,0,1,0-7.206h15.394l-9.33-18.661a3.6,3.6,0,0,1,3.223-5.214h6.107l-18.045-36.092-16.105,32.21a3.6,3.6,0,0,1-6.445-3.222l19.328-38.656a3.6,3.6,0,0,1,6.445,0l23.875,47.751a3.6,3.6,0,0,1-3.222,5.214h-6.108l9.33,18.661a3.6,3.6,0,0,1-3.222,5.214Z" transform="translate(-432.309 -265.066)"/>
    </g>
  </g>
  <g id="g2761" transform="translate(163.149 95.502)">
    <g id="path2763">
      <path id="Trazado_263658" data-name="Trazado 263658" d="M480.3,296.148H456.425a3.6,3.6,0,0,1-3.222-5.214l11.938-23.875a3.6,3.6,0,0,1,3.222-1.992h0a3.6,3.6,0,0,1,3.222,1.992l11.938,23.875a3.6,3.6,0,0,1-3.222,5.214Zm-18.046-7.206h12.216l-6.108-12.216Z" transform="translate(-452.822 -265.067)"/>
    </g>
  </g>
  <g id="g2765" transform="translate(47.751 79.585)">
    <g id="path2767">
      <path id="Trazado_263659" data-name="Trazado 263659" d="M279.389,371.348a3.6,3.6,0,0,1-3.6-3.6V333.022L207.762,230.987,139.739,333.022v34.723a3.6,3.6,0,0,1-7.206,0V331.932a3.6,3.6,0,0,1,.605-2l71.626-107.44a3.6,3.6,0,0,1,6,0l71.626,107.44a3.6,3.6,0,0,1,.605,2v35.813A3.6,3.6,0,0,1,279.389,371.348Z" transform="translate(-132.533 -220.889)"/>
    </g>
  </g>
  <g id="g2769" transform="translate(119.377 71.626)">
    <g id="path2771">
      <path id="Trazado_263660" data-name="Trazado 263660" d="M334.936,253.757a3.6,3.6,0,0,1-3.6-3.6V202.4a3.6,3.6,0,0,1,7.206,0v47.751A3.6,3.6,0,0,1,334.936,253.757Z" transform="translate(-331.333 -198.8)"/>
    </g>
  </g>
  <g id="g2773" transform="translate(87.543 135.294)">
    <g id="path2775">
      <path id="Trazado_263661" data-name="Trazado 263661" d="M310.249,470.26H246.581a3.6,3.6,0,0,1-3.386-4.834l31.834-87.543a3.6,3.6,0,0,1,6.772,0l31.834,87.543a3.6,3.6,0,0,1-3.386,4.834Zm-58.524-7.206H305.1l-26.69-73.4Z" transform="translate(-242.978 -375.511)"/>
    </g>
  </g>
  <g id="g2777" transform="translate(63.668 135.294)">
    <g id="path2779">
      <path id="Trazado_263662" data-name="Trazado 263662" d="M204.189,470.259a3.6,3.6,0,0,1-2.548-1.055l-23.875-23.876a3.6,3.6,0,0,1-.164-4.92l55.71-63.668a3.6,3.6,0,0,1,6.1,3.6l-31.834,87.543a3.6,3.6,0,0,1-3.386,2.372Zm-18.945-27.642,17.492,17.492,23.322-64.136Z" transform="translate(-176.711 -375.51)"/>
    </g>
  </g>
  <g id="g2781" transform="translate(119.377 135.295)">
    <g id="path2783">
      <path id="Trazado_263663" data-name="Trazado 263663" d="M366.769,470.261a3.6,3.6,0,0,1-3.386-2.372l-31.834-87.543a3.6,3.6,0,0,1,6.1-3.6l55.709,63.668a3.6,3.6,0,0,1-.164,4.92l-23.875,23.876A3.6,3.6,0,0,1,366.769,470.261ZM344.9,395.974l23.323,64.136,17.492-17.492Z" transform="translate(-331.332 -375.512)"/>
    </g>
  </g>
</svg>
